<?xml version="1.0" encoding="utf-8"?>
<!-- Generator: Adobe Illustrator 16.0.0, SVG Export Plug-In . SVG Version: 6.00 Build 0)  -->
<!DOCTYPE svg PUBLIC "-//W3C//DTD SVG 1.1//EN" "http://www.w3.org/Graphics/SVG/1.1/DTD/svg11.dtd">
<svg version="1.1"
	 id="svg60" xmlns:dc="http://purl.org/dc/elements/1.1/" xmlns:cc="http://creativecommons.org/ns#" xmlns:rdf="http://www.w3.org/1999/02/22-rdf-syntax-ns#" xmlns:svg="http://www.w3.org/2000/svg" xmlns:sodipodi="http://sodipodi.sourceforge.net/DTD/sodipodi-0.dtd" xmlns:inkscape="http://www.inkscape.org/namespaces/inkscape" inkscape:version="0.92.4 (5da689c313, 2019-01-14)" sodipodi:docname="account.svg"
	 xmlns="http://www.w3.org/2000/svg" xmlns:xlink="http://www.w3.org/1999/xlink" x="0px" y="0px" width="50px" height="50px"
	 viewBox="0 0 50 50" enable-background="new 0 0 50 50" xml:space="preserve">
<sodipodi:namedview  inkscape:cy="25" inkscape:cx="25" inkscape:zoom="4.72" showgrid="false" guidetolerance="10" gridtolerance="10" objecttolerance="10" bordercolor="#666666" pagecolor="#ffffff" borderopacity="1" id="namedview62" inkscape:current-layer="svg60" inkscape:window-maximized="1" inkscape:window-y="-8" inkscape:window-x="-8" inkscape:window-height="705" inkscape:window-width="1366" inkscape:pageshadow="2" inkscape:pageopacity="0">
	</sodipodi:namedview>
<g id="g1007" transform="matrix(4.52,0,0,4.52,-1.17972,-0.57404)">
	<path id="path6-5" inkscape:connector-curvature="0" opacity="0.309" fill="#E4E4F9" enable-background="new    " d="M5.73,1.54
		c-2.26,0-4.09,1.83-4.09,4.09c0,2.26,1.83,4.09,4.09,4.09c2.26,0,4.09-1.83,4.09-4.09C9.83,3.37,8,1.54,5.73,1.54z"/>
	<g id="g997">
		<path id="path4-7" inkscape:connector-curvature="0" fill="#88CDD7" d="M8.72,1.43c-0.06,0-0.11,0.05-0.11,0.11
			c0,0.06,0.05,0.11,0.11,0.11c0.06,0,0.11-0.05,0.11-0.11C8.83,1.47,8.78,1.43,8.72,1.43z"/>
		<path id="path8" inkscape:connector-curvature="0" fill="#88CDD7" d="M9.38,1.32c-0.24,0-0.44,0.2-0.44,0.44S9.14,2.2,9.38,2.2
			c0.24,0,0.44-0.2,0.44-0.44S9.63,1.32,9.38,1.32z"/>
		<path id="path10" inkscape:connector-curvature="0" fill="#8889B9" d="M9.83,2.53c-0.12,0-0.22,0.1-0.22,0.22
			c0,0.12,0.1,0.22,0.22,0.22c0.12,0,0.22-0.1,0.22-0.22C10.05,2.63,9.95,2.53,9.83,2.53z"/>
		<path id="path12" inkscape:connector-curvature="0" fill="#88CDD7" d="M9.16,8.28c-0.12,0-0.22,0.1-0.22,0.22
			c0,0.12,0.1,0.22,0.22,0.22c0.12,0,0.22-0.1,0.22-0.22C9.38,8.38,9.29,8.28,9.16,8.28z M1.86,6.63c-0.24,0-0.44,0.2-0.44,0.44
			s0.2,0.44,0.44,0.44c0.24,0,0.44-0.2,0.44-0.44S2.11,6.63,1.86,6.63z"/>
		<path id="path14" inkscape:connector-curvature="0" fill="#8889B9" d="M2.97,9.5c-0.12,0-0.22,0.1-0.22,0.22
			c0,0.12,0.1,0.22,0.22,0.22c0.12,0,0.22-0.1,0.22-0.22C3.19,9.6,3.09,9.5,2.97,9.5z"/>
		<path id="path16" inkscape:connector-curvature="0" fill="#FFFFFF" d="M2.25,5.52c-0.15,0-0.28,0.12-0.28,0.28
			c0,0.15,0.12,0.28,0.28,0.28c0.15,0,0.28-0.12,0.28-0.28C2.53,5.64,2.4,5.52,2.25,5.52z M9,3.64c-0.09,0-0.17,0.08-0.17,0.17
			S8.91,3.97,9,3.97c0.09,0,0.17-0.08,0.17-0.17S9.09,3.64,9,3.64z"/>
	</g>
</g>
<path id="path2" inkscape:connector-curvature="0" fill="none" d="M0,50V0h50v50H0z"/>
<path id="path6" inkscape:connector-curvature="0" fill="#472B29" d="M31.33,23.44c-0.06-0.23-0.23-0.4-0.41-0.51
	c-0.02-0.01-0.04-0.02-0.05-0.03c0.01-0.02,0.01-0.03,0.02-0.05c0.06-0.14,0.09-0.29,0.09-0.45v-0.09c0-0.22-0.05-0.42-0.15-0.61
	c-0.06-0.08-0.11-0.16-0.17-0.24c0.03-0.03,0.06-0.06,0.08-0.09c0.1-0.11,0.17-0.24,0.21-0.39c0.06-0.14,0.08-0.29,0.08-0.44v-0.09
	c0-0.21-0.06-0.41-0.16-0.59c-0.06-0.08-0.12-0.16-0.18-0.24c-0.04-0.04-0.09-0.08-0.13-0.11c0.03-0.02,0.06-0.04,0.08-0.07
	c0.17-0.17,0.25-0.42,0.27-0.66c0.01-0.13-0.01-0.25-0.06-0.37c-0.03-0.13-0.09-0.24-0.18-0.33c-0.08-0.1-0.17-0.17-0.28-0.21
	c-0.1-0.06-0.21-0.09-0.32-0.09h-0.08c-0.01,0-0.02,0-0.02,0c0.11-0.24,0.17-0.51,0.14-0.76c-0.07-0.71-0.59-1.1-1.17-1.16
	c0-0.04,0.01-0.07,0.01-0.11c0.04-0.74-0.52-1.5-1.22-1.5c-0.18,0-0.36,0.04-0.53,0.11c-0.15-0.54-0.62-0.85-1.13-0.85
	c-0.16,0-0.31,0.05-0.44,0.14c0,0,0-0.01-0.01-0.02c-0.04-0.07-0.09-0.14-0.13-0.21c-0.15-0.2-0.39-0.3-0.61-0.33
	c-0.13-0.01-0.24,0.01-0.36,0.06c-0.12,0.03-0.22,0.1-0.31,0.19c-0.06,0.06-0.11,0.13-0.15,0.2c-0.04-0.07-0.09-0.14-0.15-0.2
	c-0.09-0.1-0.19-0.16-0.31-0.19c-0.11-0.06-0.23-0.08-0.36-0.06c-0.23,0.03-0.46,0.13-0.62,0.33c-0.04,0.07-0.09,0.14-0.13,0.21
	c0,0.01,0,0.01-0.01,0.02c-0.13-0.09-0.28-0.14-0.44-0.14c-0.51,0-0.99,0.31-1.13,0.85c-0.16-0.07-0.34-0.11-0.53-0.11
	c-0.69,0-1.25,0.75-1.22,1.5c0,0.04,0.01,0.08,0.01,0.11c-0.59,0.05-1.1,0.45-1.17,1.16c-0.02,0.25,0.03,0.52,0.14,0.76
	c-0.01,0-0.02,0-0.02,0h-0.08c-0.12,0-0.22,0.03-0.32,0.09c-0.11,0.04-0.2,0.11-0.28,0.21c-0.09,0.09-0.15,0.21-0.18,0.33
	c-0.05,0.12-0.07,0.24-0.06,0.37c0.02,0.24,0.1,0.5,0.27,0.66c0.03,0.02,0.06,0.04,0.08,0.07c-0.05,0.03-0.09,0.07-0.13,0.11
	c-0.06,0.08-0.12,0.16-0.18,0.24c-0.1,0.18-0.15,0.38-0.16,0.59v0.09c-0.01,0.16,0.02,0.3,0.08,0.44c0.04,0.15,0.11,0.28,0.21,0.39
	c0.03,0.03,0.05,0.06,0.08,0.09c-0.06,0.08-0.11,0.16-0.17,0.24c-0.1,0.19-0.15,0.39-0.15,0.61v0.09c-0.01,0.16,0.02,0.31,0.09,0.45
	c0,0.02,0.01,0.03,0.02,0.05c-0.02,0.01-0.04,0.02-0.05,0.03c-0.18,0.11-0.35,0.28-0.41,0.51c-0.06,0.22-0.06,0.45,0.03,0.66
	c0.03,0.06,0.05,0.12,0.08,0.17c0.09,0.21,0.26,0.38,0.46,0.45c0.08,0.04,0.17,0.05,0.25,0.04c0.01,0.06,0.03,0.13,0.07,0.18
	c0.04,0.1,0.09,0.19,0.17,0.26c0.07,0.07,0.15,0.12,0.24,0.15c0.09,0.04,0.18,0.06,0.28,0.05c0.02,0,0.04-0.01,0.06-0.01
	c-0.08,0.15-0.13,0.33-0.13,0.51V26c0,0.14,0.02,0.27,0.08,0.39c0.04,0.13,0.1,0.23,0.19,0.32c0.08,0.1,0.18,0.16,0.29,0.2
	c0.1,0.06,0.22,0.09,0.34,0.08c0.08-0.01,0.16-0.03,0.24-0.04c0.02-0.01,0.05-0.02,0.07-0.03c0,0.09,0.02,0.17,0.05,0.25
	c0.03,0.15,0.08,0.28,0.17,0.39c0.08,0.13,0.19,0.22,0.31,0.28c0.12,0.09,0.25,0.14,0.39,0.15c0.09,0,0.18,0,0.27-0.01
	c0.08-0.01,0.15-0.04,0.22-0.07c0.03,0.07,0.06,0.13,0.11,0.19c0.07,0.11,0.16,0.19,0.27,0.24c0.1,0.08,0.22,0.12,0.34,0.13
	c0.08,0,0.16-0.01,0.24-0.01c0.11-0.02,0.21-0.06,0.31-0.13c0.21,0.37,0.56,0.64,1.07,0.64c0.34,0,0.61-0.12,0.81-0.32
	c0.2,0.19,0.46,0.32,0.8,0.32c0.51,0,0.87-0.27,1.07-0.64c0.09,0.06,0.2,0.11,0.31,0.13c0.08,0,0.16,0.01,0.24,0.01
	c0.13-0.01,0.24-0.05,0.34-0.12c0.11-0.05,0.2-0.13,0.27-0.24c0.05-0.06,0.08-0.12,0.11-0.19c0.07,0.03,0.14,0.05,0.22,0.07
	c0.09,0,0.18,0,0.27,0.01c0.14-0.01,0.27-0.06,0.39-0.15c0.13-0.06,0.23-0.16,0.31-0.28c0.09-0.12,0.14-0.25,0.17-0.39
	c0.03-0.08,0.04-0.17,0.05-0.25c0.02,0.01,0.04,0.02,0.07,0.03c0.08,0.01,0.16,0.02,0.24,0.04c0.12,0.01,0.23-0.02,0.34-0.08
	c0.11-0.04,0.21-0.11,0.29-0.2c0.09-0.09,0.15-0.2,0.19-0.32c0.06-0.12,0.08-0.25,0.08-0.39v-0.09c0-0.19-0.05-0.36-0.13-0.52
	c0.02,0,0.04,0.01,0.06,0.01c0.1,0.01,0.19-0.01,0.28-0.05c0.09-0.03,0.17-0.08,0.24-0.15c0.08-0.07,0.13-0.15,0.17-0.26
	c0.03-0.06,0.05-0.12,0.07-0.18c0.08,0.01,0.17-0.01,0.25-0.04c0.2-0.08,0.37-0.25,0.46-0.45c0.03-0.06,0.05-0.12,0.08-0.17
	C31.39,23.89,31.38,23.66,31.33,23.44z"/>
<path id="path20" inkscape:connector-curvature="0" fill="#895F3F" d="M33.98,35.7c-0.2-1.07-0.64-1.7-1.67-2.01
	c-0.04-0.01-0.11-0.04-0.17-0.06c-0.08-0.03-0.18-0.07-0.29-0.12c-0.62-0.26-4.34-1.63-4.34-1.63c-0.31-0.08-0.5-0.3-0.62-0.54
	c-0.19-0.41-0.12-1.46-0.12-1.46s-1.55,0.53-2.52,0.71c-0.95,0.09-2.99-1.14-2.99-1.14s-0.05,1.52-0.11,1.86
	c-0.05,0.26-0.34,0.49-0.64,0.57l-3.56,1.29c-0.39,0.1-0.77,0.25-1.1,0.46c-0.9,0.55-1.35,1.38-1.58,2.08c0,0-0.23,1.66-0.22,1.72
	c-0.02,0.23-0.05,0.49-0.07,0.76c3.88,2.63,7,3.37,12.35,3.13c2.43-0.11,6.05-1.31,7.95-2.26C34.16,36.93,33.98,35.7,33.98,35.7z"/>
<path id="path22" inkscape:connector-curvature="0" fill="#68C8D0" d="M32.31,33.71c-0.04-0.01-0.11-0.04-0.17-0.06
	c-0.08-0.03-0.18-0.07-0.29-0.12c-0.39-0.16-1.95-0.75-3.09-1.17l-0.05-0.01c-1.26,0.64-3.05,1.61-4.69,1.61s-3.29-0.88-4.69-1.61
	l-0.16,0.04l-2.22,0.8c-0.39,0.1-0.77,0.25-1.1,0.46c-0.9,0.55-1.35,1.38-1.58,2.08c0,0-0.23,1.66-0.22,1.72
	c-0.02,0.23-0.05,2.72-0.07,2.99c3.88,2.63,7,3.37,12.35,3.13c2.43-0.11,6.05-1.31,7.95-2.26c-0.1-2.11-0.28-5.57-0.28-5.57
	C33.78,34.65,33.34,34.02,32.31,33.71z"/>
<path id="path24" inkscape:connector-curvature="0" fill="#00A5A5" d="M17.37,42.54c-0.08,0-0.15-0.07-0.15-0.15v-1.97
	c0-0.08,0.07-0.15,0.15-0.15s0.15,0.07,0.15,0.15v1.97C17.52,42.48,17.46,42.54,17.37,42.54z M30.54,42.89
	c-0.08,0-0.15-0.07-0.15-0.15v-2.32c0-0.08,0.07-0.15,0.15-0.15s0.15,0.07,0.15,0.15v2.32C30.69,42.83,30.62,42.89,30.54,42.89
	L30.54,42.89z"/>
<path id="path26" inkscape:connector-curvature="0" fill="#A3754F" d="M30.13,22.44c-0.06,0-0.12,0-0.18,0
	c-0.48-0.02-0.62,0.17-0.6-0.13c0.04-0.53-0.04-2.68-0.04-2.79c0-2.23-2.33-4.05-5.23-4.15v-0.01c-0.02,0-0.04,0-0.06,0
	c-0.02,0-0.04,0-0.06,0v0.01c-2.91,0.1-5.23,1.92-5.23,4.15c0,0.11-0.07,2.26-0.03,2.79c0.02,0.3-0.12,0.11-0.6,0.13
	c-0.06,0-0.12,0-0.18,0c-0.53,0.04-0.96,0.37-1.05,0.79c0.06,0.04,0.31,1.87,0.7,2.59c0.22,0.4,0.56,0.46,0.91,0.72
	c0.19,0.14,0.23,0.31,0.28,0.52c0.2,0.8,0.74,1.47,1.34,2.05c0.29,0.29,2.25,2.37,3.93,2.26c1.69-0.06,3.64-1.98,3.93-2.26
	c0.6-0.58,1.14-1.25,1.34-2.05c0.05-0.21,0.09-0.38,0.28-0.52c0.35-0.26,0.69-0.32,0.91-0.72c0.39-0.72,0.63-2.55,0.7-2.59
	C31.09,22.81,30.66,22.47,30.13,22.44z"/>
<path id="path28" inkscape:connector-curvature="0" fill="#512C2B" d="M24.06,25.97c0.34,0,0.67-0.15,0.89-0.4
	c0.02-0.02,0.02-0.06-0.01-0.08l0,0c-0.02-0.02-0.06-0.02-0.08,0.01c-0.17,0.2-0.46,0.31-0.79,0.31c-0.33,0-0.62-0.11-0.79-0.31
	c-0.01-0.01-0.03-0.02-0.05-0.02c-0.01,0-0.03,0.01-0.04,0.01c-0.03,0.02-0.03,0.06-0.01,0.08C23.38,25.82,23.72,25.97,24.06,25.97
	L24.06,25.97z M22.97,21.35l0.22-0.42c-0.92-0.21-1.97-0.18-2.84,0.09l0.27,0.41C21.33,21.2,22.21,21.17,22.97,21.35z M27.55,21.35
	l0.22-0.42c-0.92-0.21-1.97-0.18-2.84,0.09l0.27,0.41C25.92,21.2,26.8,21.17,27.55,21.35z M21.65,21.94c-0.22,0-0.41,0.15-0.52,0.37
	c0.03-0.01,0.06-0.01,0.09-0.01c0.18,0,0.33,0.16,0.33,0.36s-0.15,0.36-0.33,0.36c-0.06,0-0.11-0.02-0.16-0.05
	c0.08,0.33,0.32,0.57,0.6,0.57c0.35,0,0.63-0.36,0.63-0.8C22.28,22.3,22,21.94,21.65,21.94z M26.44,21.94
	c-0.19,0-0.36,0.11-0.47,0.27c0.04-0.01,0.08-0.02,0.12-0.02c0.18,0,0.33,0.16,0.33,0.36s-0.15,0.36-0.33,0.36
	c-0.11,0-0.21-0.06-0.27-0.16c0.01,0.43,0.29,0.78,0.63,0.78c0.35,0,0.63-0.36,0.63-0.8C27.06,22.3,26.78,21.94,26.44,21.94z
	 M26.7,26.9c0.03-0.02,0.03-0.06,0.01-0.08l0,0c-0.02-0.03-0.06-0.03-0.08-0.01c-0.56,0.45-1.5,0.71-2.57,0.71
	c-1.07,0-2.01-0.26-2.57-0.71c-0.01-0.01-0.02-0.01-0.04-0.01c-0.02,0-0.04,0.01-0.05,0.02c-0.02,0.03-0.02,0.06,0.01,0.08
	c0.64,0.52,1.63,0.83,2.65,0.83C25.08,27.73,26.07,27.42,26.7,26.9z M19.11,20.66c0.23-1.09,0.62-2.14,1.14-3.1
	c-0.16-0.25-0.47-0.31-0.75-0.24c-0.84,1.34-1.03,3.04-1.05,4.23c0.04,0.69,0.15,1.37,0.35,1.98C18.96,22.58,18.9,21.61,19.11,20.66
	z M29,20.66c-0.23-1.09-0.62-2.14-1.14-3.1c0.16-0.25,0.47-0.31,0.76-0.24c0.84,1.34,1.03,3.04,1.05,4.23
	c-0.04,0.69-0.15,1.37-0.35,1.98C29.15,22.58,29.21,21.61,29,20.66z M24.76,29.53c0.03,0,0.06-0.04,0.06-0.08s-0.03-0.08-0.06-0.08
	h-1.29c-0.03,0-0.06,0.04-0.06,0.08s0.03,0.08,0.06,0.08H24.76z"/>
<path id="path30" inkscape:connector-curvature="0" fill="#472B29" d="M24.58,43.92c-4.45,0-7.33-0.89-10.76-3.21
	c-0.08-0.05-0.12-0.14-0.11-0.23c0.01-0.05,0.01-0.24,0.01-0.51c0.02-1.09,0.05-3.36,0.29-4.25c0.33-1.21,0.81-1.68,1.69-2.23
	c0.33-0.2,0.73-0.37,1.17-0.48l3.54-1.29c0.25-0.07,0.45-0.23,0.48-0.38c0.01-0.07,0.04-0.3,0.08-1.02
	c-0.51-0.36-0.93-0.69-1.06-0.81c-0.78-0.76-1.23-1.46-1.4-2.19c-0.05-0.22-0.08-0.3-0.19-0.39c-0.1-0.08-0.21-0.13-0.31-0.19
	c-0.24-0.14-0.49-0.28-0.67-0.62c-0.42-0.78-0.73-2.26-0.73-2.73c0-0.02,0-0.03,0.01-0.05c0.12-0.54,0.64-0.95,1.28-0.99
	c0.06,0,0.13,0,0.2,0c0.13-0.01,0.25,0,0.34,0.02c-0.02-0.6,0.02-1.88,0.03-2.46c0-0.14,0.01-0.24,0.01-0.26
	c0-2.37,2.38-4.31,5.42-4.44c0.02-0.01,0.05-0.01,0.07-0.01l0.05,0.25l0.01-0.25c0.02,0,0.04,0,0.06,0l0,0
	c3.07,0.11,5.47,2.06,5.47,4.44c0,0.02,0,0.12,0.01,0.26c0.02,0.59,0.05,1.91,0.03,2.46c0.09-0.01,0.21-0.02,0.35-0.01
	c0.05,0,0.12,0,0.18,0c0.63,0.04,1.16,0.45,1.28,0.99c0,0.02,0.01,0.04,0.01,0.05c0,0.55-0.32,1.99-0.72,2.73
	c-0.18,0.34-0.43,0.48-0.67,0.62c-0.1,0.06-0.2,0.11-0.31,0.19c-0.11,0.08-0.14,0.16-0.19,0.38c-0.18,0.74-0.63,1.44-1.41,2.2
	c-0.13,0.12-0.58,0.49-1.12,0.88c0,0.43,0.04,0.77,0.11,0.91s0.21,0.34,0.46,0.4c0.18,0.06,3.75,1.38,4.37,1.65
	c0.11,0.04,0.21,0.08,0.29,0.12c0.05,0.02,0.11,0.04,0.15,0.05c1.06,0.32,1.61,0.98,1.84,2.21c0,0.01,0,0.02,0,0.03
	c0,0,0.18,3.46,0.28,5.58c0,0.1-0.05,0.19-0.14,0.24c-2.02,1.02-5.67,2.19-8.05,2.29C25.72,43.91,25.14,43.92,24.58,43.92z
	 M14.22,40.37c3.71,2.48,6.78,3.25,12.08,3.01c2.25-0.1,5.7-1.19,7.7-2.17c-0.1-2.03-0.25-5.13-0.27-5.39
	c-0.2-1.03-0.62-1.54-1.5-1.8c-0.05-0.01-0.12-0.04-0.19-0.07c-0.08-0.04-0.18-0.08-0.29-0.12c-0.62-0.26-4.3-1.62-4.33-1.63
	c-0.32-0.08-0.59-0.32-0.76-0.67c-0.11-0.24-0.17-0.67-0.15-1.26c0-0.08,0.04-0.15,0.11-0.2c0.61-0.43,1.07-0.81,1.16-0.91
	c0.71-0.7,1.12-1.31,1.27-1.95c0.06-0.24,0.12-0.47,0.38-0.67c0.12-0.09,0.24-0.16,0.36-0.23c0.21-0.12,0.37-0.21,0.48-0.42
	c0.38-0.7,0.65-2.01,0.67-2.47c-0.08-0.31-0.42-0.55-0.82-0.58c-0.05,0-0.11,0-0.16,0c-0.16-0.01-0.27,0.01-0.36,0.02
	c-0.12,0.02-0.26,0.04-0.38-0.07c-0.12-0.11-0.11-0.28-0.1-0.36c0.03-0.42-0.01-1.95-0.03-2.53c0-0.15-0.01-0.25-0.01-0.27
	c0-2.11-2.19-3.84-4.99-3.94c-0.01,0-0.02,0-0.04,0c-0.01,0-0.02,0-0.02,0l0,0c-0.01,0-0.03,0-0.04,0.01
	c-2.8,0.1-4.99,1.83-4.99,3.94c0,0.02,0,0.12-0.01,0.27c-0.02,0.58-0.06,2.11-0.03,2.53c0.01,0.08,0.02,0.24-0.1,0.36
	c-0.12,0.11-0.26,0.09-0.38,0.07c-0.09-0.01-0.2-0.03-0.35-0.02c-0.07,0-0.12,0-0.18,0c-0.4,0.03-0.73,0.27-0.81,0.58
	c0.01,0.45,0.31,1.8,0.67,2.47c0.11,0.21,0.27,0.3,0.48,0.42c0.12,0.07,0.24,0.13,0.36,0.23c0.26,0.2,0.32,0.43,0.37,0.66
	c0.16,0.65,0.56,1.26,1.27,1.96c0.1,0.1,0.54,0.44,1.11,0.84c0.07,0.05,0.11,0.13,0.11,0.22c-0.04,0.98-0.08,1.17-0.09,1.23
	c-0.08,0.4-0.47,0.67-0.83,0.76l-3.54,1.28c-0.42,0.11-0.77,0.25-1.06,0.43c-0.8,0.5-1.18,0.87-1.47,1.93
	c-0.22,0.83-0.26,3.13-0.27,4.12C14.22,40.14,14.22,40.27,14.22,40.37L14.22,40.37z"/>
<path id="path32" inkscape:connector-curvature="0" fill="#895D3D" d="M30.16,24.88l-0.3-0.03l0.1-0.89l-0.51,0.22l-0.12-0.28
	l0.74-0.32c0.05-0.02,0.11-0.01,0.15,0.02c0.04,0.03,0.07,0.08,0.06,0.14L30.16,24.88z M18.05,24.71l-0.13-1.15
	c-0.01-0.05,0.02-0.11,0.06-0.14c0.04-0.03,0.1-0.04,0.15-0.02l0.74,0.32L18.76,24l-0.51-0.22l0.1,0.89L18.05,24.71z"/>
<path id="path34" inkscape:connector-curvature="0" fill="#472B29" d="M18.72,26.93C18.72,26.93,18.72,26.93,18.72,26.93
	c-0.06,0-0.1-0.05-0.1-0.1l0.08-4.32c0-0.05,0.05-0.1,0.1-0.1c0,0,0,0,0,0c0.05,0,0.1,0.05,0.1,0.1l-0.08,4.32
	C18.82,26.88,18.78,26.93,18.72,26.93z"/>
<g id="g38">
	<path id="path36" inkscape:connector-curvature="0" fill="#472B29" d="M29.41,26.93c-0.05,0-0.1-0.04-0.1-0.1l-0.08-4.32
		c0-0.05,0.04-0.1,0.1-0.1c0,0,0,0,0,0c0.05,0,0.1,0.04,0.1,0.1l0.08,4.32C29.51,26.88,29.47,26.93,29.41,26.93
		C29.41,26.93,29.41,26.93,29.41,26.93z"/>
</g>
<g id="g42">
	<path id="path40" inkscape:connector-curvature="0" fill="#472B29" d="M29.74,20.88c0.23-2.35-0.47-3.7-0.99-4.36
		c-1.26-1.01-2.93-1.62-4.76-1.62c-1.53,0-2.94,0.43-4.1,1.15c-0.97,0.96-2.11,2.71-1.54,4.83c0.04,0.67,0.29,2.52,0.49,3.1
		c0.1-0.98,0.11-3.04,0.31-3.95c0.15-0.67,0.36-1.33,0.63-1.96c1.37-1.46,7.05-1.39,8.52,0c0.27,0.63,0.48,1.29,0.63,1.96
		c0.2,0.91,0.22,3,0.38,3.9C29.52,23.35,29.7,21.55,29.74,20.88z"/>
</g>
<g id="g50">
	<path id="path44" inkscape:connector-curvature="0" fill="#F5921E" d="M23.43,22.25c-0.98-1.2-4.68-0.35-4.69-0.35
		c0.07,0.27,0.13,0.54,0.18,0.8c0.27,0.03,0.29,0.65,0.32,0.87c0.13,1.09,0.86,1.89,2.4,1.86c1.54-0.08,1.9-1.19,1.96-1.9
		C23.67,22.77,23.43,22.25,23.43,22.25z M23.25,23.59c-0.08,0.98-0.68,1.55-1.65,1.6c-0.1,0.01-0.19,0.01-0.29,0
		c-1.53,0-1.79-1.34-1.82-2.19c-0.02-0.48,0.33-0.9,0.81-0.95c0.28-0.03,0.6-0.03,0.96-0.03c1.14,0,1.64,0.27,1.77,0.49
		C23.12,22.65,23.3,23.06,23.25,23.59z M24.51,23.53c0.06,0.7,0.42,1.82,1.96,1.9c1.54,0.04,2.27-0.77,2.4-1.86
		c0.03-0.23,0.04-0.84,0.32-0.87c0.05-0.26,0.11-0.53,0.18-0.8c0,0-3.7-0.85-4.69,0.35C24.69,22.25,24.44,22.77,24.51,23.53z
		 M25.07,22.52c0.13-0.22,0.63-0.49,1.77-0.49c0.37,0,0.68,0,0.96,0.03c0.49,0.05,0.83,0.46,0.81,0.95
		c-0.03,0.85-0.29,2.18-1.82,2.19c-0.09,0-0.19,0-0.28,0c-0.97-0.05-1.57-0.62-1.65-1.6C24.82,23.06,24.99,22.65,25.07,22.52z"/>
	<g id="g48">
		<path id="path46" inkscape:connector-curvature="0" fill="#F5921E" d="M24.72,23.19c0,0-0.25-0.2-0.69-0.2
			c-0.41,0-0.64,0.2-0.64,0.2c-0.07-0.19-0.13-0.37-0.2-0.56c0.58,0,1.15,0,1.73,0C24.85,22.82,24.79,23,24.72,23.19z"/>
	</g>
</g>
<g id="g54">
	<path id="path52" inkscape:connector-curvature="0" fill="#472B29" d="M24.08,31.49c-1.06,0-2.85-1.31-2.93-1.36
		c-0.06-0.04-0.07-0.12-0.03-0.17s0.12-0.07,0.18-0.03c0.02,0.01,1.95,1.42,2.88,1.31c0.96-0.11,2.49-1.19,2.51-1.2
		c0.06-0.04,0.13-0.03,0.17,0.03c0.04,0.06,0.03,0.13-0.03,0.17c-0.07,0.05-1.6,1.13-2.62,1.24C24.17,31.48,24.13,31.49,24.08,31.49
		z"/>
</g>
</svg>
