<?xml version="1.0" encoding="utf-8"?>
<!-- Generator: Adobe Illustrator 16.0.0, SVG Export Plug-In . SVG Version: 6.00 Build 0)  -->
<!DOCTYPE svg PUBLIC "-//W3C//DTD SVG 1.1//EN" "http://www.w3.org/Graphics/SVG/1.1/DTD/svg11.dtd">
<svg version="1.1"
	 id="svg88" xmlns:dc="http://purl.org/dc/elements/1.1/" xmlns:cc="http://creativecommons.org/ns#" xmlns:rdf="http://www.w3.org/1999/02/22-rdf-syntax-ns#" xmlns:svg="http://www.w3.org/2000/svg" xmlns:sodipodi="http://sodipodi.sourceforge.net/DTD/sodipodi-0.dtd" xmlns:inkscape="http://www.inkscape.org/namespaces/inkscape" inkscape:version="0.92.4 (5da689c313, 2019-01-14)" sodipodi:docname="bank.svg"
	 xmlns="http://www.w3.org/2000/svg" xmlns:xlink="http://www.w3.org/1999/xlink" x="0px" y="0px" width="50px" height="50px"
	 viewBox="0 0 50 50" enable-background="new 0 0 50 50" xml:space="preserve">
<sodipodi:namedview  inkscape:cy="25" inkscape:cx="25" inkscape:zoom="4.72" showgrid="false" guidetolerance="10" gridtolerance="10" objecttolerance="10" bordercolor="#666666" pagecolor="#ffffff" borderopacity="1" id="namedview90" inkscape:current-layer="svg88" inkscape:window-maximized="1" inkscape:window-y="-8" inkscape:window-x="-8" inkscape:window-height="705" inkscape:window-width="1366" inkscape:pageshadow="2" inkscape:pageopacity="0">
	</sodipodi:namedview>
<g id="g1007" transform="scale(4.52)">
	<path id="path6" inkscape:connector-curvature="0" opacity="0.309" fill="#E4E4F9" enable-background="new    " d="M5.53,1.44
		c-2.26,0-4.09,1.83-4.09,4.09s1.83,4.09,4.09,4.09c2.26,0,4.09-1.83,4.09-4.09S7.79,1.44,5.53,1.44z"/>
	<g id="g997">
		<path id="path4" inkscape:connector-curvature="0" fill="#88CDD7" d="M8.52,1.33c-0.06,0-0.11,0.05-0.11,0.11
			c0,0.06,0.05,0.11,0.11,0.11S8.63,1.5,8.63,1.44C8.63,1.38,8.58,1.33,8.52,1.33z"/>
		<path id="path8-2" inkscape:connector-curvature="0" fill="#88CDD7" d="M9.18,1.22c-0.24,0-0.44,0.2-0.44,0.44S8.94,2.1,9.18,2.1
			s0.44-0.2,0.44-0.44S9.42,1.22,9.18,1.22z"/>
		<path id="path10" inkscape:connector-curvature="0" fill="#8889B9" d="M9.62,2.43c-0.12,0-0.22,0.1-0.22,0.22
			c0,0.12,0.1,0.22,0.22,0.22c0.12,0,0.22-0.1,0.22-0.22C9.85,2.53,9.75,2.43,9.62,2.43z"/>
		<path id="path12" inkscape:connector-curvature="0" fill="#88CDD7" d="M8.96,8.19c-0.12,0-0.22,0.1-0.22,0.22s0.1,0.22,0.22,0.22
			c0.12,0,0.22-0.1,0.22-0.22S9.08,8.19,8.96,8.19z M1.66,6.53c-0.24,0-0.44,0.2-0.44,0.44c0,0.24,0.2,0.44,0.44,0.44
			S2.1,7.21,2.1,6.97C2.1,6.73,1.9,6.53,1.66,6.53z"/>
		<path id="path14" inkscape:connector-curvature="0" fill="#8889B9" d="M2.77,9.4c-0.12,0-0.22,0.1-0.22,0.22
			c0,0.12,0.1,0.22,0.22,0.22s0.22-0.1,0.22-0.22C2.99,9.5,2.89,9.4,2.77,9.4z"/>
		<path id="path16" inkscape:connector-curvature="0" fill="#FFFFFF" d="M2.05,5.42c-0.15,0-0.28,0.12-0.28,0.28
			c0,0.15,0.12,0.28,0.28,0.28S2.32,5.85,2.32,5.7C2.32,5.54,2.2,5.42,2.05,5.42z M8.79,3.54c-0.09,0-0.17,0.08-0.17,0.17
			c0,0.09,0.08,0.17,0.17,0.17S8.96,3.8,8.96,3.71C8.96,3.62,8.88,3.54,8.79,3.54z"/>
	</g>
</g>
<path id="path2" inkscape:connector-curvature="0" fill="none" d="M0,50V0h50v50H0z"/>
<path id="path24" inkscape:connector-curvature="0" fill="#88AE45" d="M15.22,35.15c-0.45,0-0.82-0.35-0.82-0.78V21.64l-0.36,0.01
	c-0.34,0-0.68-0.23-0.68-0.62c0-0.19,0.09-0.37,0.26-0.49l11.24-8.22c0.12-0.09,0.26-0.13,0.41-0.13s0.29,0.05,0.41,0.13l11.24,8.22
	c0.16,0.12,0.26,0.3,0.26,0.49c0,0.22-0.11,0.36-0.2,0.44c-0.13,0.11-0.3,0.18-0.47,0.18h-0.35L36.11,22v12.38
	c0,0.43-0.37,0.78-0.82,0.78H15.22z"/>
<path id="path26" inkscape:connector-curvature="0" fill="#472B29" d="M25.25,12.53c0.07,0,0.15,0.02,0.2,0.06l11.24,8.22
	c0.07,0.05,0.11,0.13,0.11,0.21c0,0.19-0.19,0.27-0.33,0.27l0,0l-0.72-0.02V22v12.38c0,0.23-0.21,0.42-0.47,0.42H15.22
	c-0.26,0-0.47-0.19-0.47-0.42V22l-0.02-0.7h-0.7c-0.13,0-0.32-0.08-0.32-0.27c0-0.08,0.04-0.16,0.11-0.21l11.24-8.22
	C25.1,12.55,25.18,12.53,25.25,12.53 M25.25,11.83c-0.22,0-0.43,0.07-0.62,0.2L13.4,20.25c-0.25,0.18-0.4,0.47-0.4,0.77
	C13,21.6,13.49,22,14.02,22c0.01,0,0.02,0,0.02,0v12.38c0,0.62,0.52,1.13,1.17,1.13h20.07c0.65,0,1.17-0.5,1.17-1.13V22
	c0.01,0,0.02,0,0.02,0c0.53,0,1.02-0.39,1.02-0.97c0-0.3-0.15-0.59-0.4-0.77l-11.24-8.22C25.68,11.9,25.47,11.83,25.25,11.83z"/>
<path id="path28" inkscape:connector-curvature="0" fill="#472B29" d="M28.47,33.38h-5.72c-0.07,0-0.13-0.06-0.13-0.13
	s0.06-0.13,0.13-0.13h5.72c0.07,0,0.13,0.06,0.13,0.13S28.54,33.38,28.47,33.38z"/>
<path id="path30" inkscape:connector-curvature="0" fill="#472B29" d="M31.91,33.38h-2.13c-0.07,0-0.13-0.06-0.13-0.13
	s0.06-0.13,0.13-0.13h2.13c0.07,0,0.13,0.06,0.13,0.13S31.97,33.38,31.91,33.38z"/>
<g id="g34">
	<path id="path32" inkscape:connector-curvature="0" fill="#472B29" d="M34.25,33.38h-1.13c-0.07,0-0.13-0.06-0.13-0.13
		s0.06-0.13,0.13-0.13h1v-3.88c0-0.07,0.06-0.13,0.13-0.13s0.13,0.06,0.13,0.13v4C34.38,33.32,34.32,33.38,34.25,33.38z"/>
</g>
<g id="g38">
	<path id="path36" inkscape:connector-curvature="0" fill="#472B29" d="M16.25,26.38c-0.07,0-0.13-0.06-0.13-0.13v-5.5
		c0-0.07,0.06-0.13,0.13-0.13s0.13,0.06,0.13,0.13v5.5C16.38,26.32,16.32,26.38,16.25,26.38z"/>
</g>
<g id="g42">
	<path id="path40" inkscape:connector-curvature="0" fill="#472B29" d="M16.25,29.38c-0.07,0-0.13-0.06-0.13-0.13V27
		c0-0.07,0.06-0.13,0.13-0.13s0.13,0.06,0.13,0.13v2.25C16.38,29.32,16.32,29.38,16.25,29.38z"/>
</g>
<g id="g48">
	<path id="path44" inkscape:connector-curvature="0" fill="#FFFFFF" d="M22.75,16.06l2.5-1.81"/>
	<path id="path46" inkscape:connector-curvature="0" fill="#472B29" d="M22.75,16.18c-0.04,0-0.08-0.02-0.1-0.05
		c-0.04-0.06-0.03-0.13,0.03-0.17l2.5-1.81c0.06-0.04,0.13-0.03,0.18,0.03c0.04,0.06,0.03,0.13-0.03,0.17l-2.5,1.81
		C22.8,16.17,22.78,16.18,22.75,16.18z"/>
</g>
<g id="g54">
	<path id="path50" inkscape:connector-curvature="0" fill="#FFFFFF" d="M16.25,20.75l5.44-3.93"/>
	<path id="path52" inkscape:connector-curvature="0" fill="#472B29" d="M16.25,20.88c-0.04,0-0.08-0.02-0.1-0.05
		c-0.04-0.06-0.03-0.13,0.03-0.17l5.44-3.93c0.05-0.04,0.13-0.03,0.18,0.03c0.04,0.06,0.03,0.13-0.03,0.17l-5.44,3.93
		C16.3,20.87,16.28,20.88,16.25,20.88z"/>
</g>
<g id="g60">
	<path id="path56" inkscape:connector-curvature="0" fill="#FFFFFF" d="M34.25,20.75l-9-6.5"/>
	<path id="path58" inkscape:connector-curvature="0" fill="#472B29" d="M34.25,20.88c-0.03,0-0.05-0.01-0.07-0.02l-9-6.5
		c-0.06-0.04-0.07-0.12-0.03-0.17c0.04-0.06,0.12-0.07,0.18-0.03l9,6.5c0.05,0.04,0.07,0.12,0.03,0.17
		C34.33,20.86,34.29,20.88,34.25,20.88z"/>
</g>
<g id="g64">
	<path id="path62" inkscape:connector-curvature="0" fill="#472B29" d="M34.25,28.28c-0.07,0-0.13-0.06-0.13-0.13V22
		c0-0.07,0.06-0.13,0.13-0.13s0.13,0.06,0.13,0.13v6.16C34.38,28.23,34.32,28.28,34.25,28.28z"/>
</g>
<g id="g68">
	<path id="path66" inkscape:connector-curvature="0" fill="#472B29" d="M17.47,33.38h-1.22c-0.07,0-0.13-0.06-0.13-0.13v-2.94
		c0-0.07,0.06-0.13,0.13-0.13s0.13,0.06,0.13,0.13v2.81h1.09c0.07,0,0.13,0.06,0.13,0.13S17.54,33.38,17.47,33.38z"/>
</g>
<g id="g72">
	<path id="path70" inkscape:connector-curvature="0" fill="#472B29" d="M21.25,33.38h-2.66c-0.07,0-0.13-0.06-0.13-0.13
		s0.06-0.13,0.13-0.13h2.66c0.07,0,0.13,0.06,0.13,0.13S21.32,33.38,21.25,33.38z"/>
</g>
<g id="g82">
	<path id="path74" inkscape:connector-curvature="0" fill="#EDF7F5" d="M28.41,25.55c-0.25-0.47-0.55-0.83-0.92-1.07
		s-0.76-0.48-1.19-0.69s-0.82-0.39-1.19-0.52c-0.37-0.14-0.67-0.32-0.92-0.54c-0.25-0.22-0.37-0.48-0.37-0.78
		c0-0.37,0.15-0.66,0.46-0.87c0.3-0.21,0.73-0.32,1.29-0.32c0.5,0,0.96,0.1,1.37,0.29c0.41,0.2,0.66,0.29,0.76,0.29
		c0.25,0,0.44-0.12,0.59-0.37c0.14-0.25,0.21-0.48,0.21-0.71c0-0.24-0.11-0.45-0.32-0.63c-0.21-0.18-0.48-0.31-0.82-0.4
		c-0.33-0.08-0.65-0.15-0.95-0.18c-0.15-0.02-0.28-0.02-0.42-0.03v-0.78c0-0.41-0.34-0.75-0.75-0.75c-0.41,0-0.75,0.34-0.75,0.75
		v0.86c-0.09,0.02-0.18,0.03-0.27,0.05c-0.42,0.11-0.82,0.28-1.19,0.52s-0.67,0.56-0.89,0.99c-0.22,0.42-0.33,0.91-0.33,1.46
		c0,0.49,0.09,0.93,0.27,1.32c0.18,0.39,0.42,0.69,0.71,0.93c0.29,0.23,0.62,0.44,0.97,0.63s0.71,0.35,1.06,0.5
		c0.35,0.15,0.67,0.3,0.96,0.46s0.53,0.36,0.71,0.6c0.18,0.24,0.27,0.52,0.27,0.83c0,0.44-0.16,0.78-0.49,1s-0.74,0.34-1.24,0.34
		c-0.36,0-0.69-0.06-0.99-0.19c-0.3-0.13-0.53-0.27-0.69-0.42c-0.16-0.16-0.32-0.3-0.49-0.43c-0.17-0.13-0.32-0.19-0.46-0.19
		c-0.23,0-0.43,0.12-0.61,0.36c-0.18,0.24-0.27,0.48-0.27,0.72c0,0.47,0.35,0.91,1.05,1.31c0.55,0.31,1.19,0.5,1.9,0.57v0.78
		c0,0.41,0.34,0.75,0.75,0.75c0.41,0,0.75-0.34,0.75-0.75v-0.83c0.7-0.12,1.29-0.37,1.77-0.78c0.67-0.57,1.01-1.39,1.01-2.44
		C28.79,26.57,28.66,26.02,28.41,25.55z"/>
	<path id="path76" inkscape:connector-curvature="0" fill="#472B29" d="M27.5,24.73c-0.05,0-0.1-0.01-0.14-0.04
		c-0.36-0.24-0.75-0.47-1.16-0.67c-0.42-0.21-0.81-0.38-1.17-0.52c-0.39-0.15-0.73-0.35-1-0.59c-0.3-0.27-0.45-0.59-0.45-0.97
		c0-0.46,0.19-0.82,0.56-1.08c0.34-0.24,0.83-0.36,1.43-0.36c0.54,0,1.04,0.11,1.48,0.32c0.51,0.24,0.64,0.27,0.66,0.27
		c0.1,0,0.24-0.03,0.36-0.24c0.12-0.21,0.18-0.4,0.18-0.58c0-0.17-0.07-0.31-0.23-0.44c-0.18-0.15-0.42-0.27-0.72-0.34
		c-0.32-0.08-0.63-0.14-0.92-0.18c-0.09-0.01-0.18-0.02-0.26-0.02l-0.15-0.01c-0.13-0.01-0.23-0.12-0.23-0.25v-0.78
		c0-0.28-0.22-0.5-0.5-0.5c-0.28,0-0.5,0.22-0.5,0.5v0.86c0,0.12-0.08,0.22-0.2,0.24l-0.11,0.02c-0.05,0.01-0.1,0.02-0.14,0.03
		c-0.39,0.1-0.77,0.27-1.12,0.49c-0.12,0.07-0.27,0.04-0.34-0.08c-0.07-0.12-0.04-0.27,0.08-0.34c0.39-0.25,0.82-0.43,1.26-0.55
		c0.03-0.01,0.05-0.01,0.08-0.02v-0.65c0-0.55,0.45-1,1-1s1,0.45,1,1v0.54c0.07,0,0.13,0.01,0.2,0.02c0.31,0.04,0.64,0.1,0.98,0.19
		c0.37,0.09,0.68,0.25,0.92,0.45c0.27,0.23,0.4,0.51,0.4,0.82c0,0.27-0.08,0.55-0.25,0.84c-0.24,0.41-0.57,0.49-0.8,0.49
		c-0.09,0-0.25-0.02-0.86-0.32c-0.38-0.18-0.8-0.27-1.27-0.27c-0.5,0-0.89,0.09-1.15,0.27c-0.24,0.17-0.35,0.38-0.35,0.67
		c0,0.23,0.09,0.42,0.29,0.59c0.22,0.2,0.51,0.37,0.84,0.49c0.37,0.14,0.78,0.32,1.21,0.53c0.43,0.21,0.84,0.45,1.22,0.7
		c0.11,0.08,0.14,0.23,0.07,0.35C27.65,24.69,27.58,24.73,27.5,24.73z"/>
	<path id="path78" inkscape:connector-curvature="0" fill="#472B29" d="M25.25,32.25c-0.55,0-1-0.45-1-1v-0.56
		c-0.67-0.09-1.27-0.28-1.78-0.58c-0.78-0.45-1.18-0.96-1.18-1.53c0-0.29,0.11-0.58,0.32-0.87c0.37-0.5,0.85-0.65,1.42-0.22
		c0.18,0.13,0.35,0.28,0.52,0.45c0.14,0.13,0.34,0.26,0.61,0.38c0.27,0.12,0.56,0.17,0.89,0.17c0.44,0,0.81-0.1,1.09-0.29
		c0.26-0.18,0.38-0.44,0.38-0.8c0-0.25-0.07-0.48-0.22-0.68c-0.16-0.21-0.37-0.39-0.63-0.53c-0.29-0.15-0.6-0.31-0.94-0.45
		c-0.35-0.15-0.71-0.32-1.07-0.51c-0.37-0.19-0.71-0.41-1.01-0.65c-0.11-0.09-0.13-0.24-0.04-0.35s0.24-0.13,0.35-0.04
		c0.28,0.22,0.59,0.42,0.93,0.6c0.35,0.18,0.7,0.35,1.04,0.49c0.36,0.15,0.69,0.31,0.99,0.47c0.33,0.18,0.59,0.4,0.79,0.67
		c0.21,0.29,0.32,0.61,0.32,0.97c0,0.53-0.2,0.94-0.6,1.21c-0.37,0.25-0.83,0.38-1.38,0.38c-0.39,0-0.76-0.07-1.09-0.21
		c-0.33-0.14-0.58-0.3-0.76-0.48c-0.15-0.15-0.31-0.28-0.47-0.41c-0.16-0.12-0.26-0.14-0.3-0.14c-0.05,0-0.21,0-0.41,0.26
		c-0.15,0.2-0.22,0.39-0.22,0.57c0,0.38,0.31,0.74,0.92,1.09c0.51,0.29,1.11,0.47,1.8,0.54c0.13,0.01,0.23,0.12,0.23,0.25v0.78
		c0,0.28,0.22,0.5,0.5,0.5c0.28,0,0.5-0.22,0.5-0.5v-0.83c0-0.12,0.09-0.23,0.21-0.25c0.66-0.11,1.22-0.36,1.65-0.73
		c0.62-0.53,0.92-1.26,0.92-2.25c0-0.58-0.11-1.1-0.34-1.53c-0.06-0.12-0.02-0.27,0.11-0.34c0.12-0.06,0.27-0.02,0.34,0.1
		c0.26,0.5,0.4,1.09,0.4,1.76c0,1.13-0.37,2.01-1.1,2.63c-0.46,0.39-1.03,0.66-1.69,0.8v0.62C26.25,31.8,25.8,32.25,25.25,32.25
		L25.25,32.25z"/>
	<path id="path80" inkscape:connector-curvature="0" fill="#472B29" d="M22.09,23.7c-0.09,0-0.18-0.05-0.23-0.14
		c-0.2-0.42-0.29-0.9-0.29-1.43c0-0.59,0.12-1.12,0.36-1.58c0.06-0.12,0.22-0.17,0.34-0.11c0.12,0.06,0.17,0.21,0.11,0.34
		c-0.2,0.38-0.3,0.84-0.3,1.35c0,0.46,0.08,0.86,0.25,1.21c0.06,0.13,0,0.27-0.12,0.33C22.17,23.7,22.13,23.7,22.09,23.7z"/>
</g>
</svg>
