<?xml version="1.0" encoding="utf-8"?>
<!-- Generator: Adobe Illustrator 16.0.0, SVG Export Plug-In . SVG Version: 6.00 Build 0)  -->
<!DOCTYPE svg PUBLIC "-//W3C//DTD SVG 1.1//EN" "http://www.w3.org/Graphics/SVG/1.1/DTD/svg11.dtd">
<svg version="1.1"
	 id="svg98" xmlns:dc="http://purl.org/dc/elements/1.1/" xmlns:cc="http://creativecommons.org/ns#" xmlns:rdf="http://www.w3.org/1999/02/22-rdf-syntax-ns#" xmlns:svg="http://www.w3.org/2000/svg" xmlns:sodipodi="http://sodipodi.sourceforge.net/DTD/sodipodi-0.dtd" xmlns:inkscape="http://www.inkscape.org/namespaces/inkscape" inkscape:version="0.92.4 (5da689c313, 2019-01-14)" sodipodi:docname="bank-cards.svg"
	 xmlns="http://www.w3.org/2000/svg" xmlns:xlink="http://www.w3.org/1999/xlink" x="0px" y="0px" width="50px" height="50px"
	 viewBox="0 0 50 50" enable-background="new 0 0 50 50" xml:space="preserve">
<sodipodi:namedview  inkscape:cy="25" inkscape:cx="25" inkscape:zoom="4.72" showgrid="false" guidetolerance="10" gridtolerance="10" objecttolerance="10" bordercolor="#666666" pagecolor="#ffffff" borderopacity="1" id="namedview100" inkscape:current-layer="svg98" inkscape:window-maximized="1" inkscape:window-y="-8" inkscape:window-x="-8" inkscape:window-height="705" inkscape:window-width="1366" inkscape:pageshadow="2" inkscape:pageopacity="0">
	</sodipodi:namedview>
<g id="g1007" transform="scale(4.52)">
	<path id="path6" inkscape:connector-curvature="0" opacity="0.309" fill="#E4E4F9" enable-background="new    " d="M5.53,1.44
		c-2.26,0-4.09,1.83-4.09,4.09s1.83,4.09,4.09,4.09c2.26,0,4.09-1.83,4.09-4.09S7.79,1.44,5.53,1.44z"/>
	<g id="g997">
		<path id="path4" inkscape:connector-curvature="0" fill="#88CDD7" d="M8.52,1.33c-0.06,0-0.11,0.05-0.11,0.11
			c0,0.06,0.05,0.11,0.11,0.11S8.63,1.5,8.63,1.44C8.63,1.38,8.58,1.33,8.52,1.33z"/>
		<path id="path8-8" inkscape:connector-curvature="0" fill="#88CDD7" d="M9.18,1.22c-0.24,0-0.44,0.2-0.44,0.44S8.94,2.1,9.18,2.1
			s0.44-0.2,0.44-0.44S9.42,1.22,9.18,1.22z"/>
		<path id="path10" inkscape:connector-curvature="0" fill="#8889B9" d="M9.62,2.43c-0.12,0-0.22,0.1-0.22,0.22
			c0,0.12,0.1,0.22,0.22,0.22c0.12,0,0.22-0.1,0.22-0.22C9.85,2.53,9.75,2.43,9.62,2.43z"/>
		<path id="path12" inkscape:connector-curvature="0" fill="#88CDD7" d="M8.96,8.19c-0.12,0-0.22,0.1-0.22,0.22s0.1,0.22,0.22,0.22
			c0.12,0,0.22-0.1,0.22-0.22S9.08,8.19,8.96,8.19z M1.66,6.53c-0.24,0-0.44,0.2-0.44,0.44c0,0.24,0.2,0.44,0.44,0.44
			S2.1,7.21,2.1,6.97C2.1,6.73,1.9,6.53,1.66,6.53z"/>
		<path id="path14" inkscape:connector-curvature="0" fill="#8889B9" d="M2.77,9.4c-0.12,0-0.22,0.1-0.22,0.22
			c0,0.12,0.1,0.22,0.22,0.22s0.22-0.1,0.22-0.22C2.99,9.5,2.89,9.4,2.77,9.4z"/>
		<path id="path16" inkscape:connector-curvature="0" fill="#FFFFFF" d="M2.05,5.42c-0.15,0-0.28,0.12-0.28,0.28
			c0,0.15,0.12,0.28,0.28,0.28S2.32,5.85,2.32,5.7C2.32,5.54,2.2,5.42,2.05,5.42z M8.79,3.54c-0.09,0-0.17,0.08-0.17,0.17
			c0,0.09,0.08,0.17,0.17,0.17S8.96,3.8,8.96,3.71C8.96,3.62,8.88,3.54,8.79,3.54z"/>
	</g>
</g>
<path id="path2" inkscape:connector-curvature="0" fill="none" d="M0,50V0h50v50H0z"/>
<g id="g28">
	<path id="path24" inkscape:connector-curvature="0" fill="#00A698" d="M17.5,36.15c-2.01,0-3.65-1.64-3.65-3.65v-15
		c0-2.01,1.64-3.65,3.65-3.65h15c2.01,0,3.65,1.64,3.65,3.65v15c0,2.01-1.64,3.65-3.65,3.65H17.5z"/>
	<path id="path26" inkscape:connector-curvature="0" fill="#472B29" d="M32.5,14.2c1.82,0,3.3,1.48,3.3,3.3v15
		c0,1.82-1.48,3.3-3.3,3.3h-15c-1.82,0-3.3-1.48-3.3-3.3v-15c0-1.82,1.48-3.3,3.3-3.3H32.5 M32.5,13.5h-15c-2.2,0-4,1.8-4,4v15
		c0,2.2,1.8,4,4,4h15c2.2,0,4-1.8,4-4v-15C36.5,15.3,34.7,13.5,32.5,13.5z"/>
</g>
<g id="g32">
	<path id="path30" inkscape:connector-curvature="0" fill="#FFFEF4" d="M31.2,34.5H18.8c-1.82,0-3.3-1.49-3.3-3.3V18.8
		c0-1.82,1.49-3.3,3.3-3.3H31.2c1.82,0,3.3,1.49,3.3,3.3V31.2C34.5,33.01,33.01,34.5,31.2,34.5z"/>
</g>
<g id="g36">
	<path id="path34" inkscape:connector-curvature="0" fill="#472B29" d="M34.25,23.69c-0.14,0-0.25-0.11-0.25-0.25V21.5
		c0-0.14,0.11-0.25,0.25-0.25s0.25,0.11,0.25,0.25v1.94C34.5,23.58,34.39,23.69,34.25,23.69z"/>
</g>
<g id="g40">
	<path id="path38" inkscape:connector-curvature="0" fill="#472B29" d="M34.25,20.25C34.11,20.25,34,20.14,34,20v-1
		c0-0.14,0.11-0.25,0.25-0.25S34.5,18.86,34.5,19v1C34.5,20.14,34.39,20.25,34.25,20.25z"/>
</g>
<g id="g44">
	<path id="path42" inkscape:connector-curvature="0" fill="#472B29" d="M32,34.5H18c-1.38,0-2.5-1.12-2.5-2.5V18
		c0-1.38,1.12-2.5,2.5-2.5h12.69c0.14,0,0.25,0.11,0.25,0.25S30.83,16,30.69,16H18c-1.1,0-2,0.9-2,2v14c0,1.1,0.9,2,2,2h14
		c1.1,0,2-0.9,2-2v-7.19c0-0.14,0.11-0.25,0.25-0.25s0.25,0.11,0.25,0.25V32C34.5,33.38,33.38,34.5,32,34.5z"/>
</g>
<g id="g92">
	<path id="path46" inkscape:connector-curvature="0" fill="#FDFCEF" d="M23.16,27.95l6.07,2.36c0.49,0.19,1.04-0.05,1.23-0.54
		l1.66-4.26c0.19-0.49-0.05-1.04-0.54-1.23l-3.66-1.42"/>
	<path id="path48" inkscape:connector-curvature="0" fill="#472B29" d="M29.57,30.5c-0.13,0-0.26-0.02-0.39-0.07l-6.07-2.36
		c-0.06-0.02-0.1-0.1-0.07-0.16c0.03-0.06,0.1-0.1,0.16-0.07l6.07,2.36c0.2,0.08,0.43,0.08,0.63-0.01s0.36-0.25,0.44-0.46L32,25.46
		c0.08-0.2,0.07-0.43-0.01-0.63c-0.09-0.2-0.25-0.36-0.46-0.44l-3.66-1.42c-0.06-0.03-0.1-0.1-0.07-0.16
		c0.03-0.06,0.1-0.1,0.16-0.07l3.66,1.42c0.27,0.1,0.48,0.31,0.59,0.57s0.12,0.56,0.02,0.82l-1.65,4.26
		c-0.1,0.27-0.31,0.48-0.57,0.59C29.86,30.47,29.72,30.5,29.57,30.5z"/>
	<path id="path50" inkscape:connector-curvature="0" fill="#E1E0D8" d="M28.56,29.21l-4.71-1.89c-0.52-0.21-0.77-0.8-0.56-1.32
		l1.02-2.53c0.21-0.52,0.8-0.77,1.32-0.56l4.71,1.89c0.52,0.21,0.77,0.8,0.56,1.32l-1.02,2.53C29.67,29.16,29.07,29.42,28.56,29.21z
		"/>
	<path id="path52" inkscape:connector-curvature="0" fill="#00A5A5" d="M30.98,25.77l-4.25-1.75l0.5,1.52l3.34,1.36L30.98,25.77z"/>
	<path id="path54" inkscape:connector-curvature="0" fill="#472B29" d="M30.48,26.95c-0.01,0-0.03,0-0.04-0.01l-2.72-1.09
		c-0.05-0.02-0.08-0.08-0.05-0.13c0.02-0.05,0.08-0.08,0.13-0.06l2.72,1.09c0.05,0.02,0.08,0.08,0.05,0.13
		C30.55,26.92,30.52,26.95,30.48,26.95z"/>
	<path id="path56" inkscape:connector-curvature="0" fill="#472B29" d="M29.09,29.44c-0.09,0-0.17-0.02-0.26-0.05l-3.51-1.37
		c-0.05-0.02-0.08-0.08-0.06-0.13c0.02-0.05,0.08-0.08,0.13-0.06l3.51,1.37c0.13,0.05,0.27,0.05,0.39-0.01s0.22-0.16,0.27-0.28
		l1.31-3.3c0.05-0.13,0.05-0.27-0.01-0.39s-0.16-0.22-0.28-0.27l-2.79-1.08c-0.05-0.02-0.08-0.08-0.06-0.13
		c0.02-0.05,0.08-0.08,0.13-0.06l2.79,1.08c0.18,0.07,0.32,0.2,0.4,0.38c0.08,0.18,0.08,0.37,0.01,0.55l-1.31,3.3
		c-0.07,0.18-0.2,0.32-0.38,0.39C29.29,29.42,29.19,29.44,29.09,29.44z"/>
	<path id="path58" inkscape:connector-curvature="0" fill="#472B29" d="M30.89,25.82c-0.01,0-0.03,0-0.04-0.01l-3.04-1.22
		c-0.05-0.02-0.08-0.08-0.06-0.13c0.02-0.05,0.08-0.08,0.13-0.06l3.04,1.22c0.05,0.02,0.08,0.08,0.05,0.13
		C30.97,25.79,30.93,25.82,30.89,25.82z"/>
	<path id="path60" inkscape:connector-curvature="0" fill="#472B29" d="M29.74,26.62c-0.03,0-0.06-0.03-0.06-0.06l-0.05-1.24
		c0-0.03,0.03-0.06,0.06-0.06c0.04,0,0.06,0.03,0.06,0.06l0.05,1.24C29.8,26.59,29.78,26.62,29.74,26.62
		C29.74,26.62,29.74,26.62,29.74,26.62z M29.19,26.36c-0.03,0-0.06-0.03-0.06-0.06l-0.05-1.24c0-0.03,0.03-0.06,0.06-0.06
		c0.04,0,0.06,0.03,0.06,0.06l0.05,1.24C29.26,26.33,29.23,26.36,29.19,26.36C29.2,26.36,29.2,26.36,29.19,26.36z M28.65,26.14
		c-0.03,0-0.06-0.03-0.06-0.06l-0.05-1.24c0-0.03,0.03-0.06,0.06-0.06c0,0,0,0,0,0c0.03,0,0.06,0.03,0.06,0.06l0.05,1.24
		C28.71,26.11,28.69,26.14,28.65,26.14C28.65,26.14,28.65,26.14,28.65,26.14z M28.1,25.93c-0.03,0-0.06-0.03-0.06-0.06l-0.05-1.24
		c0-0.03,0.03-0.06,0.06-0.06c0.03,0,0.06,0.03,0.07,0.06l0.05,1.24C28.17,25.9,28.14,25.93,28.1,25.93
		C28.11,25.93,28.11,25.93,28.1,25.93z M30.29,26.81c-0.03,0-0.06-0.03-0.06-0.06l-0.05-1.24c0-0.03,0.03-0.06,0.06-0.06
		c0.04,0,0.06,0.03,0.06,0.06l0.05,1.24C30.35,26.78,30.32,26.81,30.29,26.81C30.29,26.81,30.29,26.81,30.29,26.81z"/>
	<g id="g66">
		<path id="path62" inkscape:connector-curvature="0" fill="#85CFCC" d="M25.92,27.31h-6.86c-0.69,0-1.26-0.57-1.26-1.26v-3.79
			c0-0.69,0.57-1.26,1.26-1.26h6.86c0.69,0,1.26,0.57,1.26,1.26v3.79C27.18,26.74,26.61,27.31,25.92,27.31z"/>
		<path id="path64" inkscape:connector-curvature="0" fill="#472B29" d="M25.92,27.43h-6.86c-0.77,0-1.39-0.62-1.39-1.39v-3.79
			c0-0.77,0.62-1.39,1.39-1.39h6.86c0.77,0,1.39,0.62,1.39,1.39v3.79C27.31,26.81,26.68,27.43,25.92,27.43z M19.06,21.12
			c-0.63,0-1.14,0.51-1.14,1.14v3.79c0,0.63,0.51,1.14,1.14,1.14h6.86c0.63,0,1.14-0.51,1.14-1.14v-3.79c0-0.63-0.51-1.14-1.14-1.14
			H19.06z"/>
	</g>
	<g id="g70">
		<path id="path68" inkscape:connector-curvature="0" fill="#EDF7F5" d="M25.83,26.45h-6.67c-0.3,0-0.54-0.25-0.54-0.54v-3.56
			c0-0.3,0.24-0.54,0.54-0.54h6.67c0.3,0,0.54,0.24,0.54,0.54v3.56C26.37,26.2,26.12,26.45,25.83,26.45z"/>
	</g>
	<g id="g90">
		<path id="path72" inkscape:connector-curvature="0" fill="#EE3E54" d="M23.57,24.45c-0.35,0-0.63,0.28-0.63,0.63
			s0.28,0.63,0.63,0.63c0.35,0,0.63-0.28,0.63-0.63S23.92,24.45,23.57,24.45z"/>
		<path id="path74" inkscape:connector-curvature="0" fill="#472B29" d="M23.57,25.81c-0.4,0-0.73-0.33-0.73-0.73
			c0-0.4,0.33-0.73,0.73-0.73c0.4,0,0.73,0.33,0.73,0.73S23.98,25.81,23.57,25.81z M23.57,24.55c-0.29,0-0.53,0.24-0.53,0.53
			s0.24,0.53,0.53,0.53s0.53-0.24,0.53-0.53C24.1,24.79,23.87,24.55,23.57,24.55z"/>
		<path id="path76" inkscape:connector-curvature="0" fill="#F9C941" d="M24.47,24.63c0.12-0.14,0.3-0.22,0.49-0.22
			c0.37,0,0.67,0.3,0.67,0.68c0,0.38-0.3,0.68-0.67,0.68c-0.2,0-0.38-0.09-0.5-0.23"/>
		<path id="path78" inkscape:connector-curvature="0" fill="#472B29" d="M24.97,25.87c-0.22,0-0.43-0.1-0.58-0.27
			c-0.04-0.04-0.03-0.1,0.01-0.14c0.04-0.04,0.11-0.03,0.14,0.01c0.11,0.13,0.26,0.2,0.43,0.2c0.31,0,0.57-0.26,0.57-0.58
			c0-0.32-0.25-0.58-0.57-0.58c-0.16,0-0.31,0.07-0.42,0.19c-0.04,0.04-0.1,0.04-0.14,0.01c-0.04-0.04-0.04-0.1-0.01-0.14
			c0.14-0.16,0.35-0.25,0.57-0.25c0.42,0,0.77,0.35,0.77,0.78C25.73,25.52,25.39,25.87,24.97,25.87z M20.6,21.9h-0.9
			c-0.05,0-0.1-0.04-0.1-0.1c0-0.05,0.05-0.1,0.1-0.1h0.9c0.05,0,0.1,0.04,0.1,0.1C20.69,21.86,20.65,21.9,20.6,21.9z"/>
		<path id="path80" inkscape:connector-curvature="0" fill="#472B29" d="M25.75,26.59h-6.53c-0.39,0-0.72-0.32-0.72-0.72v-3.53
			c0-0.05,0.05-0.1,0.1-0.1c0.06,0,0.1,0.04,0.1,0.1v3.53c0,0.28,0.23,0.52,0.52,0.52h6.53c0.29,0,0.52-0.23,0.52-0.52v-3.46
			c0-0.28-0.23-0.52-0.52-0.52h-4.62c-0.06,0-0.1-0.04-0.1-0.1c0-0.05,0.04-0.1,0.1-0.1h4.62c0.39,0,0.72,0.32,0.72,0.72v3.46
			C26.47,26.27,26.15,26.59,25.75,26.59z M19.33,21.9h-0.18c-0.05,0-0.1-0.04-0.1-0.1c0-0.05,0.05-0.1,0.1-0.1h0.18
			c0.06,0,0.1,0.04,0.1,0.1C19.43,21.86,19.39,21.9,19.33,21.9z"/>
		<g id="g84">
			<path id="path82" inkscape:connector-curvature="0" fill="#472B29" d="M25.11,22.99h-5.59c-0.06,0-0.1-0.04-0.1-0.1
				c0-0.06,0.04-0.1,0.1-0.1h5.59c0.06,0,0.1,0.04,0.1,0.1C25.21,22.94,25.16,22.99,25.11,22.99z"/>
		</g>
		<g id="g88">
			<path id="path86" inkscape:connector-curvature="0" fill="#472B29" d="M21.32,23.71h-1.8c-0.06,0-0.1-0.04-0.1-0.1
				c0-0.05,0.04-0.1,0.1-0.1h1.8c0.06,0,0.1,0.05,0.1,0.1C21.42,23.66,21.37,23.71,21.32,23.71z"/>
		</g>
	</g>
</g>
</svg>
