<?xml version="1.0" encoding="utf-8"?>
<!-- Generator: Adobe Illustrator 16.0.0, SVG Export Plug-In . SVG Version: 6.00 Build 0)  -->
<!DOCTYPE svg PUBLIC "-//W3C//DTD SVG 1.1//EN" "http://www.w3.org/Graphics/SVG/1.1/DTD/svg11.dtd">
<svg version="1.1"
	 id="svg114" xmlns:dc="http://purl.org/dc/elements/1.1/" xmlns:cc="http://creativecommons.org/ns#" xmlns:rdf="http://www.w3.org/1999/02/22-rdf-syntax-ns#" xmlns:svg="http://www.w3.org/2000/svg" xmlns:sodipodi="http://sodipodi.sourceforge.net/DTD/sodipodi-0.dtd" xmlns:inkscape="http://www.inkscape.org/namespaces/inkscape" inkscape:version="0.92.4 (5da689c313, 2019-01-14)" sodipodi:docname="blockchain-technology.svg"
	 xmlns="http://www.w3.org/2000/svg" xmlns:xlink="http://www.w3.org/1999/xlink" x="0px" y="0px" width="50px" height="50px"
	 viewBox="0 0 50 50" enable-background="new 0 0 50 50" xml:space="preserve">
<sodipodi:namedview  inkscape:cy="25" inkscape:cx="25" inkscape:zoom="4.72" showgrid="false" guidetolerance="10" gridtolerance="10" objecttolerance="10" bordercolor="#666666" pagecolor="#ffffff" borderopacity="1" id="namedview116" inkscape:current-layer="svg114" inkscape:window-maximized="1" inkscape:window-y="-8" inkscape:window-x="-8" inkscape:window-height="705" inkscape:window-width="1366" inkscape:pageshadow="2" inkscape:pageopacity="0">
	</sodipodi:namedview>
<g id="g1007" transform="matrix(4.52,0,0,4.52,0.95762688,1.7135591e-7)">
	<path id="path6" inkscape:connector-curvature="0" opacity="0.309" fill="#E4E4F9" enable-background="new    " d="M5.37,1.44
		c-2.26,0-4.09,1.83-4.09,4.09S3.1,9.62,5.37,9.62c2.26,0,4.09-1.83,4.09-4.09S7.63,1.44,5.37,1.44z"/>
	<g id="g997">
		<path id="path4" inkscape:connector-curvature="0" fill="#88CDD7" d="M8.35,1.33c-0.06,0-0.11,0.05-0.11,0.11
			c0,0.06,0.05,0.11,0.11,0.11c0.06,0,0.11-0.05,0.11-0.11C8.46,1.38,8.41,1.33,8.35,1.33z"/>
		<path id="path8" inkscape:connector-curvature="0" fill="#88CDD7" d="M9.02,1.22c-0.24,0-0.44,0.2-0.44,0.44S8.77,2.1,9.02,2.1
			s0.44-0.2,0.44-0.44S9.26,1.22,9.02,1.22z"/>
		<path id="path10" inkscape:connector-curvature="0" fill="#8889B9" d="M9.46,2.43c-0.12,0-0.22,0.1-0.22,0.22
			c0,0.12,0.1,0.22,0.22,0.22c0.12,0,0.22-0.1,0.22-0.22C9.68,2.53,9.58,2.43,9.46,2.43z"/>
		<path id="path12" inkscape:connector-curvature="0" fill="#88CDD7" d="M8.8,8.19c-0.12,0-0.22,0.1-0.22,0.22s0.1,0.22,0.22,0.22
			c0.12,0,0.22-0.1,0.22-0.22S8.92,8.19,8.8,8.19z M1.49,6.53c-0.24,0-0.44,0.2-0.44,0.44c0,0.24,0.2,0.44,0.44,0.44
			s0.44-0.2,0.44-0.44C1.94,6.73,1.74,6.53,1.49,6.53z"/>
		<path id="path14" inkscape:connector-curvature="0" fill="#8889B9" d="M2.6,9.4c-0.12,0-0.22,0.1-0.22,0.22
			c0,0.12,0.1,0.22,0.22,0.22c0.12,0,0.22-0.1,0.22-0.22C2.82,9.5,2.72,9.4,2.6,9.4z"/>
		<path id="path16" inkscape:connector-curvature="0" fill="#FFFFFF" d="M1.88,5.42C1.73,5.42,1.6,5.54,1.6,5.7
			c0,0.15,0.12,0.28,0.28,0.28S2.16,5.85,2.16,5.7C2.16,5.54,2.03,5.42,1.88,5.42z M8.63,3.54c-0.09,0-0.17,0.08-0.17,0.17
			c0,0.09,0.08,0.17,0.17,0.17S8.8,3.8,8.8,3.71C8.8,3.62,8.72,3.54,8.63,3.54z"/>
	</g>
</g>
<path id="path2" inkscape:connector-curvature="0" fill="none" d="M0,50V0h50v50H0z"/>
<g id="g50">
	<path id="path26" inkscape:connector-curvature="0" fill="#C0D078" d="M15.41,21.15c-0.58,0-1.06-0.47-1.06-1.06v-4.69
		c0-0.58,0.47-1.06,1.06-1.06h4.69c0.58,0,1.06,0.47,1.06,1.06v4.69c0,0.58-0.47,1.06-1.06,1.06H15.41z"/>
	<path id="path28" inkscape:connector-curvature="0" fill="#472B29" d="M20.09,14.7c0.39,0,0.71,0.32,0.71,0.71v4.69
		c0,0.39-0.32,0.71-0.71,0.71h-4.69c-0.39,0-0.71-0.32-0.71-0.71v-4.69c0-0.39,0.32-0.71,0.71-0.71H20.09 M20.09,14h-4.69
		C14.63,14,14,14.63,14,15.41v4.69c0,0.78,0.63,1.41,1.41,1.41h4.69c0.78,0,1.41-0.63,1.41-1.41v-4.69C21.5,14.63,20.87,14,20.09,14
		z"/>
	<path id="path30" inkscape:connector-curvature="0" fill="#472B29" d="M19.75,15.88h-1.44c-0.07,0-0.13-0.06-0.13-0.13
		s0.06-0.13,0.13-0.13h1.44c0.07,0,0.13,0.06,0.13,0.13S19.82,15.88,19.75,15.88z"/>
	<path id="path32" inkscape:connector-curvature="0" fill="#472B29" d="M15.75,16.66c-0.07,0-0.13-0.06-0.13-0.13v-0.78
		c0-0.07,0.06-0.13,0.13-0.13h1.5c0.07,0,0.13,0.06,0.13,0.13s-0.06,0.13-0.13,0.13h-1.38v0.66C15.88,16.6,15.82,16.66,15.75,16.66z
		"/>
	<path id="path34" inkscape:connector-curvature="0" fill="#472B29" d="M15.75,19.88c-0.07,0-0.13-0.06-0.13-0.13v-2.34
		c0-0.07,0.06-0.13,0.13-0.13s0.13,0.06,0.13,0.13v2.34C15.88,19.82,15.82,19.88,15.75,19.88z"/>
	<path id="path36" inkscape:connector-curvature="0" fill="#C0D078" d="M29.91,21.15c-0.58,0-1.06-0.47-1.06-1.06v-4.69
		c0-0.58,0.47-1.06,1.06-1.06h4.69c0.58,0,1.06,0.47,1.06,1.06v4.69c0,0.58-0.47,1.06-1.06,1.06H29.91z"/>
	<path id="path38" inkscape:connector-curvature="0" fill="#472B29" d="M34.59,14.7c0.39,0,0.71,0.32,0.71,0.71v4.69
		c0,0.39-0.32,0.71-0.71,0.71h-4.69c-0.39,0-0.71-0.32-0.71-0.71v-4.69c0-0.39,0.32-0.71,0.71-0.71H34.59 M34.59,14h-4.69
		c-0.78,0-1.41,0.63-1.41,1.41v4.69c0,0.78,0.63,1.41,1.41,1.41h4.69c0.78,0,1.41-0.63,1.41-1.41v-4.69C36,14.63,35.37,14,34.59,14z
		"/>
	<path id="path40" inkscape:connector-curvature="0" fill="#472B29" d="M34.25,19.88c-0.07,0-0.13-0.06-0.13-0.13v-0.94
		c0-0.07,0.06-0.13,0.13-0.13s0.13,0.06,0.13,0.13v0.94C34.38,19.82,34.32,19.88,34.25,19.88z"/>
	<g id="g44">
		<path id="path42" inkscape:connector-curvature="0" fill="#472B29" d="M34.25,18.19c-0.07,0-0.13-0.06-0.13-0.13v-2.19h-0.56
			c-0.07,0-0.13-0.06-0.13-0.13s0.06-0.13,0.13-0.13h0.69c0.07,0,0.13,0.06,0.13,0.13v2.31C34.38,18.13,34.32,18.19,34.25,18.19z"/>
	</g>
	<g id="g48">
		<path id="path46" inkscape:connector-curvature="0" fill="#472B29" d="M32.59,15.88h-2.34c-0.07,0-0.13-0.06-0.13-0.13
			s0.06-0.13,0.13-0.13h2.34c0.07,0,0.13,0.06,0.13,0.13S32.66,15.88,32.59,15.88z"/>
	</g>
</g>
<g id="g76">
	<path id="path52" inkscape:connector-curvature="0" fill="#C0D078" d="M29.91,35.65c-0.58,0-1.06-0.47-1.06-1.06v-4.69
		c0-0.58,0.47-1.06,1.06-1.06h4.69c0.58,0,1.06,0.47,1.06,1.06v4.69c0,0.58-0.47,1.06-1.06,1.06H29.91z"/>
	<path id="path54" inkscape:connector-curvature="0" fill="#472B29" d="M34.59,29.2c0.39,0,0.71,0.32,0.71,0.71v4.69
		c0,0.39-0.32,0.71-0.71,0.71h-4.69c-0.39,0-0.71-0.32-0.71-0.71v-4.69c0-0.39,0.32-0.71,0.71-0.71H34.59 M34.59,28.5h-4.69
		c-0.78,0-1.41,0.63-1.41,1.41v4.69c0,0.78,0.63,1.41,1.41,1.41h4.69c0.78,0,1.41-0.63,1.41-1.41v-4.69
		C36,29.13,35.37,28.5,34.59,28.5z"/>
	<path id="path56" inkscape:connector-curvature="0" fill="#472B29" d="M31.69,34.38h-1.44c-0.07,0-0.13-0.06-0.13-0.13
		s0.06-0.13,0.13-0.13h1.44c0.07,0,0.13,0.06,0.13,0.13S31.76,34.38,31.69,34.38z"/>
	<path id="path58" inkscape:connector-curvature="0" fill="#472B29" d="M34.25,34.38h-1.5c-0.07,0-0.13-0.06-0.13-0.13
		s0.06-0.13,0.13-0.13h1.38v-0.66c0-0.07,0.06-0.13,0.13-0.13s0.13,0.06,0.13,0.13v0.78C34.38,34.32,34.32,34.38,34.25,34.38z"/>
	<path id="path60" inkscape:connector-curvature="0" fill="#472B29" d="M34.25,32.72c-0.07,0-0.13-0.06-0.13-0.13v-2.34
		c0-0.07,0.06-0.13,0.13-0.13s0.13,0.06,0.13,0.13v2.34C34.38,32.66,34.32,32.72,34.25,32.72z"/>
	<path id="path62" inkscape:connector-curvature="0" fill="#C0D078" d="M15.41,35.65c-0.58,0-1.06-0.47-1.06-1.06v-4.69
		c0-0.58,0.47-1.06,1.06-1.06h4.69c0.58,0,1.06,0.47,1.06,1.06v4.69c0,0.58-0.47,1.06-1.06,1.06H15.41z"/>
	<path id="path64" inkscape:connector-curvature="0" fill="#472B29" d="M20.09,29.2c0.39,0,0.71,0.32,0.71,0.71v4.69
		c0,0.39-0.32,0.71-0.71,0.71h-4.69c-0.39,0-0.71-0.32-0.71-0.71v-4.69c0-0.39,0.32-0.71,0.71-0.71H20.09 M20.09,28.5h-4.69
		c-0.78,0-1.41,0.63-1.41,1.41v4.69c0,0.78,0.63,1.41,1.41,1.41h4.69c0.78,0,1.41-0.63,1.41-1.41v-4.69
		C21.5,29.13,20.87,28.5,20.09,28.5z"/>
	<path id="path66" inkscape:connector-curvature="0" fill="#472B29" d="M15.75,31.31c-0.07,0-0.13-0.06-0.13-0.13v-0.94
		c0-0.07,0.06-0.13,0.13-0.13s0.13,0.06,0.13,0.13v0.94C15.88,31.26,15.82,31.31,15.75,31.31z"/>
	<g id="g70">
		<path id="path68" inkscape:connector-curvature="0" fill="#472B29" d="M16.44,34.38h-0.69c-0.07,0-0.13-0.06-0.13-0.13v-2.31
			c0-0.07,0.06-0.13,0.13-0.13s0.13,0.06,0.13,0.13v2.19h0.56c0.07,0,0.13,0.06,0.13,0.13S16.51,34.38,16.44,34.38z"/>
	</g>
	<g id="g74">
		<path id="path72" inkscape:connector-curvature="0" fill="#472B29" d="M19.75,34.38h-2.34c-0.07,0-0.13-0.06-0.13-0.13
			s0.06-0.13,0.13-0.13h2.34c0.07,0,0.13,0.06,0.13,0.13S19.82,34.38,19.75,34.38z"/>
	</g>
</g>
<g id="g80">
	<path id="path78" inkscape:connector-curvature="0" fill="#472B29" d="M25.75,16.5h-4.5c-0.14,0-0.25-0.11-0.25-0.25
		S21.11,16,21.25,16h4.5c0.14,0,0.25,0.11,0.25,0.25S25.89,16.5,25.75,16.5z"/>
</g>
<g id="g84">
	<path id="path82" inkscape:connector-curvature="0" fill="#472B29" d="M28.75,16.5h-1.5c-0.14,0-0.25-0.11-0.25-0.25
		S27.11,16,27.25,16h1.5c0.14,0,0.25,0.11,0.25,0.25S28.89,16.5,28.75,16.5z"/>
</g>
<g id="g88">
	<path id="path86" inkscape:connector-curvature="0" fill="#472B29" d="M33.75,26c-0.14,0-0.25-0.11-0.25-0.25v-4.5
		c0-0.14,0.11-0.25,0.25-0.25S34,21.11,34,21.25v4.5C34,25.89,33.89,26,33.75,26z"/>
</g>
<g id="g92">
	<path id="path90" inkscape:connector-curvature="0" fill="#472B29" d="M33.75,29c-0.14,0-0.25-0.11-0.25-0.25v-1.5
		c0-0.14,0.11-0.25,0.25-0.25S34,27.11,34,27.25v1.5C34,28.89,33.89,29,33.75,29z"/>
</g>
<g id="g96">
	<path id="path94" inkscape:connector-curvature="0" fill="#472B29" d="M28.75,34h-4.5C24.11,34,24,33.89,24,33.75
		s0.11-0.25,0.25-0.25h4.5c0.14,0,0.25,0.11,0.25,0.25S28.89,34,28.75,34z"/>
</g>
<g id="g100">
	<path id="path98" inkscape:connector-curvature="0" fill="#472B29" d="M22.75,34h-1.5C21.11,34,21,33.89,21,33.75
		s0.11-0.25,0.25-0.25h1.5c0.14,0,0.25,0.11,0.25,0.25S22.89,34,22.75,34z"/>
</g>
<g id="g104">
	<path id="path102" inkscape:connector-curvature="0" fill="#472B29" d="M16.25,29C16.11,29,16,28.89,16,28.75v-4.5
		c0-0.14,0.11-0.25,0.25-0.25s0.25,0.11,0.25,0.25v4.5C16.5,28.89,16.39,29,16.25,29z"/>
</g>
<g id="g108">
	<path id="path106" inkscape:connector-curvature="0" fill="#472B29" d="M16.25,23C16.11,23,16,22.89,16,22.75v-1.5
		c0-0.14,0.11-0.25,0.25-0.25s0.25,0.11,0.25,0.25v1.5C16.5,22.89,16.39,23,16.25,23z"/>
</g>
</svg>
