<?xml version="1.0" encoding="utf-8"?>
<!-- Generator: Adobe Illustrator 16.0.0, SVG Export Plug-In . SVG Version: 6.00 Build 0)  -->
<!DOCTYPE svg PUBLIC "-//W3C//DTD SVG 1.1//EN" "http://www.w3.org/Graphics/SVG/1.1/DTD/svg11.dtd">
<svg version="1.1"
	 id="svg80" xmlns:dc="http://purl.org/dc/elements/1.1/" xmlns:cc="http://creativecommons.org/ns#" xmlns:rdf="http://www.w3.org/1999/02/22-rdf-syntax-ns#" xmlns:svg="http://www.w3.org/2000/svg" xmlns:sodipodi="http://sodipodi.sourceforge.net/DTD/sodipodi-0.dtd" xmlns:inkscape="http://www.inkscape.org/namespaces/inkscape" inkscape:version="0.92.4 (5da689c313, 2019-01-14)" sodipodi:docname="card-payment.svg"
	 xmlns="http://www.w3.org/2000/svg" xmlns:xlink="http://www.w3.org/1999/xlink" x="0px" y="0px" width="50px" height="50px"
	 viewBox="0 0 50 50" enable-background="new 0 0 50 50" xml:space="preserve">
<sodipodi:namedview  inkscape:cy="25" inkscape:cx="25" inkscape:zoom="4.72" showgrid="false" guidetolerance="10" gridtolerance="10" objecttolerance="10" bordercolor="#666666" pagecolor="#ffffff" borderopacity="1" id="namedview82" inkscape:current-layer="svg80" inkscape:window-maximized="1" inkscape:window-y="-8" inkscape:window-x="-8" inkscape:window-height="705" inkscape:window-width="1366" inkscape:pageshadow="2" inkscape:pageopacity="0">
	</sodipodi:namedview>
<g id="g1007" transform="matrix(4.52,0,0,4.52,-1.12774,-2.938)">
	<path id="path6" inkscape:connector-curvature="0" opacity="0.309" fill="#E4E4F9" enable-background="new    " d="M5.73,1.94
		c-2.26,0-4.09,1.83-4.09,4.09s1.83,4.09,4.09,4.09c2.26,0,4.09-1.83,4.09-4.09S7.99,1.94,5.73,1.94z"/>
	<g id="g997">
		<path id="path4" inkscape:connector-curvature="0" fill="#88CDD7" d="M8.71,1.83c-0.06,0-0.11,0.05-0.11,0.11
			c0,0.06,0.05,0.11,0.11,0.11c0.06,0,0.11-0.05,0.11-0.11C8.82,1.88,8.77,1.83,8.71,1.83z"/>
		<path id="path8" inkscape:connector-curvature="0" fill="#88CDD7" d="M9.38,1.72c-0.24,0-0.44,0.2-0.44,0.44s0.2,0.44,0.44,0.44
			c0.24,0,0.44-0.2,0.44-0.44S9.62,1.72,9.38,1.72z"/>
		<path id="path10" inkscape:connector-curvature="0" fill="#8889B9" d="M9.82,2.94c-0.12,0-0.22,0.1-0.22,0.22
			c0,0.12,0.1,0.22,0.22,0.22c0.12,0,0.22-0.1,0.22-0.22C10.04,3.04,9.94,2.94,9.82,2.94z"/>
		<path id="path12" inkscape:connector-curvature="0" fill="#88CDD7" d="M9.15,8.69c-0.12,0-0.22,0.1-0.22,0.22
			c0,0.12,0.1,0.22,0.22,0.22c0.12,0,0.22-0.1,0.22-0.22C9.38,8.79,9.28,8.69,9.15,8.69z M1.85,7.03c-0.24,0-0.44,0.2-0.44,0.44
			c0,0.24,0.2,0.44,0.44,0.44S2.3,7.72,2.3,7.48C2.3,7.23,2.1,7.03,1.85,7.03z"/>
		<path id="path14" inkscape:connector-curvature="0" fill="#8889B9" d="M2.96,9.91c-0.12,0-0.22,0.1-0.22,0.22
			c0,0.12,0.1,0.22,0.22,0.22c0.12,0,0.22-0.1,0.22-0.22C3.18,10.01,3.08,9.91,2.96,9.91z"/>
		<path id="path16" inkscape:connector-curvature="0" fill="#FFFFFF" d="M2.24,5.93c-0.15,0-0.28,0.12-0.28,0.28
			c0,0.15,0.12,0.28,0.28,0.28c0.15,0,0.28-0.12,0.28-0.28C2.52,6.05,2.39,5.93,2.24,5.93z M8.99,4.05c-0.09,0-0.17,0.08-0.17,0.17
			c0,0.09,0.08,0.17,0.17,0.17c0.09,0,0.17-0.08,0.17-0.17C9.15,4.12,9.08,4.05,8.99,4.05z"/>
	</g>
</g>
<path id="path2" inkscape:connector-curvature="0" fill="none" d="M0,50V0h50v50H0z"/>
<path id="path22" inkscape:connector-curvature="0" fill="#F6CCA4" d="M11,23.5l6-4c0,0,1-1,3.5-1c0,3,0,10,0,10l-8,6.5"/>
<path id="path24" inkscape:connector-curvature="0" fill="#F6CCA4" d="M21.77,34.04c-0.69,0-1.3-0.42-1.55-1.07
	c-0.3-0.79,0.1-1.72,0.92-2.11l4.07-1.97l0.06-0.15l0.05-0.14l-1.97-4.08c-0.4-0.82-0.14-1.79,0.59-2.23
	c0.39-0.23,1.01-0.38,1.62-0.38c0.79,0,1.4,0.23,1.6,0.61l1.25,4.86c0.46,2.17-0.03,3.63-1.46,4.33l-4.46,2.16
	C22.26,33.98,22.02,34.04,21.77,34.04z"/>
<path id="path26" inkscape:connector-curvature="0" fill="#472B29" d="M25.55,22.26c0.61,0,1.12,0.16,1.28,0.4l1.23,4.8
	c0.43,2,0,3.33-1.27,3.94l-4.46,2.16c-0.18,0.09-0.37,0.13-0.56,0.13c-0.54,0-1.02-0.33-1.22-0.84c-0.24-0.62,0.09-1.36,0.74-1.67
	l3.94-1.91c0.36-0.17,0.51-0.61,0.33-0.96l-1.91-3.94c-0.32-0.65-0.12-1.43,0.45-1.77C24.45,22.39,25.01,22.26,25.55,22.26
	 M25.55,21.56c-0.66,0-1.35,0.16-1.8,0.42c-0.91,0.54-1.19,1.73-0.73,2.68l1.91,3.94c0,0.01,0,0.02-0.01,0.03l-3.94,1.91
	c-0.95,0.46-1.47,1.57-1.09,2.55c0.31,0.81,1.07,1.29,1.87,1.29c0.29,0,0.59-0.07,0.87-0.2l4.46-2.16c1.76-0.85,2.08-2.67,1.64-4.73
	l-1.26-4.9C27.2,21.81,26.39,21.56,25.55,21.56z"/>
<path id="path28" inkscape:connector-curvature="0" fill="#F6CCA4" d="M22.32,31.88c-0.69,0-1.3-0.42-1.55-1.07
	c-0.3-0.79,0.1-1.72,0.92-2.11l5.07-2.47l0.06-0.15l0.05-0.14l-0.07-0.15l-1.9-3.93c-0.4-0.82-0.14-1.79,0.59-2.23
	c0.39-0.23,1.01-0.38,1.62-0.38c0.79,0,1.4,0.23,1.6,0.61l1.25,4.86c0.46,2.17-0.03,3.63-1.46,4.33l-5.46,2.66
	C22.81,31.83,22.56,31.88,22.32,31.88z"/>
<path id="path30" inkscape:connector-curvature="0" fill="#472B29" d="M27.1,19.61c0.61,0,1.12,0.16,1.28,0.4l1.23,4.8
	c0.43,2,0,3.33-1.27,3.94l-5.46,2.66c-0.18,0.09-0.37,0.13-0.56,0.13c-0.54,0-1.02-0.33-1.22-0.84c-0.24-0.62,0.09-1.36,0.75-1.67
	l4.94-2.41c0.36-0.17,0.51-0.6,0.33-0.96l-1.91-3.94c-0.32-0.65-0.12-1.43,0.45-1.77C26,19.74,26.56,19.61,27.1,19.61 M27.1,18.91
	c-0.66,0-1.35,0.16-1.8,0.43c-0.91,0.54-1.19,1.73-0.73,2.68l1.91,3.94c0,0.01,0,0.02-0.01,0.03l-4.94,2.41
	c-0.95,0.46-1.47,1.57-1.09,2.55c0.31,0.81,1.07,1.29,1.87,1.29c0.29,0,0.59-0.06,0.87-0.2l5.46-2.66c1.76-0.85,2.08-2.68,1.64-4.73
	l-1.26-4.9C28.75,19.16,27.94,18.91,27.1,18.91z"/>
<g id="g34">
	<path id="path32" inkscape:connector-curvature="0" fill="#472B29" d="M11,23.85c-0.11,0-0.22-0.05-0.29-0.16
		c-0.11-0.16-0.06-0.38,0.1-0.49l6-4c0.07-0.05,1.88-1.32,3.74-1.06c0.19,0.03,0.32,0.2,0.3,0.4c-0.03,0.19-0.21,0.32-0.4,0.3
		c-1.59-0.23-3.23,0.93-3.25,0.94l-6.01,4.01C11.13,23.83,11.07,23.85,11,23.85z"/>
</g>
<g id="g40">
	<path id="path36" inkscape:connector-curvature="0" fill="#F1BC19" d="M21.25,26.65c-1.05,0-1.9-0.85-1.9-1.9v-8.5
		c0-1.05,0.85-1.9,1.9-1.9h14.5c1.05,0,1.9,0.85,1.9,1.9v8.5c0,1.05-0.85,1.9-1.9,1.9H21.25z"/>
	<path id="path38" inkscape:connector-curvature="0" fill="#472B29" d="M35.75,14.7c0.85,0,1.55,0.7,1.55,1.55v8.5
		c0,0.85-0.7,1.55-1.55,1.55h-14.5c-0.85,0-1.55-0.7-1.55-1.55v-8.5c0-0.85,0.7-1.55,1.55-1.55H35.75 M35.75,14h-14.5
		C20.01,14,19,15.01,19,16.25v8.5c0,1.24,1.01,2.25,2.25,2.25h14.5c1.24,0,2.25-1.01,2.25-2.25v-8.5C38,15.01,36.99,14,35.75,14z"/>
</g>
<g id="g44">
	<rect id="rect42" x="21.25" y="19.75" fill="#FFFFFF" width="14.5" height="1.5"/>
</g>
<g id="g48">
	<path id="path46" inkscape:connector-curvature="0" fill="#472B29" d="M35.75,21.38h-1.38c-0.07,0-0.13-0.06-0.13-0.13
		s0.06-0.13,0.13-0.13h1.25v-1.25H28.5c-0.07,0-0.13-0.06-0.13-0.13s0.06-0.13,0.13-0.13h7.25c0.07,0,0.13,0.06,0.13,0.13v1.5
		C35.87,21.32,35.82,21.38,35.75,21.38z"/>
</g>
<g id="g52">
	<path id="path50" inkscape:connector-curvature="0" fill="#472B29" d="M27.44,19.88h-4.22c-0.07,0-0.13-0.06-0.13-0.13
		s0.06-0.13,0.13-0.13h4.22c0.07,0,0.13,0.06,0.13,0.13S27.51,19.88,27.44,19.88z"/>
</g>
<g id="g56">
	<path id="path54" inkscape:connector-curvature="0" fill="#472B29" d="M32.87,21.38H21.25c-0.07,0-0.13-0.06-0.13-0.13v-1.5
		c0-0.07,0.06-0.13,0.13-0.13h1.16c0.07,0,0.13,0.06,0.13,0.13s-0.06,0.13-0.13,0.13h-1.03v1.25h11.5c0.07,0,0.13,0.06,0.13,0.13
		S32.94,21.38,32.87,21.38z"/>
</g>
<g id="g62">
	<path id="path58" inkscape:connector-curvature="0" fill="#F6CCA4" d="M12.5,34.59H16c0,0,2.5,0,4.5-2.02s6.5-6.05,6.5-6.05
		c2.21-1.55,0.17-5.25-2.5-3.53c-3.97,2.56-5.5,3.53-5.5,3.53s-2,1.01-3,0"/>
	<path id="path60" inkscape:connector-curvature="0" fill="#472B29" d="M16,34.94h-3.5c-0.19,0-0.35-0.16-0.35-0.35
		s0.16-0.35,0.35-0.35H16c0.02,0,2.38-0.03,4.25-1.91c1.98-2,6.47-6.02,6.52-6.06c1-0.71,0.99-1.84,0.48-2.6
		c-0.44-0.65-1.37-1.14-2.56-0.38c-3.93,2.54-5.49,3.52-5.5,3.53c-0.12,0.06-2.27,1.13-3.44-0.05c-0.14-0.14-0.14-0.36,0-0.49
		c0.14-0.14,0.36-0.14,0.5,0c0.81,0.81,2.58-0.06,2.59-0.07l0,0c0,0,1.56-0.98,5.47-3.51c1.51-0.97,2.85-0.41,3.52,0.57
		c0.69,1.02,0.7,2.6-0.63,3.54c-0.01,0.01-4.48,4.02-6.45,6.01C18.67,34.92,16.11,34.94,16,34.94L16,34.94z"/>
</g>
<g id="g66">
	<rect id="rect64" x="19.5" y="16.5" fill="#472B29" width="18" height="2"/>
</g>
<g id="g70">
	<path id="path68" inkscape:connector-curvature="0" fill="#C29B67" d="M24.25,24.25l1.66,1.94c0,0,1.59-1.13,0.59-2.13
		S24.25,24.25,24.25,24.25z"/>
</g>
<g id="g74">
	<path id="path72" inkscape:connector-curvature="0" fill="#472B29" d="M25.84,26.42c-0.05,0-0.1-0.03-0.12-0.08
		c-0.31-0.79-0.85-1.43-1.6-1.88c-0.06-0.04-0.08-0.11-0.04-0.17c0.04-0.06,0.11-0.08,0.17-0.04c0.8,0.48,1.38,1.15,1.71,2
		c0.03,0.06-0.01,0.14-0.07,0.16C25.87,26.41,25.86,26.42,25.84,26.42z"/>
</g>
</svg>
