<?xml version="1.0" encoding="utf-8"?>
<!-- Generator: Adobe Illustrator 16.0.0, SVG Export Plug-In . SVG Version: 6.00 Build 0)  -->
<!DOCTYPE svg PUBLIC "-//W3C//DTD SVG 1.1//EN" "http://www.w3.org/Graphics/SVG/1.1/DTD/svg11.dtd">
<svg version="1.1"
	 id="svg76" xmlns:dc="http://purl.org/dc/elements/1.1/" xmlns:cc="http://creativecommons.org/ns#" xmlns:rdf="http://www.w3.org/1999/02/22-rdf-syntax-ns#" xmlns:svg="http://www.w3.org/2000/svg" xmlns:sodipodi="http://sodipodi.sourceforge.net/DTD/sodipodi-0.dtd" xmlns:inkscape="http://www.inkscape.org/namespaces/inkscape" inkscape:version="0.92.4 (5da689c313, 2019-01-14)" sodipodi:docname="cash-in-hand.svg"
	 xmlns="http://www.w3.org/2000/svg" xmlns:xlink="http://www.w3.org/1999/xlink" x="0px" y="0px" width="50px" height="50px"
	 viewBox="0 0 50 50" enable-background="new 0 0 50 50" xml:space="preserve">
<sodipodi:namedview  inkscape:cy="25" inkscape:cx="25" inkscape:zoom="4.72" showgrid="false" guidetolerance="10" gridtolerance="10" objecttolerance="10" bordercolor="#666666" pagecolor="#ffffff" borderopacity="1" id="namedview78" inkscape:current-layer="svg76" inkscape:window-maximized="1" inkscape:window-y="-8" inkscape:window-x="-8" inkscape:window-height="705" inkscape:window-width="1366" inkscape:pageshadow="2" inkscape:pageopacity="0">
	</sodipodi:namedview>
<g id="g1007" transform="scale(4.52)">
	<path id="path6-2" inkscape:connector-curvature="0" opacity="0.309" fill="#E4E4F9" enable-background="new    " d="M5.53,1.44
		c-2.26,0-4.09,1.83-4.09,4.09s1.83,4.09,4.09,4.09c2.26,0,4.09-1.83,4.09-4.09S7.79,1.44,5.53,1.44z"/>
	<g id="g997">
		<path id="path4" inkscape:connector-curvature="0" fill="#88CDD7" d="M8.52,1.33c-0.06,0-0.11,0.05-0.11,0.11
			c0,0.06,0.05,0.11,0.11,0.11S8.63,1.5,8.63,1.44C8.63,1.38,8.58,1.33,8.52,1.33z"/>
		<path id="path8" inkscape:connector-curvature="0" fill="#88CDD7" d="M9.18,1.22c-0.24,0-0.44,0.2-0.44,0.44S8.94,2.1,9.18,2.1
			s0.44-0.2,0.44-0.44S9.42,1.22,9.18,1.22z"/>
		<path id="path10" inkscape:connector-curvature="0" fill="#8889B9" d="M9.62,2.43c-0.12,0-0.22,0.1-0.22,0.22
			c0,0.12,0.1,0.22,0.22,0.22c0.12,0,0.22-0.1,0.22-0.22C9.85,2.53,9.75,2.43,9.62,2.43z"/>
		<path id="path12" inkscape:connector-curvature="0" fill="#88CDD7" d="M8.96,8.19c-0.12,0-0.22,0.1-0.22,0.22s0.1,0.22,0.22,0.22
			c0.12,0,0.22-0.1,0.22-0.22S9.08,8.19,8.96,8.19z M1.66,6.53c-0.24,0-0.44,0.2-0.44,0.44c0,0.24,0.2,0.44,0.44,0.44
			S2.1,7.21,2.1,6.97C2.1,6.73,1.9,6.53,1.66,6.53z"/>
		<path id="path14" inkscape:connector-curvature="0" fill="#8889B9" d="M2.77,9.4c-0.12,0-0.22,0.1-0.22,0.22
			c0,0.12,0.1,0.22,0.22,0.22s0.22-0.1,0.22-0.22C2.99,9.5,2.89,9.4,2.77,9.4z"/>
		<path id="path16" inkscape:connector-curvature="0" fill="#FFFFFF" d="M2.05,5.42c-0.15,0-0.28,0.12-0.28,0.28
			c0,0.15,0.12,0.28,0.28,0.28S2.32,5.85,2.32,5.7C2.32,5.54,2.2,5.42,2.05,5.42z M8.79,3.54c-0.09,0-0.17,0.08-0.17,0.17
			c0,0.09,0.08,0.17,0.17,0.17S8.96,3.8,8.96,3.71C8.96,3.62,8.88,3.54,8.79,3.54z"/>
	</g>
</g>
<path id="path2" inkscape:connector-curvature="0" fill="none" d="M0,50V0h50v50H0z"/>
<path id="path18" inkscape:connector-curvature="0" fill="#C0D078" d="M26.06,32.49c-0.18,0-0.34-0.07-0.47-0.19l-5.72-5.47
	c-0.13-0.13-0.21-0.29-0.21-0.48c0-0.18,0.06-0.36,0.19-0.49l10.98-11.49c0.13-0.14,0.3-0.21,0.49-0.21c0.18,0,0.34,0.07,0.47,0.19
	l5.72,5.47c0.27,0.26,0.28,0.69,0.02,0.96L26.55,32.28C26.42,32.41,26.25,32.49,26.06,32.49z"/>
<path id="path20" inkscape:connector-curvature="0" fill="#472B29" d="M31.32,14.52c0.09,0,0.17,0.03,0.23,0.09l5.72,5.47
	c0.09,0.08,0.1,0.18,0.1,0.23c0,0.05-0.01,0.15-0.09,0.24L26.3,32.03c-0.08,0.09-0.19,0.1-0.24,0.1c-0.08,0-0.17-0.03-0.23-0.09
	l-5.72-5.46c-0.13-0.13-0.14-0.34-0.01-0.47l10.98-11.49C31.17,14.53,31.27,14.52,31.32,14.52 M31.32,13.82
	c-0.27,0-0.54,0.11-0.75,0.32L19.6,25.63c-0.39,0.41-0.38,1.06,0.03,1.46l5.72,5.47c0.2,0.19,0.46,0.29,0.71,0.29
	c0.27,0,0.54-0.11,0.75-0.32l10.98-11.49c0.39-0.41,0.38-1.06-0.03-1.46l-5.72-5.47C31.83,13.91,31.58,13.82,31.32,13.82z"/>
<path id="path22" inkscape:connector-curvature="0" fill="#C0D078" d="M27.79,32.6c-0.14,0-0.28-0.04-0.4-0.11l-7.11-4.17
	c-0.18-0.11-0.31-0.28-0.37-0.49c-0.05-0.21-0.02-0.42,0.08-0.61l8.3-14.13c0.14-0.24,0.41-0.39,0.69-0.39
	c0.14,0,0.28,0.04,0.4,0.11l7.11,4.17c0.38,0.22,0.51,0.71,0.28,1.09l-8.3,14.13C28.34,32.45,28.07,32.6,27.79,32.6z"/>
<path id="path24" inkscape:connector-curvature="0" fill="#472B29" d="M28.98,13.05L28.98,13.05c0.08,0,0.16,0.02,0.23,0.06
	l7.11,4.17c0.21,0.13,0.29,0.4,0.16,0.61l-8.3,14.13c-0.08,0.14-0.23,0.22-0.39,0.22c-0.08,0-0.16-0.02-0.23-0.06l-7.11-4.17
	c-0.21-0.13-0.29-0.4-0.16-0.61l8.3-14.13C28.67,13.13,28.82,13.05,28.98,13.05 M28.98,12.35c-0.39,0-0.78,0.2-0.99,0.57l-8.3,14.13
	c-0.32,0.55-0.14,1.25,0.41,1.57l7.11,4.17c0.18,0.11,0.38,0.16,0.58,0.16c0.39,0,0.78-0.2,0.99-0.57l8.3-14.13
	c0.32-0.55,0.14-1.25-0.41-1.57l-7.11-4.17C29.38,12.4,29.18,12.35,28.98,12.35z"/>
<path id="path26" inkscape:connector-curvature="0" fill="#88AE45" d="M25.73,20.61l-3.98,6.76l3.93,2.3
	c0.78-0.74,1.88-1.05,2.93-0.82l5.28-8.98c-0.68-0.8-0.93-1.89-0.66-2.92l-2.25-1.32c-0.75,0.66-1.78,0.94-2.76,0.75l-0.39,0.66
	L25.73,20.61z"/>
<g id="g32">
	<path id="path28" inkscape:connector-curvature="0" fill="#C0D078" d="M28.54,19.97c-1.36,0-2.46,1.1-2.46,2.46s1.1,2.46,2.46,2.46
		S31,23.79,31,22.43S29.9,19.97,28.54,19.97z"/>
	<path id="path30" inkscape:connector-curvature="0" fill="#472B29" d="M28.54,25.02c-0.45,0-0.9-0.12-1.3-0.36
		c-0.59-0.35-1.02-0.91-1.19-1.58s-0.08-1.36,0.27-1.96c0.72-1.23,2.31-1.64,3.54-0.92s1.64,2.31,0.92,3.54
		c-0.35,0.6-0.91,1.02-1.58,1.19C28.97,24.99,28.75,25.02,28.54,25.02z M28.54,20.1c-0.8,0-1.58,0.41-2.02,1.15l0,0
		c-0.32,0.54-0.4,1.17-0.25,1.77c0.16,0.6,0.54,1.11,1.08,1.43c0.54,0.32,1.17,0.4,1.77,0.25c0.6-0.16,1.11-0.54,1.43-1.08
		c0.65-1.11,0.28-2.54-0.83-3.2C29.35,20.2,28.95,20.1,28.54,20.1z"/>
</g>
<g id="g38">
	<path id="path34" inkscape:connector-curvature="0" fill="#C0D078" d="M30.74,18C30.33,18,30,18.33,30,18.74s0.33,0.74,0.74,0.74
		s0.74-0.33,0.74-0.74S31.14,18,30.74,18z"/>
	<path id="path36" inkscape:connector-curvature="0" fill="#472B29" d="M30.73,19.6c-0.15,0-0.3-0.04-0.43-0.12
		c-0.2-0.12-0.34-0.3-0.4-0.53c-0.06-0.22-0.03-0.45,0.09-0.65c0.12-0.2,0.3-0.34,0.53-0.4c0.22-0.06,0.45-0.03,0.65,0.09
		c0.41,0.24,0.55,0.77,0.31,1.18c-0.12,0.2-0.3,0.34-0.53,0.4C30.88,19.59,30.81,19.6,30.73,19.6z M30.74,18.13
		c-0.05,0-0.1,0.01-0.15,0.02c-0.16,0.04-0.29,0.14-0.37,0.28l0,0c-0.08,0.14-0.11,0.3-0.06,0.46c0.04,0.16,0.14,0.29,0.28,0.37
		c0.14,0.08,0.3,0.11,0.46,0.06s0.29-0.14,0.37-0.28c0.17-0.29,0.07-0.67-0.22-0.84C30.95,18.15,30.84,18.13,30.74,18.13z"/>
</g>
<g id="g42">
	<path id="path40" inkscape:connector-curvature="0" fill="#472B29" d="M26.84,18.86c-0.02,0-0.04-0.01-0.06-0.02
		c-0.06-0.03-0.08-0.11-0.04-0.17l0.66-1.13c0.04-0.06,0.11-0.08,0.17-0.04c0.06,0.03,0.08,0.11,0.04,0.17l-0.66,1.13
		C26.92,18.83,26.88,18.86,26.84,18.86z"/>
</g>
<g id="g46">
	<path id="path44" inkscape:connector-curvature="0" fill="#472B29" d="M25.68,29.8c-0.02,0-0.04-0.01-0.06-0.02l-3.92-2.31
		c-0.03-0.02-0.05-0.04-0.06-0.08c-0.01-0.03,0-0.07,0.01-0.09l3.98-6.76c0.03-0.06,0.11-0.08,0.17-0.04
		c0.06,0.04,0.08,0.11,0.04,0.17l-3.91,6.65l3.74,2.2c0.78-0.71,1.85-1,2.89-0.8l5.19-8.83c-0.65-0.81-0.89-1.87-0.65-2.87
		l-2.09-1.23c-0.75,0.62-1.75,0.9-2.71,0.74l-0.34,0.59c-0.04,0.06-0.11,0.08-0.17,0.04c-0.06-0.04-0.08-0.11-0.04-0.17l0.39-0.66
		c0.03-0.05,0.08-0.07,0.13-0.06c0.94,0.18,1.94-0.09,2.66-0.72c0.04-0.04,0.1-0.04,0.15-0.01l2.25,1.32
		c0.05,0.03,0.07,0.08,0.06,0.14c-0.26,0.98-0.02,2.03,0.63,2.81c0.03,0.04,0.04,0.1,0.01,0.14l-5.28,8.98
		c-0.03,0.05-0.08,0.07-0.13,0.06c-1.01-0.22-2.07,0.07-2.82,0.79C25.74,29.79,25.71,29.8,25.68,29.8z"/>
</g>
<g id="g52">
	<path id="path48" inkscape:connector-curvature="0" fill="#FDDBBC" d="M14.77,27.73l1.46-0.46l5.06-7.95
		c0.2-0.31,0.52-0.55,0.88-0.66l3.02-0.52l-3.35,5.68c-0.37,0.75,0.15,1.59,0.85,1.99c0.28,0.15,0.56,0.23,0.84,0.23
		c0.28,0,0.56-0.08,0.83-0.23l0.03-0.02l3.95-3.3c0.24-0.2,0.55-0.31,0.87-0.31c0.36,0,0.69,0.14,0.95,0.38
		c0.51,0.49,0.57,1.28,0.13,1.84l-5.19,6.2c-0.74,0.93-1.78,1.58-2.93,1.84l-5.58,1.22L14.77,27.73z"/>
	<path id="path50" inkscape:connector-curvature="0" fill="#472B29" d="M24.5,18.62l-2.96,5.02l-0.01,0.02l-0.01,0.02
		c-0.45,0.91,0.16,1.95,1.01,2.43c0.33,0.18,0.67,0.28,1,0.28c0.34,0,0.68-0.09,1.01-0.28l0.06-0.03l0.05-0.04l3.92-3.27
		c0.18-0.15,0.41-0.23,0.65-0.23c0.27,0,0.52,0.1,0.71,0.28c0.38,0.37,0.42,0.96,0.11,1.36l-5.21,6.22
		c-0.68,0.86-1.65,1.47-2.73,1.7l-5.26,1.15l-1.62-5.29l1.01-0.32l0.24-0.08l0.14-0.21l4.98-7.84c0.15-0.24,0.38-0.41,0.65-0.5
		L24.5,18.62 M25.88,17.67l-3.81,0.66c-0.44,0.13-0.82,0.42-1.07,0.8l-4.99,7.84l-1.67,0.53l2.02,6.57l5.89-1.29
		c1.24-0.27,2.34-0.96,3.13-1.95l5.19-6.2c0.55-0.7,0.48-1.7-0.16-2.31c-0.33-0.32-0.76-0.48-1.19-0.48c-0.38,0-0.77,0.13-1.09,0.39
		l-3.93,3.28c-0.23,0.13-0.45,0.19-0.66,0.19c-0.23,0-0.45-0.07-0.66-0.19c-0.55-0.31-0.99-0.97-0.72-1.51L25.88,17.67z"/>
</g>
<g id="g58">
	<path id="path54" inkscape:connector-curvature="0" fill="#AFABD4" d="M11.23,27.49l3.91-1.1l2.62,8.42l-3.92,1.1L11.23,27.49z"/>
	<path id="path56" inkscape:connector-curvature="0" fill="#472B29" d="M14.91,26.82l2.42,7.75l-3.24,0.91l-2.41-7.75L14.91,26.82
		 M15.38,25.96l-4.59,1.29l2.83,9.09l4.59-1.29L15.38,25.96z"/>
</g>
<g id="g62">
	<path id="path60" inkscape:connector-curvature="0" fill="#ECAD6F" d="M28.19,23.64c0,0,0.11,0.43,0.32,0.63
		c0.2,0.2,0.69,0.34,0.69,0.34s0.87-0.9,0.38-1.39C29.07,22.71,28.19,23.64,28.19,23.64z"/>
</g>
<g id="g66">
	<path id="path64" inkscape:connector-curvature="0" fill="#472B29" d="M14.59,30.15c-0.11,0-0.2-0.07-0.24-0.17l-0.52-1.64
		c-0.04-0.13,0.03-0.27,0.16-0.31c0.13-0.04,0.27,0.03,0.31,0.16l0.52,1.64c0.04,0.13-0.03,0.27-0.16,0.31
		C14.64,30.14,14.62,30.15,14.59,30.15z"/>
</g>
<g id="g70">
	<path id="path68" inkscape:connector-curvature="0" fill="#472B29" d="M15.99,34.34c-0.1,0-0.2-0.07-0.24-0.17l-0.99-3.04
		c-0.04-0.13,0.03-0.27,0.16-0.31c0.13-0.04,0.27,0.03,0.32,0.16l0.99,3.04c0.04,0.13-0.03,0.27-0.16,0.31
		C16.04,34.34,16.02,34.34,15.99,34.34z"/>
</g>
</svg>
