<?xml version="1.0" encoding="utf-8"?>
<!-- Generator: Adobe Illustrator 16.0.0, SVG Export Plug-In . SVG Version: 6.00 Build 0)  -->
<!DOCTYPE svg PUBLIC "-//W3C//DTD SVG 1.1//EN" "http://www.w3.org/Graphics/SVG/1.1/DTD/svg11.dtd">
<svg version="1.1"
	 id="svg174" xmlns:dc="http://purl.org/dc/elements/1.1/" xmlns:cc="http://creativecommons.org/ns#" xmlns:rdf="http://www.w3.org/1999/02/22-rdf-syntax-ns#" xmlns:svg="http://www.w3.org/2000/svg" xmlns:sodipodi="http://sodipodi.sourceforge.net/DTD/sodipodi-0.dtd" xmlns:inkscape="http://www.inkscape.org/namespaces/inkscape" inkscape:version="0.92.4 (5da689c313, 2019-01-14)" sodipodi:docname="cash-register.svg"
	 xmlns="http://www.w3.org/2000/svg" xmlns:xlink="http://www.w3.org/1999/xlink" x="0px" y="0px" width="50px" height="50px"
	 viewBox="0 0 50 50" enable-background="new 0 0 50 50" xml:space="preserve">
<sodipodi:namedview  inkscape:cy="25" inkscape:cx="25" inkscape:zoom="4.72" showgrid="false" guidetolerance="10" gridtolerance="10" objecttolerance="10" bordercolor="#666666" pagecolor="#ffffff" borderopacity="1" id="namedview176" inkscape:current-layer="svg174" inkscape:window-maximized="1" inkscape:window-y="-8" inkscape:window-x="-8" inkscape:window-height="705" inkscape:window-width="1366" inkscape:pageshadow="2" inkscape:pageopacity="0">
	</sodipodi:namedview>
<g id="g1007" transform="scale(4.52)">
	<path id="path6-8" inkscape:connector-curvature="0" opacity="0.309" fill="#E4E4F9" enable-background="new    " d="M5.53,1.44
		c-2.26,0-4.09,1.83-4.09,4.09s1.83,4.09,4.09,4.09c2.26,0,4.09-1.83,4.09-4.09S7.79,1.44,5.53,1.44z"/>
	<g id="g997">
		<path id="path4" inkscape:connector-curvature="0" fill="#88CDD7" d="M8.52,1.33c-0.06,0-0.11,0.05-0.11,0.11
			c0,0.06,0.05,0.11,0.11,0.11S8.63,1.5,8.63,1.44C8.63,1.38,8.58,1.33,8.52,1.33z"/>
		<path id="path8" inkscape:connector-curvature="0" fill="#88CDD7" d="M9.18,1.22c-0.24,0-0.44,0.2-0.44,0.44S8.94,2.1,9.18,2.1
			s0.44-0.2,0.44-0.44S9.42,1.22,9.18,1.22z"/>
		<path id="path10" inkscape:connector-curvature="0" fill="#8889B9" d="M9.62,2.43c-0.12,0-0.22,0.1-0.22,0.22
			c0,0.12,0.1,0.22,0.22,0.22c0.12,0,0.22-0.1,0.22-0.22C9.85,2.53,9.75,2.43,9.62,2.43z"/>
		<path id="path12" inkscape:connector-curvature="0" fill="#88CDD7" d="M8.96,8.19c-0.12,0-0.22,0.1-0.22,0.22s0.1,0.22,0.22,0.22
			c0.12,0,0.22-0.1,0.22-0.22S9.08,8.19,8.96,8.19z M1.66,6.53c-0.24,0-0.44,0.2-0.44,0.44c0,0.24,0.2,0.44,0.44,0.44
			S2.1,7.21,2.1,6.97C2.1,6.73,1.9,6.53,1.66,6.53z"/>
		<path id="path14" inkscape:connector-curvature="0" fill="#8889B9" d="M2.77,9.4c-0.12,0-0.22,0.1-0.22,0.22
			c0,0.12,0.1,0.22,0.22,0.22s0.22-0.1,0.22-0.22C2.99,9.5,2.89,9.4,2.77,9.4z"/>
		<path id="path16" inkscape:connector-curvature="0" fill="#FFFFFF" d="M2.05,5.42c-0.15,0-0.28,0.12-0.28,0.28
			c0,0.15,0.12,0.28,0.28,0.28S2.32,5.85,2.32,5.7C2.32,5.54,2.2,5.42,2.05,5.42z M8.79,3.54c-0.09,0-0.17,0.08-0.17,0.17
			c0,0.09,0.08,0.17,0.17,0.17S8.96,3.8,8.96,3.71C8.96,3.62,8.88,3.54,8.79,3.54z"/>
	</g>
</g>
<path id="path2" inkscape:connector-curvature="0" fill="none" d="M0,50V0h50v50H0z"/>
<g id="g168">
	<path id="path18" inkscape:connector-curvature="0" fill="#8889B9" d="M26.35,35.45h-8.16c-1.56,0-2.83-1.27-2.83-2.83V20.23
		c0-1.56,1.27-2.83,2.83-2.83h7.79c1.56,0,2.83,1.27,2.83,2.83v11.54"/>
	<path id="path20" inkscape:connector-curvature="0" fill="#472B29" d="M22.81,36h-4.62C16.43,36,15,34.54,15,32.76V20.18
		c0-1.79,1.43-3.24,3.19-3.24h7.79c1.76,0,3.19,1.45,3.19,3.24c0,0.2-0.16,0.37-0.36,0.37c-0.2,0-0.36-0.16-0.36-0.37
		c0-1.38-1.11-2.51-2.47-2.51h-7.79c-1.36,0-2.47,1.12-2.47,2.51v12.58c0,1.38,1.11,2.51,2.47,2.51h4.62c0.2,0,0.36,0.16,0.36,0.37
		C23.17,35.84,23.01,36,22.81,36z"/>
	<path id="path22" inkscape:connector-curvature="0" fill="#472B29" d="M27.58,20.5H16.6c-0.11,0-0.19-0.09-0.19-0.19
		s0.09-0.19,0.19-0.19h10.98c0.11,0,0.19,0.09,0.19,0.19S27.69,20.5,27.58,20.5z"/>
	<path id="path24" inkscape:connector-curvature="0" fill="#FDFCEE" d="M17.49,20.13v-7.29l1.53,1.15l1.46-1.15l1.59,1.15l1.59-1.15
		l1.46,1.15l1.57-1.15v7.29"/>
	<path id="path26" inkscape:connector-curvature="0" fill="#472B29" d="M26.69,20.5c-0.2,0-0.36-0.16-0.36-0.36v-6.58l-0.99,0.73
		c-0.13,0.1-0.31,0.09-0.44-0.01l-1.25-0.98l-1.37,0.99c-0.13,0.09-0.3,0.09-0.42,0l-1.37-0.99l-1.25,0.98
		c-0.13,0.1-0.31,0.1-0.44,0l-0.95-0.72v6.57c0,0.2-0.16,0.36-0.36,0.36c-0.2,0-0.36-0.16-0.36-0.36v-7.29
		c0-0.14,0.08-0.26,0.2-0.32c0.12-0.06,0.27-0.05,0.38,0.03l1.31,0.98l1.24-0.98c0.13-0.1,0.3-0.1,0.44-0.01l1.38,1l1.38-1
		c0.13-0.09,0.31-0.09,0.43,0.01l1.25,0.98l1.35-0.99c0.11-0.08,0.26-0.09,0.38-0.03c0.12,0.06,0.2,0.19,0.2,0.32v7.29
		C27.05,20.33,26.89,20.5,26.69,20.5z"/>
	<path id="path28" inkscape:connector-curvature="0" fill="#EDF7F5" d="M18.02,21.73h8.15v3.19h-8.15V21.73z"/>
	<path id="path30" inkscape:connector-curvature="0" fill="#472B29" d="M26.16,25.08h-8.15c-0.09,0-0.17-0.08-0.17-0.17v-3.19
		c0-0.09,0.08-0.17,0.17-0.17h8.15c0.09,0,0.17,0.08,0.17,0.17v3.19C26.33,25.01,26.25,25.08,26.16,25.08z M18.19,24.75h7.81V21.9
		h-7.81V24.75z M22.97,27.23H21.2c-0.11,0-0.19-0.09-0.19-0.19s0.09-0.19,0.19-0.19h1.77c0.11,0,0.19,0.09,0.19,0.19
		S23.08,27.23,22.97,27.23z M19.79,27.23h-1.77c-0.11,0-0.19-0.09-0.19-0.19s0.09-0.19,0.19-0.19h1.77c0.11,0,0.19,0.09,0.19,0.19
		S19.89,27.23,19.79,27.23z M26.16,27.23h-1.77c-0.11,0-0.19-0.09-0.19-0.19s0.09-0.19,0.19-0.19h1.77c0.11,0,0.19,0.09,0.19,0.19
		S26.27,27.23,26.16,27.23z M22.97,29.36H21.2c-0.11,0-0.19-0.09-0.19-0.19c0-0.11,0.09-0.19,0.19-0.19h1.77
		c0.11,0,0.19,0.09,0.19,0.19C23.17,29.27,23.08,29.36,22.97,29.36z M19.79,29.36h-1.77c-0.11,0-0.19-0.09-0.19-0.19
		s0.09-0.19,0.19-0.19h1.77c0.11,0,0.19,0.09,0.19,0.19S19.89,29.36,19.79,29.36z M26.16,29.36h-1.77c-0.11,0-0.19-0.09-0.19-0.19
		c0-0.11,0.09-0.19,0.19-0.19h1.77c0.11,0,0.19,0.09,0.19,0.19C26.36,29.27,26.27,29.36,26.16,29.36z M22.97,31.48H21.2
		c-0.11,0-0.19-0.09-0.19-0.19s0.09-0.19,0.19-0.19h1.77c0.11,0,0.19,0.09,0.19,0.19S23.08,31.48,22.97,31.48z M19.79,31.48h-1.77
		c-0.11,0-0.19-0.09-0.19-0.19s0.09-0.19,0.19-0.19h1.77c0.11,0,0.19,0.09,0.19,0.19S19.89,31.48,19.79,31.48z M26.16,31.48h-1.77
		c-0.11,0-0.19-0.09-0.19-0.19s0.09-0.19,0.19-0.19h1.77c0.11,0,0.19,0.09,0.19,0.19S26.27,31.48,26.16,31.48z"/>
	<g id="g34">
		<path id="path32" inkscape:connector-curvature="0" fill="#472B29" d="M25.45,16.23h-4.37c-0.09,0-0.17-0.08-0.17-0.17
			s0.08-0.17,0.17-0.17h4.37c0.09,0,0.17,0.08,0.17,0.17C25.62,16.15,25.55,16.23,25.45,16.23z"/>
	</g>
	<g id="g38">
		<path id="path36" inkscape:connector-curvature="0" fill="#472B29" d="M20,16.23h-1.28c-0.09,0-0.17-0.08-0.17-0.17
			s0.08-0.17,0.17-0.17H20c0.09,0,0.17,0.08,0.17,0.17C20.17,16.15,20.1,16.23,20,16.23z"/>
	</g>
	<g id="g42">
		<path id="path40" inkscape:connector-curvature="0" fill="#472B29" d="M22.62,17.66L22.62,17.66l-3.9-0.01
			c-0.09,0-0.17-0.08-0.17-0.17c0-0.09,0.08-0.17,0.17-0.17h0l3.9,0.01c0.09,0,0.17,0.08,0.17,0.17
			C22.79,17.58,22.71,17.66,22.62,17.66z"/>
	</g>
	<g id="g142">
		<path id="path44" inkscape:connector-curvature="0" fill="#F1BC19" d="M26.82,34.24v1.43c0,0.39,1.9,0.71,4.25,0.71
			c2.35,0,4.25-0.32,4.25-0.71v-1.43H26.82z"/>
		<path id="path46" inkscape:connector-curvature="0" fill="#472B29" d="M31.07,36.58c-0.46,0-4.44-0.03-4.44-0.91v-1.43
			c0-0.11,0.09-0.19,0.19-0.19h8.5c0.11,0,0.19,0.09,0.19,0.19v1.43C35.51,36.55,31.52,36.58,31.07,36.58z M27.01,34.43v1.24
			c0.11,0.16,1.46,0.52,4.05,0.52s3.95-0.36,4.06-0.55l0-1.21H27.01z"/>
		<path id="path48" inkscape:connector-curvature="0" fill="#FFD683" d="M31.07,33.53c-2.35,0-4.25,0.32-4.25,0.71
			s1.9,0.71,4.25,0.71c2.35,0,4.25-0.32,4.25-0.71S33.41,33.53,31.07,33.53z"/>
		<path id="path50" inkscape:connector-curvature="0" fill="#472B29" d="M31.07,35.15c-0.46,0-4.44-0.03-4.44-0.91
			c0-0.88,3.99-0.91,4.44-0.91s4.44,0.03,4.44,0.91C35.51,35.12,31.52,35.15,31.07,35.15z M27.03,34.24
			c0.22,0.19,1.56,0.52,4.04,0.52c2.47,0,3.81-0.33,4.04-0.52c-0.22-0.19-1.56-0.52-4.04-0.52C28.59,33.72,27.25,34.05,27.03,34.24z
			 M35.13,34.27L35.13,34.27L35.13,34.27z"/>
		<path id="path52" inkscape:connector-curvature="0" fill="#F1BC19" d="M26.82,31.87v1.43c0,0.39,1.9,0.71,4.25,0.71
			c2.35,0,4.25-0.32,4.25-0.71v-1.43L26.82,31.87L26.82,31.87z"/>
		<path id="path54" inkscape:connector-curvature="0" fill="#472B29" d="M31.07,34.21c-0.46,0-4.44-0.03-4.44-0.91v-1.43
			c0-0.11,0.09-0.19,0.19-0.19h8.5c0.11,0,0.19,0.09,0.19,0.19v1.43C35.51,34.18,31.52,34.21,31.07,34.21z M27.01,32.06v1.24
			c0.11,0.16,1.46,0.52,4.05,0.52s3.95-0.36,4.06-0.55l0-1.21H27.01L27.01,32.06z"/>
		<path id="path56" inkscape:connector-curvature="0" fill="#FFD683" d="M31.07,31.16c-2.35,0-4.25,0.32-4.25,0.71
			c0,0.39,1.9,0.71,4.25,0.71c2.35,0,4.25-0.32,4.25-0.71C35.32,31.48,33.41,31.16,31.07,31.16z"/>
		<path id="path58" inkscape:connector-curvature="0" fill="#472B29" d="M31.07,32.78c-0.46,0-4.44-0.03-4.44-0.91
			s3.99-0.91,4.44-0.91s4.44,0.03,4.44,0.91S31.52,32.78,31.07,32.78z M27.03,31.87c0.22,0.19,1.56,0.52,4.04,0.52
			c2.47,0,3.81-0.33,4.04-0.52c-0.22-0.19-1.56-0.52-4.04-0.52C28.59,31.35,27.25,31.68,27.03,31.87z M35.13,31.9L35.13,31.9
			L35.13,31.9z"/>
		<path id="path60" inkscape:connector-curvature="0" fill="#F1BC19" d="M26.82,29.5v1.43c0,0.39,1.9,0.71,4.25,0.71
			c2.35,0,4.25-0.32,4.25-0.71V29.5H26.82z"/>
		<path id="path62" inkscape:connector-curvature="0" fill="#472B29" d="M31.07,31.84c-0.46,0-4.44-0.03-4.44-0.91V29.5
			c0-0.11,0.09-0.19,0.19-0.19h8.5c0.11,0,0.19,0.09,0.19,0.19v1.43C35.51,31.81,31.52,31.84,31.07,31.84z M27.01,29.69v1.24
			c0.11,0.16,1.46,0.52,4.05,0.52s3.95-0.36,4.06-0.55l0-1.21H27.01z"/>
		<g id="g68">
			<path id="path64" inkscape:connector-curvature="0" fill="#FFD683" d="M31.07,28.79c-2.35,0-4.25,0.32-4.25,0.71
				c0,0.39,1.9,0.71,4.25,0.71c2.35,0,4.25-0.32,4.25-0.71C35.32,29.11,33.41,28.79,31.07,28.79z"/>
			<path id="path66" inkscape:connector-curvature="0" fill="#472B29" d="M31.07,30.41c-0.46,0-4.44-0.03-4.44-0.91
				s3.99-0.91,4.44-0.91s4.44,0.03,4.44,0.91S31.52,30.41,31.07,30.41z M27.03,29.5c0.22,0.19,1.56,0.52,4.04,0.52
				c2.47,0,3.81-0.33,4.04-0.52c-0.22-0.19-1.56-0.52-4.04-0.52C28.59,28.98,27.25,29.31,27.03,29.5z M35.13,29.53L35.13,29.53
				L35.13,29.53z"/>
		</g>
		<g id="g80">
			<path id="path70" inkscape:connector-curvature="0" fill="#F1BC19" d="M26.82,27.13v1.43c0,0.39,1.9,0.71,4.25,0.71
				c2.35,0,4.25-0.32,4.25-0.71v-1.43H26.82z"/>
			<path id="path72" inkscape:connector-curvature="0" fill="#472B29" d="M31.07,29.47c-0.46,0-4.44-0.03-4.44-0.91v-1.43
				c0-0.11,0.09-0.19,0.19-0.19h8.5c0.11,0,0.19,0.09,0.19,0.19v1.43C35.51,29.45,31.52,29.47,31.07,29.47z M27.01,27.33v1.24
				c0.11,0.16,1.46,0.52,4.05,0.52s3.95-0.36,4.06-0.55l0-1.21H27.01z"/>
			<g id="g78">
				<path id="path74" inkscape:connector-curvature="0" fill="#FFD683" d="M31.07,26.42c-2.35,0-4.25,0.32-4.25,0.71
					s1.9,0.71,4.25,0.71c2.35,0,4.25-0.32,4.25-0.71S33.41,26.42,31.07,26.42z"/>
				<path id="path76" inkscape:connector-curvature="0" fill="#472B29" d="M31.07,28.04c-0.46,0-4.44-0.03-4.44-0.91
					c0-0.88,3.99-0.91,4.44-0.91s4.44,0.03,4.44,0.91C35.51,28.02,31.52,28.04,31.07,28.04z M27.03,27.14
					c0.22,0.19,1.56,0.52,4.04,0.52c2.47,0,3.82-0.33,4.04-0.52c-0.22-0.19-1.56-0.52-4.04-0.52
					C28.59,26.62,27.25,26.95,27.03,27.14z M35.13,27.16L35.13,27.16L35.13,27.16z"/>
			</g>
		</g>
		<g id="g92">
			<path id="path82" inkscape:connector-curvature="0" fill="#F1BC19" d="M22.81,35.16v1.43c0,0.39,1.9,0.71,4.25,0.71
				c2.35,0,4.25-0.32,4.25-0.71v-1.43H22.81z"/>
			<path id="path84" inkscape:connector-curvature="0" fill="#472B29" d="M27.06,37.5c-0.46,0-4.44-0.03-4.44-0.91v-1.43
				c0-0.11,0.09-0.19,0.19-0.19h8.5c0.11,0,0.19,0.09,0.19,0.19v1.43C31.5,37.47,27.51,37.5,27.06,37.5z M23,35.35v1.24
				c0.11,0.16,1.46,0.52,4.06,0.52c2.6,0,3.95-0.36,4.06-0.55l-0.01-1.21L23,35.35L23,35.35z"/>
			<g id="g90">
				<path id="path86" inkscape:connector-curvature="0" fill="#FFD683" d="M27.06,34.45c-2.35,0-4.25,0.32-4.25,0.71
					c0,0.39,1.9,0.71,4.25,0.71c2.35,0,4.25-0.32,4.25-0.71C31.3,34.77,29.4,34.45,27.06,34.45z"/>
				<path id="path88" inkscape:connector-curvature="0" fill="#472B29" d="M27.06,36.07c-0.46,0-4.44-0.03-4.44-0.91
					s3.99-0.91,4.44-0.91s4.44,0.03,4.44,0.91S27.51,36.07,27.06,36.07z M23.02,35.16c0.22,0.19,1.56,0.52,4.04,0.52
					c2.47,0,3.82-0.33,4.04-0.52c-0.22-0.19-1.56-0.52-4.04-0.52C24.58,34.64,23.24,34.97,23.02,35.16z M31.12,35.19L31.12,35.19
					L31.12,35.19z"/>
			</g>
		</g>
		<g id="g104">
			<path id="path94" inkscape:connector-curvature="0" fill="#F1BC19" d="M22.81,32.79v1.43c0,0.39,1.9,0.71,4.25,0.71
				c2.35,0,4.25-0.32,4.25-0.71v-1.43H22.81z"/>
			<path id="path96" inkscape:connector-curvature="0" fill="#472B29" d="M27.06,35.13c-0.46,0-4.44-0.03-4.44-0.91v-1.43
				c0-0.11,0.09-0.19,0.19-0.19h8.5c0.11,0,0.19,0.09,0.19,0.19v1.43C31.5,35.11,27.51,35.13,27.06,35.13z M23,32.99v1.24
				c0.11,0.16,1.46,0.52,4.06,0.52c2.6,0,3.95-0.36,4.06-0.55l-0.01-1.21H23L23,32.99z"/>
			<g id="g102">
				<path id="path98" inkscape:connector-curvature="0" fill="#FFD683" d="M27.06,32.08c-2.35,0-4.25,0.32-4.25,0.71
					s1.9,0.71,4.25,0.71c2.35,0,4.25-0.32,4.25-0.71S29.4,32.08,27.06,32.08z"/>
				<path id="path100" inkscape:connector-curvature="0" fill="#472B29" d="M27.06,33.7c-0.46,0-4.44-0.03-4.44-0.91
					s3.99-0.91,4.44-0.91s4.44,0.03,4.44,0.91S27.51,33.7,27.06,33.7z M23.02,32.8c0.22,0.19,1.56,0.52,4.04,0.52
					c2.47,0,3.82-0.33,4.04-0.52c-0.22-0.19-1.56-0.52-4.04-0.52C24.58,32.28,23.24,32.61,23.02,32.8z M31.12,32.82L31.12,32.82
					L31.12,32.82z"/>
			</g>
		</g>
		<g id="g116">
			<path id="path106" inkscape:connector-curvature="0" fill="#F1BC19" d="M22.81,30.54v1.43c0,0.39,1.9,0.71,4.25,0.71
				c2.35,0,4.25-0.32,4.25-0.71v-1.43H22.81z"/>
			<path id="path108" inkscape:connector-curvature="0" fill="#472B29" d="M27.06,32.87c-0.46,0-4.44-0.03-4.44-0.91v-1.43
				c0-0.11,0.09-0.19,0.19-0.19h8.5c0.11,0,0.19,0.09,0.19,0.19v1.43C31.5,32.85,27.51,32.87,27.06,32.87z M23,30.73v1.24
				c0.11,0.16,1.46,0.52,4.06,0.52c2.6,0,3.95-0.36,4.06-0.55l-0.01-1.21L23,30.73z"/>
			<g id="g114">
				<path id="path110" inkscape:connector-curvature="0" fill="#FFD683" d="M27.06,29.83c-2.35,0-4.25,0.32-4.25,0.71
					c0,0.39,1.9,0.71,4.25,0.71c2.35,0,4.25-0.32,4.25-0.71C31.3,30.14,29.4,29.83,27.06,29.83z"/>
				<path id="path112" inkscape:connector-curvature="0" fill="#472B29" d="M27.06,31.45c-0.46,0-4.44-0.03-4.44-0.91
					c0-0.88,3.99-0.91,4.44-0.91s4.44,0.03,4.44,0.91C31.5,31.42,27.51,31.45,27.06,31.45z M23.02,30.54
					c0.22,0.19,1.56,0.52,4.04,0.52c2.47,0,3.82-0.33,4.04-0.52c-0.22-0.19-1.56-0.52-4.04-0.52
					C24.58,30.02,23.24,30.35,23.02,30.54z M31.12,30.57L31.12,30.57L31.12,30.57z"/>
			</g>
		</g>
		<g id="g128">
			<path id="path118" inkscape:connector-curvature="0" fill="#F1BC19" d="M26.82,24.77v1.43c0,0.39,1.9,0.71,4.25,0.71
				c2.35,0,4.25-0.32,4.25-0.71v-1.43H26.82z"/>
			<path id="path120" inkscape:connector-curvature="0" fill="#472B29" d="M31.07,27.1c-0.46,0-4.44-0.03-4.44-0.91v-1.43
				c0-0.11,0.09-0.19,0.19-0.19h8.5c0.11,0,0.19,0.09,0.19,0.19v1.43C35.51,27.08,31.52,27.1,31.07,27.1z M27.01,24.96v1.24
				c0.11,0.16,1.46,0.52,4.05,0.52s3.95-0.36,4.06-0.55l0-1.21L27.01,24.96L27.01,24.96z"/>
			<g id="g126">
				<path id="path122" inkscape:connector-curvature="0" fill="#FFD683" d="M31.07,24.06c-2.35,0-4.25,0.32-4.25,0.71
					c0,0.39,1.9,0.71,4.25,0.71c2.35,0,4.25-0.32,4.25-0.71C35.32,24.37,33.41,24.06,31.07,24.06z"/>
				<path id="path124" inkscape:connector-curvature="0" fill="#472B29" d="M31.07,25.67c-0.46,0-4.44-0.03-4.44-0.91
					c0-0.88,3.99-0.91,4.44-0.91s4.44,0.03,4.44,0.91C35.51,25.65,31.52,25.67,31.07,25.67z M27.03,24.77
					c0.22,0.19,1.56,0.52,4.04,0.52c2.47,0,3.81-0.33,4.04-0.52c-0.22-0.19-1.56-0.52-4.04-0.52
					C28.59,24.25,27.25,24.58,27.03,24.77z M35.13,24.8L35.13,24.8L35.13,24.8z"/>
			</g>
		</g>
		<g id="g140">
			<path id="path130" inkscape:connector-curvature="0" fill="#F1BC19" d="M26.82,22.4v1.43c0,0.39,1.9,0.71,4.25,0.71
				c2.35,0,4.25-0.32,4.25-0.71V22.4H26.82z"/>
			<path id="path132" inkscape:connector-curvature="0" fill="#472B29" d="M31.07,24.74c-0.46,0-4.44-0.03-4.44-0.91V22.4
				c0-0.11,0.09-0.19,0.19-0.19h8.5c0.11,0,0.19,0.09,0.19,0.19v1.43C35.51,24.71,31.52,24.74,31.07,24.74z M27.01,22.59v1.24
				c0.11,0.16,1.46,0.52,4.05,0.52s3.95-0.36,4.06-0.55l0-1.21H27.01z"/>
			<g id="g138">
				<path id="path134" inkscape:connector-curvature="0" fill="#FFD683" d="M31.07,21.69c-2.35,0-4.25,0.32-4.25,0.71
					c0,0.39,1.9,0.71,4.25,0.71c2.35,0,4.25-0.32,4.25-0.71C35.32,22.01,33.41,21.69,31.07,21.69z"/>
				<path id="path136" inkscape:connector-curvature="0" fill="#472B29" d="M31.07,23.31c-0.46,0-4.44-0.03-4.44-0.91
					s3.99-0.91,4.44-0.91s4.44,0.03,4.44,0.91C35.51,23.28,31.52,23.31,31.07,23.31z M27.03,22.4c0.22,0.19,1.56,0.52,4.04,0.52
					c2.47,0,3.81-0.33,4.04-0.52c-0.22-0.19-1.56-0.52-4.04-0.52C28.59,21.88,27.25,22.21,27.03,22.4z M35.13,22.43L35.13,22.43
					L35.13,22.43z"/>
			</g>
		</g>
	</g>
	<g id="g146">
		<path id="path144" inkscape:connector-curvature="0" fill="#472B29" d="M23.83,17.65h-0.56c-0.09,0-0.17-0.08-0.17-0.17
			c0-0.09,0.08-0.17,0.17-0.17h0.56c0.09,0,0.17,0.08,0.17,0.17C24,17.58,23.92,17.65,23.83,17.65z"/>
	</g>
	<g id="g150">
		<path id="path148" inkscape:connector-curvature="0" fill="#472B29" d="M18.02,23.75c-0.02,0-0.04,0-0.06-0.02
			c-0.06-0.03-0.08-0.1-0.04-0.16l1.12-1.94c0.03-0.06,0.1-0.07,0.16-0.04c0.05,0.03,0.07,0.1,0.04,0.16l-1.12,1.94
			C18.1,23.73,18.06,23.75,18.02,23.75z"/>
	</g>
	<g id="g154">
		<path id="path152" inkscape:connector-curvature="0" fill="#472B29" d="M18.25,25.04c-0.02,0-0.04,0-0.06-0.02
			c-0.05-0.03-0.07-0.1-0.04-0.16l1.85-3.2c0.03-0.05,0.1-0.07,0.16-0.04c0.05,0.03,0.07,0.1,0.04,0.16l-1.85,3.2
			C18.33,25.02,18.29,25.04,18.25,25.04z"/>
	</g>
	<g id="g158">
		<path id="path156" inkscape:connector-curvature="0" fill="#472B29" d="M19.36,25.04c-0.02,0-0.04,0-0.06-0.02
			c-0.05-0.03-0.07-0.1-0.04-0.16l1.85-3.2c0.03-0.05,0.1-0.07,0.16-0.04c0.05,0.03,0.07,0.1,0.04,0.16l-1.85,3.2
			C19.44,25.02,19.4,25.04,19.36,25.04z"/>
	</g>
	<g id="g162">
		<path id="path160" inkscape:connector-curvature="0" fill="#472B29" d="M20.52,25.04c-0.02,0-0.04,0-0.06-0.02
			c-0.06-0.03-0.07-0.1-0.04-0.16l1.85-3.2c0.03-0.05,0.1-0.07,0.16-0.04c0.06,0.03,0.07,0.1,0.04,0.16l-1.85,3.2
			C20.6,25.02,20.56,25.04,20.52,25.04z"/>
	</g>
	<g id="g166">
		<path id="path164" inkscape:connector-curvature="0" fill="#472B29" d="M22.35,23.75c-0.02,0-0.04,0-0.06-0.02
			c-0.06-0.03-0.08-0.1-0.04-0.16l1.1-1.9c0.03-0.06,0.1-0.07,0.16-0.04c0.06,0.03,0.08,0.1,0.04,0.16l-1.1,1.9
			C22.42,23.73,22.38,23.75,22.35,23.75z"/>
	</g>
</g>
</svg>
