<?xml version="1.0" encoding="utf-8"?>
<!-- Generator: Adobe Illustrator 16.0.0, SVG Export Plug-In . SVG Version: 6.00 Build 0)  -->
<!DOCTYPE svg PUBLIC "-//W3C//DTD SVG 1.1//EN" "http://www.w3.org/Graphics/SVG/1.1/DTD/svg11.dtd">
<svg version="1.1"
	 id="svg90" xmlns:dc="http://purl.org/dc/elements/1.1/" xmlns:cc="http://creativecommons.org/ns#" xmlns:rdf="http://www.w3.org/1999/02/22-rdf-syntax-ns#" xmlns:svg="http://www.w3.org/2000/svg" xmlns:sodipodi="http://sodipodi.sourceforge.net/DTD/sodipodi-0.dtd" xmlns:inkscape="http://www.inkscape.org/namespaces/inkscape" inkscape:version="0.92.4 (5da689c313, 2019-01-14)" sodipodi:docname="check-female.svg"
	 xmlns="http://www.w3.org/2000/svg" xmlns:xlink="http://www.w3.org/1999/xlink" x="0px" y="0px" width="50px" height="50px"
	 viewBox="0 0 50 50" enable-background="new 0 0 50 50" xml:space="preserve">
<sodipodi:namedview  inkscape:cy="25" inkscape:cx="25" inkscape:zoom="4.72" showgrid="false" guidetolerance="10" gridtolerance="10" objecttolerance="10" bordercolor="#666666" pagecolor="#ffffff" borderopacity="1" id="namedview92" inkscape:current-layer="svg90" inkscape:window-maximized="1" inkscape:window-y="-8" inkscape:window-x="-8" inkscape:window-height="705" inkscape:window-width="1366" inkscape:pageshadow="2" inkscape:pageopacity="0">
	</sodipodi:namedview>
<g id="g1007" transform="matrix(4.52,0,0,4.52,-1.356,-2.938)">
	<path id="path6" inkscape:connector-curvature="0" opacity="0.309" fill="#E4E4F9" enable-background="new    " d="M5.76,1.94
		c-2.26,0-4.09,1.83-4.09,4.09s1.83,4.09,4.09,4.09c2.26,0,4.09-1.83,4.09-4.09S8.03,1.94,5.76,1.94z"/>
	<g id="g997">
		<path id="path4-4" inkscape:connector-curvature="0" fill="#88CDD7" d="M8.75,1.83c-0.06,0-0.11,0.05-0.11,0.11
			c0,0.06,0.05,0.11,0.11,0.11c0.06,0,0.11-0.05,0.11-0.11C8.86,1.88,8.81,1.83,8.75,1.83z"/>
		<path id="path8-9" inkscape:connector-curvature="0" fill="#88CDD7" d="M9.42,1.72c-0.24,0-0.44,0.2-0.44,0.44s0.2,0.44,0.44,0.44
			c0.24,0,0.44-0.2,0.44-0.44S9.66,1.72,9.42,1.72z"/>
		<path id="path10" inkscape:connector-curvature="0" fill="#8889B9" d="M9.86,2.94c-0.12,0-0.22,0.1-0.22,0.22
			c0,0.12,0.1,0.22,0.22,0.22c0.12,0,0.22-0.1,0.22-0.22C10.08,3.04,9.98,2.94,9.86,2.94z"/>
		<path id="path12" inkscape:connector-curvature="0" fill="#88CDD7" d="M9.19,8.69c-0.12,0-0.22,0.1-0.22,0.22
			c0,0.12,0.1,0.22,0.22,0.22c0.12,0,0.22-0.1,0.22-0.22C9.42,8.79,9.32,8.69,9.19,8.69z M1.89,7.03c-0.24,0-0.44,0.2-0.44,0.44
			c0,0.24,0.2,0.44,0.44,0.44c0.24,0,0.44-0.2,0.44-0.44C2.34,7.23,2.14,7.03,1.89,7.03z"/>
		<path id="path14" inkscape:connector-curvature="0" fill="#8889B9" d="M3,9.91c-0.12,0-0.22,0.1-0.22,0.22
			c0,0.12,0.1,0.22,0.22,0.22c0.12,0,0.22-0.1,0.22-0.22C3.22,10.01,3.12,9.91,3,9.91z"/>
		<path id="path16" inkscape:connector-curvature="0" fill="#FFFFFF" d="M2.28,5.93C2.13,5.93,2,6.05,2,6.2
			c0,0.15,0.12,0.28,0.28,0.28c0.15,0,0.28-0.12,0.28-0.28C2.56,6.05,2.43,5.93,2.28,5.93z M9.03,4.05c-0.09,0-0.17,0.08-0.17,0.17
			c0,0.09,0.08,0.17,0.17,0.17c0.09,0,0.17-0.08,0.17-0.17C9.19,4.12,9.12,4.05,9.03,4.05z"/>
	</g>
</g>
<path id="path2" inkscape:connector-curvature="0" fill="none" d="M0,50V0h50v50H0z"/>
<path id="path4" inkscape:connector-curvature="0" fill="#FFFFFF" d="M9.9,27.65c-0.25,0-0.45,0.2-0.45,0.45
	c0,0.25,0.2,0.45,0.45,0.45s0.45-0.2,0.45-0.45C10.35,27.85,10.15,27.65,9.9,27.65z M39.45,15.35c-0.19,0-0.35,0.16-0.35,0.35
	s0.16,0.35,0.35,0.35c0.19,0,0.35-0.16,0.35-0.35S39.64,15.35,39.45,15.35z"/>
<path id="path20" inkscape:connector-curvature="0" fill="#472B29" d="M15.6,17.4c0.1,0.25,0.3,0.45,0.5,0.55h0.05V18
	c-0.1,0.15-0.1,0.35-0.1,0.5v0.1c0,0.25,0.05,0.45,0.2,0.65l0.2,0.25l-0.1,0.1c-0.1,0.1-0.2,0.25-0.25,0.4C16,20.2,16,20.35,16,20.5
	v0.1c0,0.25,0.1,0.45,0.2,0.65l0.25,0.25c0.05,0.05,0.1,0.1,0.15,0.15l-0.1,0.05c-0.2,0.2-0.35,0.45-0.35,0.7c0,0.15,0,0.25,0.1,0.4
	c0.05,0.15,0.1,0.25,0.25,0.35c0.1,0.1,0.2,0.2,0.35,0.25c0.15,0.05,0.25,0.1,0.4,0.1h0.15c-0.15,0.25-0.2,0.55-0.2,0.8
	c0.15,0.75,0.75,1.25,1.5,1.25c0,0.05,0,0.1,0,0.1c0,0.85,0.7,1.6,1.55,1.6c0.25,0,0.45-0.05,0.65-0.1c0.25,0.6,0.8,0.95,1.45,0.9
	c0.2,0,0.4-0.05,0.55-0.15l0,0l0.15,0.25c0.2,0.2,0.5,0.35,0.8,0.35c0.15,0,0.3,0,0.45-0.1c0.15-0.05,0.3-0.1,0.4-0.2
	c0.05-0.05,0.15-0.15,0.2-0.2c0.05,0.1,0.1,0.15,0.2,0.2c0.1,0.1,0.25,0.15,0.4,0.2c0.15,0.05,0.3,0.1,0.45,0.1
	c0.3,0,0.6-0.15,0.8-0.35l0.15-0.25l0,0c0.15,0.1,0.35,0.15,0.55,0.15c0.65,0.05,1.2-0.35,1.45-0.9c0.2,0.1,0.45,0.1,0.65,0.1
	c0.85,0,1.55-0.75,1.55-1.6v-0.1c0.75,0,1.35-0.5,1.5-1.25c0-0.3-0.05-0.55-0.2-0.8h0.15c0.15,0,0.3-0.05,0.4-0.1
	c0.15-0.05,0.25-0.1,0.35-0.25c0.1-0.1,0.2-0.2,0.2-0.35c0.05-0.1,0.1-0.25,0.1-0.4c0-0.3-0.15-0.55-0.35-0.7l-0.1-0.05l0.15-0.15
	l0.25-0.25c0.15-0.2,0.2-0.4,0.2-0.65v-0.1c0-0.15,0-0.35-0.1-0.5c-0.05-0.15-0.15-0.3-0.25-0.4l-0.05-0.1l0.2-0.25
	c0.15-0.2,0.2-0.45,0.2-0.65v-0.1c0-0.15-0.05-0.35-0.1-0.5v-0.05h0.05c0.25-0.1,0.4-0.3,0.5-0.55c0.1-0.25,0.05-0.5-0.05-0.7
	l-0.1-0.2c-0.15-0.25-0.35-0.4-0.6-0.5c-0.1-0.05-0.2-0.05-0.3-0.05c0-0.05-0.05-0.15-0.1-0.2c-0.05-0.1-0.1-0.2-0.2-0.25
	c-0.1-0.1-0.2-0.15-0.3-0.15c-0.1-0.05-0.25-0.05-0.35-0.05h-0.1c0.1-0.15,0.15-0.35,0.15-0.55v-0.1c0-0.15-0.05-0.3-0.1-0.4
	C32.1,14.1,32,14,31.9,13.9c-0.1-0.1-0.25-0.15-0.35-0.2c-0.15-0.05-0.3-0.1-0.45-0.1l-0.3,0.05l-0.1,0.05c0-0.1-0.05-0.2-0.05-0.25
	c-0.1-0.3-0.3-0.6-0.6-0.75c-0.15-0.1-0.3-0.15-0.5-0.15H29.2c-0.1,0-0.2,0.05-0.3,0.05c-0.1-0.2-0.3-0.35-0.5-0.45
	C28.3,12.05,28.15,12,28,12h-0.3c-0.15,0-0.25,0.05-0.4,0.15c-0.55-0.75-1.65-0.9-2.4-0.35l0,0c-0.75-0.55-1.85-0.4-2.4,0.35l0,0
	c-0.1-0.05-0.25-0.1-0.4-0.15h-0.3c-0.15,0-0.3,0.05-0.45,0.15c-0.2,0.1-0.4,0.25-0.5,0.45c-0.1-0.05-0.2-0.05-0.3-0.05H20.2
	c-0.35,0.05-0.65,0.2-0.9,0.45c-0.1,0.1-0.2,0.25-0.2,0.45c-0.05,0.1-0.05,0.2-0.05,0.25l-0.1-0.05l-0.3-0.05
	c-0.15,0-0.3,0-0.45,0.1c-0.15,0.05-0.25,0.1-0.35,0.2s-0.2,0.2-0.25,0.35c-0.05,0.15-0.1,0.25-0.1,0.4v0.1
	c0,0.2,0.05,0.4,0.15,0.55h-0.1c-0.1,0-0.25,0-0.35,0.05c-0.1,0.05-0.25,0.1-0.3,0.15c-0.1,0.05-0.15,0.15-0.2,0.25
	c-0.05,0.05-0.05,0.15-0.1,0.2c-0.1,0-0.2,0-0.3,0.05c-0.25,0.1-0.45,0.25-0.6,0.5l-0.1,0.2C15.5,16.95,15.5,17.2,15.6,17.4z"/>
<path id="path22" inkscape:connector-curvature="0" fill="#D8AD8F" d="M30.9,20.7c0.05-0.75-0.15-1.4-0.1-1.8l0,0
	c-0.65-0.8-1.1-1.8-2-2.4c-1.05-0.65-2.2-1.1-3.4-1.4c-2.85-0.7-5.65,1.35-6.55,4.05c0,0,0,0.05-0.05,0.05
	c0.1,0.5,0.15,0.95,0.15,1.45c-0.75,0-1.15,0.4-0.9,1.2c0,0,0.3,1.3,0.5,1.95c0.05,0.35,0.4,0.6,0.75,0.6c0,0.4,0,0.85,0,1.25
	c0,0.5,0.15,1,0.45,1.4c0.75,1.1,4.6,3.6,5.55,3.5c1.5,0,4.5-2.55,5.3-3.85c0.15-0.25,0.2-0.55,0.25-0.85c0-0.5,0-1,0-1.5
	c0.3-0.05,0.6-0.25,0.65-0.55c0.2-0.65,0.5-1.95,0.5-1.95C32.25,21.1,31.65,20.65,30.9,20.7z"/>
<path id="path24" inkscape:connector-curvature="0" fill="#B2876B" d="M33.2,33.45c-0.05,0-0.1-0.05-0.15-0.05l-0.3-0.1
	c-0.6-0.25-4.65-1.65-4.65-1.65c-0.3-0.05-0.5-0.25-0.6-0.55c-0.1-0.5-0.15-0.95-0.1-1.45c-0.7,0.3-1.4,0.55-2.1,0.7
	c-0.95,0.1-2.6-1.15-2.6-1.15s-0.05,1.5-0.1,1.85c-0.1,0.3-0.35,0.5-0.65,0.55l-3.85,1.3c-1.35,0.35-2.45,1.4-2.75,2.8
	c0,0-0.2,1.45-0.2,1.75c0,3.1-1.5,4.95,11.15,5.9c2.3,0.15,7-2.2,8.8-3.15C34.9,35.5,35.35,34.1,33.2,33.45z"/>
<path id="path26" inkscape:connector-curvature="0" fill="#A1A1CA" d="M25.9,43.4c0.9-0.05,1.8-0.25,2.7-0.45
	c1.1-0.25,2.25-0.7,3.35-0.9L31.2,32.6l-2.45-0.85c0.6,5.1-8.2,4.85-8.1,0.35l-2.6,0.85l-0.45,9c0.95,0.25,1.85,0.55,2.8,0.8
	C22.25,43.05,24.1,43.25,25.9,43.4z"/>
<path id="path28" inkscape:connector-curvature="0" fill="#88AE45" d="M24,43.3c0.75,0.2,1.5-0.1,2.15,0l-0.2-6.95H24.2L24,43.3z"/>
<path id="path30" inkscape:connector-curvature="0" fill="#799B2F" d="M26.5,35.6l-0.6,1.05h-1.75L23.6,35.6l1.45-1.2L26.5,35.6z"/>
<path id="path32" inkscape:connector-curvature="0" fill="#E6E7E8" d="M25.05,34.4l-1.85,1.95l-3.55-3.65c0-0.15,2.4-1.05,2.4-1.05
	l0.75,0.7L25.05,34.4z M25.05,34.4l1.85,1.95l3.65-3.8l-2.5-0.95l-0.75,0.7L25.05,34.4z"/>
<g id="g36" opacity="0.3">
	<path id="path34" inkscape:connector-curvature="0" opacity="0.8" fill="#F4989E" enable-background="new    " d="M21.5,24
		c-0.55,0-1,0.45-1,1c0,0.55,0.45,1,1,1s1-0.45,1-1C22.5,24.45,22.05,24,21.5,24z M29.05,24c-0.55,0-1,0.45-1,1c0,0.55,0.45,1,1,1
		s1-0.45,1-1C30.05,24.45,29.6,24,29.05,24z"/>
</g>
<path id="path38" inkscape:connector-curvature="0" fill="#472B29" d="M19.5,24.8c-0.05,0-0.1-0.05-0.1-0.1l-0.4-4
	c0-0.05,0.05-0.1,0.1-0.1c0.05,0,0.1,0.05,0.1,0.1l0.4,4C19.6,24.75,19.55,24.8,19.5,24.8z M30.75,24.6L30.75,24.6
	c-0.05,0-0.1-0.05-0.1-0.1l0.25-4.05c0-0.05,0.05-0.1,0.1-0.1s0.1,0.05,0.1,0.1l-0.25,4.05C30.85,24.55,30.8,24.6,30.75,24.6z"/>
<path id="path40" inkscape:connector-curvature="0" fill="#6D1B18" d="M23.5,27.05c0,0.1-0.05,0.15-0.05,0.25
	c0,0.7,0.75,1.25,1.75,1.25s1.75-0.55,1.75-1.25c0-0.1,0-0.15-0.05-0.25H23.5z"/>
<path id="path42" inkscape:connector-curvature="0" fill="#EE3E54" d="M26.1,28.35c-0.55-0.4-1.3-0.4-1.8,0
	C24.85,28.6,25.5,28.6,26.1,28.35z"/>
<path id="path44" inkscape:connector-curvature="0" fill="#FDFCEF" d="M24,27.05L24,27.05v0.2c0,0.2,0.25,0.35,0.55,0.35h1.3
	c0.3,0,0.55-0.15,0.55-0.35v-0.2l0,0H24z"/>
<path id="path46" inkscape:connector-curvature="0" fill="#472B29" d="M25.2,28.65c-1,0-1.85-0.6-1.85-1.35c0-0.1,0-0.15,0.05-0.25
	C23.4,27,23.45,27,23.5,27h3.4c0.05,0,0.1,0.05,0.1,0.05c0,0.1,0.05,0.15,0.05,0.25C27,28.05,26.2,28.65,25.2,28.65z M23.6,27.15
	c0,0.05,0,0.1,0,0.15c0,0.65,0.75,1.15,1.65,1.15c0.9,0,1.6-0.5,1.6-1.15c0-0.05,0-0.1,0-0.15H23.6z"/>
<path id="path48" inkscape:connector-curvature="0" opacity="0.41" fill="#472B29" enable-background="new    " d="M25.2,26.1
	c0.4,0,0.75-0.15,1-0.45c0-0.05,0-0.05,0-0.1l0,0c-0.05-0.05-0.05-0.05-0.1,0c-0.5,0.45-1.3,0.45-1.8,0h-0.05H24.2
	c-0.05,0-0.05,0.05,0,0.1l0,0C24.45,25.95,24.8,26.1,25.2,26.1z M25.65,29.5L25.65,29.5c0.05-0.05,0-0.1,0-0.1h-0.9
	c0,0-0.05,0-0.05,0.05s0,0.05,0.05,0.05l0,0H25.65z"/>
<path id="path50" inkscape:connector-curvature="0" fill="#512C2B" d="M24.15,20.1c-1.2-0.35-2.45-0.5-3.7-0.4
	c-0.05,0-0.1,0-0.1,0.1c0,0.05,0,0.1,0.1,0.1h0.05c0,0,2.55,0.45,3.3,0.7h0.05c0.05,0,0.1,0,0.1-0.05l0.3-0.35c0-0.05,0-0.05,0-0.1
	C24.2,20.1,24.2,20.1,24.15,20.1z M26.15,20c1.2-0.3,2.5-0.35,3.75-0.2c0.05,0,0.1,0,0.1,0.1c0,0.05,0,0.1-0.1,0.1h-0.05
	c0,0-2.55,0.3-3.35,0.55l0,0c-0.05,0-0.1,0-0.1-0.05l-0.3-0.35c0-0.05,0-0.05,0-0.1L26.15,20z"/>
<path id="path52" inkscape:connector-curvature="0" fill="#472B29" d="M22.4,21.15c-0.25,0-0.5,0.15-0.6,0.4c0.05,0,0.05,0,0.1,0
	c0.25,0,0.4,0.2,0.4,0.4c0,0.25-0.2,0.4-0.4,0.4c-0.05,0-0.15,0-0.2-0.05c0.05,0.35,0.35,0.6,0.7,0.65c0.5-0.1,0.8-0.65,0.7-1.15
	C23,21.5,22.7,21.25,22.4,21.15z M27.9,21.15c-0.2,0-0.4,0.1-0.55,0.3c0.05,0,0.1-0.05,0.15-0.05c0.25,0,0.4,0.2,0.4,0.4
	c0,0.25-0.2,0.4-0.4,0.4c-0.15,0-0.25-0.05-0.3-0.2c-0.05,0.45,0.3,0.85,0.7,0.9c0.5-0.1,0.8-0.6,0.7-1.1
	C28.5,21.5,28.25,21.2,27.9,21.15z"/>
<path id="path54" inkscape:connector-curvature="0" fill="#8889B9" d="M35.1,40.2l-3.15,1.65l-0.7-9.25c0,0,2.35,0.55,3.1,1.8
	C35.35,36,35.1,40.2,35.1,40.2z M15.2,40.55c0.1,0.5,2.9,1.55,2.9,1.55l0.75-9.2c0,0-2.4,0.6-3,1.9C14.9,36.7,15.1,40.1,15.2,40.55z
	"/>
<path id="path56" inkscape:connector-curvature="0" fill="#472B29" d="M25.35,30.45c-0.95,0-2.5-0.85-2.6-0.85
	c-0.05-0.05-0.1-0.1-0.05-0.15c0.05-0.05,0.1-0.1,0.15-0.05c0,0,1.7,0.9,2.55,0.85c0.75-0.15,1.5-0.4,2.15-0.8
	c0.05-0.05,0.15,0,0.15,0.05c0.05,0.05,0,0.15-0.05,0.15c-0.7,0.4-1.45,0.7-2.25,0.85C25.45,30.45,25.4,30.45,25.35,30.45z"/>
<path id="path58" inkscape:connector-curvature="0" fill="#8889B9" d="M24.35,20.9c-1.15-1.35-5.4-0.4-5.4-0.4
	c0.1,0.3,0.15,0.6,0.2,0.9c0.3,0.05,0.35,0.75,0.35,1c0.15,1.25,1,2.15,2.75,2.15c1.2,0,2.2-0.95,2.25-2.15l0,0
	C24.6,21.9,24.5,21.4,24.35,20.9z M24.15,22.45c0,1-0.85,1.85-1.85,1.85h-0.05c-0.1,0-0.2,0-0.35,0c-1.75,0-2.05-1.55-2.1-2.5
	c-0.05-0.55,0.4-1.05,0.95-1.1c0.35-0.05,0.7-0.05,1.1-0.05c1.3,0,1.9,0.3,2,0.55C24.1,21.6,24.15,22,24.15,22.45z M25.55,22.4
	c0,1.2,1,2.2,2.25,2.15l0,0c1.75,0.05,2.6-0.9,2.75-2.15c0.05-0.25,0.05-0.95,0.35-1c0.05-0.3,0.15-0.6,0.2-0.9
	c0,0-4.25-0.95-5.35,0.4C25.6,21.35,25.5,21.9,25.55,22.4z M26.2,21.2c0.15-0.25,0.7-0.55,2.05-0.55c0.4,0,0.75,0,1.1,0.05
	c0.55,0.05,0.95,0.55,0.95,1.1c-0.05,0.95-0.35,2.5-2.1,2.5c-0.1,0-0.2,0-0.35,0c-1,0.05-1.85-0.75-1.9-1.8v-0.05
	C25.95,22,26,21.6,26.2,21.2z"/>
<path id="path60" inkscape:connector-curvature="0" fill="#8889B9" d="M25.8,22c-0.25-0.15-0.5-0.25-0.8-0.25
	c-0.25,0-0.5,0.05-0.75,0.25L24,21.35h2L25.8,22z"/>
<path id="path62" inkscape:connector-curvature="0" fill="#472B29" d="M28.35,14.15c0.2,0.5,0.1,1.1-0.15,1.55
	c-0.45,0.45-1.1,0.6-1.65,0.35c0.25,1.15-1.9,1.5-2.4,0.55c0.4,1-1.75,2-2.45,1c0.05,0.5-0.15,1.05-0.55,1.35
	c-0.4,0.25-0.9,0.35-1.35,0.2C20,19.35,20.1,19.7,20,20c-0.1,0.25-0.4,0.45-0.65,0.4c-0.3-0.05-0.55-0.15-0.75-0.4
	c-0.55-0.7-0.75-1.65-0.5-2.55c0.25-0.8,0.7-1.55,1.35-2.15c1.35-1.35,3.1-2.15,4.95-2.35c1.05-0.15,2.1,0.1,3,0.7
	c0.45,0.3,0.75,0.8,0.75,1.3"/>
<path id="path64" inkscape:connector-curvature="0" fill="#472B29" d="M31.4,16.3c-0.75-0.85-1.85-0.9-2.9-0.8
	c-0.1,0.05-0.2,0.1-0.3,0.15c-0.4,0.3-0.5,0.85-0.2,1.25c0.25,0.35,0.7,0.5,1.1,0.4c-0.05,0.5,0.35,0.9,0.8,0.9c0.05,0,0.1,0,0.2,0
	c-0.1,0.35,0.05,0.75,0.35,0.95c-0.25,0.3-0.2,0.75,0.15,1c0.05,0.05,0.1,0.05,0.15,0.1c0.75,0.4,1.25-0.45,1.35-1.1
	C32.2,18.05,32.2,17.15,31.4,16.3z"/>
<path id="path66" inkscape:connector-curvature="0" fill="#472B29" d="M24.75,43.55c-3.2,0-6.35-0.8-9.25-2.45c0,0-0.05,0-0.05-0.05
	c-0.15-0.15-0.3-0.25-0.45-0.4c-0.05-0.05-0.1-0.1-0.05-0.2c0-0.05,0-0.1,0-0.25c-0.1-3.95,0.55-6.3,2-7.05
	c0.35-0.2,0.75-0.35,1.15-0.45l3.9-1.25c0.25-0.05,0.4-0.2,0.45-0.4c0.05-0.2,0.1-1,0.15-1.4c-1.15-0.75-2.5-1.7-2.9-2.35
	c-0.35-0.45-0.5-1-0.45-1.55v-1c-0.35-0.1-0.65-0.4-0.7-0.75c-0.2-0.6-0.5-1.9-0.5-1.95c-0.2-0.55-0.05-0.9,0.1-1.1
	c0.1-0.15,0.35-0.35,0.8-0.4c0-0.1,0-0.15,0-0.25c-0.15-0.25-0.2-0.55-0.25-0.85c-0.2-3.3,2.7-5.95,6.25-5.95
	c3.55,0,6.45,2.65,6.45,5.9c0,0.35-0.1,0.65-0.25,0.95l0,0c0,0.05,0,0.1,0,0.15c0.4,0.05,0.75,0.2,0.95,0.5
	c0.15,0.2,0.3,0.55,0.1,1.05l0,0c-0.05,0.3-0.35,1.5-0.5,1.95c-0.05,0.3-0.3,0.6-0.6,0.7V26c0,0.35-0.1,0.65-0.25,0.95
	c-0.9,1.2-1.95,2.2-3.2,3c0,0.4,0,0.75,0.1,1.15c0.05,0.15,0.25,0.3,0.45,0.35s4.05,1.4,4.65,1.65l0.3,0.1
	c0.05,0.05,0.1,0.05,0.15,0.05c1.85,0.55,1.95,2.95,2.05,6.25v0.6c0,0.1-0.05,0.15-0.1,0.2C32.05,42.5,28.4,43.55,24.75,43.55z
	 M15.75,40.7c6.05,3.35,13.35,3.1,19.1-0.65V39.6c-0.1-3.2-0.15-5.35-1.7-5.8l0,0c-0.05,0-0.15-0.05-0.2-0.05l-0.3-0.1
	c-0.6-0.25-4.6-1.6-4.6-1.65c-0.35-0.1-0.6-0.35-0.75-0.7c-0.15-0.5-0.2-1-0.15-1.45c0-0.1,0.05-0.15,0.1-0.2
	c1.25-0.8,2.3-1.75,3.15-2.95c0.1-0.2,0.2-0.45,0.2-0.7v-1.5c0-0.15,0.1-0.25,0.2-0.25c0.2-0.05,0.4-0.2,0.4-0.4
	c0.2-0.65,0.5-1.9,0.5-1.95c0.1-0.3,0.1-0.5-0.05-0.65c-0.15-0.2-0.45-0.3-0.8-0.3c-0.05,0-0.15,0-0.2-0.05
	c-0.05-0.05-0.05-0.1-0.05-0.2c0-0.4,0-0.6,0.1-0.7c0.1-0.2,0.15-0.45,0.15-0.7c0-2.95-2.65-5.4-5.95-5.4C21.65,14,19,16.45,19,19.4
	c0,0.25,0.1,0.45,0.2,0.7c0,0.05,0,0.05,0.05,0.1c0.05,0.2,0.05,0.4,0.05,0.55c0,0.05-0.05,0.15-0.05,0.2C19.15,21,19.1,21,19.05,21
	c-0.2,0-0.5,0.05-0.65,0.2c-0.15,0.2-0.1,0.45,0,0.65c0,0.05,0.3,1.35,0.5,1.95c0.05,0.25,0.25,0.4,0.5,0.4l0,0
	c0.05,0,0.15,0.05,0.2,0.05c0.05,0.05,0.05,0.1,0.05,0.2v1.25c0,0.45,0.1,0.9,0.4,1.25c0.35,0.5,1.55,1.45,2.9,2.3
	c0.05,0.05,0.1,0.15,0.1,0.2c0,0.4-0.1,1.4-0.15,1.7c-0.1,0.4-0.45,0.7-0.8,0.8l-3.85,1.25c-0.35,0.1-0.7,0.25-1.05,0.45
	c-0.85,0.45-1.85,1.95-1.7,6.6c0,0.05,0,0.1,0,0.15C15.55,40.55,15.65,40.6,15.75,40.7z"/>
<g id="g72">
	<path id="path68" inkscape:connector-curvature="0" fill="#FDFCEE" d="M34.8,29c-3.98,0-7.2,3.22-7.2,7.2c0,3.98,3.22,7.2,7.2,7.2
		c3.98,0,7.2-3.22,7.2-7.2C42,32.22,38.78,29,34.8,29z"/>
	<path id="path70" inkscape:connector-curvature="0" fill="#472B29" d="M34.8,43.6c-4.1,0-7.4-3.3-7.4-7.4c0-4.1,3.3-7.4,7.4-7.4
		c4.1,0,7.4,3.3,7.4,7.4C42.2,40.3,38.9,43.6,34.8,43.6z M34.8,29.2c-3.9,0-7.05,3.15-7.05,7.05s3.15,7.05,7.05,7.05
		c3.9,0,7.05-3.15,7.05-7.05S38.7,29.2,34.8,29.2z"/>
</g>
<g id="g78">
	<path id="path74" inkscape:connector-curvature="0" fill="#93BC39" d="M34.8,30.25c-3.29,0-5.95,2.66-5.95,5.95
		s2.66,5.95,5.95,5.95s5.95-2.66,5.95-5.95S38.09,30.25,34.8,30.25z"/>
	<path id="path76" inkscape:connector-curvature="0" fill="#472B29" d="M34.8,42.3c-3.35,0-6.1-2.75-6.1-6.1
		c0-3.35,2.75-6.1,6.1-6.1c3.35,0,6.1,2.75,6.1,6.1C40.9,39.6,38.2,42.3,34.8,42.3z M34.8,30.4c-3.2,0-5.8,2.6-5.8,5.8
		s2.6,5.85,5.85,5.85s5.85-2.6,5.85-5.85S38.05,30.4,34.8,30.4z"/>
</g>
<path id="path80" inkscape:connector-curvature="0" opacity="0.79" fill="#C0D078" enable-background="new    " d="M34.8,31.15
	c2.55,0,4.85,1.6,5.75,4c-0.6-3.2-3.7-5.25-6.85-4.65c-2.35,0.45-4.2,2.3-4.65,4.65C29.95,32.75,32.25,31.15,34.8,31.15z"/>
<path id="path82" inkscape:connector-curvature="0" fill="#FDFCEE" d="M33.95,39.15c-0.15,0-0.25-0.05-0.35-0.15l-1.9-2
	c-0.2-0.2-0.2-0.5,0-0.7l0,0c0.1-0.1,0.2-0.15,0.35-0.15c0.15,0,0.25,0.05,0.35,0.15l1.5,1.6l3.2-3.55c0.1-0.1,0.25-0.15,0.35-0.15
	c0.3,0,0.5,0.2,0.5,0.5c0,0.15-0.05,0.25-0.15,0.35L34.35,39C34.25,39.1,34.1,39.15,33.95,39.15z"/>
<path id="path84" inkscape:connector-curvature="0" fill="#472B29" d="M37.55,34.4c0.1,0,0.15,0.05,0.2,0.1c0.1,0.1,0.15,0.3,0,0.45
	l0,0L34.2,38.9c-0.05,0.05-0.15,0.1-0.25,0.1l0,0c-0.1,0-0.15-0.05-0.2-0.1l-1.9-1.95c-0.1-0.1-0.1-0.3,0-0.45
	c0.05-0.05,0.15-0.1,0.2-0.1c0.1,0,0.15,0.05,0.25,0.1l1.65,1.7l3.35-3.7C37.35,34.45,37.45,34.4,37.55,34.4 M37.55,34L37.55,34
	c-0.2,0-0.35,0.1-0.5,0.25l-3.1,3.4l-1.4-1.45c-0.15-0.15-0.3-0.2-0.5-0.2c-0.35,0-0.7,0.3-0.7,0.65c0,0.2,0.05,0.35,0.2,0.5
	l1.9,1.95c0.15,0.15,0.3,0.2,0.5,0.2s0.35-0.1,0.5-0.2L38,35.15c0.15-0.15,0.2-0.3,0.15-0.5c0-0.2-0.1-0.4-0.2-0.5
	C37.85,34.05,37.7,34,37.55,34z"/>
</svg>
