<?xml version="1.0" encoding="utf-8"?>
<!-- Generator: Adobe Illustrator 16.0.0, SVG Export Plug-In . SVG Version: 6.00 Build 0)  -->
<!DOCTYPE svg PUBLIC "-//W3C//DTD SVG 1.1//EN" "http://www.w3.org/Graphics/SVG/1.1/DTD/svg11.dtd">
<svg version="1.1"
	 id="svg102" xmlns:dc="http://purl.org/dc/elements/1.1/" xmlns:cc="http://creativecommons.org/ns#" xmlns:rdf="http://www.w3.org/1999/02/22-rdf-syntax-ns#" xmlns:svg="http://www.w3.org/2000/svg" xmlns:sodipodi="http://sodipodi.sourceforge.net/DTD/sodipodi-0.dtd" xmlns:inkscape="http://www.inkscape.org/namespaces/inkscape" inkscape:version="0.92.4 (5da689c313, 2019-01-14)" sodipodi:docname="couple-icloud.svg"
	 xmlns="http://www.w3.org/2000/svg" xmlns:xlink="http://www.w3.org/1999/xlink" x="0px" y="0px" width="50px" height="50px"
	 viewBox="0 0 50 50" enable-background="new 0 0 50 50" xml:space="preserve">
<sodipodi:namedview  inkscape:cy="25" inkscape:cx="25" inkscape:zoom="4.72" showgrid="false" guidetolerance="10" gridtolerance="10" objecttolerance="10" bordercolor="#666666" pagecolor="#ffffff" borderopacity="1" id="namedview104" inkscape:current-layer="svg102" inkscape:window-maximized="1" inkscape:window-y="-8" inkscape:window-x="-8" inkscape:window-height="705" inkscape:window-width="1366" inkscape:pageshadow="2" inkscape:pageopacity="0">
	</sodipodi:namedview>
<g id="g1007" transform="matrix(4.52,0,0,4.52,3.3478645,-1.0763729)">
	<path id="path6" inkscape:connector-curvature="0" opacity="0.309" fill="#E4E4F9" enable-background="new    " d="M4.95,1.62
		c-2.26,0-4.09,1.83-4.09,4.09c0,2.26,1.83,4.09,4.09,4.09c2.26,0,4.09-1.83,4.09-4.09C9.05,3.46,7.22,1.62,4.95,1.62z"/>
	<g id="g997">
		<path id="path4-0" inkscape:connector-curvature="0" fill="#88CDD7" d="M7.94,1.51c-0.06,0-0.11,0.05-0.11,0.11
			c0,0.06,0.05,0.11,0.11,0.11c0.06,0,0.11-0.05,0.11-0.11C8.05,1.56,8,1.51,7.94,1.51z"/>
		<path id="path8-8" inkscape:connector-curvature="0" fill="#88CDD7" d="M8.6,1.4c-0.24,0-0.44,0.2-0.44,0.44
			c0,0.24,0.2,0.44,0.44,0.44c0.24,0,0.44-0.2,0.44-0.44C9.05,1.6,8.85,1.4,8.6,1.4z"/>
		<path id="path10" inkscape:connector-curvature="0" fill="#8889B9" d="M9.05,2.62c-0.12,0-0.22,0.1-0.22,0.22
			c0,0.12,0.1,0.22,0.22,0.22c0.12,0,0.22-0.1,0.22-0.22C9.27,2.72,9.17,2.62,9.05,2.62z"/>
		<path id="path12" inkscape:connector-curvature="0" fill="#88CDD7" d="M8.38,8.37c-0.12,0-0.22,0.1-0.22,0.22
			c0,0.12,0.1,0.22,0.22,0.22c0.12,0,0.22-0.1,0.22-0.22C8.6,8.47,8.51,8.37,8.38,8.37z M1.08,6.71c-0.24,0-0.44,0.2-0.44,0.44
			c0,0.24,0.2,0.44,0.44,0.44c0.24,0,0.44-0.2,0.44-0.44C1.52,6.91,1.33,6.71,1.08,6.71z"/>
		<path id="path14" inkscape:connector-curvature="0" fill="#8889B9" d="M2.19,9.59c-0.12,0-0.22,0.1-0.22,0.22
			c0,0.12,0.1,0.22,0.22,0.22c0.12,0,0.22-0.1,0.22-0.22C2.41,9.69,2.31,9.59,2.19,9.59z"/>
		<path id="path16" inkscape:connector-curvature="0" fill="#FFFFFF" d="M1.47,5.61c-0.15,0-0.28,0.12-0.28,0.28
			c0,0.15,0.12,0.28,0.28,0.28c0.15,0,0.28-0.12,0.28-0.28C1.75,5.73,1.62,5.61,1.47,5.61z M8.22,3.73c-0.09,0-0.17,0.08-0.17,0.17
			c0,0.09,0.08,0.17,0.17,0.17c0.09,0,0.17-0.08,0.17-0.17C8.38,3.8,8.31,3.73,8.22,3.73z"/>
	</g>
</g>
<path id="path2" inkscape:connector-curvature="0" fill="none" d="M0,50V0h50v50H0z"/>
<path id="path4" inkscape:connector-curvature="0" fill="#FFFFFF" d="M10.9,28.25c-0.25,0-0.45,0.2-0.45,0.45s0.2,0.45,0.45,0.45
	s0.45-0.2,0.45-0.45S11.15,28.25,10.9,28.25z M40.5,15.9c-0.19,0-0.35,0.16-0.35,0.35s0.16,0.35,0.35,0.35s0.35-0.16,0.35-0.35
	S40.69,15.9,40.5,15.9z"/>
<path id="path20" inkscape:connector-curvature="0" fill="#FDFCEF" d="M32.05,16.85c0-2.5-2.7-4.5-6.05-4.5c-3.35,0-6,2-6,4.5
	s2.7,4.5,6.05,4.5h0.75c0.85,0.8,1.95,1.3,3.1,1.45c0.2,0.05,0.35-0.1,0.35-0.3c0-0.05,0-0.15-0.05-0.2c-0.3-0.65-0.4-1.3-0.4-2l0,0
	C31.25,19.5,32.05,18.2,32.05,16.85"/>
<path id="path22" inkscape:connector-curvature="0" fill="#472B29" d="M29.95,23.1c-0.05,0-0.05,0-0.1,0
	c-1.2-0.15-2.25-0.65-3.15-1.45h-0.65c-3.45,0-6.3-2.15-6.3-4.75s2.8-4.75,6.25-4.75s6.25,2.1,6.3,4.7v0.05
	c0,1.45-0.8,2.75-2.25,3.65c0,0.6,0.15,1.2,0.4,1.75c0.05,0.05,0.05,0.2,0.05,0.3C30.45,22.9,30.2,23.1,29.95,23.1z M26,12.6
	c-3.2,0-5.75,1.9-5.75,4.25s2.6,4.25,5.8,4.25h0.75c0.05,0,0.1,0,0.15,0.05c0.85,0.75,1.85,1.25,2.95,1.4c0.05,0,0.1,0,0.1-0.05
	v-0.05c-0.3-0.65-0.45-1.35-0.45-2.1c0-0.1,0.05-0.15,0.1-0.2c1.35-0.8,2.1-2,2.15-3.25v-0.05C31.8,14.5,29.2,12.6,26,12.6z"/>
<path id="path24" inkscape:connector-curvature="0" fill="#512C2B" d="M20.5,29.65c0,0.05,0,0.05,0,0.1
	c-0.05,0.3-0.15,0.55-0.25,0.85c-0.15,0.4-0.3,0.75-0.55,1.1c-0.1,0.15-0.2,0.25-0.35,0.35c-0.3,0.2-0.6,0.25-0.95,0.25h-5.95
	c-0.35,0-0.7-0.1-0.95-0.3c-0.1-0.1-0.25-0.2-0.3-0.3c-0.25-0.35-0.45-0.7-0.55-1.1c-0.1-0.3-0.2-0.55-0.25-0.85
	c0-0.05,0-0.05,0-0.1c-0.9-3.6-0.65-10,1.45-11.9c0.95-1,2.3-1.5,3.65-1.5c1.1-0.05,2.2,0.3,3.1,1c0.2,0.15,0.4,0.3,0.55,0.45
	c0.05,0.05,0.15,0.15,0.2,0.2C21.15,20.15,21.35,26.2,20.5,29.65z"/>
<path id="path26" inkscape:connector-curvature="0" fill="#F6CCA4" d="M19.6,22c0.05-0.5-0.1-0.95-0.1-1.25l0,0
	c-0.45-0.55-0.75-1.25-1.4-1.65c-0.7-0.45-1.5-0.75-2.3-0.95c-1.95-0.5-3.9,0.95-4.5,2.8V21c0.05,0.35,0.1,0.65,0.15,1
	c-0.5,0-0.8,0.3-0.6,0.85c0,0,0.2,0.9,0.35,1.35c0.05,0.25,0.25,0.4,0.5,0.4c0,0.3,0,0.55,0,0.85c0,0.35,0.1,0.7,0.3,0.95
	c0.5,0.75,3.15,2.5,3.8,2.4c1.05,0,3.1-1.75,3.65-2.65c0.1-0.2,0.15-0.4,0.15-0.6c0-0.35,0-0.7,0-1c0.2,0,0.4-0.2,0.45-0.4
	c0.15-0.45,0.35-1.35,0.35-1.35C20.5,22.25,20.1,22,19.6,22z"/>
<path id="path28" inkscape:connector-curvature="0" fill="#EDBC94" d="M21.15,30.75l-0.1-0.05l-0.2-0.1c-0.4-0.2-3.2-1.1-3.2-1.1
	c-0.2-0.05-0.35-0.2-0.4-0.4c-0.1-0.35-0.1-0.65-0.1-1c-0.45,0.2-0.95,0.4-1.45,0.5c-0.65,0.05-1.75-0.8-1.75-0.8
	s-0.05,1.05-0.05,1.25c-0.05,0.2-0.25,0.35-0.45,0.4l-2.65,0.9c-0.25,0.05-0.5,0.15-0.75,0.3C9.5,31,9.1,31.6,8.9,32.25l0,0
	c0,0.05,0,0.1-0.05,0.2C8.8,32.6,8.8,32.75,8.8,32.9c0,0.15-0.05,2.6-0.05,2.8c3.8,2.15,5.85,2,9,1.65c1.6-0.2,3.45-1.25,4.7-1.9
	C22.3,32.3,22.6,31.25,21.15,30.75z"/>
<g id="g32" opacity="0.3">
	<path id="path30" inkscape:connector-curvature="0" opacity="0.8" fill="#F4989E" enable-background="new    " d="M13.15,24.3
		c-0.39,0-0.7,0.31-0.7,0.7s0.31,0.7,0.7,0.7s0.7-0.31,0.7-0.7S13.54,24.3,13.15,24.3z M18.3,24.3c-0.36,0-0.65,0.31-0.65,0.7
		s0.29,0.7,0.65,0.7c0.36,0,0.65-0.31,0.65-0.7S18.66,24.3,18.3,24.3z"/>
</g>
<path id="path34" inkscape:connector-curvature="0" fill="#472B29" d="M11.75,24.85c-0.05,0-0.1-0.05-0.1-0.1L11.35,22
	c0-0.05,0.05-0.1,0.1-0.1c0.05,0,0.1,0.05,0.1,0.1l0.3,2.75C11.85,24.8,11.8,24.85,11.75,24.85z M19.45,24.7L19.45,24.7
	c-0.05,0-0.1-0.05-0.1-0.1l0.15-2.75c0-0.05,0.05-0.1,0.1-0.1c0.05,0,0.1,0.05,0.1,0.1l-0.15,2.75C19.55,24.65,19.5,24.7,19.45,24.7
	z"/>
<path id="path36" inkscape:connector-curvature="0" fill="#6D1B18" d="M14.55,26.05c0,0.05,0,0.1,0,0.15c0,0.5,0.55,0.85,1.2,0.85
	s1.2-0.4,1.2-0.85c0-0.05,0-0.1,0-0.15H14.55z"/>
<path id="path38" inkscape:connector-curvature="0" fill="#EE3E54" d="M16.35,26.95c-0.35-0.3-0.9-0.3-1.25,0
	c0.2,0.1,0.4,0.15,0.65,0.15C15.9,27.05,16.15,27.05,16.35,26.95z"/>
<path id="path40" inkscape:connector-curvature="0" fill="#FDFCEF" d="M14.9,26.05L14.9,26.05v0.15c0,0.15,0.15,0.25,0.4,0.25h0.9
	c0.2,0,0.4-0.1,0.4-0.25V26L14.9,26.05z"/>
<path id="path42" inkscape:connector-curvature="0" fill="#472B29" d="M15.7,27.15c-0.75,0-1.3-0.4-1.3-0.95c0-0.05,0-0.15,0.05-0.2
	c0-0.05,0.05-0.05,0.1-0.05h2.35c0.05,0,0.1,0.05,0.1,0.1s0,0.15,0,0.2C17,26.75,16.4,27.15,15.7,27.15z M14.65,26.15v0.05
	c0,0.45,0.5,0.75,1.1,0.75s1.1-0.35,1.1-0.75v-0.05H14.65z"/>
<path id="path44" inkscape:connector-curvature="0" fill="#F1BC19" d="M12.55,29.8L14,30.5l1.6,3.7l1.55-3.8l1-0.8l1.65,0.6
	l0.5,6.55c-3.15,1.15-6.6,1.15-9.75,0l0.2-6.3L12.55,29.8z"/>
<path id="path46" inkscape:connector-curvature="0" fill="#FDFCEF" d="M12.05,30.55l1.65,0.6l-0.65,0.9l2.5,2.05l-1.75-4.8
	L12.05,30.55z M19.05,30.55l-1.75-1.2l-1.75,4.75l2.5-2.05l-0.65-0.9L19.05,30.55z"/>
<path id="path48" inkscape:connector-curvature="0" opacity="0.41" fill="#472B29" enable-background="new    " d="M15.7,25.4
	c0.2,0,0.4-0.1,0.5-0.3v-0.05l0,0h-0.05l0,0c-0.2,0.25-0.55,0.3-0.8,0.1c-0.05-0.05-0.05-0.05-0.1-0.1l0,0l0,0v0.05
	C15.35,25.25,15.5,25.35,15.7,25.4z M16,27.7C16,27.7,16.05,27.7,16,27.7c0.05-0.05,0-0.05,0-0.05h-0.6c0,0-0.05,0-0.05,0.05
	c0,0,0,0.05,0.05,0.05H16V27.7z"/>
<path id="path50" inkscape:connector-curvature="0" fill="#512C2B" d="M15,21.55c-0.85-0.25-1.7-0.35-2.55-0.25
	c-0.05,0-0.05,0.05-0.05,0.05c0,0.05,0,0.05,0.05,0.05c0.05,0,1.75,0.3,2.3,0.5l0,0h0.05l0.2-0.25V21.6
	C15.05,21.6,15.05,21.6,15,21.55z M16.4,21.5c0.85-0.2,1.7-0.25,2.55-0.15c0.05,0,0.1,0,0.1,0.05c0,0.05,0,0.1-0.05,0.1
	c0,0,0,0-0.05,0c0,0-1.75,0.2-2.3,0.4H16.6c-0.05,0-0.05,0-0.05-0.05l-0.2-0.25C16.35,21.6,16.35,21.55,16.4,21.5
	C16.35,21.5,16.35,21.5,16.4,21.5z"/>
<path id="path52" inkscape:connector-curvature="0" fill="#472B29" d="M13.8,22.3c-0.2,0-0.35,0.1-0.4,0.3h0.05
	c0.15,0,0.3,0.15,0.3,0.3s-0.15,0.3-0.3,0.3c-0.05,0-0.1,0-0.15-0.05c0.05,0.25,0.25,0.45,0.5,0.45c0.35-0.1,0.55-0.45,0.45-0.75
	C14.25,22.55,14.05,22.35,13.8,22.3z M17.55,22.3c-0.15,0-0.3,0.1-0.35,0.2c0.05,0,0.05,0,0.1,0c0.15,0,0.25,0.15,0.25,0.3
	c0,0.15-0.1,0.25-0.25,0.25c-0.1,0-0.15-0.05-0.2-0.15c0.05,0.25,0.35,0.4,0.6,0.35s0.4-0.35,0.35-0.6
	C18,22.45,17.8,22.3,17.55,22.3z M15.75,28.75c-0.7,0-1.75-0.6-1.8-0.6c-0.05-0.05-0.1-0.1-0.05-0.15c0.05-0.05,0.1-0.1,0.15-0.05
	c0,0,1.15,0.6,1.75,0.55c0.5-0.1,1-0.3,1.45-0.55c0.05-0.05,0.15,0,0.15,0.05c0.05,0.05,0,0.15-0.05,0.15c-0.5,0.3-1,0.45-1.55,0.55
	C15.85,28.75,15.8,28.75,15.75,28.75z"/>
<g id="g56" opacity="0.27">
	<path id="path54" inkscape:connector-curvature="0" opacity="0.8" fill="#F4989E" enable-background="new    " d="M14.5,23.85
		c-0.06,0-0.1,0.04-0.1,0.1c0,0.06,0.04,0.1,0.1,0.1s0.1-0.04,0.1-0.1C14.6,23.89,14.56,23.85,14.5,23.85z M14.65,24.45
		c-0.06,0-0.1,0.04-0.1,0.1c0,0.06,0.04,0.1,0.1,0.1s0.1-0.04,0.1-0.1C14.75,24.49,14.71,24.45,14.65,24.45z M15.15,24.1
		c-0.06,0-0.1,0.04-0.1,0.1c0,0.06,0.04,0.1,0.1,0.1s0.1-0.04,0.1-0.1C15.25,24.14,15.21,24.1,15.15,24.1z M16.2,24
		c-0.06,0-0.1,0.04-0.1,0.1s0.04,0.1,0.1,0.1c0.06,0,0.1-0.04,0.1-0.1S16.26,24,16.2,24z M16.55,24.5c-0.06,0-0.1,0.04-0.1,0.1
		s0.04,0.1,0.1,0.1c0.06,0,0.1-0.04,0.1-0.1S16.61,24.5,16.55,24.5z M16.9,24c-0.06,0-0.1,0.04-0.1,0.1s0.04,0.1,0.1,0.1
		s0.1-0.04,0.1-0.1S16.96,24,16.9,24z"/>
</g>
<path id="path58" inkscape:connector-curvature="0" fill="#472B29" d="M15.45,37.9c-2.35,0-4.7-0.65-6.8-1.9
	c-0.05-0.05-0.1-0.1-0.1-0.2c-0.1-2.95,0.4-4.7,1.4-5.25c0.25-0.15,0.5-0.25,0.8-0.35l2.65-0.9c0.15-0.05,0.25-0.1,0.25-0.2
	c0-0.1,0.05-0.6,0.1-0.9c-0.75-0.45-1.4-0.95-2-1.6c-0.25-0.35-0.4-0.75-0.35-1.15V24.8c-0.25-0.1-0.45-0.3-0.5-0.6
	c-0.15-0.4-0.35-1.3-0.35-1.3c-0.15-0.4-0.05-0.65,0.05-0.8c0.1-0.1,0.25-0.25,0.5-0.3v-0.05c-0.1-0.2-0.15-0.4-0.15-0.6
	c0-2.3,2-4.15,4.5-4.15s4.5,1.85,4.5,4.15c0,0.25-0.05,0.45-0.15,0.65v0.05c0.3,0.05,0.5,0.15,0.65,0.35c0.1,0.15,0.2,0.4,0.1,0.8
	l-0.05,0.1c-0.05,0.3-0.2,0.9-0.3,1.2c-0.05,0.2-0.2,0.4-0.4,0.5v0.8c0,0.25-0.1,0.5-0.2,0.7c-0.6,0.85-1.35,1.55-2.2,2.1
	c0,0.25,0,0.5,0.1,0.7c0.05,0.1,0.15,0.15,0.25,0.2c0.15,0.05,2.8,0.95,3.2,1.15l0.3,0.1c1.35,0.4,1.4,2.15,1.45,4.5v0.45l0,0v0.05
	c0,0.1-0.05,0.15-0.1,0.2C20.45,37.15,17.95,37.9,15.45,37.9z M9.05,35.65c4.05,2.4,9.2,2.3,13.2-0.2v-0.3
	c-0.05-2.25-0.1-3.7-1.1-4.05l-0.35-0.15c-0.4-0.2-3.15-1.1-3.15-1.1c-0.25-0.05-0.45-0.25-0.55-0.5C17,29,16.95,28.65,17,28.3
	c0-0.1,0.05-0.15,0.1-0.2c0.85-0.55,1.55-1.2,2.15-2c0.05-0.1,0.1-0.3,0.1-0.45v-1c0-0.15,0.1-0.25,0.2-0.25c0.1,0,0.2-0.1,0.2-0.2
	c0.1-0.35,0.25-0.95,0.3-1.2c0-0.05,0.05-0.1,0.05-0.15l0,0c0.05-0.15,0.05-0.25,0-0.35c-0.1-0.1-0.25-0.15-0.5-0.15
	c-0.1,0-0.15,0-0.2-0.05c-0.05-0.05-0.05-0.1-0.05-0.2v-0.35c0-0.05,0-0.1,0.05-0.1c0.05-0.15,0.1-0.3,0.1-0.5c0-2-1.8-3.6-4-3.6
	s-4,1.6-4,3.6c0,0.15,0.05,0.3,0.15,0.45v0.05c0,0.15,0.05,0.25,0.05,0.4c0,0.05,0,0.15-0.05,0.2c-0.05,0.05-0.1,0.05-0.2,0.05
	c-0.2,0-0.35,0.05-0.4,0.1c-0.05,0.05-0.05,0.2,0,0.4c0,0.05,0.2,0.9,0.35,1.35c0.05,0.15,0.15,0.25,0.25,0.25l0,0
	c0.05,0,0.15,0.05,0.2,0.05c0.05,0.05,0.05,0.1,0.05,0.2v0.85c0,0.3,0.1,0.6,0.25,0.8c0.55,0.6,1.25,1.15,1.95,1.55
	c0.1,0.05,0.15,0.15,0.15,0.2c0,0.25-0.05,0.95-0.1,1.2c-0.1,0.3-0.35,0.5-0.65,0.6l-2.65,0.9c-0.25,0.05-0.5,0.15-0.7,0.3
	C9.7,31.25,8.95,32.15,9.05,35.65z"/>
<path id="path60" inkscape:connector-curvature="0" fill="#512C2B" d="M15.65,16.55c-3.75,0.1-4.75,3.3-4.95,4
	c0.1-0.1,0.2-0.2,0.3-0.3c-0.05,1.15,0.2,2.3,0.8,3.3c-0.05-0.75,0.1-1.5,0.3-2.25c0,0.35,0.05,0.7,0.15,1
	c-0.05-0.1,1.55-2.55,3.4-3.15c-0.1,0.2-0.2,0.4-0.3,0.55c-0.15,0.5-0.3,0.95-0.5,1.4c0.9-0.35,1.7-1,2.25-1.8
	c0.1-0.15,0.2-0.35,0.25-0.55h0.15c0,0.05,0.05,0.1,0.05,0.15c0.15,0.3,0.35,0.6,0.55,0.9c0.75,1.05,1.4,2.4,1.35,3.7
	c0.85-1.2,0.6-2.65,0.25-4.1C19.75,19.4,18.7,16.45,15.65,16.55z"/>
<path id="path62" inkscape:connector-curvature="0" fill="#DBA179" d="M44.8,31.3c-0.05-0.7-0.55-1.3-1.2-1.45l-0.1-0.05l-0.2-0.1
	c-0.45-0.2-3.15-1.2-3.15-1.2c-0.2-0.05-0.35-0.2-0.45-0.4c-0.1-0.35-0.1-0.7-0.1-1.05c-0.6,0.2-1.2,0.35-1.85,0.5
	c-0.7,0.05-2.15-0.8-2.15-0.8s-0.05,1.1-0.1,1.35c0,0.2-0.2,0.4-0.4,0.4l-2.6,0.95c-0.3,0.05-0.55,0.2-0.8,0.35
	c-0.55,0.35-0.95,0.9-1.15,1.5c0,0-0.15,1.2-0.15,1.25c0,0.15-0.05,0.35-0.05,0.55c2.8,1.9,5.05,2.45,8.95,2.25
	c2-0.2,3.9-0.75,5.7-1.65C44.95,32.2,44.8,31.3,44.8,31.3z"/>
<path id="path64" inkscape:connector-curvature="0" fill="#77CBD2" d="M43.6,29.85l-0.1-0.05l-0.2-0.1c-0.3-0.1-1.4-0.55-2.25-0.85
	H41C40.1,29.3,38.8,30,37.6,30c-1.2,0-2.4-0.65-3.4-1.15l-0.1,0.05l-1.6,0.6c-0.3,0.05-0.55,0.2-0.8,0.35
	c-0.55,0.35-0.95,0.9-1.15,1.5c0,0-0.15,1.2-0.15,1.25c0,0.15-0.05,1.95-0.05,2.15c2.8,1.9,5.05,2.45,8.95,2.25
	c2-0.2,3.9-0.75,5.7-1.65c-0.1-1.55-0.2-4.05-0.2-4.05C44.75,30.65,44.25,30.05,43.6,29.85z"/>
<path id="path66" inkscape:connector-curvature="0" fill="#00A5A5" d="M32.8,36.3c-0.1,0-0.15-0.05-0.15-0.15V34.7
	c0-0.1,0.05-0.15,0.15-0.15c0.1,0,0.15,0.05,0.15,0.15v1.45C32.95,36.25,32.85,36.3,32.8,36.3z M42.3,36.55
	c-0.1,0-0.15-0.05-0.15-0.15v-1.7c0-0.1,0.05-0.15,0.15-0.15c0.1,0,0.15,0.05,0.15,0.15v1.7C42.45,36.5,42.4,36.55,42.3,36.55z"/>
<path id="path68" inkscape:connector-curvature="0" fill="#EDBC94" d="M42.05,21.7H41.9c-0.35,0-0.3,0.1-0.3-0.1
	c0.05-0.4-0.15-1.95-0.15-2c0-1.6-1.7-2.9-3.8-3h-0.1c-2.1,0.1-3.8,1.4-3.8,3c0,0.1-0.05,1.65,0,2c0,0.2-0.1,0.1-0.45,0.1h-0.15
	c-0.35,0-0.65,0.25-0.75,0.6c0.1,0.65,0.3,1.25,0.5,1.85c0.15,0.3,0.4,0.35,0.65,0.5c0.1,0.1,0.2,0.25,0.2,0.4
	c0.2,0.6,0.5,1.1,0.95,1.5c0.2,0.2,1.65,1.7,2.85,1.65s2.65-1.45,2.85-1.65c0.45-0.4,0.8-0.9,0.95-1.5c0-0.15,0.1-0.3,0.2-0.4
	c0.25-0.2,0.5-0.25,0.65-0.5c0.2-0.6,0.4-1.25,0.5-1.85C42.7,21.95,42.4,21.7,42.05,21.7L42.05,21.7z"/>
<path id="path70" inkscape:connector-curvature="0" fill="#512C2B" d="M37.65,24.25c0.25,0,0.45-0.1,0.65-0.25v-0.05l0,0l0,0h-0.05
	c-0.3,0.3-0.85,0.3-1.15,0c0,0,0,0-0.05,0H37V24l0,0C37.15,24.15,37.4,24.25,37.65,24.25z M36.85,20.9L37,20.6
	c-0.7-0.15-1.4-0.15-2.05,0.05l0.2,0.3C35.7,20.8,36.3,20.8,36.85,20.9z M40.15,20.9l0.15-0.3c-0.7-0.15-1.4-0.15-2.05,0.05l0.2,0.3
	C39,20.8,39.6,20.8,40.15,20.9z M35.9,21.35c-0.15,0-0.3,0.1-0.4,0.25h0.05c0.15,0,0.25,0.1,0.25,0.25s-0.1,0.25-0.25,0.25
	c-0.05,0-0.1,0-0.1-0.05c0.05,0.2,0.2,0.4,0.45,0.4c0.3-0.1,0.5-0.4,0.45-0.7C36.25,21.6,36.1,21.4,35.9,21.35z M39.35,21.35
	c-0.15,0-0.25,0.1-0.35,0.2c0.05,0,0.05,0,0.1,0c0.15,0.05,0.2,0.2,0.15,0.35c-0.05,0.1-0.1,0.15-0.15,0.15
	c-0.1,0-0.15-0.05-0.2-0.1c-0.05,0.25,0.1,0.5,0.35,0.55s0.5-0.1,0.55-0.35c0-0.05,0-0.15,0-0.2C39.85,21.65,39.65,21.4,39.35,21.35
	z M39.55,24.95V24.9l0,0H39.5c-1.15,0.7-2.6,0.7-3.7,0h-0.05c0,0,0,0-0.05,0v0.05l0,0C36.85,25.75,38.4,25.75,39.55,24.95z
	 M38.15,26.85c0,0,0.05,0,0.05-0.05s0-0.05-0.05-0.05H37.2l-0.05,0.05c0,0,0,0.05,0.05,0.05H38.15z"/>
<path id="path72" inkscape:connector-curvature="0" fill="#472B29" d="M38.05,37.3c-3.25,0-5.35-0.65-7.85-2.35
	c-0.05-0.05-0.1-0.15-0.1-0.25c0-0.05,0-0.15,0-0.3c0-0.8,0.05-2.45,0.2-3.15c0.15-0.7,0.6-1.3,1.25-1.65
	c0.25-0.15,0.55-0.25,0.85-0.35l2.55-0.95c0.15-0.05,0.25-0.15,0.3-0.25c0-0.05,0.05-0.35,0.05-0.65c-0.35-0.25-0.65-0.5-0.75-0.55
	c-0.5-0.45-0.85-1-1.05-1.6V25.2c0-0.1-0.05-0.15-0.1-0.2c-0.05-0.05-0.1-0.05-0.2-0.1c-0.2-0.1-0.4-0.2-0.55-0.5
	c-0.3-0.65-0.45-1.3-0.55-2c0-0.05,0-0.05,0-0.1c0.15-0.45,0.55-0.75,1-0.75h0.15c0.05,0,0.1,0,0.15,0c0-0.4,0-1.2,0-1.75v-0.15
	c0-1.75,1.75-3.2,4.05-3.3h0.1c2.25,0.1,4.05,1.5,4.05,3.3c0,0,0,0.1,0.05,0.25c0.05,0.6,0.15,1.3,0.15,1.6h0.05H42
	c0.45,0,0.85,0.3,1,0.75c0,0.05,0,0.05,0,0.1c-0.05,0.7-0.25,1.35-0.5,2c-0.15,0.25-0.35,0.35-0.5,0.45
	c-0.05,0.05-0.15,0.1-0.25,0.15c-0.05,0.05-0.1,0.1-0.1,0.2v0.05c-0.2,0.6-0.55,1.2-1.05,1.6c-0.25,0.2-0.5,0.45-0.8,0.6
	c0,0.2,0.05,0.4,0.1,0.6c0.05,0.1,0.15,0.2,0.25,0.2c0.15,0.05,2.7,1,3.15,1.2l0.3,0.15c0.75,0.2,1.3,0.85,1.35,1.65l0,0
	c0,0,0.15,2.5,0.2,4.05c0,0.1-0.05,0.2-0.15,0.25c-1.85,0.9-3.8,1.45-5.8,1.65C38.85,37.3,38.45,37.3,38.05,37.3z M30.6,34.65
	c2.65,1.75,4.85,2.3,8.7,2.15c1.9-0.2,3.75-0.7,5.45-1.55c-0.05-1.5-0.2-3.8-0.2-3.85c-0.05-0.6-0.45-1.1-1-1.25L43.2,30
	c-0.45-0.2-3.1-1.15-3.15-1.2c-0.25-0.05-0.5-0.25-0.6-0.55c-0.1-0.3-0.15-0.65-0.1-0.95c0-0.1,0.05-0.15,0.1-0.2
	c0.3-0.2,0.55-0.45,0.85-0.65c0.4-0.35,0.7-0.85,0.9-1.35c0.05-0.2,0.15-0.4,0.3-0.5c0.1-0.1,0.2-0.15,0.3-0.2
	c0.15-0.1,0.25-0.15,0.3-0.25c0.25-0.55,0.4-1.15,0.45-1.75c-0.1-0.2-0.3-0.35-0.5-0.35H41.9c-0.25,0-0.35,0-0.5-0.1
	c-0.1-0.1-0.1-0.25-0.1-0.35c0-0.3-0.05-1.2-0.1-1.6c0-0.2-0.05-0.3-0.05-0.3c0-1.5-1.55-2.7-3.55-2.8h-0.1
	c-2,0.05-3.55,1.3-3.55,2.8v0.15c-0.05,1.05-0.05,1.65,0,1.85c0,0.1,0,0.25-0.1,0.35c-0.1,0.1-0.25,0.05-0.3,0.05s-0.15,0-0.25,0
	h-0.15c-0.2,0-0.45,0.15-0.5,0.35c0.05,0.6,0.2,1.2,0.45,1.75c0.05,0.1,0.15,0.15,0.35,0.25c0.1,0.05,0.15,0.1,0.25,0.15
	c0.2,0.15,0.3,0.35,0.3,0.55c0.15,0.55,0.45,1,0.9,1.35c0.05,0.05,0.4,0.3,0.8,0.6c0.05,0.05,0.1,0.1,0.1,0.2
	c0,0.3-0.05,0.75-0.05,0.9c-0.1,0.35-0.35,0.55-0.65,0.6l-2.55,0.95c-0.3,0.05-0.55,0.15-0.75,0.3c-0.55,0.25-0.9,0.75-1,1.35
	c-0.15,0.6-0.2,2.3-0.2,3C30.6,34.5,30.6,34.6,30.6,34.65z"/>
<path id="path74" inkscape:connector-curvature="0" fill="#895D3D" d="M42.1,23.5l-0.3-0.05l0.05-0.55l-0.3,0.1l-0.1-0.25L42,22.5
	c0.05,0,0.1,0,0.15,0c0.05,0.05,0.05,0.1,0.05,0.15L42.1,23.5z M33.25,23.35l-0.1-0.8c0-0.05,0-0.1,0.05-0.15
	c0.05-0.05,0.1-0.05,0.15,0l0.55,0.25l-0.1,0.3l-0.3-0.2l0.05,0.55L33.25,23.35z"/>
<path id="path76" inkscape:connector-curvature="0" fill="#472B29" d="M33.75,25L33.75,25c-0.05,0-0.1-0.05-0.1-0.1l0.05-3.15
	c0-0.05,0.05-0.1,0.1-0.1l0,0c0.05,0,0.1,0.05,0.1,0.1l-0.05,3.15C33.85,24.95,33.8,25,33.75,25z M41.5,25c-0.05,0-0.1-0.05-0.1-0.1
	l-0.05-3.15c0-0.05,0.05-0.1,0.1-0.1s0.1,0.05,0.1,0.1l0.05,3.15C41.6,24.95,41.55,25,41.5,25z M37.65,28.3c-0.8,0-2.1-0.95-2.15-1
	s-0.05-0.1-0.05-0.15c0-0.05,0.1-0.05,0.15-0.05c0.4,0.3,1.5,1,2.05,0.95c0.65-0.15,1.25-0.45,1.8-0.85
	c0.05-0.05,0.15-0.05,0.15,0.05c0.05,0.05,0.05,0.15-0.05,0.15C39,27.8,38.35,28.1,37.65,28.3C37.75,28.3,37.7,28.3,37.65,28.3z"/>
<path id="path78" inkscape:connector-curvature="0" fill="#472B29" d="M42.1,16.9c0-0.2-0.25-0.15-0.45-0.15
	c-0.7,0.05-0.85-0.15-2.2-0.95c-1.2-0.65-2.65-0.6-3.75,0.2c-4.3,0.95-1.8,6.5-1.8,6.5s0-2.9,1.3-3.8c2.25,1.45,4.4,1.6,5.65,0.75
	c0.35,1,0.5,2,0.5,3.05c0.65-1.2,0.75-2.6,0.4-3.9C41.65,18.1,42.2,17.6,42.1,16.9z M26,19.25c-0.05,0-0.15-0.05-0.15-0.15v-1.6
	c0-0.05,0.05-0.15,0.15-0.15s0.15,0.05,0.15,0.15v1.6C26.1,19.2,26.05,19.25,26,19.25z"/>
<path id="path80" inkscape:connector-curvature="0" fill="#472B29" d="M27.7,19.25h-3.35c-0.05,0-0.15-0.05-0.15-0.15
	s0.05-0.15,0.15-0.15h3.35c0.05,0,0.15,0.05,0.15,0.15S27.75,19.25,27.7,19.25z"/>
<path id="path82" inkscape:connector-curvature="0" fill="#8E9DB5" d="M26,18.8c-0.14,0-0.25,0.11-0.25,0.25
	c0,0.14,0.11,0.25,0.25,0.25s0.25-0.11,0.25-0.25C26.25,18.91,26.14,18.8,26,18.8z"/>
<path id="path84" inkscape:connector-curvature="0" fill="#472B29" d="M26,19.45c-0.2,0-0.35-0.15-0.35-0.35
	c0-0.2,0.15-0.35,0.35-0.35s0.35,0.15,0.35,0.35C26.35,19.25,26.2,19.45,26,19.45z M26,18.95c-0.05,0-0.1,0.05-0.1,0.1
	c0,0.05,0.05,0.1,0.1,0.1s0.1-0.05,0.1-0.1C26.1,19,26.05,18.95,26,18.95z"/>
<path id="path86" inkscape:connector-curvature="0" fill="#F9E7E5" d="M25.8,17.55v0.25c0,0.1,0.1,0.15,0.2,0.15s0.2-0.05,0.2-0.15
	v-0.25H25.8z"/>
<path id="path88" inkscape:connector-curvature="0" fill="#472B29" d="M26,18.1c-0.2,0-0.35-0.15-0.35-0.3v-0.25
	c0-0.05,0.05-0.15,0.15-0.15h0.4c0.05,0,0.15,0.05,0.15,0.15v0.25C26.3,18,26.15,18.1,26,18.1z M25.9,17.65v0.15
	c0,0.05,0.05,0.05,0.1,0.05s0.05-0.05,0.05-0.05v-0.15H25.9z"/>
<g id="g94">
	<path id="path90" inkscape:connector-curvature="0" fill="#78A0CF" d="M22.6,16.55c-0.05,0.5,0.35,0.95,0.9,1h0.05h5.05
		c0.5,0,0.95-0.4,0.95-0.95c0-0.45-0.3-0.85-0.75-0.9c0.1-0.5-0.3-1-0.8-1.1c-0.05,0-0.1,0-0.15,0c-0.3,0-0.6,0.15-0.75,0.4
		c-0.05-0.6-0.55-1.05-1.15-1c-0.5,0.05-0.85,0.4-0.95,0.85c-0.05,0.15-0.05,0.3,0,0.4c-0.15-0.15-0.3-0.2-0.5-0.2
		c-0.35,0-0.65,0.25-0.65,0.65c-0.15-0.05-0.35,0-0.5,0.05C22.85,15.9,22.6,16.2,22.6,16.55"/>
	<path id="path92" inkscape:connector-curvature="0" fill="#472B29" d="M28.55,17.7H23.5h-0.05c-0.3,0-0.55-0.15-0.75-0.35
		c-0.2-0.2-0.3-0.5-0.25-0.75v-0.05c0.05-0.4,0.3-0.75,0.7-0.85c0.15-0.05,0.3-0.05,0.45-0.05c0.1-0.35,0.4-0.6,0.75-0.6l0,0
		c0.1,0,0.25,0.05,0.35,0.1c0-0.05,0-0.1,0-0.2c0.1-0.5,0.55-0.9,1.05-0.95c0.55-0.05,1.1,0.3,1.25,0.85
		c0.2-0.15,0.45-0.25,0.7-0.25c0.05,0,0.1,0,0.2,0c0.3,0.05,0.55,0.2,0.7,0.4c0.15,0.2,0.2,0.45,0.2,0.7c0.45,0.15,0.75,0.55,0.75,1
		C29.6,17.2,29.15,17.7,28.55,17.7z M22.7,16.65c0,0.2,0.05,0.35,0.2,0.5s0.35,0.25,0.55,0.25h0.05h5.05c0.45,0,0.8-0.35,0.8-0.8
		c0-0.4-0.25-0.7-0.65-0.8c-0.05,0-0.1-0.1-0.1-0.15c0.05-0.2,0-0.45-0.15-0.6c-0.15-0.2-0.3-0.3-0.55-0.35c-0.05,0-0.1,0-0.15,0
		c-0.25,0-0.5,0.15-0.65,0.35c-0.05,0.05-0.1,0.05-0.15,0.05s-0.1-0.05-0.1-0.1c-0.05-0.5-0.5-0.9-1.05-0.85
		c-0.4,0.05-0.75,0.35-0.85,0.75c0,0.1,0,0.25,0,0.35c0,0.05,0,0.1-0.05,0.15c-0.05,0-0.1,0-0.15-0.05c-0.1-0.1-0.25-0.2-0.4-0.15
		l0,0c-0.3,0-0.55,0.2-0.55,0.5c0,0.05,0,0.05-0.05,0.1c-0.05,0.05-0.05,0.05-0.1,0c-0.15-0.05-0.3,0-0.45,0.05
		C22.95,16,22.75,16.25,22.7,16.65C22.7,16.6,22.7,16.6,22.7,16.65z"/>
</g>
<path id="path96" inkscape:connector-curvature="0" fill="#472B29" d="M23.65,16.85c-0.05,0-0.05-0.05-0.05-0.05
	c0.05-0.35,0.35-0.55,0.65-0.55h0.05c0.05-0.05,0.05-0.15,0.15-0.2c0.1-0.1,0.2-0.1,0.35-0.1c0.1,0,0.15,0.05,0.2,0.05
	c0.05-0.35,0.4-0.6,0.75-0.6c0.05,0,0.05,0.05,0.05,0.05l-0.05,0.05c-0.3-0.05-0.55,0.2-0.6,0.5c0,0.05,0,0.05,0,0.1
	c0,0.05,0,0.05-0.05,0.05h-0.05c-0.05-0.05-0.15-0.1-0.25-0.1c-0.1,0-0.2,0.05-0.25,0.1c-0.05,0.05-0.1,0.1-0.1,0.15
	c0,0.05-0.05,0.05-0.05,0.05c-0.05,0-0.05,0-0.1,0c-0.25-0.05-0.5,0.15-0.55,0.4C23.75,16.8,23.7,16.85,23.65,16.85z M28.05,16.2
	L28.05,16.2C28,16.2,28,16.15,28,16.15c0-0.05,0-0.1,0.05-0.1c0.2-0.35,0.6-0.45,0.95-0.25c0.05,0,0.05,0.05,0.05,0.1
	c0,0.05-0.05,0.05-0.1,0.05c-0.25-0.15-0.6-0.05-0.75,0.2c0,0.05,0,0.05-0.05,0.1C28.1,16.2,28.05,16.2,28.05,16.2z"/>
</svg>
