<?xml version="1.0" encoding="utf-8"?>
<!-- Generator: Adobe Illustrator 16.0.0, SVG Export Plug-In . SVG Version: 6.00 Build 0)  -->
<!DOCTYPE svg PUBLIC "-//W3C//DTD SVG 1.1//EN" "http://www.w3.org/Graphics/SVG/1.1/DTD/svg11.dtd">
<svg version="1.1"
	 id="svg98" xmlns:dc="http://purl.org/dc/elements/1.1/" xmlns:cc="http://creativecommons.org/ns#" xmlns:rdf="http://www.w3.org/1999/02/22-rdf-syntax-ns#" xmlns:svg="http://www.w3.org/2000/svg" xmlns:sodipodi="http://sodipodi.sourceforge.net/DTD/sodipodi-0.dtd" xmlns:inkscape="http://www.inkscape.org/namespaces/inkscape" inkscape:version="0.92.4 (5da689c313, 2019-01-14)" sodipodi:docname="gears.svg"
	 xmlns="http://www.w3.org/2000/svg" xmlns:xlink="http://www.w3.org/1999/xlink" x="0px" y="0px" width="50px" height="50px"
	 viewBox="0 0 50 50" enable-background="new 0 0 50 50" xml:space="preserve">
<sodipodi:namedview  inkscape:cy="25" inkscape:cx="25" inkscape:zoom="4.72" showgrid="false" guidetolerance="10" gridtolerance="10" objecttolerance="10" bordercolor="#666666" pagecolor="#ffffff" borderopacity="1" id="namedview100" inkscape:current-layer="svg98" inkscape:window-maximized="1" inkscape:window-y="-8" inkscape:window-x="-8" inkscape:window-height="705" inkscape:window-width="1366" inkscape:pageshadow="2" inkscape:pageopacity="0">
	</sodipodi:namedview>
<g id="g1007" transform="scale(4.52)">
	<path id="path6" inkscape:connector-curvature="0" opacity="0.309" fill="#E4E4F9" enable-background="new    " d="M5.53,1.44
		c-2.26,0-4.09,1.83-4.09,4.09s1.83,4.09,4.09,4.09c2.26,0,4.09-1.83,4.09-4.09S7.79,1.44,5.53,1.44z"/>
	<g id="g997">
		<path id="path4" inkscape:connector-curvature="0" fill="#88CDD7" d="M8.52,1.33c-0.06,0-0.11,0.05-0.11,0.11
			c0,0.06,0.05,0.11,0.11,0.11S8.63,1.5,8.63,1.44C8.63,1.38,8.58,1.33,8.52,1.33z"/>
		<path id="path8-7" inkscape:connector-curvature="0" fill="#88CDD7" d="M9.18,1.22c-0.24,0-0.44,0.2-0.44,0.44S8.94,2.1,9.18,2.1
			s0.44-0.2,0.44-0.44S9.42,1.22,9.18,1.22z"/>
		<path id="path10" inkscape:connector-curvature="0" fill="#8889B9" d="M9.62,2.43c-0.12,0-0.22,0.1-0.22,0.22
			c0,0.12,0.1,0.22,0.22,0.22c0.12,0,0.22-0.1,0.22-0.22C9.85,2.53,9.75,2.43,9.62,2.43z"/>
		<path id="path12" inkscape:connector-curvature="0" fill="#88CDD7" d="M8.96,8.19c-0.12,0-0.22,0.1-0.22,0.22s0.1,0.22,0.22,0.22
			c0.12,0,0.22-0.1,0.22-0.22S9.08,8.19,8.96,8.19z M1.66,6.53c-0.24,0-0.44,0.2-0.44,0.44c0,0.24,0.2,0.44,0.44,0.44
			S2.1,7.21,2.1,6.97C2.1,6.73,1.9,6.53,1.66,6.53z"/>
		<path id="path14" inkscape:connector-curvature="0" fill="#8889B9" d="M2.77,9.4c-0.12,0-0.22,0.1-0.22,0.22
			c0,0.12,0.1,0.22,0.22,0.22s0.22-0.1,0.22-0.22C2.99,9.5,2.89,9.4,2.77,9.4z"/>
		<path id="path16" inkscape:connector-curvature="0" fill="#FFFFFF" d="M2.05,5.42c-0.15,0-0.28,0.12-0.28,0.28
			c0,0.15,0.12,0.28,0.28,0.28S2.32,5.85,2.32,5.7C2.32,5.54,2.2,5.42,2.05,5.42z M8.79,3.54c-0.09,0-0.17,0.08-0.17,0.17
			c0,0.09,0.08,0.17,0.17,0.17S8.96,3.8,8.96,3.71C8.96,3.62,8.88,3.54,8.79,3.54z"/>
	</g>
</g>
<path id="path2" inkscape:connector-curvature="0" fill="none" d="M0,50V0h50v50H0z"/>
<path id="path22" inkscape:connector-curvature="0" fill="#A3A3CD" d="M29.98,22.72c-0.38-0.07-0.74-0.19-1.08-0.35
	c0.13-0.52-0.03-1.06-0.44-1.41l-0.05-0.05l-0.01,0c-0.23-0.17-0.51-0.27-0.8-0.27c-0.19,0-0.39,0.04-0.58,0.12
	c-0.22-0.32-0.39-0.65-0.52-1.01c0.62-0.38,0.72-0.92,0.68-1.32c-0.04-0.39-0.23-0.9-0.89-1.16c0.07-0.37,0.18-0.74,0.34-1.08
	c0.14,0.04,0.27,0.05,0.4,0.05c0.41,0,0.75-0.17,1.03-0.51c0.25-0.31,0.47-0.8,0.18-1.45c0.31-0.22,0.65-0.39,1.01-0.52
	c0.33,0.58,0.82,0.71,1.18,0.71c0.05,0,0.1,0,0.15-0.01c0.4-0.03,0.92-0.23,1.18-0.92c0.36,0.07,0.72,0.19,1.08,0.35
	c-0.21,0.77,0.16,1.24,0.52,1.51c0.24,0.18,0.5,0.27,0.78,0.27c0.2,0,0.41-0.05,0.62-0.15c0.21,0.31,0.39,0.65,0.52,1.01
	c-0.64,0.37-0.75,0.92-0.71,1.32c0.03,0.41,0.22,0.93,0.91,1.18c-0.05,0.28-0.22,0.8-0.35,1.08c-0.15-0.04-0.28-0.06-0.41-0.06
	c-0.41,0-0.76,0.17-1.03,0.51c-0.25,0.3-0.46,0.79-0.18,1.44c-0.32,0.21-0.66,0.39-1.01,0.51c-0.34-0.57-0.82-0.69-1.17-0.69
	c-0.08,0-0.17,0.01-0.26,0.02C30.53,21.93,30.18,22.22,29.98,22.72z M30.86,17.12c-0.44,0-0.82,0.28-0.95,0.7
	c-0.08,0.26-0.06,0.53,0.06,0.76s0.33,0.41,0.58,0.49c0.1,0.03,0.2,0.05,0.31,0.05c0.44,0,0.82-0.28,0.95-0.7
	c0.08-0.25,0.06-0.53-0.06-0.76s-0.33-0.41-0.58-0.49C31.07,17.14,30.97,17.12,30.86,17.12z"/>
<path id="path24" inkscape:connector-curvature="0" fill="#472B29" d="M31.94,13.94c0.16,0.04,0.32,0.09,0.48,0.16
	c-0.08,0.63,0.17,1.18,0.71,1.58c0.3,0.22,0.64,0.34,0.99,0.34c0.16,0,0.32-0.02,0.48-0.07c0.08,0.15,0.16,0.3,0.23,0.45
	c-0.46,0.36-0.68,0.88-0.63,1.49c0.05,0.6,0.35,1.07,0.85,1.35c-0.04,0.16-0.1,0.33-0.16,0.49c-0.07-0.01-0.13-0.01-0.2-0.01
	c-0.51,0-0.96,0.22-1.3,0.64c-0.37,0.45-0.48,0.97-0.33,1.51c-0.15,0.09-0.31,0.17-0.47,0.24c-0.33-0.4-0.78-0.62-1.29-0.62
	c-0.1,0-0.2,0.01-0.31,0.02c-0.39,0.06-0.88,0.26-1.19,0.81c-0.17-0.04-0.34-0.1-0.5-0.16c0.05-0.55-0.17-1.09-0.6-1.46l-0.11-0.09
	l-0.03-0.01c-0.28-0.2-0.61-0.3-0.96-0.3c-0.14,0-0.29,0.02-0.43,0.05c-0.09-0.15-0.17-0.31-0.24-0.47c0.44-0.37,0.65-0.88,0.6-1.48
	c-0.06-0.58-0.35-1.04-0.84-1.32c0.04-0.17,0.09-0.33,0.16-0.49c0.06,0.01,0.13,0.01,0.19,0.01c0.51,0,0.96-0.22,1.31-0.65
	c0.37-0.46,0.48-0.99,0.32-1.53c0.15-0.09,0.3-0.17,0.46-0.24c0.33,0.41,0.78,0.63,1.3,0.63c0.06,0,0.12,0,0.18-0.01
	C31.2,14.75,31.67,14.45,31.94,13.94 M30.87,19.48c0.59,0,1.11-0.38,1.29-0.94c0.11-0.34,0.08-0.71-0.08-1.03
	c-0.17-0.32-0.45-0.56-0.79-0.67c-0.13-0.04-0.27-0.06-0.41-0.06c-0.59,0-1.11,0.38-1.28,0.94c-0.23,0.71,0.17,1.47,0.88,1.7
	C30.59,19.45,30.73,19.48,30.87,19.48 M31.6,13.16c-0.06,0-0.12,0.04-0.14,0.11c-0.14,0.52-0.45,0.8-0.93,0.84
	c-0.04,0-0.08,0.01-0.12,0.01c-0.43,0-0.74-0.22-0.94-0.68c-0.02-0.05-0.08-0.08-0.13-0.08c-0.01,0-0.03,0-0.05,0.01
	c-0.51,0.17-0.99,0.42-1.42,0.73c-0.05,0.04-0.07,0.12-0.04,0.19c0.26,0.46,0.24,0.86-0.05,1.23c-0.21,0.26-0.46,0.38-0.76,0.38
	c-0.14,0-0.3-0.03-0.46-0.09c-0.02-0.01-0.03-0.01-0.05-0.01c-0.05,0-0.1,0.03-0.13,0.08c-0.24,0.47-0.4,0.98-0.48,1.51
	c-0.01,0.07,0.03,0.14,0.1,0.16c0.51,0.15,0.77,0.45,0.82,0.92c0.04,0.48-0.17,0.83-0.65,1.06c-0.06,0.03-0.1,0.1-0.07,0.17
	c0.17,0.51,0.41,0.98,0.73,1.41c0,0.01,0.01,0.01,0.02,0.02c0.03,0.02,0.06,0.03,0.1,0.03c0.02,0,0.04,0,0.06-0.01
	c0.01,0,0.03-0.01,0.03-0.02c0.18-0.1,0.36-0.14,0.55-0.14c0.23,0,0.45,0.08,0.63,0.23c0,0,0.01,0.01,0.01,0.01
	c0.34,0.29,0.45,0.72,0.3,1.15c-0.03,0.08-0.03,0.19,0.11,0.26c0.44,0.22,0.9,0.36,1.38,0.45h0c0.02,0,0.04,0,0.06,0.01l0.02,0
	c0.01,0,0.01,0,0.02,0c0.06,0,0.12-0.04,0.14-0.1c0.14-0.47,0.41-0.72,0.83-0.79c0.07-0.01,0.14-0.02,0.2-0.02
	c0.41,0,0.72,0.22,0.94,0.66c0.03,0.05,0.08,0.08,0.13,0.08c0.01,0,0.03,0,0.04-0.01c0.51-0.16,0.99-0.41,1.42-0.72
	c0.06-0.04,0.08-0.12,0.04-0.19c-0.25-0.46-0.23-0.86,0.07-1.22c0.21-0.26,0.46-0.38,0.76-0.38c0.14,0,0.3,0.03,0.46,0.09
	c0.02,0.01,0.03,0.01,0.05,0.01c0.05,0,0.09-0.02,0.12-0.06c0.2-0.28,0.51-1.24,0.5-1.55c0-0.06-0.04-0.12-0.11-0.14
	c-0.51-0.14-0.79-0.45-0.83-0.93c-0.04-0.49,0.18-0.83,0.68-1.06c0.07-0.03,0.1-0.11,0.08-0.17c-0.16-0.51-0.41-1-0.73-1.42
	c-0.03-0.04-0.07-0.06-0.11-0.06c-0.03,0-0.05,0.01-0.07,0.02c-0.21,0.12-0.42,0.19-0.61,0.19c-0.2,0-0.39-0.07-0.58-0.2
	c-0.43-0.32-0.54-0.73-0.34-1.29c0.03-0.07-0.01-0.15-0.07-0.18c-0.49-0.24-1-0.41-1.52-0.49C31.62,13.16,31.61,13.16,31.6,13.16
	L31.6,13.16z M30.87,18.78c-0.07,0-0.13-0.01-0.2-0.03c-0.34-0.11-0.53-0.48-0.42-0.82c0.09-0.28,0.34-0.45,0.62-0.45
	c0.07,0,0.13,0.01,0.2,0.03c0.34,0.11,0.53,0.48,0.42,0.82C31.4,18.6,31.14,18.78,30.87,18.78z"/>
<path id="path26" inkscape:connector-curvature="0" fill="#7777AB" d="M31.59,15.87c-1.24-0.4-2.57,0.29-2.97,1.53
	c-0.4,1.24,0.29,2.57,1.53,2.97c1.24,0.4,2.58-0.29,2.97-1.53c0.15-0.47,0.14-0.94,0.02-1.38c-0.05-0.17-0.12-0.33-0.2-0.48
	c-0.1-0.18-0.23-0.35-0.37-0.5c-0.13-0.14-0.28-0.26-0.45-0.36C31.95,16.02,31.78,15.94,31.59,15.87z M31.2,17.09
	c0.57,0.18,0.89,0.8,0.7,1.37s-0.8,0.89-1.37,0.7c-0.57-0.18-0.89-0.8-0.71-1.37S30.63,16.91,31.2,17.09z"/>
<path id="path28" inkscape:connector-curvature="0" fill="#A3A3CD" d="M18.24,31.68c-0.14,0-0.27,0-0.41-0.01
	c-0.08-0.81-0.56-1.43-1.31-1.66l-0.05-0.02h-0.02c-0.16-0.04-0.32-0.07-0.48-0.07c-0.54,0-1.07,0.25-1.44,0.7
	c-0.56-0.35-1.08-0.78-1.53-1.28c0.54-0.68,0.62-1.38,0.24-2.11c-0.35-0.65-0.91-0.98-1.66-0.98c-0.06,0-0.13,0-0.19,0.01
	c-0.15-0.65-0.21-1.32-0.18-1.98c0.88-0.09,1.45-0.54,1.68-1.34c0.23-0.77,0.01-1.44-0.64-1.99c0.35-0.57,0.78-1.08,1.28-1.53
	c0.4,0.34,0.82,0.51,1.25,0.51c0.29,0,0.59-0.08,0.88-0.24c0.73-0.38,1.06-1.02,0.98-1.9c0.52-0.12,1.06-0.19,1.6-0.19
	c0.13,0,0.26,0,0.39,0.01c0.08,0.95,0.57,1.54,1.45,1.75c0.16,0.04,0.31,0.06,0.46,0.06c0.55,0,1.04-0.25,1.45-0.74
	c0.57,0.35,1.08,0.78,1.52,1.29c-0.57,0.68-0.67,1.4-0.28,2.13c0.35,0.66,0.9,1,1.65,1c0.08,0,0.16,0,0.24-0.01
	c0.13,0.42,0.21,1.52,0.16,1.98c-0.89,0.09-1.46,0.54-1.7,1.34c-0.22,0.76-0.01,1.43,0.63,1.99c-0.35,0.56-0.79,1.07-1.29,1.51
	c-0.4-0.32-0.81-0.48-1.23-0.48c-0.33,0-0.67,0.1-1,0.31c-0.62,0.38-0.91,0.97-0.86,1.76C19.29,31.62,18.76,31.68,18.24,31.68
	L18.24,31.68z M18.24,22.97c-0.72,0-1.36,0.46-1.58,1.15c-0.28,0.87,0.2,1.81,1.07,2.09c0.16,0.05,0.33,0.08,0.51,0.08
	c0.72,0,1.36-0.46,1.58-1.15c0.14-0.42,0.1-0.87-0.1-1.27c-0.2-0.39-0.55-0.69-0.97-0.82C18.58,23,18.41,22.97,18.24,22.97z"/>
<path id="path30" inkscape:connector-curvature="0" fill="#472B29" d="M18.24,17.94c0.03,0,0.05,0,0.08,0
	c0.21,1.15,1.01,1.59,1.68,1.76c0.18,0.04,0.36,0.07,0.54,0.07c0.4,0,0.96-0.12,1.5-0.64c0.36,0.25,0.7,0.53,1.01,0.85
	c-0.61,0.9-0.43,1.72-0.14,2.27c0.4,0.76,1.06,1.17,1.92,1.19c0.06,0.37,0.11,0.93,0.11,1.32c-1.08,0.21-1.52,0.94-1.7,1.55
	c-0.17,0.57-0.2,1.37,0.51,2.13c-0.25,0.37-0.54,0.71-0.86,1.02c-0.39-0.25-0.79-0.38-1.2-0.38c-0.4,0-0.8,0.12-1.19,0.36
	c-0.47,0.29-1,0.83-1.03,1.78c-0.4,0.08-0.82,0.11-1.23,0.11c-0.03,0-0.07,0-0.1,0c-0.17-0.79-0.73-1.41-1.51-1.66l-0.12-0.04h-0.02
	c-0.17-0.04-0.34-0.06-0.52-0.06c-0.55,0-1.08,0.22-1.5,0.6c-0.37-0.25-0.71-0.54-1.02-0.86c0.58-0.89,0.39-1.7,0.09-2.25
	c-0.4-0.74-1.04-1.14-1.88-1.17c-0.08-0.44-0.12-0.88-0.12-1.32c1.06-0.22,1.5-0.94,1.68-1.55c0.17-0.58,0.2-1.4-0.53-2.15
	c0.25-0.37,0.53-0.71,0.85-1.02c0.39,0.27,0.8,0.4,1.22,0.4c0.35,0,0.7-0.09,1.05-0.28c0.55-0.29,1.17-0.85,1.18-1.93
	C17.41,17.98,17.83,17.94,18.24,17.94L18.24,17.94 M18.24,26.64c0.88,0,1.65-0.56,1.91-1.4c0.16-0.51,0.12-1.06-0.13-1.53
	c-0.25-0.48-0.66-0.83-1.17-0.99c-0.2-0.06-0.41-0.1-0.61-0.1c-0.88,0-1.65,0.56-1.91,1.4c-0.16,0.51-0.12,1.06,0.13,1.53
	c0.25,0.48,0.66,0.83,1.17,0.99C17.82,26.61,18.03,26.64,18.24,26.64 M18.24,17.24c-0.62,0-1.22,0.08-1.81,0.23
	c-0.1,0.03-0.17,0.12-0.16,0.23c0.11,0.79-0.15,1.33-0.78,1.66c-0.25,0.13-0.48,0.2-0.72,0.2c-0.38,0-0.74-0.17-1.11-0.5
	C13.63,19.02,13.58,19,13.53,19c-0.05,0-0.1,0.02-0.14,0.05c-0.6,0.52-1.1,1.13-1.5,1.8c-0.06,0.09-0.04,0.21,0.05,0.27
	c0.61,0.47,0.81,1.03,0.62,1.7c-0.21,0.69-0.69,1.05-1.49,1.1c-0.1,0-0.19,0.09-0.2,0.19c-0.06,0.78,0.02,1.56,0.21,2.33
	c0.03,0.09,0.11,0.16,0.21,0.16c0.01,0,0.01,0,0.02,0c0.1-0.01,0.19-0.02,0.28-0.02c0.62,0,1.06,0.26,1.35,0.8
	c0.33,0.63,0.24,1.22-0.27,1.81c-0.07,0.08-0.07,0.19,0,0.27c0.52,0.59,1.12,1.1,1.79,1.5c0.01,0.01,0.02,0.01,0.04,0.02
	C14.5,31,14.52,31,14.55,31c0.06,0,0.13-0.03,0.17-0.07c0.02-0.01,0.03-0.03,0.04-0.04c0.32-0.4,0.76-0.62,1.21-0.62
	c0.14,0,0.28,0.02,0.42,0.06c0,0,0,0,0,0c0.01,0,0.01,0,0.02,0c0.62,0.2,1.02,0.72,1.07,1.38c0.01,0.13,0.07,0.28,0.3,0.29
	c0.15,0.01,0.3,0.01,0.45,0.01c0.56,0,1.13-0.06,1.67-0.19c0.03-0.01,0.06-0.02,0.09-0.02l0.03-0.01c0.1-0.03,0.16-0.12,0.15-0.23
	c-0.08-0.71,0.14-1.22,0.68-1.55c0.28-0.17,0.55-0.26,0.82-0.26c0.37,0,0.73,0.16,1.1,0.48c0.04,0.03,0.09,0.05,0.14,0.05
	c0.05,0,0.1-0.02,0.14-0.05c0.6-0.51,1.11-1.11,1.51-1.78c0.05-0.09,0.04-0.21-0.05-0.27c-0.6-0.48-0.8-1.04-0.6-1.69
	c0.21-0.69,0.7-1.05,1.5-1.1c0.09,0,0.17-0.08,0.19-0.17c0.11-0.5-0.02-1.98-0.2-2.4c-0.03-0.08-0.11-0.12-0.19-0.12
	c-0.01,0-0.02,0-0.03,0c-0.11,0.01-0.21,0.02-0.31,0.02c-0.62,0-1.06-0.27-1.34-0.81c-0.33-0.64-0.23-1.23,0.31-1.83
	c0.07-0.08,0.08-0.2,0.01-0.28c-0.52-0.6-1.12-1.11-1.8-1.52c-0.03-0.02-0.07-0.03-0.11-0.03c-0.06,0-0.13,0.03-0.17,0.09
	c-0.35,0.47-0.77,0.7-1.24,0.7c-0.12,0-0.25-0.02-0.37-0.05c-0.77-0.19-1.15-0.69-1.19-1.56c-0.01-0.11-0.09-0.19-0.2-0.2
	C18.6,17.25,18.42,17.24,18.24,17.24L18.24,17.24z M18.24,25.94c-0.13,0-0.27-0.02-0.4-0.06c-0.69-0.22-1.07-0.96-0.85-1.65
	c0.18-0.56,0.69-0.91,1.25-0.91c0.13,0,0.27,0.02,0.4,0.06c0.69,0.22,1.07,0.96,0.85,1.65C19.31,25.59,18.79,25.94,18.24,25.94z"/>
<path id="path32" inkscape:connector-curvature="0" fill="#7777AB" d="M19.5,20.69c-2.17-0.69-4.5,0.51-5.2,2.68
	c-0.69,2.17,0.51,4.5,2.68,5.2c2.17,0.7,4.5-0.51,5.2-2.68C22.87,23.72,21.67,21.39,19.5,20.69z M17.43,27.16
	c-1.4-0.45-2.17-1.95-1.72-3.34c0.45-1.4,1.95-2.17,3.34-1.72c1.4,0.45,2.17,1.95,1.72,3.34C20.32,26.84,18.82,27.61,17.43,27.16z"
	/>
<path id="path34" inkscape:connector-curvature="0" fill="#472B29" d="M18.23,28.89c-0.36,0-0.71-0.04-1.06-0.14
	c-0.07-0.02-0.11-0.09-0.09-0.15c0.02-0.07,0.08-0.11,0.15-0.09c0.74,0.19,1.52,0.17,2.25-0.07c0.07-0.02,0.14,0.01,0.16,0.08
	c0.02,0.06-0.01,0.14-0.08,0.16C19.13,28.82,18.68,28.89,18.23,28.89z M16.63,28.57c-0.02,0-0.03,0-0.05-0.01
	c-1.71-0.72-2.75-2.45-2.59-4.3c0.01-0.07,0.06-0.12,0.14-0.11c0.07,0.01,0.12,0.07,0.11,0.14c-0.15,1.74,0.83,3.37,2.43,4.04
	c0.06,0.03,0.09,0.1,0.07,0.16C16.72,28.54,16.68,28.57,16.63,28.57z M20.23,28.38c-0.04,0-0.09-0.02-0.11-0.06
	c-0.03-0.06-0.01-0.14,0.05-0.17c0.32-0.18,0.61-0.39,0.87-0.65c0.05-0.05,0.13-0.05,0.18,0c0.05,0.05,0.05,0.13,0,0.18
	c-0.28,0.27-0.59,0.5-0.92,0.69C20.28,28.37,20.25,28.38,20.23,28.38z M18.24,27.42c-0.28,0-0.57-0.04-0.85-0.13l0,0
	c-0.71-0.23-1.28-0.72-1.63-1.38c-0.34-0.66-0.4-1.42-0.18-2.12c0.23-0.71,0.72-1.28,1.38-1.63c0.66-0.34,1.42-0.4,2.12-0.18
	c1.46,0.47,2.27,2.04,1.8,3.5c-0.23,0.71-0.72,1.28-1.38,1.63C19.11,27.31,18.67,27.42,18.24,27.42z M18.24,22.1
	c-0.4,0-0.79,0.1-1.16,0.28c-0.6,0.31-1.05,0.84-1.25,1.48c-0.21,0.64-0.15,1.33,0.16,1.93c0.31,0.6,0.84,1.05,1.48,1.25l0,0
	c0.64,0.21,1.33,0.15,1.93-0.16s1.05-0.84,1.25-1.48c0.43-1.33-0.31-2.76-1.64-3.19C18.76,22.14,18.5,22.1,18.24,22.1z M21.63,27.12
	c-0.02,0-0.05-0.01-0.07-0.02c-0.06-0.04-0.07-0.12-0.03-0.17c0.23-0.33,0.4-0.69,0.53-1.07c0.43-1.35,0.11-2.85-0.84-3.91
	c-0.05-0.05-0.04-0.13,0.01-0.18c0.05-0.05,0.13-0.04,0.18,0.01c1.01,1.12,1.35,2.72,0.89,4.15c-0.13,0.41-0.32,0.79-0.56,1.13
	C21.71,27.1,21.67,27.12,21.63,27.12L21.63,27.12z M14.3,23.5c-0.01,0-0.03,0-0.04-0.01c-0.07-0.02-0.1-0.09-0.08-0.16
	c0.35-1.08,1.09-1.97,2.11-2.49c1.01-0.52,2.17-0.62,3.25-0.27c0.26,0.08,0.52,0.19,0.75,0.32c0.06,0.03,0.08,0.11,0.05,0.17
	s-0.11,0.08-0.17,0.05c-0.22-0.12-0.46-0.23-0.71-0.3c-1.02-0.33-2.1-0.23-3.06,0.26c-0.95,0.49-1.66,1.32-1.98,2.34
	C14.4,23.46,14.35,23.5,14.3,23.5L14.3,23.5z M20.99,21.67c-0.03,0-0.06-0.01-0.08-0.03c-0.11-0.1-0.23-0.19-0.35-0.28
	c-0.06-0.04-0.07-0.12-0.03-0.17c0.04-0.06,0.12-0.07,0.17-0.03c0.13,0.09,0.25,0.19,0.37,0.3c0.05,0.05,0.06,0.13,0.01,0.18
	C21.06,21.66,21.03,21.67,20.99,21.67z"/>
<path id="path36" inkscape:connector-curvature="0" fill="#472B29" d="M22.11,26.14c-0.02,0-0.04-0.01-0.06-0.02l-1.3-0.74
	c-0.06-0.03-0.08-0.11-0.05-0.17c0.03-0.06,0.11-0.08,0.17-0.05l1.3,0.74c0.06,0.03,0.08,0.11,0.05,0.17
	C22.2,26.12,22.16,26.14,22.11,26.14z M22.33,25.15c-0.01,0-0.02,0-0.04-0.01l-1.43-0.45c-0.07-0.02-0.1-0.09-0.08-0.16
	s0.09-0.1,0.16-0.08l1.43,0.45c0.07,0.02,0.1,0.09,0.08,0.16C22.43,25.11,22.39,25.15,22.33,25.15L22.33,25.15z M32.9,19.37
	c-0.02,0-0.05-0.01-0.07-0.02l-1.17-0.83c-0.06-0.04-0.07-0.12-0.03-0.17c0.04-0.06,0.12-0.07,0.17-0.03l1.17,0.83
	c0.06,0.04,0.07,0.12,0.03,0.17C32.98,19.35,32.94,19.37,32.9,19.37z M29.48,20.16c-0.04,0-0.07-0.01-0.09-0.04
	c-0.05-0.05-0.04-0.13,0.01-0.18l1.23-1.05c0.05-0.05,0.13-0.04,0.18,0.01c0.04,0.05,0.04,0.13-0.01,0.18l-1.22,1.05
	C29.54,20.15,29.51,20.16,29.48,20.16z M28.83,19.28c-0.05,0-0.1-0.03-0.12-0.08c-0.02-0.07,0.01-0.14,0.08-0.16l1.38-0.47
	c0.06-0.02,0.14,0.01,0.16,0.08c0.02,0.07-0.01,0.14-0.08,0.16l-1.38,0.47C28.86,19.28,28.84,19.28,28.83,19.28z M30.33,17.52
	c0,0-0.01,0-0.01,0c-0.07-0.01-0.12-0.07-0.11-0.14l0.17-1.57c0.01-0.07,0.07-0.13,0.14-0.11c0.07,0.01,0.12,0.07,0.11,0.14
	l-0.17,1.57C30.45,17.47,30.4,17.52,30.33,17.52z"/>
<g id="g40">
	<path id="path38" inkscape:connector-curvature="0" fill="#472B29" d="M31.02,17.34c-0.02,0-0.03,0-0.05-0.01
		c-0.06-0.03-0.09-0.1-0.06-0.16l0.57-1.31c0.03-0.06,0.1-0.09,0.17-0.06c0.06,0.03,0.09,0.1,0.06,0.16l-0.57,1.31
		C31.11,17.31,31.06,17.34,31.02,17.34z"/>
</g>
<g id="g44">
	<path id="path42" inkscape:connector-curvature="0" fill="#472B29" d="M18.9,22.19c-0.02,0-0.04-0.01-0.06-0.02
		c-0.06-0.03-0.08-0.11-0.04-0.17l0.76-1.29c0.03-0.06,0.11-0.08,0.17-0.04s0.08,0.11,0.04,0.17l-0.76,1.29
		C18.99,22.17,18.95,22.19,18.9,22.19z"/>
</g>
<g id="g48">
	<path id="path46" inkscape:connector-curvature="0" fill="#472B29" d="M17.38,22.18c-0.01,0-0.02,0-0.02,0
		c-0.07-0.01-0.11-0.08-0.1-0.15l0.26-1.47c0.01-0.07,0.08-0.12,0.15-0.1c0.07,0.01,0.11,0.08,0.1,0.15l-0.26,1.47
		C17.49,22.14,17.44,22.18,17.38,22.18z"/>
</g>
<g id="g52">
	<path id="path50" inkscape:connector-curvature="0" fill="#472B29" d="M18.16,22.08c-0.01,0-0.03,0-0.04-0.01
		c-0.07-0.02-0.1-0.09-0.08-0.16l0.47-1.42c0.02-0.07,0.09-0.1,0.16-0.08s0.1,0.09,0.08,0.16l-0.47,1.42
		C18.26,22.04,18.21,22.08,18.16,22.08z"/>
</g>
<g id="g56">
	<path id="path54" inkscape:connector-curvature="0" fill="#472B29" d="M22.22,24.17c-0.01,0-0.02,0-0.03,0l-1.47-0.3
		c-0.07-0.01-0.11-0.08-0.1-0.15c0.01-0.07,0.08-0.11,0.15-0.1l1.47,0.3c0.07,0.01,0.11,0.08,0.1,0.15
		C22.33,24.13,22.28,24.17,22.22,24.17z"/>
</g>
<g id="g60">
	<path id="path58" inkscape:connector-curvature="0" fill="#472B29" d="M15.93,28.16c-0.03,0-0.07-0.01-0.09-0.04
		c-0.05-0.05-0.04-0.13,0.01-0.18l1.09-1.03c0.05-0.05,0.13-0.04,0.18,0c0.05,0.05,0.04,0.13-0.01,0.18l-1.09,1.03
		C16,28.15,15.97,28.16,15.93,28.16z"/>
</g>
<g id="g64">
	<path id="path62" inkscape:connector-curvature="0" fill="#472B29" d="M15.05,27.3c-0.05,0-0.1-0.03-0.12-0.09
		c-0.02-0.07,0.02-0.14,0.08-0.16l1.43-0.45c0.07-0.02,0.14,0.02,0.16,0.08c0.02,0.07-0.02,0.14-0.08,0.16l-1.43,0.45
		C15.07,27.3,15.06,27.3,15.05,27.3z"/>
</g>
<g id="g68">
	<path id="path66" inkscape:connector-curvature="0" fill="#472B29" d="M14.48,26.43c-0.06,0-0.11-0.04-0.12-0.11
		c-0.01-0.07,0.04-0.13,0.1-0.14l1.48-0.22c0.07-0.01,0.13,0.04,0.14,0.1c0.01,0.07-0.04,0.13-0.1,0.14l-1.48,0.22
		C14.49,26.43,14.49,26.43,14.48,26.43L14.48,26.43z"/>
</g>
<g id="g72">
	<path id="path70" inkscape:connector-curvature="0" fill="#472B29" d="M14.21,25.57c-0.07,0-0.12-0.05-0.13-0.12
		c0-0.07,0.05-0.13,0.12-0.13l1.5-0.02c0,0,0,0,0,0c0.07,0,0.12,0.05,0.13,0.12c0,0.07-0.05,0.13-0.12,0.13L14.21,25.57
		C14.21,25.57,14.21,25.57,14.21,25.57z"/>
</g>
<g id="g88">
	<path id="path74" inkscape:connector-curvature="0" fill="#A3A3CD" d="M31.45,36.39c-0.09,0-0.18,0-0.27-0.01
		c-0.08-0.66-0.49-1.16-1.11-1.36l-0.05-0.02H30c-0.13-0.04-0.27-0.05-0.4-0.05c-0.45,0-0.88,0.2-1.19,0.55
		c-0.42-0.27-0.81-0.59-1.15-0.97c0.43-0.56,0.49-1.15,0.17-1.75c-0.3-0.56-0.77-0.84-1.41-0.84c-0.04,0-0.07,0-0.11,0
		c-0.11-0.49-0.16-1-0.13-1.5c0.72-0.09,1.18-0.47,1.38-1.14c0.13-0.45,0.14-1.09-0.5-1.66c0.27-0.43,0.59-0.81,0.96-1.16
		c0.33,0.26,0.67,0.39,1.02,0.39c0.25,0,0.5-0.07,0.75-0.2c0.42-0.22,0.9-0.67,0.84-1.56c0.41-0.09,0.82-0.14,1.24-0.14
		c0.09,0,0.17,0,0.26,0.01c0.1,0.96,0.72,1.31,1.23,1.44c0.13,0.03,0.26,0.05,0.39,0.05c0.46,0,0.86-0.2,1.2-0.59
		c0.43,0.27,0.81,0.59,1.15,0.97c-0.56,0.7-0.43,1.35-0.21,1.77c0.3,0.57,0.77,0.85,1.41,0.85c0.05,0,0.1,0,0.15,0
		c0.08,0.34,0.15,1.11,0.12,1.5c-0.9,0.11-1.25,0.67-1.39,1.14c-0.19,0.63-0.02,1.19,0.49,1.66c-0.27,0.42-0.6,0.81-0.97,1.15
		c-0.32-0.25-0.66-0.38-1-0.38c-0.29,0-0.57,0.09-0.85,0.26c-0.52,0.32-0.76,0.8-0.73,1.45C32.27,36.35,31.86,36.39,31.45,36.39
		L31.45,36.39z M31.45,29.27c-0.62,0-1.16,0.4-1.35,0.99c-0.12,0.36-0.08,0.74,0.09,1.08s0.47,0.59,0.83,0.7
		c0.14,0.04,0.29,0.07,0.43,0.07c0.62,0,1.16-0.4,1.35-0.99c0.24-0.75-0.17-1.55-0.92-1.79C31.74,29.3,31.59,29.27,31.45,29.27z"/>
	<path id="path76" inkscape:connector-curvature="0" fill="#472B29" d="M31.42,25.35c0.17,0.74,0.67,1.25,1.45,1.43
		c0.16,0.04,0.31,0.06,0.47,0.06c0.34,0,0.79-0.09,1.24-0.49c0.23,0.17,0.45,0.35,0.65,0.55c-0.37,0.6-0.4,1.27-0.06,1.9
		c0.33,0.64,0.88,0.99,1.58,1.04c0.04,0.26,0.06,0.59,0.07,0.85c-0.69,0.17-1.18,0.63-1.39,1.33c-0.14,0.48-0.17,1.15,0.38,1.79
		c-0.17,0.24-0.36,0.46-0.56,0.66c-0.31-0.19-0.64-0.28-0.97-0.28c-0.35,0-0.7,0.11-1.04,0.31c-0.4,0.24-0.84,0.69-0.9,1.46
		c-0.29,0.05-0.58,0.07-0.87,0.07c-0.17-0.64-0.64-1.14-1.28-1.35l-0.12-0.04h-0.03c-0.14-0.04-0.29-0.05-0.44-0.05
		c-0.45,0-0.88,0.16-1.23,0.46c-0.24-0.17-0.46-0.35-0.66-0.56c0.44-0.74,0.27-1.42,0.03-1.88c-0.33-0.62-0.86-0.96-1.54-1.01
		c-0.05-0.29-0.08-0.57-0.08-0.86c0.68-0.18,1.16-0.64,1.37-1.33c0.2-0.66,0.06-1.29-0.39-1.8c0.17-0.23,0.35-0.45,0.55-0.66
		c0.31,0.19,0.64,0.29,0.98,0.29c0.31,0,0.62-0.08,0.91-0.24c0.63-0.33,0.99-0.88,1.03-1.58C30.84,25.38,31.13,25.35,31.42,25.35
		 M31.45,32.47c0.77,0,1.45-0.5,1.69-1.23c0.14-0.45,0.11-0.93-0.11-1.35s-0.58-0.73-1.04-0.88c-0.18-0.06-0.36-0.08-0.54-0.08
		c-0.77,0-1.45,0.5-1.68,1.23c-0.3,0.93,0.22,1.93,1.15,2.23C31.08,32.44,31.27,32.47,31.45,32.47 M31.45,24.65
		c-0.5,0-1,0.06-1.48,0.19c-0.09,0.02-0.14,0.1-0.13,0.19c0.09,0.64-0.12,1.09-0.64,1.36c-0.2,0.11-0.4,0.16-0.59,0.16
		c-0.31,0-0.61-0.14-0.9-0.41c-0.03-0.03-0.07-0.04-0.12-0.04c-0.04,0-0.08,0.01-0.11,0.04c-0.49,0.42-0.9,0.92-1.23,1.47
		c-0.05,0.07-0.03,0.17,0.04,0.22c0.5,0.39,0.67,0.84,0.51,1.39c-0.17,0.57-0.57,0.86-1.22,0.9c-0.08,0-0.15,0.07-0.16,0.16
		c-0.05,0.64,0.01,1.28,0.17,1.9c0.02,0.08,0.09,0.13,0.17,0.13c0.01,0,0.01,0,0.02,0c0.08-0.01,0.16-0.01,0.23-0.01
		c0.51,0,0.87,0.22,1.1,0.65c0.27,0.51,0.2,1-0.22,1.48c-0.06,0.06-0.06,0.16,0,0.22c0.42,0.49,0.92,0.9,1.46,1.23
		c0.01,0.01,0.02,0.01,0.03,0.01c0.02,0,0.03,0.01,0.05,0.01c0.05,0,0.1-0.02,0.14-0.06c0.01-0.01,0.02-0.02,0.03-0.03
		c0.26-0.33,0.62-0.51,0.99-0.51c0.12,0,0.23,0.02,0.35,0.05c0,0,0,0,0,0c0,0,0.01,0,0.01,0c0.51,0.16,0.83,0.59,0.87,1.13
		c0.01,0.1,0.06,0.23,0.25,0.24c0.12,0.01,0.24,0.01,0.37,0.01c0.46,0,0.92-0.05,1.37-0.16c0.03-0.01,0.05-0.01,0.07-0.02l0.02-0.01
		c0.08-0.02,0.13-0.1,0.13-0.18c-0.06-0.58,0.12-1,0.56-1.27c0.23-0.14,0.45-0.21,0.67-0.21c0.3,0,0.6,0.13,0.9,0.39
		c0.03,0.03,0.07,0.04,0.11,0.04c0.04,0,0.08-0.01,0.11-0.04c0.49-0.42,0.91-0.91,1.24-1.46c0.04-0.07,0.03-0.17-0.04-0.22
		c-0.49-0.4-0.65-0.85-0.5-1.39c0.17-0.56,0.57-0.86,1.23-0.9c0.08,0,0.14-0.06,0.16-0.13c0.09-0.41-0.01-1.62-0.16-1.96
		c-0.03-0.06-0.09-0.1-0.16-0.1c-0.01,0-0.02,0-0.02,0c-0.09,0.01-0.17,0.02-0.25,0.02c-0.5,0-0.87-0.22-1.1-0.66
		c-0.27-0.52-0.19-1.01,0.26-1.49c0.06-0.06,0.06-0.16,0-0.23c-0.42-0.5-0.92-0.91-1.47-1.24c-0.03-0.02-0.06-0.03-0.09-0.03
		c-0.05,0-0.1,0.02-0.14,0.07c-0.29,0.38-0.63,0.58-1.02,0.58c-0.1,0-0.2-0.01-0.3-0.04c-0.63-0.15-0.94-0.56-0.98-1.27
		c0-0.09-0.07-0.16-0.16-0.16C31.74,24.66,31.6,24.65,31.45,24.65L31.45,24.65z M31.45,31.77c-0.11,0-0.22-0.02-0.33-0.05
		c-0.56-0.18-0.87-0.78-0.69-1.35c0.15-0.46,0.57-0.74,1.02-0.74c0.11,0,0.22,0.02,0.33,0.05c0.56,0.18,0.87,0.78,0.69,1.35
		C32.32,31.48,31.9,31.77,31.45,31.77z"/>
	<path id="path78" inkscape:connector-curvature="0" fill="#7777AB" d="M32.48,27.47c-1.78-0.57-3.68,0.42-4.25,2.19
		c-0.57,1.78,0.41,3.68,2.19,4.25s3.68-0.42,4.25-2.19C35.24,29.95,34.25,28.04,32.48,27.47z M30.79,32.77
		c-1.14-0.37-1.77-1.59-1.41-2.73s1.59-1.77,2.73-1.41c1.14,0.37,1.77,1.59,1.41,2.73C33.15,32.5,31.93,33.13,30.79,32.77z"/>
	<path id="path80" inkscape:connector-curvature="0" fill="#472B29" d="M31.45,34.2c-0.29,0-0.59-0.04-0.87-0.11
		c-0.07-0.02-0.11-0.09-0.09-0.15c0.02-0.07,0.08-0.1,0.15-0.09c0.6,0.16,1.24,0.13,1.83-0.06c0.06-0.02,0.14,0.01,0.16,0.08
		c0.02,0.07-0.01,0.14-0.08,0.16C32.18,34.14,31.81,34.2,31.45,34.2z M30.13,33.94c-0.02,0-0.03,0-0.05-0.01
		c-1.41-0.59-2.26-2.01-2.13-3.54c0.01-0.07,0.06-0.12,0.13-0.11c0.07,0.01,0.12,0.07,0.11,0.14c-0.12,1.41,0.67,2.73,1.98,3.28
		c0.06,0.03,0.09,0.1,0.07,0.16C30.23,33.91,30.18,33.94,30.13,33.94z M33.08,33.78c-0.04,0-0.09-0.02-0.11-0.06
		c-0.03-0.06-0.01-0.14,0.05-0.17c0.26-0.14,0.5-0.32,0.71-0.52c0.05-0.05,0.13-0.05,0.18,0c0.05,0.05,0.05,0.13,0,0.18
		c-0.23,0.22-0.48,0.41-0.76,0.56C33.12,33.78,33.1,33.78,33.08,33.78L33.08,33.78z M31.45,32.99c-0.23,0-0.47-0.04-0.7-0.11
		c-0.58-0.19-1.06-0.59-1.34-1.14c-0.28-0.55-0.33-1.17-0.15-1.75c0.19-0.58,0.59-1.06,1.14-1.34c0.55-0.28,1.17-0.33,1.75-0.15
		c1.21,0.39,1.88,1.68,1.49,2.89C33.33,32.37,32.42,32.99,31.45,32.99z M31.45,28.64c-0.32,0-0.64,0.08-0.94,0.23
		c-0.49,0.25-0.85,0.68-1.01,1.2c-0.17,0.52-0.12,1.08,0.13,1.56c0.25,0.49,0.68,0.85,1.2,1.01c1.07,0.34,2.23-0.25,2.58-1.33
		c0.34-1.08-0.25-2.23-1.33-2.58C31.87,28.68,31.66,28.64,31.45,28.64z M34.22,32.75c-0.02,0-0.05-0.01-0.07-0.02
		c-0.06-0.04-0.07-0.12-0.03-0.17c0.18-0.27,0.33-0.56,0.43-0.87c0.35-1.1,0.09-2.31-0.68-3.17c-0.05-0.05-0.04-0.13,0.01-0.18
		c0.05-0.04,0.13-0.04,0.18,0.01c0.83,0.93,1.11,2.23,0.73,3.42c-0.11,0.33-0.26,0.65-0.46,0.93C34.3,32.73,34.26,32.75,34.22,32.75
		L34.22,32.75z M28.23,29.79c-0.01,0-0.03,0-0.04-0.01c-0.06-0.02-0.1-0.09-0.08-0.16c0.59-1.84,2.57-2.86,4.41-2.27
		c0.22,0.07,0.42,0.16,0.62,0.27c0.06,0.03,0.08,0.11,0.05,0.17c-0.03,0.06-0.11,0.08-0.17,0.05c-0.18-0.1-0.38-0.18-0.58-0.25
		c-1.71-0.55-3.55,0.4-4.09,2.11C28.33,29.76,28.28,29.79,28.23,29.79z M33.7,28.3c-0.03,0-0.06-0.01-0.08-0.03
		c-0.09-0.08-0.19-0.16-0.28-0.23c-0.06-0.04-0.07-0.12-0.03-0.17c0.04-0.06,0.12-0.07,0.17-0.03c0.11,0.07,0.21,0.16,0.31,0.25
		c0.05,0.05,0.05,0.13,0.01,0.18C33.77,28.28,33.73,28.3,33.7,28.3L33.7,28.3z"/>
	<path id="path82" inkscape:connector-curvature="0" fill="#472B29" d="M34.62,31.95c-0.02,0-0.04-0.01-0.06-0.02l-1.06-0.61
		c-0.06-0.04-0.08-0.11-0.05-0.17c0.03-0.06,0.11-0.08,0.17-0.05l1.07,0.61c0.06,0.04,0.08,0.11,0.05,0.17
		C34.7,31.93,34.66,31.95,34.62,31.95z M34.8,31.14c-0.01,0-0.03,0-0.04-0.01l-1.17-0.37c-0.07-0.02-0.1-0.09-0.08-0.16
		c0.02-0.07,0.09-0.1,0.16-0.08l1.17,0.37c0.07,0.02,0.1,0.09,0.08,0.16C34.9,31.11,34.85,31.14,34.8,31.14z M31.99,28.72
		c-0.02,0-0.04-0.01-0.06-0.02c-0.06-0.04-0.08-0.11-0.04-0.17l0.62-1.06c0.04-0.06,0.11-0.08,0.17-0.04
		c0.06,0.04,0.08,0.11,0.04,0.17l-0.62,1.06C32.08,28.7,32.04,28.72,31.99,28.72z M30.74,28.71c-0.01,0-0.02,0-0.02,0
		c-0.07-0.01-0.11-0.08-0.1-0.15l0.22-1.21c0.01-0.07,0.08-0.11,0.14-0.1c0.07,0.01,0.11,0.08,0.1,0.15l-0.22,1.21
		C30.86,28.67,30.8,28.71,30.74,28.71L30.74,28.71z M31.39,28.63c-0.01,0-0.03,0-0.04-0.01c-0.07-0.02-0.1-0.09-0.08-0.16l0.38-1.16
		c0.02-0.07,0.09-0.1,0.16-0.08c0.07,0.02,0.1,0.09,0.08,0.16l-0.38,1.16C31.49,28.59,31.44,28.63,31.39,28.63z M34.71,30.34
		c-0.01,0-0.02,0-0.03,0l-1.2-0.25c-0.07-0.01-0.11-0.08-0.1-0.15c0.01-0.07,0.08-0.11,0.15-0.1l1.2,0.25
		c0.07,0.01,0.11,0.08,0.1,0.15C34.81,30.3,34.76,30.34,34.71,30.34z M29.56,33.6c-0.03,0-0.07-0.01-0.09-0.04
		c-0.05-0.05-0.04-0.13,0-0.18l0.89-0.84c0.05-0.05,0.13-0.04,0.18,0s0.04,0.13,0,0.18l-0.89,0.84C29.63,33.59,29.6,33.6,29.56,33.6
		z M28.84,32.9c-0.05,0-0.1-0.03-0.12-0.09c-0.02-0.07,0.02-0.14,0.08-0.16l1.17-0.37c0.07-0.02,0.13,0.02,0.16,0.08
		c0.02,0.07-0.02,0.14-0.08,0.16l-1.17,0.37C28.87,32.9,28.85,32.9,28.84,32.9z M28.38,32.19c-0.06,0-0.11-0.04-0.12-0.11
		c-0.01-0.07,0.04-0.13,0.11-0.14l1.21-0.18c0.07-0.01,0.13,0.04,0.14,0.1c0.01,0.07-0.04,0.13-0.11,0.14l-1.21,0.18
		C28.39,32.19,28.38,32.19,28.38,32.19L28.38,32.19z"/>
	<g id="g86">
		<path id="path84" inkscape:connector-curvature="0" fill="#472B29" d="M28.15,31.49c-0.07,0-0.12-0.05-0.13-0.12
			c0-0.07,0.05-0.13,0.12-0.13l1.23-0.01c0,0,0,0,0,0c0.07,0,0.13,0.05,0.13,0.12c0,0.07-0.05,0.13-0.12,0.13L28.15,31.49
			L28.15,31.49z"/>
	</g>
</g>
<g id="g92">
	<path id="path90" inkscape:connector-curvature="0" fill="#472B29" d="M30.86,20.61c-0.25,0-0.51-0.04-0.75-0.12
		c-0.63-0.2-1.15-0.64-1.45-1.23c-0.3-0.59-0.36-1.27-0.16-1.9c0.02-0.07,0.09-0.1,0.16-0.08c0.07,0.02,0.1,0.09,0.08,0.16
		c-0.18,0.57-0.13,1.17,0.14,1.71c0.27,0.53,0.74,0.93,1.31,1.11c0.34,0.11,0.68,0.14,1.03,0.08c0.07-0.01,0.13,0.04,0.14,0.1
		c0.01,0.07-0.04,0.13-0.1,0.14C31.12,20.6,30.99,20.61,30.86,20.61z M31.88,20.38c-0.05,0-0.09-0.03-0.11-0.07
		c-0.03-0.06,0-0.14,0.06-0.17c0.56-0.27,0.98-0.75,1.17-1.34c0.17-0.52,0.14-1.08-0.08-1.58c-0.03-0.06,0-0.14,0.06-0.17
		c0.06-0.03,0.14,0,0.17,0.06c0.24,0.56,0.28,1.18,0.09,1.76c-0.21,0.65-0.68,1.19-1.3,1.49C31.92,20.38,31.9,20.38,31.88,20.38z
		 M30.86,19.34c-0.12,0-0.25-0.02-0.37-0.06c-0.64-0.2-0.99-0.89-0.79-1.52c0.2-0.64,0.89-0.99,1.52-0.78
		c0.31,0.1,0.56,0.31,0.71,0.6c0.15,0.29,0.18,0.62,0.08,0.92C31.86,19.01,31.38,19.34,30.86,19.34z M30.87,17.16
		c-0.41,0-0.79,0.26-0.92,0.67c-0.16,0.51,0.12,1.05,0.62,1.21c0.51,0.16,1.05-0.12,1.21-0.62c0.08-0.24,0.06-0.5-0.06-0.73
		c-0.12-0.23-0.32-0.4-0.56-0.48C31.06,17.18,30.96,17.16,30.87,17.16z M32.81,16.91c-0.04,0-0.08-0.02-0.1-0.05
		c-0.09-0.13-0.19-0.25-0.3-0.35c-0.05-0.05-0.05-0.13,0-0.18c0.05-0.05,0.13-0.05,0.18,0c0.12,0.12,0.23,0.25,0.33,0.39
		c0.04,0.06,0.02,0.13-0.03,0.17C32.86,16.91,32.84,16.91,32.81,16.91z M29.33,16.46c-0.04,0-0.07-0.01-0.09-0.04
		c-0.04-0.05-0.04-0.13,0.01-0.18c0.66-0.57,1.55-0.74,2.38-0.48c0.2,0.06,0.39,0.15,0.56,0.26c0.06,0.04,0.08,0.11,0.04,0.17
		c-0.04,0.06-0.11,0.08-0.17,0.04c-0.16-0.1-0.33-0.18-0.51-0.23c-0.74-0.24-1.54-0.08-2.14,0.43
		C29.38,16.45,29.36,16.46,29.33,16.46L29.33,16.46z"/>
</g>
</svg>
