<?xml version="1.0" encoding="utf-8"?>
<!-- Generator: Adobe Illustrator 16.0.0, SVG Export Plug-In . SVG Version: 6.00 Build 0)  -->
<!DOCTYPE svg PUBLIC "-//W3C//DTD SVG 1.1//EN" "http://www.w3.org/Graphics/SVG/1.1/DTD/svg11.dtd">
<svg version="1.1"
	 id="svg114" xmlns:dc="http://purl.org/dc/elements/1.1/" xmlns:cc="http://creativecommons.org/ns#" xmlns:rdf="http://www.w3.org/1999/02/22-rdf-syntax-ns#" xmlns:svg="http://www.w3.org/2000/svg" xmlns:sodipodi="http://sodipodi.sourceforge.net/DTD/sodipodi-0.dtd" xmlns:inkscape="http://www.inkscape.org/namespaces/inkscape" inkscape:version="0.92.4 (5da689c313, 2019-01-14)" sodipodi:docname="group.svg"
	 xmlns="http://www.w3.org/2000/svg" xmlns:xlink="http://www.w3.org/1999/xlink" x="0px" y="0px" width="50px" height="50px"
	 viewBox="0 0 50 50" enable-background="new 0 0 50 50" xml:space="preserve">
<sodipodi:namedview  inkscape:cy="25" inkscape:cx="25" inkscape:zoom="4.72" showgrid="false" guidetolerance="10" gridtolerance="10" objecttolerance="10" bordercolor="#666666" pagecolor="#ffffff" borderopacity="1" id="namedview116" inkscape:current-layer="svg114" inkscape:window-maximized="1" inkscape:window-y="-8" inkscape:window-x="-8" inkscape:window-height="705" inkscape:window-width="1366" inkscape:pageshadow="2" inkscape:pageopacity="0">
	</sodipodi:namedview>
<g id="g1007" transform="matrix(4.52,0,0,4.52,3.0508475e-7,-0.95762708)">
	<path id="path6" inkscape:connector-curvature="0" opacity="0.309" fill="#E4E4F9" enable-background="new    " d="M5.53,1.6
		c-2.26,0-4.09,1.83-4.09,4.09s1.83,4.09,4.09,4.09c2.26,0,4.09-1.83,4.09-4.09S7.79,1.6,5.53,1.6z"/>
	<g id="g997">
		<path id="path4" inkscape:connector-curvature="0" fill="#88CDD7" d="M8.52,1.49c-0.06,0-0.11,0.05-0.11,0.11
			c0,0.06,0.05,0.11,0.11,0.11S8.63,1.67,8.63,1.6C8.63,1.54,8.58,1.49,8.52,1.49z"/>
		<path id="path8" inkscape:connector-curvature="0" fill="#88CDD7" d="M9.18,1.38c-0.24,0-0.44,0.2-0.44,0.44s0.2,0.44,0.44,0.44
			s0.44-0.2,0.44-0.44S9.42,1.38,9.18,1.38z"/>
		<path id="path10" inkscape:connector-curvature="0" fill="#8889B9" d="M9.62,2.6C9.5,2.6,9.4,2.7,9.4,2.82
			c0,0.12,0.1,0.22,0.22,0.22c0.12,0,0.22-0.1,0.22-0.22C9.85,2.7,9.75,2.6,9.62,2.6z"/>
		<path id="path12" inkscape:connector-curvature="0" fill="#88CDD7" d="M8.96,8.35c-0.12,0-0.22,0.1-0.22,0.22
			c0,0.12,0.1,0.22,0.22,0.22c0.12,0,0.22-0.1,0.22-0.22C9.18,8.45,9.08,8.35,8.96,8.35z M1.66,6.69c-0.24,0-0.44,0.2-0.44,0.44
			s0.2,0.44,0.44,0.44S2.1,7.38,2.1,7.13S1.9,6.69,1.66,6.69z"/>
		<path id="path14" inkscape:connector-curvature="0" fill="#8889B9" d="M2.77,9.57c-0.12,0-0.22,0.1-0.22,0.22s0.1,0.22,0.22,0.22
			s0.22-0.1,0.22-0.22S2.89,9.57,2.77,9.57z"/>
		<path id="path16" inkscape:connector-curvature="0" fill="#FFFFFF" d="M2.05,5.59c-0.15,0-0.28,0.12-0.28,0.28
			c0,0.15,0.12,0.28,0.28,0.28s0.28-0.12,0.28-0.28C2.32,5.71,2.2,5.59,2.05,5.59z M8.79,3.7c-0.09,0-0.17,0.08-0.17,0.17
			S8.7,4.04,8.79,4.04s0.17-0.08,0.17-0.17S8.88,3.7,8.79,3.7z"/>
	</g>
</g>
<path id="path2" inkscape:connector-curvature="0" fill="none" d="M0,50V0h50v50H0z"/>
<g id="g40">
	<path id="path22" inkscape:connector-curvature="0" fill="#FABF82" d="M37.52,26.6c-0.14-0.77-0.43-1.2-1.19-1.43
		c-0.05,0-0.1-0.05-0.14-0.05c-0.05,0-0.14-0.05-0.19-0.1c-0.43-0.19-3.06-1.15-3.06-1.15c-0.19-0.05-0.33-0.19-0.43-0.38
		c-0.14-0.29-0.09-1-0.09-1s-1.1,0.38-1.77,0.48c-0.67,0.05-2.1-0.81-2.1-0.81s-0.05,1.05-0.1,1.29c-0.05,0.19-0.24,0.33-0.43,0.38
		l-2.48,0.91c-0.29,0.1-0.53,0.19-0.76,0.33c-0.62,0.38-0.96,0.96-1.1,1.48c0,0-0.14,1.15-0.14,1.19c0,0.14-0.05-0.14-0.05,0.05
		c2.72,1.86,4.92,2.34,8.65,2.2c1.72-0.1,4.25-0.91,5.59-1.58C37.67,26.98,37.52,26.6,37.52,26.6z"/>
	<path id="path24" inkscape:connector-curvature="0" fill="#EE3E54" d="M36.38,25.22c-0.05,0-0.1-0.05-0.14-0.05
		c-0.05,0-0.14-0.05-0.19-0.1c-0.29-0.1-1.39-0.53-2.15-0.81h-0.05c-0.86,0.43-2.15,1.15-3.3,1.15s-2.29-0.62-3.3-1.15l-0.1,0.05
		l-1.58,0.57c-0.29,0.1-0.53,0.19-0.76,0.33c-0.62,0.38-0.96,0.96-1.1,1.48c0,0-0.14,1.15-0.14,1.19c0,0.14-0.05,1.43-0.05,1.62
		c2.72,1.86,4.92,2.34,8.65,2.2c1.72-0.09,4.25-0.91,5.59-1.58c-0.05-1.48-0.19-3.44-0.19-3.44C37.38,25.88,37.09,25.41,36.38,25.22
		z"/>
	<path id="path26" inkscape:connector-curvature="0" fill="#FDDBBC" d="M34.85,17.28c-0.05,0-0.1,0-0.14,0
		c-0.33,0-0.43,0.1-0.43-0.1c0.05-0.38-0.05-1.86-0.05-1.96c0-1.58-1.62-2.82-3.68-2.91l0,0H30.5h-0.05l0,0
		c-2.05,0.05-3.68,1.34-3.68,2.91c0,0.1-0.05,1.58-0.05,1.96c0,0.19-0.1,0.1-0.43,0.1c-0.05,0-0.1,0-0.14,0
		c-0.38,0.05-0.67,0.24-0.72,0.57c0.05,0.05,0.19,1.29,0.48,1.82c0.14,0.29,0.38,0.33,0.62,0.53c0.14,0.1,0.14,0.19,0.19,0.38
		c0.14,0.57,0.53,1.05,0.96,1.43c0.19,0.19,1.58,1.67,2.77,1.58c1.2-0.05,2.53-1.39,2.77-1.58c0.43-0.38,0.81-0.86,0.96-1.43
		c0.05-0.14,0.05-0.29,0.19-0.38c0.24-0.19,0.48-0.24,0.62-0.53c0.29-0.53,0.43-1.77,0.48-1.82C35.52,17.57,35.23,17.33,34.85,17.28
		z"/>
	<path id="path28" inkscape:connector-curvature="0" fill="#512C2B" d="M30.59,19.77c0.24,0,0.48-0.1,0.62-0.29v-0.05l0,0h-0.05
		c-0.14,0.14-0.33,0.24-0.57,0.24c-0.24,0-0.43-0.1-0.57-0.24c0,0,0,0-0.05,0c0,0,0,0-0.05,0v0.05
		C30.12,19.67,30.36,19.77,30.59,19.77z M29.83,16.57l0.14-0.29c-0.62-0.14-1.39-0.14-2.01,0.05l0.19,0.29
		C28.68,16.42,29.3,16.42,29.83,16.57z M33.03,16.57l0.14-0.29c-0.62-0.14-1.38-0.14-2.01,0.05l0.19,0.29
		C31.88,16.42,32.51,16.42,33.03,16.57z M28.88,16.95c-0.14,0-0.29,0.1-0.38,0.24h0.05c0.14,0,0.24,0.1,0.24,0.24
		c0,0.14-0.1,0.24-0.24,0.24c-0.05,0-0.1,0-0.1-0.05c0.05,0.24,0.24,0.38,0.43,0.38c0.24,0,0.43-0.24,0.43-0.57
		C29.3,17.19,29.11,16.95,28.88,16.95z M32.27,16.95c-0.14,0-0.24,0.1-0.33,0.19c0.05,0,0.05,0,0.1,0c0.14,0,0.24,0.1,0.24,0.24
		s-0.1,0.24-0.24,0.24c-0.1,0-0.14-0.05-0.19-0.1c0,0.29,0.19,0.53,0.43,0.53s0.43-0.24,0.43-0.57
		C32.7,17.19,32.51,16.95,32.27,16.95z M32.41,20.44v-0.05l0,0h-0.05c-0.38,0.33-1.05,0.48-1.81,0.48c-0.76,0-1.39-0.19-1.82-0.48
		c0,0,0,0-0.05,0h-0.05v0.05c0.43,0.38,1.15,0.57,1.86,0.57C31.31,21.01,31.98,20.82,32.41,20.44z M31.07,22.3l0.05-0.05
		c0,0,0-0.05-0.05-0.05h-0.91l-0.05,0.05c0,0,0,0.05,0.05,0.05H31.07z"/>
	<path id="path30" inkscape:connector-curvature="0" fill="#472B29" d="M30.93,31.95c-3.15,0-5.16-0.62-7.6-2.25
		c-0.1-0.05-0.1-0.14-0.1-0.24c0-0.05,0-0.14,0-0.33c0-0.76,0.05-1.86,0.19-2.53c0.24-0.86,0.57-1.19,1.19-1.58
		c0.24-0.14,0.53-0.29,0.86-0.33l2.48-0.91c0.19-0.05,0.29-0.14,0.29-0.24c0-0.05,0.05-0.19,0.05-0.67
		c-0.33-0.24-0.62-0.48-0.72-0.57c-0.57-0.53-0.86-1.05-1-1.58c-0.05-0.14-0.05-0.19-0.1-0.24c-0.05-0.05-0.14-0.1-0.19-0.14
		c-0.19-0.1-0.38-0.19-0.48-0.48c-0.29-0.57-0.52-1.63-0.52-1.96v-0.05c0.1-0.43,0.48-0.72,0.96-0.76c0.05,0,0.09,0,0.14,0
		c0.05,0,0.14,0,0.19,0c0-0.43,0-1.29,0.05-1.67v-0.19c0-1.67,1.67-3.11,3.87-3.15h0.05h0.05l0,0h0.05c2.15,0.1,3.87,1.48,3.87,3.15
		v0.19c0,0.38,0.05,1.24,0.05,1.67c0.05,0,0.1,0,0.19,0c0.05,0,0.1,0,0.14,0c0.48,0.05,0.86,0.33,0.96,0.76v0.05
		c0,0.38-0.24,1.39-0.53,1.96c-0.14,0.24-0.33,0.38-0.48,0.48c-0.05,0.05-0.14,0.1-0.19,0.14c-0.05,0.05-0.1,0.1-0.1,0.24
		c-0.14,0.53-0.43,1.05-1,1.58c-0.1,0.1-0.38,0.33-0.77,0.62c0,0.38,0.05,0.53,0.05,0.57c0.05,0.14,0.14,0.24,0.29,0.24
		c0.14,0.05,2.63,0.96,3.06,1.15c0.1,0.05,0.14,0.05,0.19,0.1c0.05,0,0.05,0.05,0.1,0.05c0.76,0.24,1.15,0.72,1.34,1.58
		c0,0,0,0,0,0.05c0,0,0.14,1.96,0.19,3.44c0,0.1-0.05,0.19-0.14,0.24c-1.43,0.72-4.01,1.53-5.69,1.63
		C31.74,31.95,31.36,31.95,30.93,31.95L30.93,31.95z M23.76,29.37c2.58,1.72,4.73,2.25,8.41,2.1c1.58-0.05,3.92-0.81,5.35-1.48
		c-0.05-1.43-0.19-3.06-0.19-3.25c-0.14-0.72-0.43-1.05-1-1.19c-0.05,0-0.1-0.05-0.14-0.05c-0.05-0.05-0.14-0.05-0.19-0.1
		c-0.43-0.19-3.01-1.15-3.06-1.15c-0.24-0.05-0.43-0.24-0.57-0.48c-0.1-0.19-0.14-0.48-0.1-0.91c0-0.1,0.05-0.14,0.1-0.19
		c0.43-0.29,0.72-0.57,0.81-0.62c0.48-0.48,0.76-0.91,0.86-1.34c0.05-0.19,0.1-0.33,0.29-0.53c0.1-0.05,0.19-0.1,0.24-0.14
		c0.14-0.1,0.24-0.14,0.29-0.29c0.24-0.48,0.43-1.39,0.48-1.67c-0.05-0.19-0.29-0.33-0.53-0.33c-0.05,0-0.09,0-0.09,0
		c-0.1,0-0.19,0-0.24,0c-0.09,0-0.19,0.05-0.33-0.05c-0.1-0.1-0.1-0.24-0.1-0.29c0-0.29,0-1.39,0-1.77c0-0.1,0-0.19,0-0.19
		c0-1.43-1.53-2.63-3.44-2.72c0,0,0,0-0.05,0l0,0c0,0,0,0-0.05,0c-1.91,0.05-3.44,1.24-3.44,2.72c0,0,0,0.1,0,0.19
		c0,0.38-0.05,1.48,0,1.77c0,0.05,0,0.19-0.1,0.29c-0.09,0.1-0.24,0.1-0.33,0.05c-0.05,0-0.14,0-0.24,0c-0.05,0-0.1,0-0.14,0
		c-0.24,0-0.48,0.14-0.53,0.33c0,0.33,0.19,1.24,0.48,1.67c0.05,0.14,0.14,0.19,0.29,0.29c0.1,0.05,0.19,0.1,0.24,0.14
		c0.19,0.14,0.24,0.33,0.29,0.48c0.1,0.43,0.38,0.86,0.86,1.34c0.05,0.05,0.33,0.29,0.76,0.57c0.05,0.05,0.1,0.14,0.1,0.19
		c-0.05,0.67-0.05,0.81-0.05,0.86c-0.05,0.29-0.33,0.53-0.62,0.57l-2.48,0.91c-0.29,0.1-0.53,0.19-0.72,0.29
		c-0.57,0.33-0.81,0.62-1,1.34c-0.14,0.57-0.19,1.72-0.19,2.39C23.76,29.23,23.76,29.32,23.76,29.37z"/>
	<path id="path32" inkscape:connector-curvature="0" fill="#895D3D" d="M34.89,19l-0.29-0.05l0.05-0.57l-0.29,0.14l-0.1-0.29
		L34.8,18c0.05,0,0.1,0,0.14,0c0.05,0.05,0.05,0.1,0.05,0.14L34.89,19z M26.34,18.91l-0.1-0.81c0-0.05,0-0.1,0.05-0.14
		c0.05-0.05,0.1-0.05,0.14,0l0.53,0.24l-0.09,0.29l-0.33-0.14l0.05,0.57H26.34z"/>
	<path id="path34" inkscape:connector-curvature="0" fill="#472B29" d="M26.82,20.49L26.82,20.49c-0.05,0-0.1-0.05-0.1-0.1
		l0.05-3.01c0-0.05,0.05-0.1,0.1-0.1s0.09,0.05,0.09,0.1l-0.05,3.01C26.92,20.44,26.87,20.49,26.82,20.49z M34.32,20.49
		c-0.05,0-0.09-0.05-0.09-0.1l-0.05-3.01c0-0.05,0.05-0.1,0.1-0.1l0,0c0.05,0,0.1,0.05,0.1,0.1l0.05,3.01
		C34.42,20.44,34.37,20.49,34.32,20.49z"/>
	<path id="path36" inkscape:connector-curvature="0" fill="#472B29" d="M30.59,23.69c-0.76,0-2.01-0.91-2.05-0.96
		s-0.05-0.1-0.05-0.14c0.05-0.05,0.1-0.05,0.14-0.05c0.38,0.29,1.43,0.96,2.01,0.91c0.67-0.1,1.72-0.81,1.72-0.81
		c0.05-0.05,0.14-0.05,0.14,0.05c0.05,0.05,0.05,0.14-0.05,0.14C32.41,22.87,31.31,23.64,30.59,23.69
		C30.64,23.69,30.64,23.69,30.59,23.69z"/>
	<path id="path38" inkscape:connector-curvature="0" fill="#512C2B" d="M26.25,13.7c0.14-0.33,0.57-0.38,0.57-0.38
		s-0.38-0.48-0.24-0.67c0.14-0.24,1.43-1.72,4.68-1.39c3.25,0.33,3.63,2.44,3.63,2.44l-0.67,3.82c0,0-1.29-3.77-6.5-3.06
		c0,0,0.24,0.48-0.86,2.39L26.25,13.7z"/>
</g>
<g id="g66">
	<path id="path42" inkscape:connector-curvature="0" fill="#FABF82" d="M26.25,26.75c-0.14-0.76-0.43-1.18-1.15-1.37
		c-0.05,0-0.1-0.05-0.14-0.05s-0.14-0.05-0.19-0.09c-0.43-0.19-3.01-1.14-3.01-1.14c-0.19-0.05-0.33-0.19-0.43-0.38
		c-0.14-0.28-0.1-0.99-0.1-0.99s-1.05,0.38-1.72,0.47c-0.67,0.05-2.05-0.76-2.05-0.76s-0.05,1.04-0.1,1.28
		c-0.05,0.19-0.24,0.33-0.43,0.38l-2.48,0.9c-0.29,0.05-0.53,0.19-0.76,0.33c-0.62,0.38-0.96,0.95-1.1,1.42c0,0-0.14,0.66-0.14,0.71
		c0,0.14-0.05,0.33-0.05,0.52c2.68,1.8,4.83,2.32,8.55,2.13c1.67-0.09,4.2-0.9,5.5-1.56C26.39,27.12,26.25,26.75,26.25,26.75z"/>
	<path id="path44" inkscape:connector-curvature="0" fill="#88CDD7" d="M25.1,25.42c-0.05-0.05-0.1-0.05-0.14-0.05
		s-0.14-0.05-0.19-0.09c-0.29-0.09-1.34-0.52-2.15-0.8h-0.05c-0.86,0.43-2.1,1.09-3.25,1.09s-2.29-0.62-3.25-1.09l-0.1,0.05
		l-1.48,0.52c-0.29,0.05-0.53,0.19-0.76,0.33c-0.62,0.38-0.96,0.95-1.1,1.42c0,0-0.14,0.66-0.14,0.71c0,0.14-0.05,1.85-0.05,2.04
		c2.68,1.8,4.83,2.32,8.55,2.13c1.62-0.05,4.16-0.9,5.45-1.56c-0.05-1.42-0.19-3.31-0.19-3.31C26.1,26.04,25.82,25.61,25.1,25.42z"
		/>
	<path id="path46" inkscape:connector-curvature="0" fill="#BE7841" d="M15.64,18.51c-0.05-0.14-1.34-2.98-0.38-4.88
		c0.43-0.8,1.15-1.33,2.2-1.56c0.62-0.43,1.34-0.62,2.05-0.62c0.62,0,1.19,0.14,1.72,0.47c0.29,0.14,0.53,0.28,0.72,0.43
		c0.62,0.38,0.81,0.47,1.15,0.47c0.05,0,0.1,0,0.14,0c0.1,0,0.14,0,0.19,0c0.38,0,0.48,0.24,0.48,0.38c0.05,0.38-0.1,0.71-0.19,0.99
		c-0.1,0.24-0.19,0.43-0.14,0.62c0.62,2.08-0.33,3.79-0.38,3.88l-0.43,0.76V18.6c0,0,0-1.52-0.33-2.56
		c-0.48,0.24-1.05,0.38-1.72,0.38c-1.1,0-2.34-0.38-3.58-1.14c-1.05,0.85-1.05,3.31-1.05,3.31v1.09L15.64,18.51z"/>
	<path id="path48" inkscape:connector-curvature="0" fill="#472B29" d="M19.46,11.64c0.53,0,1.05,0.14,1.62,0.43
		c1.24,0.66,1.43,0.9,2.01,0.9c0.05,0,0.1,0,0.14,0c0.05,0,0.14,0,0.19,0c0.14,0,0.24,0.05,0.24,0.14c0.1,0.62-0.48,1.14-0.33,1.61
		c0.62,2.04-0.38,3.69-0.38,3.69s0-1.85-0.48-2.89c-0.48,0.33-1.1,0.47-1.82,0.47c-1.05,0-2.29-0.38-3.58-1.23
		c-1.29,0.85-1.24,3.6-1.24,3.6s-2.44-5.26,1.72-6.15C18.08,11.88,18.75,11.64,19.46,11.64 M19.46,11.17
		c-0.76,0-1.48,0.24-2.15,0.66c-1.1,0.24-1.86,0.81-2.29,1.7c-1.05,2.04,0.29,4.97,0.33,5.11l0.91,1.99v-2.23
		c0-0.62,0.14-2.27,0.81-3.03c1.19,0.71,2.44,1.09,3.54,1.09c0.57,0,1.1-0.09,1.58-0.28c0.24,0.95,0.24,2.23,0.24,2.23v1.75
		l0.91-1.52c0.05-0.09,1.1-1.85,0.43-4.07c-0.05-0.09,0.05-0.28,0.14-0.43c0.14-0.28,0.29-0.66,0.19-1.09
		c-0.05-0.28-0.24-0.57-0.72-0.57c-0.05,0-0.1,0-0.19,0h-0.05c-0.05,0-0.1,0-0.1,0c-0.29,0-0.43-0.09-1.05-0.43
		c-0.19-0.09-0.43-0.24-0.72-0.43C20.75,11.31,20.13,11.17,19.46,11.17z"/>
	<path id="path50" inkscape:connector-curvature="0" fill="#00A5A5" d="M14.78,31.01c-0.1,0-0.14-0.05-0.14-0.14v-1.37
		c0-0.09,0.05-0.14,0.14-0.14c0.1,0,0.14,0.05,0.14,0.14v1.37C14.92,30.96,14.83,31.01,14.78,31.01z M23.86,31.24
		c-0.1,0-0.14-0.05-0.14-0.14v-1.61c0-0.09,0.05-0.14,0.14-0.14c0.1,0,0.14,0.05,0.14,0.14v1.61C24,31.2,23.95,31.24,23.86,31.24z"
		/>
	<path id="path52" inkscape:connector-curvature="0" fill="#FDDBBC" d="M23.57,17.66c-0.05,0-0.1,0-0.14,0
		c-0.33,0-0.29,0.09-0.29-0.09c0.05-0.38-0.14-1.85-0.14-1.89c0-1.52-1.62-2.79-3.63-2.84l0,0h-0.05h-0.05l0,0
		c-2.01,0.05-3.63,1.33-3.63,2.84c0,0.09-0.05,1.56-0.05,1.89c0,0.19-0.1,0.09-0.43,0.09c-0.05,0-0.1,0-0.14,0
		c-0.38,0.05-0.67,0.24-0.72,0.52c0.05,0.05,0.19,1.28,0.48,1.75c0.14,0.28,0.38,0.33,0.62,0.47c0.14,0.09,0.14,0.19,0.19,0.38
		c0.14,0.57,0.53,0.99,0.91,1.42c0.19,0.19,1.58,1.61,2.72,1.56c1.15-0.05,2.53-1.37,2.72-1.56c0.43-0.38,0.81-0.85,0.91-1.42
		c0.05-0.14,0.05-0.24,0.19-0.38c0.24-0.19,0.48-0.24,0.62-0.47c0.29-0.47,0.43-1.75,0.48-1.75C24.24,17.94,23.95,17.7,23.57,17.66z
		"/>
	<path id="path54" inkscape:connector-curvature="0" fill="#512C2B" d="M19.37,20.12c0.24,0,0.48-0.09,0.62-0.28v-0.05l0,0h-0.05
		c-0.14,0.14-0.33,0.24-0.53,0.24s-0.43-0.09-0.53-0.24c0,0,0,0-0.05,0c0,0,0,0-0.05,0v0.05C18.94,19.98,19.13,20.12,19.37,20.12z
		 M18.65,16.94l0.14-0.28c-0.62-0.14-1.39-0.14-1.96,0.05l0.19,0.28C17.5,16.85,18.12,16.8,18.65,16.94z M21.8,16.94l0.14-0.28
		c-0.62-0.14-1.34-0.14-1.96,0.05l0.19,0.28C20.66,16.85,21.28,16.8,21.8,16.94z M17.74,17.32c-0.14,0-0.29,0.09-0.38,0.24h0.05
		c0.14,0,0.24,0.09,0.24,0.24s-0.1,0.24-0.24,0.24c-0.05,0-0.1,0-0.1-0.05c0.05,0.24,0.24,0.38,0.43,0.38
		c0.24,0,0.43-0.24,0.43-0.57C18.17,17.47,17.98,17.32,17.74,17.32z M21.04,17.32c-0.14,0-0.24,0.09-0.33,0.19c0.05,0,0.05,0,0.1,0
		c0.14,0,0.24,0.09,0.24,0.24s-0.1,0.24-0.24,0.24c-0.1,0-0.14-0.05-0.19-0.09c0,0.28,0.19,0.52,0.43,0.52
		c0.24,0,0.43-0.24,0.43-0.57C21.47,17.56,21.28,17.32,21.04,17.32z M21.23,20.73v-0.05l0,0h-0.05c-0.38,0.33-1.05,0.47-1.77,0.47
		s-1.39-0.19-1.77-0.47c0,0,0,0-0.05,0h-0.05v0.05c0.43,0.38,1.15,0.57,1.82,0.57C20.08,21.3,20.75,21.11,21.23,20.73z M19.89,22.53
		l0.05-0.05c0,0,0-0.05-0.05-0.05h-0.91l-0.05,0.05c0,0,0,0.05,0.05,0.05H19.89z"/>
	<path id="path56" inkscape:connector-curvature="0" fill="#472B29" d="M19.75,32c-3.11,0-5.06-0.62-7.45-2.22
		c-0.1-0.05-0.1-0.14-0.1-0.24c0-0.05,0-0.14,0-0.33c0-0.76,0.05-1.85,0.19-2.46c0.24-0.85,0.57-1.18,1.19-1.56
		c0.24-0.14,0.53-0.24,0.81-0.33l2.44-0.9c0.14-0.05,0.29-0.14,0.29-0.19c0-0.09,0.05-0.33,0.05-0.66
		c-0.33-0.24-0.62-0.47-0.72-0.52c-0.53-0.52-0.86-0.99-1-1.52c-0.05-0.14-0.05-0.19-0.1-0.24c-0.05-0.05-0.14-0.09-0.19-0.14
		c-0.14-0.09-0.33-0.19-0.48-0.43c-0.29-0.57-0.53-1.56-0.53-1.89v-0.05c0.1-0.38,0.48-0.71,0.96-0.71c0.05,0,0.1,0,0.14,0
		c0.05,0,0.1,0,0.19,0c0-0.43,0-1.23,0.05-1.61v-0.19c0-1.66,1.67-3.03,3.82-3.12h0.05h0.05l0,0h0.05c2.15,0.09,3.82,1.47,3.82,3.12
		c0,0,0,0.14,0.05,0.24c0.05,0.57,0.14,1.23,0.14,1.52l0,0c0.1,0,0.14,0,0.19,0c0.48,0.05,0.86,0.33,0.96,0.71v0.05
		c0,0.38-0.24,1.37-0.53,1.89c-0.14,0.24-0.33,0.38-0.48,0.43c-0.05,0.05-0.14,0.09-0.19,0.14c-0.05,0.05-0.05,0.09-0.1,0.24
		c-0.14,0.52-0.43,0.99-1,1.56c-0.1,0.09-0.38,0.33-0.76,0.62c0,0.38,0.05,0.52,0.05,0.57c0.05,0.14,0.14,0.19,0.29,0.24
		s2.58,0.95,3.01,1.14c0.1,0.05,0.14,0.05,0.19,0.09c0.05,0,0.05,0.05,0.1,0.05c0.76,0.24,1.15,0.71,1.34,1.56c0,0,0,0,0,0.05
		c0,0,0.14,1.89,0.19,3.36c0,0.09-0.05,0.19-0.14,0.24C25.2,31.2,22.86,32,19.75,32z M12.63,29.44c2.53,1.66,4.63,2.18,8.27,2.04
		c1.53-0.05,3.9-0.74,5.29-1.41c-0.05-1.37-0.22-3.04-0.22-3.23c-0.14-0.66-0.38-0.99-1-1.18c-0.05,0-0.1-0.05-0.14-0.05
		c-0.05-0.05-0.14-0.05-0.19-0.09c-0.38-0.14-2.91-1.09-2.91-1.09c-0.24-0.05-0.43-0.24-0.57-0.47c-0.05-0.05-0.14-0.28-0.1-0.9
		c0-0.09,0.05-0.14,0.1-0.19c0.38-0.28,0.72-0.57,0.81-0.62c0.48-0.47,0.76-0.9,0.86-1.33c0.05-0.19,0.1-0.33,0.29-0.47
		c0.1-0.05,0.19-0.09,0.24-0.14c0.14-0.09,0.24-0.14,0.29-0.24c0.24-0.47,0.43-1.33,0.43-1.66c-0.05-0.19-0.24-0.33-0.48-0.33
		c-0.05,0-0.05,0-0.1,0h-0.05c-0.19,0-0.33,0-0.43-0.14c-0.1-0.09-0.1-0.19-0.05-0.28c0-0.28-0.05-1.14-0.1-1.51
		c0-0.19-0.05-0.28-0.05-0.28c0-1.42-1.48-2.56-3.39-2.65c0,0,0,0-0.05,0l0,0c0,0,0,0-0.05,0c-1.91,0.05-3.39,1.23-3.39,2.65
		c0,0,0,0.09,0,0.19c0,0.38-0.05,1.42,0,1.7c0,0.05,0,0.19-0.1,0.28c-0.1,0.09-0.24,0.09-0.33,0.05c-0.05,0-0.14,0-0.24,0
		c-0.05,0-0.1,0-0.1,0c-0.24,0-0.43,0.14-0.53,0.33c0,0.33,0.19,1.23,0.43,1.66c0.05,0.14,0.14,0.19,0.29,0.24
		c0.1,0.05,0.19,0.09,0.24,0.14c0.19,0.14,0.24,0.33,0.29,0.47c0.1,0.43,0.38,0.85,0.86,1.33c0.05,0.05,0.33,0.28,0.76,0.57
		c0.05,0.05,0.1,0.14,0.1,0.19c0,0.43-0.05,0.71-0.05,0.85c-0.05,0.28-0.33,0.52-0.62,0.57l-2.44,0.9
		c-0.29,0.09-0.53,0.19-0.72,0.28c-0.57,0.33-0.81,0.57-1,1.28c-0.14,0.57-0.19,1.66-0.19,2.32C12.63,29.3,12.63,29.4,12.63,29.44z"
		/>
	<path id="path58" inkscape:connector-curvature="0" fill="#895D3D" d="M23.67,19.36l-0.29-0.05l0.05-0.52l-0.29,0.14l-0.1-0.28
		l0.53-0.24c0.05,0,0.1,0,0.14,0c0.05,0.05,0.05,0.09,0.05,0.14L23.67,19.36z M15.21,19.22l-0.1-0.81c0-0.05,0-0.09,0.05-0.14
		c0.05-0.05,0.1-0.05,0.14,0l0.53,0.24l-0.1,0.28l-0.29-0.14l0.05,0.52L15.21,19.22z"/>
	<path id="path60" inkscape:connector-curvature="0" fill="#472B29" d="M15.69,20.78L15.69,20.78c-0.05,0-0.1-0.05-0.1-0.09
		l0.05-2.98c0-0.05,0.05-0.09,0.1-0.09l0,0c0.05,0,0.1,0.05,0.1,0.09l-0.05,2.98C15.78,20.73,15.74,20.78,15.69,20.78z M23.09,20.78
		c-0.05,0-0.1-0.05-0.1-0.09l-0.05-2.98c0-0.05,0.05-0.09,0.1-0.09l0,0c0.05,0,0.1,0.05,0.1,0.09l0.05,2.98
		C23.19,20.73,23.14,20.78,23.09,20.78z M19.41,23.9c-0.76,0-2.01-0.9-2.05-0.95c-0.05-0.05-0.05-0.09-0.05-0.14
		c0.05-0.05,0.1-0.05,0.14-0.05c0.38,0.28,1.43,0.95,1.96,0.9c0.67-0.09,1.72-0.81,1.72-0.81c0.05-0.05,0.14-0.05,0.14,0.05
		c0.05,0.05,0.05,0.14-0.05,0.14C21.18,23.1,20.13,23.81,19.41,23.9C19.46,23.9,19.41,23.9,19.41,23.9z"/>
	<path id="path62" inkscape:connector-curvature="0" fill="#BE7841" d="M23.67,13.16c-0.05-0.19-0.24-0.14-0.43-0.14
		c-0.67,0.05-0.81-0.19-2.1-0.9c-1.34-0.71-2.68-0.43-3.58,0.19c-4.11,0.9-1.72,6.15-1.72,6.15s0-2.75,1.24-3.6
		c2.15,1.37,4.16,1.52,5.4,0.71c0.48,1.04,0.48,2.89,0.48,2.89s1-1.66,0.38-3.69C23.19,14.25,23.76,13.77,23.67,13.16z"/>
	<path id="path64" inkscape:connector-curvature="0" fill="#472B29" d="M23.19,18.41h-0.24c0,0,0-1.7-0.43-2.7
		c-1.39,0.81-3.44,0.52-5.45-0.76c-1.15,0.85-1.15,3.46-1.15,3.46h-0.24c0-0.09,0-2.84,1.34-3.69c0.05-0.05,0.1-0.05,0.14,0
		c2.01,1.28,4.11,1.56,5.4,0.71c0.05,0,0.05,0,0.1,0c0.05,0,0.05,0.05,0.1,0.05C23.19,16.52,23.19,18.37,23.19,18.41z"/>
</g>
<g id="g108">
	<path id="path68" inkscape:connector-curvature="0" fill="#FDDBBC" d="M29.31,25.21c0.05-0.53-0.1-0.96-0.1-1.19l0,0
		c-0.43-0.57-0.72-1.24-1.39-1.62c-0.67-0.43-1.53-0.76-2.29-0.96c-1.96-0.48-3.82,0.91-4.44,2.77c0,0,0,0,0,0.05
		c0.1,0.43,0.14,0.81,0.14,1c-0.53,0-0.81,0.29-0.62,0.81c0,0,0.19,0.91,0.33,1.34c0.1,0.29,0.24,0.38,0.53,0.43
		c0,0.29,0,0.57,0,0.86c0,0.33,0.1,0.67,0.29,0.96c0.53,0.72,3.15,2.44,3.77,2.39c1.05,0,3.01-1.79,3.53-2.65
		c0.1-0.14,0.12-0.43,0.12-0.62c0-0.33,0.07-0.6,0.07-0.93c0.19-0.05,0.33-0.14,0.43-0.38c0.14-0.43,0.33-1.29,0.33-1.34
		C30.22,25.5,29.84,25.21,29.31,25.21z"/>
	<g id="g72" opacity="0.3">
		<path id="path70" inkscape:connector-curvature="0" opacity="0.8" fill="#F4989E" enable-background="new    " d="M22.91,27.96
			c-0.37,0-0.67,0.3-0.67,0.67c0,0.37,0.3,0.67,0.67,0.67c0,0,0,0,0,0c0.37,0,0.67-0.3,0.67-0.67
			C23.58,28.26,23.28,27.96,22.91,27.96C22.91,27.96,22.91,27.96,22.91,27.96z M28.07,27.96c-0.37,0-0.67,0.3-0.67,0.67
			c0,0.37,0.3,0.67,0.67,0.67c0,0,0,0,0,0c0.37,0,0.67-0.3,0.67-0.67C28.74,28.26,28.44,27.96,28.07,27.96
			C28.07,27.96,28.07,27.96,28.07,27.96z"/>
	</g>
	<path id="path74" inkscape:connector-curvature="0" fill="#472B29" d="M21.57,28.03c-0.05,0-0.09-0.05-0.09-0.09l-0.28-2.67
		c0-0.05,0.05-0.09,0.09-0.09c0.05,0,0.09,0.05,0.09,0.09l0.28,2.67C21.66,27.98,21.61,28.03,21.57,28.03z M29.07,27.89L29.07,27.89
		c-0.05,0-0.09-0.05-0.09-0.09l0.14-2.67c0-0.05,0.05-0.09,0.09-0.09s0.09,0.05,0.09,0.09l-0.14,2.67
		C29.16,27.84,29.12,27.89,29.07,27.89z"/>
	<path id="path76" inkscape:connector-curvature="0" fill="#6D1B18" d="M24.25,29.56c0,0.05,0,0.09,0,0.14
		c0,0.48,0.53,0.86,1.19,0.86c0.67,0,1.19-0.38,1.19-0.86c0-0.05,0-0.1,0-0.14H24.25z"/>
	<path id="path78" inkscape:connector-curvature="0" fill="#EE3E54" d="M26.06,30.47c-0.09-0.14-0.33-0.19-0.62-0.19
		c-0.29,0-0.53,0.1-0.62,0.19c0.19,0.1,0.38,0.14,0.62,0.14C25.68,30.61,25.87,30.51,26.06,30.47z"/>
	<path id="path80" inkscape:connector-curvature="0" fill="#FDFCEF" d="M24.58,29.56L24.58,29.56v0.14c0,0.14,0.14,0.24,0.38,0.24
		h0.91c0.19,0,0.38-0.1,0.38-0.24v-0.14l0,0H24.58z"/>
	<path id="path82" inkscape:connector-curvature="0" fill="#472B29" d="M25.44,30.71c-0.72,0-1.29-0.43-1.29-0.96
		c0-0.05,0-0.14,0.05-0.19c0-0.05,0.05-0.05,0.1-0.05h2.29c0.05,0,0.1,0.05,0.1,0.09c0,0.05,0.05,0.14,0.05,0.19
		C26.69,30.28,26.11,30.71,25.44,30.71z M24.35,29.65v0.05c0,0.43,0.48,0.76,1.1,0.76s1.1-0.33,1.1-0.76v-0.05H24.35z"/>
	<path id="path84" inkscape:connector-curvature="0" opacity="0.41" fill="#472B29" enable-background="new    " d="M25.44,28.94
		c0.24,0,0.53-0.1,0.67-0.29V28.6l0,0h-0.05c-0.14,0.14-0.33,0.24-0.62,0.24c-0.24,0-0.48-0.1-0.62-0.24c0,0,0,0-0.05,0
		c0,0,0,0-0.05,0v0.05C24.92,28.79,25.16,28.94,25.44,28.94z M25.73,31.23C25.73,31.23,25.73,31.18,25.73,31.23
		c0.05-0.05,0-0.05,0-0.05h-0.62c0,0-0.05,0-0.05,0.05s0,0.05,0.05,0.05h0.62V31.23z"/>
	<path id="path86" inkscape:connector-curvature="0" fill="#512C2B" d="M24.73,24.83c-0.67-0.24-1.82-0.33-2.53-0.29
		c-0.05,0-0.05,0.05-0.05,0.05c0,0.05,0.05,0.05,0.05,0.05s1.72,0.29,2.25,0.48c0,0,0,0,0.05,0c0.05,0,0.05,0,0.05-0.05L24.73,24.83
		v-0.05C24.77,24.88,24.73,24.83,24.73,24.83z M26.06,24.78c0.67-0.19,1.86-0.24,2.53-0.14c0.05,0,0.05,0.05,0.05,0.05
		c0,0.05-0.05,0.05-0.05,0.05s-1.72,0.19-2.29,0.38c0,0,0,0-0.05,0c-0.05,0-0.05,0-0.05-0.05l-0.19-0.24v-0.05
		C26.06,24.78,26.06,24.78,26.06,24.78L26.06,24.78z"/>
	<path id="path88" inkscape:connector-curvature="0" fill="#472B29" d="M23.53,25.54c-0.19,0-0.33,0.1-0.43,0.29h0.05
		c0.14,0,0.24,0.14,0.24,0.29s-0.1,0.29-0.24,0.29c-0.05,0-0.1,0-0.14-0.05c0.05,0.24,0.24,0.43,0.48,0.43
		c0.29,0,0.48-0.29,0.48-0.62C24.01,25.83,23.77,25.54,23.53,25.54z M27.26,25.54c-0.14,0-0.29,0.1-0.38,0.19c0.05,0,0.05,0,0.1,0
		c0.14,0,0.24,0.14,0.24,0.29s-0.09,0.29-0.24,0.29c-0.1,0-0.14-0.05-0.19-0.14c0,0.33,0.24,0.62,0.48,0.62
		c0.29,0,0.48-0.29,0.48-0.62S27.55,25.54,27.26,25.54z"/>
	<path id="path90" inkscape:connector-curvature="0" fill="#FABF82" d="M18.79,37.78c3.86,2.81,9.15,2.35,13.22,0.23
		c0.11-1.81-0.12-3.76-1.17-4.1c-0.05,0-0.05-0.05-0.09-0.05c-0.05,0-0.1-0.05-0.19-0.1c-0.43-0.19-3.15-1.1-3.15-1.1
		c-0.19-0.05-0.33-0.19-0.43-0.38c-0.14-0.29-0.1-1-0.1-1s-0.81,0.38-1.43,0.48c-0.62,0.05-1.77-0.76-1.77-0.76s-0.05,1.05-0.1,1.24
		c-0.05,0.19-0.24,0.33-0.43,0.38l-2.63,0.86c-0.29,0.05-0.53,0.19-0.72,0.29c-0.67,0.43-0.96,1.1-1.1,1.58l0,0
		c0,0.05,0,0.1-0.05,0.19c-0.05,0.24-0.05,0.43-0.05,0.48C18.66,36.15,18.79,37.73,18.79,37.78z"/>
	<path id="path92" inkscape:connector-curvature="0" fill="#A1A1CA" d="M29.79,38.96l-0.19-5.58l-1.58-0.57
		c-1.05,0.81-5.46,0.01-5.46,0.01l-1.56,0.55l-0.1,5.6C24.04,40.02,27.02,40.11,29.79,38.96z"/>
	<path id="path94" inkscape:connector-curvature="0" fill="#3A2221" d="M28.5,19.76c0-0.1,0-0.14-0.05-0.24
		c0-0.05,0.05-0.14,0.05-0.24c0-0.43-0.33-0.81-0.76-0.96c0-0.57-0.53-1-1.15-1.05c-0.19-0.38-0.67-0.67-1.19-0.67
		c-0.48,0-0.91,0.24-1.15,0.62c-0.1,0-0.19-0.05-0.29-0.05c-0.57,0-1.1,0.43-1.1,0.96v0.05C22.34,18.33,22,18.76,22,19.24
		c0,0.29,0.1,0.53,0.29,0.72c-0.14,0.14-0.19,0.33-0.19,0.57c0,0.53,0.48,0.96,1.05,0.96c0.14,0,0.29-0.05,0.43-0.1
		c0,0.43,0.43,0.81,0.91,0.81c0.1,0,0.19,0,0.29-0.05c0.24,0.29,0.57,0.43,1,0.43c0.62,0,1.19-0.43,1.24-1
		c0.43-0.14,0.72-0.53,0.76-0.96C28.21,20.58,28.5,20.19,28.5,19.76z"/>
	<path id="path96" inkscape:connector-curvature="0" fill="#472B29" d="M24.82,25.4c-0.76-0.91-3.63-0.29-3.63-0.29
		c0.05,0.19,0.1,0.43,0.14,0.62c0.19,0,0.24,0.53,0.24,0.67c0.1,0.86,0.67,1.48,1.86,1.43c1.19-0.05,1.48-0.91,1.53-1.48
		C25.01,25.78,24.82,25.4,24.82,25.4z M24.73,26.45c-0.05,0.76-0.53,1.19-1.29,1.24c-0.1,0-0.14,0-0.24,0
		c-1.19,0-1.39-1.05-1.43-1.72c0-0.38,0.24-0.72,0.62-0.72c0.24,0,0.48,0,0.76,0c0.91,0,1.29,0.19,1.39,0.38
		C24.58,25.69,24.73,26.02,24.73,26.45z M25.68,26.41c0.05,0.53,0.33,1.43,1.53,1.48s1.77-0.57,1.86-1.43
		c0-0.19,0.05-0.67,0.24-0.67c0.05-0.19,0.1-0.43,0.14-0.62c0,0-2.87-0.67-3.63,0.29C25.83,25.4,25.63,25.78,25.68,26.41z
		 M26.11,25.59c0.1-0.19,0.48-0.38,1.38-0.38c0.29,0,0.53,0,0.77,0c0.38,0.05,0.67,0.38,0.62,0.72c0,0.67-0.24,1.72-1.43,1.72
		c-0.05,0-0.14,0-0.24,0c-0.76-0.05-1.24-0.48-1.29-1.24C25.92,26.02,26.06,25.69,26.11,25.59z"/>
	<path id="path98" inkscape:connector-curvature="0" fill="#472B29" d="M25.83,26.12c0,0-0.19-0.14-0.53-0.14
		c-0.33,0-0.48,0.14-0.48,0.14c-0.05-0.14-0.1-0.29-0.14-0.43c0.43,0,0.91,0,1.34,0C25.97,25.83,25.92,25.97,25.83,26.12z"/>
	<path id="path100" inkscape:connector-curvature="0" fill="#472B29" d="M25.42,40c-2.47,0-4.96-0.63-6.81-1.89
		c-0.07-0.05-0.1-0.12-0.1-0.2c0-0.06,0-0.49,0.01-0.93c0.01-1.06,0.01-1.07,0.01-1.1c0.21-1.3,0.9-2.12,1.48-2.45
		c0.28-0.15,0.51-0.25,0.73-0.35l2.45-0.87c0.05-0.02,0.1-0.05,0.12-0.07c0-0.08,0.02-0.24,0.04-0.44l0.04-0.37
		c-0.6-0.42-1.36-1.04-1.66-1.52c-0.19-0.29-0.41-0.69-0.41-1.17c0-0.11-0.01-0.23-0.02-0.34c-0.01-0.07-0.01-0.15-0.02-0.22
		c-0.3-0.16-0.4-0.49-0.44-0.62c-0.06-0.17-0.13-0.45-0.2-0.81c-0.03-0.15-0.07-0.32-0.11-0.5c-0.18-0.58,0.01-0.87,0.1-0.97
		c0.07-0.08,0.2-0.21,0.4-0.3c-0.08-0.24-0.11-0.56-0.11-0.6c0-2.31,1.93-4.19,4.3-4.19s4.3,1.88,4.3,4.19
		c0,0.06-0.03,0.33-0.09,0.55c0.26,0.08,0.43,0.22,0.52,0.41c0,0,0.02,0.01,0.04,0.03c0.15,0.16,0.28,0.35,0.23,0.81
		c-0.02,0.08-0.3,1.12-0.39,1.36c-0.09,0.25-0.28,0.43-0.47,0.53v0.71c0,0.23-0.1,0.55-0.2,0.76c-0.38,0.62-1.19,1.45-1.97,2.03
		c0,0.31,0.02,0.45,0.04,0.52c0,0.01,0,0.02,0,0.02c0.04,0.07,0.09,0.14,0.25,0.19c0.1,0.03,2.43,0.88,2.82,1.05
		c1.69,0.77,1.88,1.5,1.97,2.52c0,0.03,0,0.13,0.01,1.01c0,0.5,0,1.01,0.01,1.06c0,0.08-0.03,0.15-0.09,0.2
		C30.4,39.35,27.92,40,25.42,40L25.42,40z M18.96,37.8c3.57,2.36,9.51,2.34,12.85-0.04c0-0.14,0-0.41-0.01-0.96
		c0-0.47,0-0.93-0.01-0.98c-0.07-0.82-0.13-1.42-1.71-2.14c-0.36-0.16-2.66-1-2.77-1.03c-0.38-0.12-0.48-0.35-0.54-0.46
		c-0.01-0.03-0.02-0.07-0.02-0.1c-0.02-0.11-0.04-0.3-0.04-0.72c0-0.07,0.04-0.14,0.09-0.18c0.75-0.54,1.58-1.38,1.94-1.94
		c0.08-0.17,0.14-0.42,0.14-0.55v-0.86c0-0.1,0.07-0.19,0.17-0.22c0.12-0.03,0.27-0.15,0.33-0.31c0.07-0.19,0.29-1,0.38-1.29
		c0.03-0.26-0.04-0.33-0.12-0.42c-0.04-0.04-0.07-0.08-0.1-0.12c-0.07-0.14-0.27-0.2-0.42-0.23c-0.11-0.02-0.19-0.11-0.19-0.22
		c0-0.03,0.01-0.16,0.02-0.19c0.05-0.11,0.1-0.4,0.11-0.55c0-2.04-1.73-3.72-3.86-3.72s-3.85,1.68-3.85,3.74
		c0,0.06,0.05,0.38,0.11,0.53c0.01,0.03,0.02,0.06,0.02,0.09v0.14c0,0.11-0.08,0.2-0.19,0.22c-0.19,0.03-0.28,0.13-0.36,0.22
		c0,0-0.12,0.14,0.01,0.54c0.05,0.19,0.08,0.36,0.12,0.52c0.07,0.33,0.13,0.61,0.19,0.76c0.1,0.31,0.21,0.37,0.28,0.38
		c0.1,0.02,0.18,0.11,0.18,0.22c0,0.11,0.01,0.22,0.02,0.34c0.01,0.13,0.02,0.25,0.02,0.38c0,0.29,0.1,0.56,0.34,0.93
		c0.23,0.37,0.89,0.96,1.64,1.47c0.07,0.05,0.11,0.13,0.1,0.21l-0.05,0.5c-0.02,0.22-0.04,0.38-0.04,0.43
		c0,0.22-0.21,0.38-0.42,0.45l-2.44,0.86c-0.21,0.09-0.42,0.18-0.68,0.32c-0.48,0.28-1.06,0.99-1.25,2.13c0,0.04,0,0.54,0,1.03
		C18.96,37.44,18.96,37.68,18.96,37.8L18.96,37.8z"/>
	<path id="path102" inkscape:connector-curvature="0" fill="#512C2B" d="M25.35,19.48c-3.87,0-5.26,3.3-4.11,6.55
		c0.05,0.14,0.33,0.14,0.33-0.05c0.14-1.86,1.05-3.39,3.77-2.63c2.77-0.76,3.63,0.76,3.77,2.63c0,0.14,0.29,0.19,0.33,0.05
		C30.6,22.77,29.22,19.48,25.35,19.48z"/>
	<g id="g106">
		<path id="path104" inkscape:connector-curvature="0" fill="#472B29" d="M25.43,31.94c-0.78,0-2.02-0.74-2.08-0.77l0.13-0.21
			c0.01,0.01,1.24,0.73,1.95,0.73c0.8,0,1.69-0.68,1.98-0.9l0.15,0.2C27.26,31.22,26.31,31.94,25.43,31.94z"/>
	</g>
</g>
</svg>
