<?xml version="1.0" encoding="UTF-8" standalone="no"?>
<!-- Generator: Adobe Illustrator 16.0.0, SVG Export Plug-In . SVG Version: 6.00 Build 0)  -->

<svg
   xmlns:dc="http://purl.org/dc/elements/1.1/"
   xmlns:cc="http://creativecommons.org/ns#"
   xmlns:rdf="http://www.w3.org/1999/02/22-rdf-syntax-ns#"
   xmlns:svg="http://www.w3.org/2000/svg"
   xmlns="http://www.w3.org/2000/svg"
   xmlns:sodipodi="http://sodipodi.sourceforge.net/DTD/sodipodi-0.dtd"
   xmlns:inkscape="http://www.inkscape.org/namespaces/inkscape"
   version="1.1"
   id="Layer_1"
   x="0px"
   y="0px"
   width="50px"
   height="50px"
   viewBox="0 0 50 50"
   enable-background="new 0 0 50 50"
   xml:space="preserve"
   sodipodi:docname="invoice.svg"
   inkscape:version="0.92.4 (5da689c313, 2019-01-14)"><metadata
   id="metadata77"><rdf:RDF><cc:Work
       rdf:about=""><dc:format>image/svg+xml</dc:format><dc:type
         rdf:resource="http://purl.org/dc/dcmitype/StillImage" /></cc:Work></rdf:RDF></metadata><defs
   id="defs75">
	
	

		
		
		
		
		
		
		
		
		
		
		
		
		
		
		
		
		
		
		
		
		
		
	</defs><sodipodi:namedview
   pagecolor="#ffffff"
   bordercolor="#666666"
   borderopacity="1"
   objecttolerance="10"
   gridtolerance="10"
   guidetolerance="10"
   inkscape:pageopacity="0"
   inkscape:pageshadow="2"
   inkscape:window-width="1366"
   inkscape:window-height="705"
   id="namedview73"
   showgrid="false"
   inkscape:zoom="9.44"
   inkscape:cx="32.728014"
   inkscape:cy="20.674328"
   inkscape:window-x="-8"
   inkscape:window-y="-8"
   inkscape:window-maximized="1"
   inkscape:current-layer="Layer_1" />
<path
   style="fill:none"
   inkscape:connector-curvature="0"
   id="path2"
   d="M 0,50 V 0 h 50 v 50 z" /><g
   id="g1007"><path
     style="fill:#e4e4f9;opacity:0.309"
     inkscape:connector-curvature="0"
     id="path6"
     d="M 25,6.5 C 14.78,6.5 6.5,14.78 6.5,25 6.5,35.22 14.78,43.5 25,43.5 35.22,43.5 43.5,35.22 43.5,25 43.5,14.78 35.22,6.5 25,6.5 Z" /><g
     id="g997"><path
       d="M 38.5,6 C 38.22,6 38,6.22 38,6.5 38,6.78 38.22,7 38.5,7 38.78,7 39,6.78 39,6.5 39,6.22 38.78,6 38.5,6 Z"
       id="path4"
       inkscape:connector-curvature="0"
       style="fill:#88cdd7;fill-opacity:1" /><path
       d="m 41.5,5.5 c -1.1,0 -2,0.9 -2,2 0,1.1 0.9,2 2,2 1.1,0 2,-0.9 2,-2 0,-1.1 -0.9,-2 -2,-2 z"
       id="path8"
       inkscape:connector-curvature="0"
       style="fill:#88cdd7;fill-opacity:1" /><path
       d="m 43.5,11 c -0.55,0 -1,0.45 -1,1 0,0.55 0.45,1 1,1 0.55,0 1,-0.45 1,-1 0,-0.55 -0.45,-1 -1,-1 z"
       id="path10"
       inkscape:connector-curvature="0"
       style="fill:#8889b9" /><path
       d="m 40.5,37 c -0.55,0 -1,0.45 -1,1 0,0.55 0.45,1 1,1 0.55,0 1,-0.45 1,-1 0,-0.55 -0.45,-1 -1,-1 z m -33,-7.5 c -1.1,0 -2,0.9 -2,2 0,1.1 0.9,2 2,2 1.1,0 2,-0.9 2,-2 0,-1.1 -0.9,-2 -2,-2 z"
       id="path12"
       inkscape:connector-curvature="0"
       style="fill:#88cdd7;fill-opacity:1" /><path
       d="m 12.5,42.5 c -0.55,0 -1,0.45 -1,1 0,0.55 0.45,1 1,1 0.55,0 1,-0.45 1,-1 0,-0.55 -0.45,-1 -1,-1 z"
       id="path14"
       inkscape:connector-curvature="0"
       style="fill:#8889b9" /><path
       d="M 9.25,24.5 C 8.56,24.5 8,25.06 8,25.75 8,26.44 8.56,27 9.25,27 9.94,27 10.5,26.44 10.5,25.75 10.5,25.06 9.94,24.5 9.25,24.5 Z M 39.75,16 C 39.34,16 39,16.34 39,16.75 c 0,0.41 0.34,0.75 0.75,0.75 0.41,0 0.75,-0.34 0.75,-0.75 C 40.5,16.34 40.16,16 39.75,16 Z"
       id="path16"
       inkscape:connector-curvature="0"
       style="fill:#ffffff" /></g></g><path
   d="m 34.17,17.76 c -2.42,-2.47 -3.81,-3.88 -6.24,-6.34 h -5.8 -2.8 -0.87 -0.39 c -1.48,0 -2.69,1.23 -2.69,2.74 v 19.28 c 0,1.5 1.21,2.73 2.69,2.73 h 5.19 2.96 3.88 1.39 c 1.48,0 2.69,-1.23 2.69,-2.73 V 32.22 28.18 24.5 17.76 Z"
   id="path18"
   inkscape:connector-curvature="0"
   style="fill:#fefdef" /><path
   d="M 28.25,36.52 H 18.06 c -1.68,0 -3.04,-1.38 -3.04,-3.08 V 14.15 c 0,-1.7 1.36,-3.09 3.04,-3.09 h 9.86 c 0.09,0 0.18,0.04 0.25,0.1 l 6.24,6.34 c 0.06,0.07 0.1,0.15 0.1,0.25 v 12.74 c 0,0.19 -0.16,0.35 -0.35,0.35 v 0 c -0.19,0 -0.35,-0.16 -0.35,-0.35 V 17.9 l -6.03,-6.14 h -9.72 c -1.29,0 -2.34,1.07 -2.34,2.39 v 19.28 c 0,1.31 1.05,2.38 2.34,2.38 h 10.19 c 0.19,0 0.35,0.16 0.35,0.35 0,0.19 -0.16,0.36 -0.35,0.36 z m 3.23,0 h -1.39 c -0.19,0 -0.35,-0.16 -0.35,-0.35 0,-0.19 0.16,-0.35 0.35,-0.35 h 1.39 c 1.29,0 2.34,-1.07 2.34,-2.38 v -1.22 c 0,-0.19 0.16,-0.35 0.35,-0.35 0.19,0 0.35,0.16 0.35,0.35 v 1.22 c 0,1.69 -1.37,3.08 -3.04,3.08 z"
   id="path20"
   inkscape:connector-curvature="0"
   style="fill:#472b29" /><path
   d="m 27.75,11.5 v 3.52 c 0,1.5 1.2,2.73 2.67,2.73 H 34"
   id="path22"
   inkscape:connector-curvature="0"
   style="fill:#fef6aa" /><path
   d="M 34,18 H 30.42 C 28.81,18 27.5,16.66 27.5,15.02 V 11.5 H 28 v 3.52 c 0,1.37 1.09,2.48 2.42,2.48 H 34 Z m -6.5,16.5 h -9 C 17.67,34.5 17,33.83 17,33 V 15 c 0,-0.83 0.67,-1.5 1.5,-1.5 H 26 c 0.14,0 0.25,0.11 0.25,0.25 0,0.14 -0.11,0.25 -0.25,0.25 h -7.5 c -0.55,0 -1,0.45 -1,1 v 18 c 0,0.55 0.45,1 1,1 h 9 c 0.14,0 0.25,0.11 0.25,0.25 0,0.14 -0.11,0.25 -0.25,0.25 z"
   id="path24"
   inkscape:connector-curvature="0"
   style="fill:#472b29" /><path
   d="M 25.79,19.54 H 21 c -0.14,0 -0.25,-0.11 -0.25,-0.25 0,-0.14 0.11,-0.25 0.25,-0.25 h 4.79 c 0.14,0 0.25,0.11 0.25,0.25 0,0.14 -0.11,0.25 -0.25,0.25 z"
   id="path26"
   inkscape:connector-curvature="0"
   style="fill:#472b29" /><path
   d="M 31.79,29.04 H 27 c -0.14,0 -0.25,-0.11 -0.25,-0.25 0,-0.14 0.11,-0.25 0.25,-0.25 h 4.79 c 0.14,0 0.25,0.11 0.25,0.25 0,0.14 -0.11,0.25 -0.25,0.25 z"
   id="path28"
   inkscape:connector-curvature="0"
   style="fill:#ef5390" /><g
   id="g32">
			<path
   d="m 29.5,19.54 h -2.58 c -0.14,0 -0.25,-0.11 -0.25,-0.25 0,-0.14 0.11,-0.25 0.25,-0.25 h 2.58 c 0.14,0 0.25,0.11 0.25,0.25 0,0.14 -0.11,0.25 -0.25,0.25 z"
   id="path30"
   inkscape:connector-curvature="0"
   style="fill:#472b29" />
		</g><g
   id="g36">
			<path
   d="m 24.75,31.38 h -5 c -0.07,0 -0.13,-0.06 -0.13,-0.13 0,-0.07 0.06,-0.13 0.13,-0.13 h 5 c 0.07,0 0.13,0.06 0.13,0.13 0,0.07 -0.06,0.13 -0.13,0.13 z"
   id="path34"
   inkscape:connector-curvature="0"
   style="fill:#472b29" />
		</g><g
   id="g40">
			<path
   d="m 30.75,31.38 h -5 c -0.07,0 -0.13,-0.06 -0.13,-0.13 0,-0.07 0.06,-0.13 0.13,-0.13 h 5 c 0.07,0 0.13,0.06 0.13,0.13 0,0.07 -0.06,0.13 -0.13,0.13 z"
   id="path38"
   inkscape:connector-curvature="0"
   style="fill:#472b29" />
		</g><g
   id="g46">
			<path
   d="m 18.75,20.75 h 13.5 v 6.5 h -13.5 z"
   id="path42"
   inkscape:connector-curvature="0"
   style="fill:#88cdd7" />
			<path
   d="M 32.38,27.38 H 18.63 V 20.63 H 32.38 Z M 18.88,27.13 H 32.13 V 20.88 H 18.88 Z"
   id="path44"
   inkscape:connector-curvature="0"
   style="fill:#472b29" />
		</g><g
   id="g50">
			<path
   d="m 31.25,22.88 h -11.5 c -0.07,0 -0.13,-0.06 -0.13,-0.13 0,-0.07 0.06,-0.13 0.13,-0.13 h 11.5 c 0.07,0 0.13,0.06 0.13,0.13 0,0.07 -0.06,0.13 -0.13,0.13 z"
   id="path48"
   inkscape:connector-curvature="0"
   style="fill:#472b29" />
		</g><g
   id="g54">
			<path
   d="m 27.75,24.88 h -8 c -0.07,0 -0.13,-0.06 -0.13,-0.13 0,-0.07 0.06,-0.13 0.13,-0.13 h 8 c 0.07,0 0.13,0.06 0.13,0.13 0,0.07 -0.06,0.13 -0.13,0.13 z"
   id="path52"
   inkscape:connector-curvature="0"
   style="fill:#472b29" />
		</g><g
   id="g58">
			<path
   d="m 31.25,24.88 h -2.5 c -0.07,0 -0.13,-0.06 -0.13,-0.13 0,-0.07 0.06,-0.13 0.13,-0.13 h 2.5 c 0.07,0 0.13,0.06 0.13,0.13 0,0.07 -0.06,0.13 -0.13,0.13 z"
   id="path56"
   inkscape:connector-curvature="0"
   style="fill:#472b29" />
		</g><g
   id="g62">
			<path
   d="m 21.75,27.38 c -0.07,0 -0.13,-0.06 -0.13,-0.13 v -6.5 c 0,-0.07 0.06,-0.13 0.13,-0.13 0.07,0 0.13,0.06 0.13,0.13 v 6.5 c 0,0.07 -0.06,0.13 -0.13,0.13 z"
   id="path60"
   inkscape:connector-curvature="0"
   style="fill:#472b29" />
		</g><g
   id="g66">
			<path
   d="m 26.75,27.38 c -0.07,0 -0.13,-0.06 -0.13,-0.13 v -6.5 c 0,-0.07 0.06,-0.13 0.13,-0.13 0.07,0 0.13,0.06 0.13,0.13 v 6.5 c 0,0.07 -0.06,0.13 -0.13,0.13 z"
   id="path64"
   inkscape:connector-curvature="0"
   style="fill:#472b29" />
		</g>
</svg>