<?xml version="1.0" encoding="utf-8"?>
<!-- Generator: Adobe Illustrator 16.0.0, SVG Export Plug-In . SVG Version: 6.00 Build 0)  -->
<!DOCTYPE svg PUBLIC "-//W3C//DTD SVG 1.1//EN" "http://www.w3.org/Graphics/SVG/1.1/DTD/svg11.dtd">
<svg version="1.1"
	 id="svg94" xmlns:dc="http://purl.org/dc/elements/1.1/" xmlns:cc="http://creativecommons.org/ns#" xmlns:rdf="http://www.w3.org/1999/02/22-rdf-syntax-ns#" xmlns:svg="http://www.w3.org/2000/svg" xmlns:sodipodi="http://sodipodi.sourceforge.net/DTD/sodipodi-0.dtd" xmlns:inkscape="http://www.inkscape.org/namespaces/inkscape" inkscape:version="0.92.4 (5da689c313, 2019-01-14)" sodipodi:docname="lock-male-user.svg"
	 xmlns="http://www.w3.org/2000/svg" xmlns:xlink="http://www.w3.org/1999/xlink" x="0px" y="0px" width="50px" height="50px"
	 viewBox="0 0 50 50" enable-background="new 0 0 50 50" xml:space="preserve">
<sodipodi:namedview  inkscape:cy="25" inkscape:cx="25" inkscape:zoom="4.72" showgrid="false" guidetolerance="10" gridtolerance="10" objecttolerance="10" bordercolor="#666666" pagecolor="#ffffff" borderopacity="1" id="namedview96" inkscape:current-layer="svg94" inkscape:window-maximized="1" inkscape:window-y="-8" inkscape:window-x="-8" inkscape:window-height="705" inkscape:window-width="1366" inkscape:pageshadow="2" inkscape:pageopacity="0">
	</sodipodi:namedview>
<g id="g1007" transform="matrix(4.52,0,0,4.52,-1.582,1.6241356)">
	<path id="path6" inkscape:connector-curvature="0" opacity="0.309" fill="#E4E4F9" enable-background="new    " d="M5.8,1.16
		c-2.26,0-4.09,1.83-4.09,4.09c0,2.26,1.83,4.09,4.09,4.09c2.26,0,4.09-1.83,4.09-4.09C9.9,2.99,8.06,1.16,5.8,1.16z"/>
	<g id="g997">
		<path id="path4-7" inkscape:connector-curvature="0" fill="#88CDD7" d="M8.79,1.05c-0.06,0-0.11,0.05-0.11,0.11
			c0,0.06,0.05,0.11,0.11,0.11c0.06,0,0.11-0.05,0.11-0.11C8.9,1.1,8.85,1.05,8.79,1.05z"/>
		<path id="path8-7" inkscape:connector-curvature="0" fill="#88CDD7" d="M9.45,0.94c-0.24,0-0.44,0.2-0.44,0.44s0.2,0.44,0.44,0.44
			c0.24,0,0.44-0.2,0.44-0.44S9.7,0.94,9.45,0.94z"/>
		<path id="path10" inkscape:connector-curvature="0" fill="#8889B9" d="M9.9,2.15c-0.12,0-0.22,0.1-0.22,0.22S9.77,2.6,9.9,2.6
			c0.12,0,0.22-0.1,0.22-0.22S10.02,2.15,9.9,2.15z"/>
		<path id="path12" inkscape:connector-curvature="0" fill="#88CDD7" d="M9.23,7.91c-0.12,0-0.22,0.1-0.22,0.22s0.1,0.22,0.22,0.22
			c0.12,0,0.22-0.1,0.22-0.22S9.35,7.91,9.23,7.91z M1.93,6.25c-0.24,0-0.44,0.2-0.44,0.44c0,0.24,0.2,0.44,0.44,0.44
			c0.24,0,0.44-0.2,0.44-0.44C2.37,6.45,2.18,6.25,1.93,6.25z"/>
		<path id="path14" inkscape:connector-curvature="0" fill="#8889B9" d="M3.04,9.12c-0.12,0-0.22,0.1-0.22,0.22
			c0,0.12,0.1,0.22,0.22,0.22c0.12,0,0.22-0.1,0.22-0.22C3.26,9.22,3.16,9.12,3.04,9.12z"/>
		<path id="path16" inkscape:connector-curvature="0" fill="#FFFFFF" d="M2.32,5.14c-0.15,0-0.28,0.12-0.28,0.28
			c0,0.15,0.12,0.28,0.28,0.28c0.15,0,0.28-0.12,0.28-0.28C2.6,5.26,2.47,5.14,2.32,5.14z M9.07,3.26c-0.09,0-0.17,0.08-0.17,0.17
			c0,0.09,0.08,0.17,0.17,0.17s0.17-0.08,0.17-0.17C9.23,3.34,9.16,3.26,9.07,3.26z"/>
	</g>
</g>
<path id="path2" inkscape:connector-curvature="0" fill="none" d="M0,50V0h50v50H0z"/>
<path id="path4" inkscape:connector-curvature="0" fill="#FFFFFF" d="M9.9,27.65c-0.25,0-0.45,0.2-0.45,0.45
	c0,0.25,0.2,0.45,0.45,0.45s0.45-0.2,0.45-0.45C10.35,27.85,10.15,27.65,9.9,27.65z M39.4,15.3c-0.19,0-0.35,0.16-0.35,0.35
	S39.21,16,39.4,16s0.35-0.16,0.35-0.35S39.59,15.3,39.4,15.3z"/>
<path id="path22" inkscape:connector-curvature="0" fill="#895F3F" d="M33.85,35.15c-0.2-1.1-0.65-1.7-1.65-2
	c-0.05,0-0.1-0.05-0.15-0.05L31.7,33c-0.65-0.25-4.35-1.65-4.35-1.65c-0.3-0.1-0.5-0.3-0.6-0.55c-0.1-0.45-0.15-0.95-0.1-1.45
	c-0.8,0.3-1.65,0.5-2.5,0.7c-0.95,0.1-3-1.15-3-1.15s-0.05,1.5-0.1,1.85c-0.1,0.3-0.35,0.5-0.65,0.55l-3.55,1.3
	c-0.4,0.1-0.75,0.25-1.1,0.45c-0.75,0.5-1.3,1.2-1.6,2.1c0,0-0.25,1.65-0.25,1.7c0,0.25-0.05,0.5-0.05,0.75
	c3.9,2.65,7,3.35,12.35,3.15c2.4-0.15,6.05-1.3,7.95-2.3C34,36.4,33.85,35.15,33.85,35.15z"/>
<path id="path24" inkscape:connector-curvature="0" fill="#6F71A5" d="M33.75,35.2c-0.2-1.1-0.65-1.7-1.65-2
	c-0.05,0-0.1-0.05-0.15-0.05l-0.3-0.1c-0.35-0.15-3.65-1.3-4.75-1.7c-1.45,1.05-2.1,1.4-3.1,1.4s-1.65-0.65-3.1-1.5l-1.6,0.6l0,0
	l-0.15,0.05l-2.25,0.8c-0.4,0.1-0.75,0.25-1.1,0.45c-0.75,0.5-1.35,1.2-1.6,2.1c0,0-0.25,1.65-0.25,1.7c0,0.25-0.05,2.7-0.05,3
	c3.9,2.65,7,3.35,12.35,3.15C28.5,43,32.1,41.8,34,40.8C33.9,38.7,33.75,35.2,33.75,35.2z"/>
<path id="path26" inkscape:connector-curvature="0" fill="#FDFCEF" d="M27.25,36.55c-0.35-0.45-0.65-1-1-1.45
	c-0.1-0.1-0.1-0.25,0-0.35c0.2-0.2,0.5-0.4,0.75-0.45c0.3-0.15,0.6-0.3,0.95-0.4c-0.2-0.85-0.6-1.6-1.1-2.3
	c-0.05-0.05-0.05-0.2,0-0.25c-1.45,1-2.1,1.4-3.1,1.4s-1.6-0.6-2.9-1.4c-0.1,0.75-0.8,1.8-0.3,2.55c0.2,0.3,0.6,0.4,0.75,0.75
	c0.2,0.5-0.1,1.25-0.1,1.8c0,1,0.25,1.95,0.65,2.85c0,0.05,0,0.1,0,0.1c0.35,0.65,0.65,1.3,0.9,1.95c0.2,0.6,0.35,1.15,0.5,1.75
	c0.25,0,0.5,0,0.8,0c0.25-1.15,0.9-2.25,1.35-3.35C25.85,38.6,26.45,37.5,27.25,36.55z"/>
<g id="g30" opacity="0.52">
	<path id="path28" inkscape:connector-curvature="0" fill="#56599E" d="M17.15,42.05C17.05,42.05,17,42,17,41.9v-2
		c0-0.1,0.05-0.15,0.15-0.15s0.15,0.05,0.15,0.15v2C17.3,42,17.2,42.05,17.15,42.05z M30.3,42.4c-0.1,0-0.15-0.05-0.15-0.15v-2.3
		c0-0.1,0.05-0.15,0.15-0.15c0.1,0,0.15,0.05,0.15,0.15v2.3C30.45,42.3,30.4,42.4,30.3,42.4z"/>
</g>
<path id="path32" inkscape:connector-curvature="0" fill="#8889B9" d="M26.55,30.85c0,0,1.2,0.5,2.05,3.25l-2.05,0.75l1.3,1.5
	l-3.9,6.8C25.05,39.1,25.9,35,26.55,30.85z M20.9,30.85c0,0-1.2,0.5-2.05,3.25l2.05,0.75l-1.3,1.5l3.85,6.8
	C22.35,39.1,21.5,35,20.9,30.85z"/>
<path id="path34" inkscape:connector-curvature="0" fill="#A3754F" d="M29.95,21.9h-0.2c-0.5,0-0.6,0.15-0.6-0.15
	c0.05-0.55-0.05-2.7-0.05-2.8c0-2.25-2.35-4.05-5.25-4.15h-0.1c-2.9,0.1-5.25,1.9-5.25,4.15c0,0.1-0.1,2.25-0.05,2.8
	c0,0.3-0.1,0.1-0.6,0.15h-0.2c-0.5,0-0.9,0.35-1.05,0.8c0.05,0.05,0.3,1.85,0.7,2.6c0.2,0.4,0.55,0.45,0.9,0.7
	c0.15,0.1,0.25,0.3,0.3,0.5c0.25,0.8,0.7,1.5,1.35,2.05c0.3,0.3,2.25,2.35,3.9,2.25c1.65-0.1,3.65-2,3.95-2.25
	c0.65-0.55,1.1-1.25,1.35-2.05c0.05-0.2,0.15-0.35,0.3-0.5c0.35-0.25,0.7-0.3,0.9-0.7c0.4-0.7,0.65-2.55,0.7-2.6
	C30.9,22.25,30.45,21.9,29.95,21.9z"/>
<path id="path36" inkscape:connector-curvature="0" fill="#472B29" d="M23.75,31c-1.05,0-2.35-0.75-3.85-2.25l-0.1-0.1
	c-0.65-0.55-1.15-1.3-1.4-2.1c-0.05-0.2-0.1-0.3-0.25-0.4c-0.1-0.05-0.2-0.15-0.3-0.2c-0.25-0.15-0.45-0.25-0.65-0.6
	c-0.3-0.5-0.5-1.55-0.6-2.15c-0.05-0.15-0.05-0.35-0.1-0.4l0,0l0.05-0.15c0.15-0.55,0.65-0.9,1.2-0.9h0.2c0.2,0,0.3,0,0.4,0.05
	c-0.05-0.45,0-1.9,0.05-2.5c0-0.15,0-0.25,0-0.25c0-2.3,2.35-4.2,5.4-4.3h0.1c3.05,0.1,5.4,2,5.4,4.35c0,0,0,0.1,0,0.25
	c0,0.6,0.05,2.05,0.05,2.55l0,0c0.1,0,0.25-0.05,0.4-0.05h0.2c0.55,0,1.05,0.4,1.2,0.9l0.05,0.15l-0.05,0.05
	c0,0.1-0.05,0.25-0.1,0.4c-0.1,0.6-0.3,1.6-0.6,2.15c-0.2,0.3-0.4,0.45-0.65,0.6c-0.1,0.05-0.2,0.1-0.3,0.2
	c-0.1,0.1-0.2,0.25-0.2,0.4c-0.25,0.85-0.75,1.6-1.4,2.15l-0.05,0.05c-1.95,1.75-3.2,2.2-3.95,2.25C23.85,31,23.8,31,23.75,31z
	 M16.9,22.7c0,0.1,0.05,0.2,0.1,0.5c0.1,0.6,0.3,1.55,0.55,2.05c0.15,0.25,0.3,0.3,0.5,0.45c0.1,0.05,0.25,0.15,0.35,0.2
	c0.2,0.15,0.3,0.35,0.35,0.6c0.25,0.75,0.7,1.4,1.3,1.95l0.1,0.1c1.85,1.85,3.05,2.2,3.7,2.15c0.7-0.05,1.9-0.45,3.75-2.15
	l0.05-0.05c0.6-0.5,1.05-1.2,1.3-1.95c0.05-0.2,0.15-0.45,0.35-0.6c0.15-0.1,0.25-0.15,0.35-0.2c0.2-0.1,0.4-0.2,0.5-0.45
	c0.25-0.45,0.45-1.45,0.55-2.05c0.05-0.25,0.1-0.4,0.1-0.5c-0.15-0.35-0.5-0.6-0.85-0.6h-0.2c-0.15,0-0.25,0-0.35,0.05
	c-0.1,0-0.25,0.05-0.35-0.05C29,22,29,21.85,29,21.75c0.05-0.4,0-1.95-0.05-2.5c0-0.15,0-0.25,0-0.25c0-2.15-2.25-3.85-5.05-4h-0.1
	c-2.85,0.1-5.05,1.85-5.05,4c0,0,0,0.1,0,0.25c0,0.55-0.05,2.1-0.05,2.5c0,0.1,0,0.2-0.1,0.3c-0.1,0.1-0.2,0.05-0.3,0.05
	c-0.1,0-0.2-0.05-0.35-0.05h-0.2C17.4,22.1,17.05,22.35,16.9,22.7z"/>
<path id="path38" inkscape:connector-curvature="0" fill="#512C2B" d="M23.9,25.45c0.35,0,0.65-0.15,0.9-0.4c0,0,0-0.05,0-0.1l0,0
	l0,0c0,0-0.05,0-0.1,0l0,0c-0.45,0.4-1.15,0.4-1.6,0h-0.05L23,25v0.05C23.25,25.3,23.55,25.45,23.9,25.45z M22.8,20.85l0.2-0.4
	c-0.95-0.2-1.9-0.2-2.85,0.1l0.25,0.4C21.2,20.65,22.05,20.65,22.8,20.85z M27.4,20.85l0.2-0.4c-0.95-0.2-1.9-0.2-2.85,0.1l0.25,0.4
	C25.8,20.65,26.6,20.65,27.4,20.85z M21.5,21.4c-0.2,0-0.4,0.15-0.5,0.35c0.05,0,0.05,0,0.1,0c0.2,0,0.35,0.15,0.35,0.35
	c0,0.2-0.15,0.35-0.35,0.35c-0.05,0-0.1,0-0.15-0.05c0.05,0.3,0.3,0.5,0.6,0.55c0.45-0.1,0.7-0.55,0.6-1
	C22,21.7,21.8,21.45,21.5,21.4z M26.3,21.4c-0.2,0-0.35,0.1-0.45,0.25c0.05,0,0.1,0,0.1,0c0.2,0,0.35,0.15,0.35,0.35
	s-0.15,0.35-0.35,0.35c-0.1,0-0.2-0.05-0.25-0.15c-0.1,0.35,0.15,0.7,0.5,0.75c0.35,0.1,0.7-0.15,0.75-0.5c0-0.1,0-0.2,0-0.3
	C26.95,21.85,26.7,21.45,26.3,21.4z M26.55,26.35c0,0,0-0.05,0-0.1l0,0l0,0c0,0-0.05,0-0.1,0l0,0c-0.75,0.5-1.65,0.75-2.55,0.7
	c-0.9,0.05-1.8-0.2-2.6-0.7c0,0,0,0-0.05,0H21.2c0,0,0,0.05,0,0.1l0,0C22.85,27.5,24.95,27.5,26.55,26.35z M18.95,20.15
	c0.25-1.1,0.6-2.15,1.15-3.1c-0.15-0.25-0.5-0.35-0.75-0.25c-0.7,1.3-1.1,2.75-1.05,4.2c0.05,0.7,0.15,1.35,0.35,2
	C18.8,22.05,18.75,21.1,18.95,20.15z M28.85,20.15c-0.25-1.1-0.6-2.15-1.15-3.1c0.15-0.25,0.5-0.35,0.75-0.25
	c0.7,1.3,1.05,2.75,1.05,4.2c-0.05,0.7-0.15,1.35-0.35,2C29,22.05,29.05,21.1,28.85,20.15z M24.6,29c0.05,0,0.05-0.05,0.05-0.1
	c0-0.05-0.05-0.1-0.05-0.1h-1.3c-0.05,0-0.05,0.05-0.05,0.1c0,0.05,0,0.1,0.05,0.1H24.6z"/>
<path id="path40" inkscape:connector-curvature="0" fill="#472B29" d="M24.4,43.4c-4.45,0-7.3-0.9-10.75-3.2
	c-0.1-0.05-0.1-0.15-0.1-0.25c0-0.05,0-0.25,0-0.55c0-1.1,0.05-3.35,0.3-4.2c0.2-0.95,0.8-1.8,1.7-2.25
	c0.35-0.2,0.75-0.35,1.15-0.45l3.55-1.3c0.25-0.05,0.45-0.2,0.5-0.4c0-0.15,0.05-0.6,0.05-1c-0.35-0.25-0.7-0.5-1.05-0.8
	c-0.65-0.6-1.15-1.35-1.4-2.2v-0.05c0-0.15-0.1-0.25-0.2-0.35c-0.1-0.05-0.2-0.15-0.3-0.2c-0.25-0.15-0.5-0.3-0.65-0.6
	c-0.4-0.85-0.65-1.8-0.75-2.7c0-0.05,0-0.05,0-0.1c0.15-0.6,0.7-0.95,1.3-1h0.2c0.15,0,0.25,0,0.35,0c0-0.6,0-1.9,0.05-2.45
	c0-0.15,0-0.25,0-0.25c0-2.4,2.4-4.35,5.5-4.45h0.1c3.1,0.1,5.5,2.05,5.5,4.45c0,0,0,0.1,0,0.25c0,0.6,0.05,1.9,0.05,2.45
	c0.1,0,0.2,0,0.35,0h0.2c0.6,0,1.1,0.4,1.3,1c0,0.05,0,0.05,0,0.1c-0.05,0.95-0.3,1.85-0.7,2.7c-0.2,0.35-0.45,0.5-0.7,0.65
	c-0.1,0.05-0.2,0.1-0.3,0.2c-0.1,0.1-0.15,0.2-0.2,0.35v0.05c-0.25,0.85-0.75,1.6-1.4,2.2c-0.35,0.3-0.75,0.6-1.1,0.9
	c0,0.3,0.05,0.65,0.15,0.95c0.05,0.15,0.25,0.3,0.45,0.35c0.15,0.05,3.75,1.4,4.35,1.65l0.45,0.2c1,0.3,1.55,0.95,1.8,2.2
	c0,0,0,0,0,0.05c0,0,0.15,3.45,0.25,5.6c0,0.1-0.05,0.2-0.15,0.25c-2,1-5.7,2.2-8.05,2.3C25.55,43.4,24.95,43.4,24.4,43.4z
	 M14.05,39.85c3.7,2.5,6.8,3.25,12.1,3c2.25-0.1,5.7-1.2,7.7-2.15c-0.1-2.05-0.25-5.15-0.25-5.4c-0.2-1.05-0.6-1.55-1.5-1.8
	l-0.5-0.2c-0.6-0.25-4.3-1.6-4.35-1.65c-0.35-0.1-0.6-0.35-0.75-0.7c-0.15-0.45-0.2-0.85-0.15-1.25c0-0.1,0.05-0.15,0.1-0.2
	c0.4-0.3,0.8-0.6,1.15-0.9c0.6-0.5,1-1.2,1.25-1.95C28.9,26.4,29,26.15,29.2,26c0.15-0.1,0.25-0.15,0.35-0.25
	c0.2-0.1,0.35-0.2,0.5-0.4c0.35-0.75,0.55-1.6,0.6-2.45c-0.1-0.35-0.45-0.55-0.8-0.6h-0.2c-0.15,0-0.25,0-0.35,0.05
	c-0.15,0-0.3,0.05-0.4-0.05c-0.1-0.1-0.1-0.3-0.1-0.35c0.05-0.4,0-1.95-0.05-2.55c0-0.15,0-0.25,0-0.25c0-2.1-2.2-3.85-5-3.95h-0.1
	c-2.8,0.1-5,1.85-5,3.95c0,0,0,0.1,0,0.25c0,0.6-0.05,2.1-0.05,2.55c0,0.1,0,0.25-0.1,0.35c-0.1,0.1-0.25,0.1-0.4,0.05
	c-0.1,0-0.2-0.05-0.35,0h-0.2c-0.35,0-0.7,0.25-0.8,0.6c0.1,0.85,0.3,1.7,0.7,2.5c0.1,0.2,0.25,0.3,0.45,0.4
	C18,25.9,18.15,26,18.25,26.1c0.2,0.15,0.35,0.4,0.4,0.7c0.25,0.75,0.65,1.4,1.25,1.95c0.35,0.3,0.75,0.6,1.1,0.85
	c0.05,0.05,0.1,0.1,0.1,0.2c0,0.45-0.05,1.05-0.1,1.25c-0.15,0.4-0.45,0.7-0.85,0.75l-3.5,1.3c-0.4,0.1-0.75,0.25-1.05,0.45
	c-0.75,0.4-1.3,1.1-1.45,1.9c-0.25,0.85-0.25,3.15-0.3,4.1C14.05,39.6,14.05,39.75,14.05,39.85z"/>
<path id="path42" inkscape:connector-curvature="0" fill="#895D3D" d="M30,24.35l-0.3-0.05l0.1-0.9l-0.5,0.2l-0.1-0.3l0.75-0.3
	c0.05,0,0.1,0,0.15,0c0.05,0,0.05,0.1,0.05,0.15L30,24.35z M17.9,24.2l-0.15-1.15c0-0.05,0-0.1,0.05-0.15c0.05-0.05,0.1-0.05,0.15,0
	l0.75,0.35l-0.1,0.25l-0.5-0.2l0.1,0.9H17.9z"/>
<path id="path44" inkscape:connector-curvature="0" fill="#472B29" d="M18.55,26.4L18.55,26.4c-0.05,0-0.1-0.05-0.1-0.1l0.1-4.3
	c0-0.05,0.05-0.1,0.1-0.1l0,0c0.05,0,0.1,0.05,0.1,0.1l-0.1,4.3C18.65,26.35,18.6,26.4,18.55,26.4z M29.25,26.4
	c-0.05,0-0.1-0.05-0.1-0.1l-0.1-4.3c0-0.05,0.05-0.1,0.1-0.1l0,0c0.05,0,0.1,0.05,0.1,0.1l0.1,4.3C29.35,26.35,29.3,26.4,29.25,26.4
	z"/>
<path id="path46" inkscape:connector-curvature="0" fill="#512C2B" d="M29.6,20.7c0.25-2.45-0.45-3.9-1-4.55
	c-1.35-1.1-3-1.7-4.75-1.7c-1.45,0-2.9,0.4-4.1,1.2c-0.95,1-2.1,2.85-1.55,5.05c0.1,1.1,0.25,2.2,0.5,3.25c0.1-1,0.1-3.2,0.3-4.15
	c0.15-0.7,0.35-1.4,0.65-2.05c1.35-1.55,7.05-1.45,8.5,0c0.25,0.65,0.5,1.35,0.65,2.05c0.2,0.95,0.2,3.15,0.4,4.1
	C29.35,22.85,29.5,21.8,29.6,20.7z"/>
<path id="path48" inkscape:connector-curvature="0" fill="#F1BC19" d="M23.25,21.7c-1-1.2-4.7-0.35-4.7-0.35
	c0.05,0.25,0.15,0.55,0.2,0.8c0.25,0,0.3,0.65,0.3,0.85c0.15,1.1,0.85,1.9,2.4,1.85c1.05,0,1.95-0.85,1.95-1.9l0,0
	C23.5,22.55,23.45,22.15,23.25,21.7z M23.1,23.05c0,0.9-0.75,1.6-1.6,1.6c0,0,0,0-0.05,0h-0.3c-1.55,0-1.8-1.35-1.85-2.2
	c0-0.5,0.35-0.9,0.8-0.95c0.3,0,0.6,0,0.95,0c1.15,0,1.65,0.25,1.75,0.5C23.05,22.35,23.1,22.7,23.1,23.05z M24.35,23
	c0,1.05,0.9,1.9,1.95,1.9l0,0c1.55,0.05,2.25-0.75,2.4-1.85c0-0.25,0.05-0.85,0.3-0.85c0.05-0.25,0.1-0.55,0.2-0.8
	c0,0-3.7-0.85-4.7,0.35C24.35,22.1,24.3,22.55,24.35,23z M24.9,22c0.15-0.2,0.65-0.5,1.75-0.5c0.35,0,0.7,0,0.95,0
	c0.5,0.05,0.85,0.5,0.8,1l0,0c-0.05,0.85-0.3,2.2-1.85,2.2h-0.3c-0.9,0-1.65-0.7-1.65-1.55c0,0,0,0,0-0.05
	C24.65,22.7,24.75,22.35,24.9,22z"/>
<path id="path50" inkscape:connector-curvature="0" fill="#F1BC19" d="M24.55,22.65c-0.2-0.15-0.45-0.2-0.7-0.2s-0.45,0.05-0.65,0.2
	L23,22.1h1.75L24.55,22.65z"/>
<g id="g56">
	<path id="path52" inkscape:connector-curvature="0" fill="#FDFCEE" d="M34.8,29c-3.98,0-7.2,3.22-7.2,7.2c0,3.98,3.22,7.2,7.2,7.2
		c3.98,0,7.2-3.22,7.2-7.2C42,32.22,38.78,29,34.8,29z"/>
	<path id="path54" inkscape:connector-curvature="0" fill="#472B29" d="M34.8,43.6c-4.1,0-7.4-3.3-7.4-7.4c0-4.1,3.3-7.4,7.4-7.4
		c4.1,0,7.4,3.3,7.4,7.4C42.2,40.3,38.9,43.6,34.8,43.6z M34.8,29.15c-3.9,0-7.05,3.15-7.05,7.05c0,3.9,3.15,7.05,7.05,7.05
		c3.9,0,7.05-3.15,7.05-7.05C41.85,32.3,38.7,29.15,34.8,29.15z"/>
</g>
<g id="g62">
	<path id="path58" inkscape:connector-curvature="0" fill="#F1BC19" d="M34.8,30.25c-3.29,0-5.95,2.66-5.95,5.95
		s2.66,5.95,5.95,5.95s5.95-2.66,5.95-5.95S38.09,30.25,34.8,30.25z"/>
	<path id="path60" inkscape:connector-curvature="0" fill="#472B29" d="M34.8,42.3c-3.35,0-6.1-2.75-6.1-6.1
		c0-3.35,2.75-6.1,6.1-6.1c3.35,0,6.1,2.75,6.1,6.1C40.9,39.55,38.15,42.3,34.8,42.3z M34.8,30.35c-3.2,0-5.85,2.6-5.85,5.85
		s2.6,5.85,5.85,5.85s5.85-2.6,5.85-5.85S38.05,30.35,34.8,30.35z"/>
</g>
<path id="path64" inkscape:connector-curvature="0" opacity="0.79" fill="#FBCD59" enable-background="new    " d="M34.8,31.1
	c2.55,0,4.85,1.6,5.75,4c-0.6-3.15-3.6-5.25-6.8-4.7c-2.4,0.45-4.25,2.3-4.7,4.7C29.95,32.7,32.25,31.1,34.8,31.1z"/>
<g id="g70">
	<path id="path66" inkscape:connector-curvature="0" fill="#6C6F96" d="M36.5,35.65v-1.5c-0.05-0.8-0.75-1.45-1.55-1.45
		c-0.85,0-1.55,0.6-1.6,1.45v1.45h0.55v-1.4c0.05-0.5,0.5-0.85,1-0.85s0.9,0.35,0.95,0.85v1.45H36.5z"/>
	<path id="path68" inkscape:connector-curvature="0" fill="#472B29" d="M36.5,35.75h-0.65c-0.05,0-0.1-0.05-0.1-0.1V34.2
		c-0.05-0.45-0.4-0.75-0.85-0.75l0,0c-0.45,0-0.85,0.35-0.9,0.8v1.4c0,0.05-0.05,0.1-0.1,0.1h-0.55c-0.05,0-0.1-0.05-0.1-0.1V34.2
		c0.1-0.9,0.8-1.55,1.7-1.55H35c0.85,0,1.55,0.65,1.65,1.5v1.5C36.6,35.7,36.55,35.75,36.5,35.75z M35.95,35.55h0.5v-1.4
		C36.4,33.4,35.75,32.8,35,32.8c0,0,0,0-0.05,0c-0.8,0-1.45,0.6-1.5,1.4v1.35h0.4V34.2c0.05-0.55,0.55-0.95,1.1-0.95l0,0
		c0.55,0,1,0.4,1.05,0.95L35.95,35.55z"/>
</g>
<path id="path72" inkscape:connector-curvature="0" fill="#472B29" d="M36.5,35.7c-0.05,0-0.05-0.05-0.05-0.05v-1.5
	c-0.05-0.75-0.7-1.4-1.5-1.4c0,0,0,0-0.05,0c-0.8,0-1.45,0.6-1.55,1.4v1.45c0,0.05-0.05,0.05-0.05,0.05l-0.05-0.05v-1.45
	c0.1-0.85,0.8-1.5,1.65-1.5h0.05c0.85,0,1.55,0.65,1.6,1.5v1.5C36.55,35.65,36.55,35.7,36.5,35.7z"/>
<g id="g78">
	<path id="path74" inkscape:connector-curvature="0" fill="#5A5B77" d="M32.75,35.15H37c0.3,0,0.5,0.2,0.5,0.5v1.4
		c0,1.1-0.9,2.05-2,2.05l0,0h-1.2c-1.1,0-2.05-0.9-2.05-2l0,0v-1.4C32.25,35.4,32.45,35.15,32.75,35.15z"/>
	<path id="path76" inkscape:connector-curvature="0" fill="#472B29" d="M35.5,39.25h-1.2c-1.2,0-2.15-0.95-2.15-2.15v-1.4
		c0-0.15,0.05-0.3,0.2-0.45c0.1-0.1,0.25-0.2,0.45-0.2H37c0.35,0,0.65,0.3,0.65,0.65v1.4C37.65,38.25,36.65,39.25,35.5,39.25z
		 M32.75,35.3c-0.1,0-0.2,0.05-0.25,0.1c-0.05,0.05-0.1,0.15-0.1,0.25v1.4c0,1.05,0.85,1.9,1.9,1.9h1.2c1.05,0,1.9-0.85,1.9-1.9
		v-1.4c0-0.2-0.15-0.4-0.4-0.4h-4.25V35.3z"/>
</g>
<path id="path80" inkscape:connector-curvature="0" fill="#F1BC19" d="M32.35,35.85h5.05v0.85h-5.05V35.85z"/>
<path id="path82" inkscape:connector-curvature="0" fill="#472B29" d="M37.5,36.8h-5.25c-0.05,0-0.05-0.05-0.05-0.05l0.05-0.05h5.25
	c0.05,0,0.05,0.05,0.05,0.05L37.5,36.8z M35.85,35.95h-3.6c-0.05,0-0.05-0.05-0.05-0.05l0.05-0.05h3.6c0.05,0,0.05,0.05,0.05,0.05
	S35.9,35.95,35.85,35.95z M36.9,35.95h-0.65c-0.05,0-0.05-0.05-0.05-0.05l0.05-0.05h0.65c0.05,0,0.05,0.05,0.05,0.05L36.9,35.95z
	 M37.45,35.95h-0.3c-0.05,0-0.05-0.05-0.05-0.05l0.05-0.05h0.3c0.05,0,0.05,0.05,0.05,0.05S37.5,35.95,37.45,35.95z"/>
<g id="g88">
	<path id="path84" inkscape:connector-curvature="0" fill="#6C6F96" d="M35.15,38.4L35,37.85c0-0.05-0.05-0.05,0-0.1
		c0.1-0.05,0.15-0.15,0.1-0.25c0-0.1-0.1-0.15-0.15-0.15c-0.15-0.05-0.25,0.05-0.3,0.15v0.05c0,0.1,0.05,0.15,0.1,0.2v0.05
		l-0.15,0.55L35.15,38.4z"/>
	<path id="path86" inkscape:connector-curvature="0" fill="#472B29" d="M35.15,38.45h-0.6c0,0-0.05,0-0.05-0.05
		c0-0.05,0-0.05,0-0.05l0.15-0.55v-0.05c-0.05-0.05-0.1-0.15-0.1-0.25c0-0.05,0-0.05,0-0.1c0-0.1,0.05-0.15,0.15-0.2
		c0.05-0.05,0.15-0.05,0.25-0.05c0.1,0.05,0.2,0.1,0.2,0.2c0.05,0.1,0,0.25-0.1,0.3c0,0,0,0,0,0.05l0.15,0.55
		C35.25,38.4,35.2,38.45,35.15,38.45C35.2,38.45,35.2,38.45,35.15,38.45z M34.65,38.35h0.4L34.9,37.9l0,0c0-0.05,0-0.1,0.05-0.15
		s0.1-0.1,0.05-0.2c0-0.05-0.05-0.1-0.1-0.15c-0.05,0-0.1,0-0.15,0s-0.05,0.05-0.1,0.1v0.05c0,0.05,0.05,0.1,0.1,0.15l0.05,0.05
		v0.05l0,0L34.65,38.35z"/>
</g>
</svg>
