<?xml version="1.0" encoding="utf-8"?>
<!-- Generator: Adobe Illustrator 16.0.0, SVG Export Plug-In . SVG Version: 6.00 Build 0)  -->
<!DOCTYPE svg PUBLIC "-//W3C//DTD SVG 1.1//EN" "http://www.w3.org/Graphics/SVG/1.1/DTD/svg11.dtd">
<svg version="1.1"
	 id="svg102" xmlns:dc="http://purl.org/dc/elements/1.1/" xmlns:cc="http://creativecommons.org/ns#" xmlns:rdf="http://www.w3.org/1999/02/22-rdf-syntax-ns#" xmlns:svg="http://www.w3.org/2000/svg" xmlns:sodipodi="http://sodipodi.sourceforge.net/DTD/sodipodi-0.dtd" xmlns:inkscape="http://www.inkscape.org/namespaces/inkscape" inkscape:version="0.92.4 (5da689c313, 2019-01-14)" sodipodi:docname="lock-female-user.svg"
	 xmlns="http://www.w3.org/2000/svg" xmlns:xlink="http://www.w3.org/1999/xlink" x="0px" y="0px" width="50px" height="50px"
	 viewBox="0 0 50 50" enable-background="new 0 0 50 50" xml:space="preserve">
<sodipodi:namedview  inkscape:cy="25" inkscape:cx="25" inkscape:zoom="4.72" showgrid="false" guidetolerance="10" gridtolerance="10" objecttolerance="10" bordercolor="#666666" pagecolor="#ffffff" borderopacity="1" id="namedview104" inkscape:current-layer="svg102" inkscape:window-maximized="1" inkscape:window-y="-8" inkscape:window-x="-8" inkscape:window-height="705" inkscape:window-width="1366" inkscape:pageshadow="2" inkscape:pageopacity="0">
	</sodipodi:namedview>
<g id="g1007" transform="matrix(4.52,0,0,4.52,-1.356,-3.842)">
	<path id="path6" inkscape:connector-curvature="0" opacity="0.309" fill="#E4E4F9" enable-background="new    " d="M5.76,2.1
		c-2.26,0-4.09,1.83-4.09,4.09c0,2.26,1.83,4.09,4.09,4.09c2.26,0,4.09-1.83,4.09-4.09C9.86,3.93,8.03,2.1,5.76,2.1z"/>
	<g id="g997">
		<path id="path4-3" inkscape:connector-curvature="0" fill="#88CDD7" d="M8.75,1.99c-0.06,0-0.11,0.05-0.11,0.11
			c0,0.06,0.05,0.11,0.11,0.11c0.06,0,0.11-0.05,0.11-0.11C8.86,2.04,8.81,1.99,8.75,1.99z"/>
		<path id="path8-6" inkscape:connector-curvature="0" fill="#88CDD7" d="M9.42,1.88c-0.24,0-0.44,0.2-0.44,0.44
			c0,0.24,0.2,0.44,0.44,0.44c0.24,0,0.44-0.2,0.44-0.44C9.86,2.08,9.66,1.88,9.42,1.88z"/>
		<path id="path10" inkscape:connector-curvature="0" fill="#8889B9" d="M9.86,3.1c-0.12,0-0.22,0.1-0.22,0.22
			c0,0.12,0.1,0.22,0.22,0.22c0.12,0,0.22-0.1,0.22-0.22C10.08,3.2,9.98,3.1,9.86,3.1z"/>
		<path id="path12" inkscape:connector-curvature="0" fill="#88CDD7" d="M9.19,8.85c-0.12,0-0.22,0.1-0.22,0.22
			c0,0.12,0.1,0.22,0.22,0.22c0.12,0,0.22-0.1,0.22-0.22C9.42,8.95,9.32,8.85,9.19,8.85z M1.89,7.19c-0.24,0-0.44,0.2-0.44,0.44
			c0,0.24,0.2,0.44,0.44,0.44c0.24,0,0.44-0.2,0.44-0.44C2.34,7.39,2.14,7.19,1.89,7.19z"/>
		<path id="path14" inkscape:connector-curvature="0" fill="#8889B9" d="M3,10.06c-0.12,0-0.22,0.1-0.22,0.22
			c0,0.12,0.1,0.22,0.22,0.22c0.12,0,0.22-0.1,0.22-0.22C3.22,10.16,3.12,10.06,3,10.06z"/>
		<path id="path16" inkscape:connector-curvature="0" fill="#FFFFFF" d="M2.28,6.08C2.13,6.08,2,6.21,2,6.36s0.12,0.28,0.28,0.28
			c0.15,0,0.28-0.12,0.28-0.28S2.43,6.08,2.28,6.08z M9.03,4.2c-0.09,0-0.17,0.08-0.17,0.17c0,0.09,0.08,0.17,0.17,0.17
			c0.09,0,0.17-0.08,0.17-0.17C9.19,4.28,9.12,4.2,9.03,4.2z"/>
	</g>
</g>
<path id="path2" inkscape:connector-curvature="0" fill="none" d="M0,50V0h50v50H0z"/>
<path id="path4" inkscape:connector-curvature="0" fill="#FFFFFF" d="M9.9,27.45c-0.25,0-0.45,0.2-0.45,0.45
	c0,0.25,0.2,0.45,0.45,0.45s0.45-0.2,0.45-0.45C10.35,27.65,10.15,27.45,9.9,27.45z M39.45,15.15c-0.19,0-0.35,0.16-0.35,0.35
	s0.16,0.35,0.35,0.35c0.19,0,0.35-0.16,0.35-0.35S39.64,15.15,39.45,15.15z"/>
<path id="path22" inkscape:connector-curvature="0" fill="#512C2B" d="M32.1,31.85c0,0.05,0,0.1-0.05,0.15
	c-0.1,0.4-0.25,0.85-0.4,1.25c-0.2,0.55-0.45,1.1-0.85,1.6c-0.15,0.2-0.3,0.35-0.5,0.45c-0.4,0.25-0.9,0.4-1.4,0.4h-8.5
	c-0.5,0-1-0.1-1.45-0.4c-0.2-0.15-0.35-0.3-0.45-0.45c-0.35-0.5-0.65-1-0.85-1.6c-0.15-0.4-0.25-0.8-0.4-1.25l-0.05-0.15
	c-1.35-5.25-0.95-14.55,2.1-17.35c1.4-1.4,3.35-2.2,5.35-2.15c1.6-0.05,3.2,0.5,4.5,1.5c0.3,0.2,0.55,0.45,0.8,0.7
	c0.1,0.1,0.2,0.2,0.3,0.3C33.05,17.95,33.35,26.8,32.1,31.85z"/>
<path id="path24" inkscape:connector-curvature="0" fill="#F6CCA4" d="M30.75,20.7c0.05-0.75-0.15-1.4-0.1-1.8l0,0
	c-0.65-0.8-1.1-1.8-2-2.4c-1.05-0.65-2.2-1.1-3.4-1.4c-2.85-0.7-5.65,1.35-6.55,4.05c0,0,0,0.05-0.05,0.05c0.1,0.5,0.15,1,0.2,1.45
	c-0.75,0-1.15,0.4-0.9,1.2c0,0,0.3,1.3,0.5,1.95c0.05,0.35,0.4,0.6,0.75,0.6c0,0.4,0,0.85,0,1.25c0,0.5,0.15,1,0.45,1.4
	c0.75,1.1,4.6,3.6,5.55,3.5c1.5,0,4.5-2.55,5.3-3.85c0.15-0.25,0.2-0.55,0.25-0.85c0-0.5,0-1,0-1.5c0.3-0.05,0.55-0.3,0.65-0.6
	c0.2-0.65,0.5-1.95,0.5-1.95C32.1,21.1,31.55,20.65,30.75,20.7z"/>
<path id="path26" inkscape:connector-curvature="0" fill="#EDBC94" d="M33.05,33.45c-0.05,0-0.1-0.05-0.15-0.05l-0.3-0.1
	C32,33.05,28,31.65,28,31.65c-0.3-0.1-0.5-0.3-0.6-0.55c-0.1-0.5-0.15-0.95-0.1-1.45c-0.7,0.3-1.4,0.55-2.1,0.7
	c-0.95,0.1-2.6-1.15-2.6-1.15s-0.05,1.5-0.1,1.85c-0.1,0.3-0.35,0.5-0.65,0.55l-3.9,1.3c-0.4,0.1-0.75,0.25-1.1,0.45
	c-0.8,0.55-1.4,1.4-1.65,2.35l0,0c0,0.05,0,0.15-0.05,0.3c-0.05,0.2-0.05,0.45-0.05,0.65c0,0.25-0.05,3.8-0.05,4.05
	c5.55,3.15,8.5,2.9,13.1,2.35c2.3-0.25,5.05-1.8,6.85-2.75C34.75,35.7,35.2,34.15,33.05,33.45z"/>
<g id="g30" opacity="0.3">
	<path id="path28" inkscape:connector-curvature="0" opacity="0.8" fill="#F4989E" enable-background="new    " d="M21.35,24
		c-0.55,0-1,0.45-1,1c0,0.55,0.45,1,1,1s1-0.45,1-1C22.35,24.45,21.9,24,21.35,24z M28.95,24c-0.55,0-1,0.45-1,1c0,0.55,0.45,1,1,1
		s1-0.45,1-1C29.95,24.45,29.5,24,28.95,24z"/>
</g>
<path id="path32" inkscape:connector-curvature="0" fill="#472B29" d="M19.35,24.8c-0.05,0-0.1-0.05-0.1-0.1l-0.4-4.05
	c0-0.05,0.05-0.1,0.1-0.1c0.05,0,0.1,0.05,0.1,0.1l0.4,4.05C19.45,24.75,19.45,24.8,19.35,24.8z M30.6,24.6L30.6,24.6
	c-0.05,0-0.1-0.05-0.1-0.1l0.25-4.05c0-0.05,0.05-0.1,0.1-0.1c0.05,0,0.1,0.05,0.1,0.1L30.7,24.5C30.7,24.55,30.65,24.6,30.6,24.6z"
	/>
<path id="path34" inkscape:connector-curvature="0" fill="#6D1B18" d="M23.45,26.6c0,0.1-0.05,0.15-0.05,0.25
	c0,0.7,0.75,1.25,1.75,1.25c1,0,1.75-0.55,1.75-1.25c0-0.1,0-0.15-0.05-0.25H23.45z"/>
<path id="path36" inkscape:connector-curvature="0" fill="#EE3E54" d="M26.05,27.9c-0.25-0.2-0.6-0.35-0.9-0.3
	c-0.35-0.05-0.65,0.1-0.9,0.3C24.8,28.15,25.45,28.15,26.05,27.9z"/>
<path id="path38" inkscape:connector-curvature="0" fill="#FDFCEF" d="M23.9,26.6v0.25c0,0.2,0.25,0.35,0.55,0.35h1.3
	c0.3,0,0.55-0.15,0.55-0.35v-0.2l0,0h-2.4V26.6z"/>
<path id="path40" inkscape:connector-curvature="0" fill="#472B29" d="M25.15,28.2c-1,0-1.85-0.6-1.85-1.35c0-0.1,0-0.2,0.05-0.25
	c0-0.05,0.05-0.05,0.1-0.05h3.4c0.05,0,0.1,0.05,0.1,0.05c0,0.1,0.05,0.15,0.05,0.25C26.95,27.55,26.15,28.2,25.15,28.2z M23.5,26.7
	c0,0.05,0,0.1,0,0.15c0,0.65,0.75,1.15,1.65,1.15s1.65-0.5,1.65-1.15c0-0.05,0-0.1,0-0.15H23.5z"/>
<path id="path42" inkscape:connector-curvature="0" fill="#8889B9" d="M20.55,32.1l2.05,1l2.3,5.35l2.25-5.55l1.5-1.15l2.45,0.85
	l0.75,9.5c0,0-6.8,2.85-14.2,0l0.3-9.15L20.55,32.1z"/>
<path id="path44" inkscape:connector-curvature="0" fill="#FDFCEF" d="M19.8,33.1l2.45,0.9l-1,1.3l3.65,3.05l-2.55-7L19.8,33.1z
	 M30,33.1l-2.5-1.7l-2.6,6.95l3.65-3.05L27.6,34L30,33.1z"/>
<path id="path46" inkscape:connector-curvature="0" opacity="0.41" fill="#472B29" enable-background="new    " d="M25.15,25.6
	c0.3,0,0.6-0.15,0.75-0.4c0-0.05,0-0.05,0-0.1l0,0h-0.05l0,0c-0.3,0.35-0.8,0.45-1.2,0.15c-0.05-0.05-0.1-0.1-0.15-0.15h-0.05
	c0,0,0,0-0.05,0c0,0.05,0,0.05,0,0.1C24.55,25.45,24.85,25.6,25.15,25.6z M25.55,29C25.6,29,25.6,29,25.55,29c0.05-0.05,0-0.1,0-0.1
	h-0.9c0,0-0.05,0-0.05,0.05l0,0c0,0,0,0.05,0.05,0.05l0,0H25.55z"/>
<path id="path48" inkscape:connector-curvature="0" fill="#512C2B" d="M24.1,20.05c-1.2-0.35-2.45-0.5-3.7-0.4
	c-0.05,0-0.1,0.05-0.1,0.1s0.05,0.1,0.1,0.1c0,0,2.55,0.45,3.35,0.7h0.05c0.05,0,0.1,0,0.1-0.05l0.3-0.35c0-0.05,0-0.05,0-0.1
	C24.15,20.1,24.15,20.1,24.1,20.05z M26.1,19.95c1.2-0.3,2.5-0.35,3.75-0.2c0.05,0,0.1,0.05,0.1,0.1c0,0.05-0.05,0.1-0.1,0.1
	c0,0-2.55,0.3-3.35,0.55h-0.05c-0.05,0-0.05,0-0.1-0.05l-0.3-0.35c0-0.05,0-0.05,0-0.1C26.05,20,26.1,20,26.1,19.95z"/>
<path id="path50" inkscape:connector-curvature="0" fill="#472B29" d="M22.35,21.1c-0.25,0-0.5,0.15-0.6,0.4c0.05,0,0.05,0,0.1,0
	c0.25,0.05,0.4,0.25,0.35,0.45c0,0.2-0.15,0.35-0.35,0.35c-0.05,0-0.15,0-0.2-0.05c0.05,0.35,0.35,0.6,0.7,0.65
	c0.5-0.1,0.8-0.65,0.7-1.15C22.95,21.45,22.7,21.2,22.35,21.1z M27.85,21.1c-0.2,0-0.4,0.1-0.55,0.3c0.05,0,0.1-0.05,0.15-0.05
	c0.25,0,0.4,0.2,0.4,0.4c0,0.25-0.2,0.4-0.4,0.4c-0.15,0-0.25-0.05-0.3-0.2c0.1,0.4,0.5,0.65,0.9,0.55c0.4-0.1,0.65-0.5,0.55-0.9
	C28.45,21.35,28.2,21.1,27.85,21.1z M25.25,30.5c-0.95,0-2.5-0.85-2.6-0.85c-0.05-0.05-0.1-0.1-0.05-0.15
	c0.05-0.05,0.1-0.1,0.15-0.05c0,0,1.7,0.9,2.55,0.85c0.75-0.15,1.5-0.45,2.15-0.85c0.05-0.05,0.15,0,0.15,0.05
	c0.05,0.05,0,0.15-0.05,0.15c-0.7,0.4-1.45,0.7-2.25,0.85H25.25z"/>
<g id="g54" opacity="0.27">
	<path id="path52" inkscape:connector-curvature="0" opacity="0.8" fill="#F4989E" enable-background="new    " d="M23.4,23.45
		c-0.06,0-0.1,0.04-0.1,0.1c0,0.06,0.04,0.1,0.1,0.1s0.1-0.04,0.1-0.1C23.5,23.49,23.46,23.45,23.4,23.45z M23.55,24.3
		c-0.06,0-0.1,0.04-0.1,0.1s0.04,0.1,0.1,0.1c0.06,0,0.1-0.04,0.1-0.1S23.61,24.3,23.55,24.3z M24.3,23.8c-0.06,0-0.1,0.04-0.1,0.1
		s0.04,0.1,0.1,0.1c0.06,0,0.1-0.04,0.1-0.1S24.36,23.8,24.3,23.8z M25.9,23.7c-0.06,0-0.1,0.04-0.1,0.1c0,0.06,0.04,0.1,0.1,0.1
		c0.05,0,0.1-0.04,0.1-0.1C26,23.74,25.96,23.7,25.9,23.7z M26.35,24.4c-0.05,0-0.1,0.04-0.1,0.1s0.04,0.1,0.1,0.1
		c0.06,0,0.1-0.04,0.1-0.1S26.41,24.4,26.35,24.4z M26.85,23.65c-0.05,0-0.1,0.04-0.1,0.1s0.04,0.1,0.1,0.1c0.06,0,0.1-0.04,0.1-0.1
		S26.91,23.65,26.85,23.65z"/>
</g>
<path id="path56" inkscape:connector-curvature="0" fill="#472B29" d="M24.75,43.65c-3.4,0-6.85-0.9-9.85-2.75
	c-0.05-0.05-0.1-0.1-0.1-0.2c-0.1-4.25,0.55-6.75,2-7.5c0.35-0.2,0.75-0.35,1.1-0.45l3.85-1.3c0.25-0.05,0.4-0.2,0.45-0.4
	c0.05-0.2,0.1-1,0.15-1.4c-1.15-0.75-2.5-1.7-2.9-2.35c-0.35-0.45-0.5-1-0.45-1.55v-1c-0.35-0.1-0.65-0.4-0.75-0.75
	c-0.2-0.6-0.5-1.9-0.5-1.95c-0.2-0.55-0.05-0.9,0.1-1.1c0.1-0.15,0.35-0.35,0.8-0.4c0-0.1,0-0.15,0-0.25
	c-0.15-0.3-0.2-0.55-0.25-0.9c0-3.25,2.9-5.9,6.45-5.9s6.45,2.65,6.45,5.9c0,0.35-0.1,0.65-0.25,0.95l0,0c0,0.05,0,0.1,0,0.15
	c0.4,0.05,0.75,0.2,0.95,0.5c0.15,0.2,0.3,0.55,0.1,1.05l0,0c-0.05,0.3-0.35,1.5-0.5,1.95c-0.05,0.3-0.3,0.6-0.6,0.7V26
	c0,0.35-0.1,0.65-0.25,0.95c-0.9,1.2-1.95,2.2-3.2,3c0,0.4,0,0.75,0.1,1.15c0.05,0.15,0.25,0.3,0.45,0.35
	c0.2,0.05,4.05,1.4,4.7,1.65l0.3,0.1c0.05,0,0.1,0.05,0.15,0.05c1.9,0.6,1.95,3.05,2.05,6.45v0.65c0,0.1-0.05,0.15-0.1,0.2
	C32,42.65,28.4,43.65,24.75,43.65z M15.3,40.6c6,3.55,13.6,3.45,19.45-0.3v-0.5c-0.1-3.3-0.15-5.5-1.7-6c-0.05,0-0.15-0.05-0.2-0.1
	l-0.3-0.1c-0.65-0.25-4.6-1.6-4.65-1.65c-0.35-0.1-0.6-0.35-0.75-0.7C27,30.75,27,30.25,27,29.8c0-0.1,0.05-0.15,0.1-0.2
	c1.2-0.8,2.3-1.75,3.15-2.95c0.1-0.2,0.15-0.45,0.2-0.7v-1.5c0-0.15,0.1-0.25,0.2-0.25c0.2-0.05,0.4-0.2,0.4-0.4
	c0.2-0.65,0.5-1.9,0.5-1.95c0.1-0.3,0.1-0.5-0.05-0.65c-0.15-0.2-0.45-0.3-0.8-0.3c-0.05,0-0.15,0-0.2-0.05
	c-0.05-0.05-0.05-0.1-0.05-0.2c0-0.4,0-0.6,0.1-0.7c0.1-0.2,0.15-0.45,0.15-0.7c0-2.95-2.65-5.4-5.95-5.4s-5.95,2.4-5.95,5.4
	c0,0.25,0.1,0.5,0.2,0.7c0,0,0,0.05,0,0.1c0.05,0.2,0.05,0.35,0.05,0.55c0,0.05,0,0.15-0.05,0.2c-0.05,0.05-0.05,0.2-0.1,0.2
	c-0.2,0-0.5,0.05-0.65,0.2c-0.15,0.2-0.1,0.45,0,0.65c0,0.05,0.3,1.35,0.5,1.95c0.05,0.25,0.25,0.45,0.5,0.4c0.05,0,0.15,0,0.2,0.05
	c0.05,0.05,0.1,0.1,0.1,0.2v1.25c0,0.45,0.1,0.9,0.4,1.25c0.35,0.5,1.55,1.45,2.9,2.3c0.05,0.05,0.1,0.15,0.1,0.2
	c0,0.4-0.1,1.4-0.15,1.7c-0.15,0.4-0.45,0.7-0.8,0.75l-3.85,1.3c-0.35,0.1-0.7,0.25-1.05,0.45C16.2,34.15,15.2,35.65,15.3,40.6z"/>
<path id="path58" inkscape:connector-curvature="0" fill="#512C2B" d="M25.05,12.75c-5.45,0.1-6.95,4.85-7.2,5.8
	c0.15-0.15,0.3-0.3,0.45-0.45c-0.1,1.7,0.3,3.35,1.15,4.8c-0.05-1.1,0.1-2.2,0.45-3.25c0,0.5,0.1,1,0.25,1.5
	c-0.05-0.15,2.3-3.7,4.9-4.55c-0.15,0.25-0.3,0.55-0.45,0.85c-0.15,0.3-0.55,2-0.75,2.05c1.35-0.55,2.45-1.45,3.3-2.65
	c0.15-0.25,0.3-0.5,0.4-0.8h0.2c0,0.05,0.05,0.15,0.05,0.2c0.25,0.45,0.5,0.9,0.85,1.3c1.1,1.55,2.1,3.5,1.95,5.4
	c1.25-1.8,0.9-3.9,0.4-6C31,16.9,29.5,12.65,25.05,12.75z"/>
<g id="g64">
	<path id="path60" inkscape:connector-curvature="0" fill="#FDFCEE" d="M34.85,28.85c-3.98,0-7.2,3.22-7.2,7.2
		c0,3.98,3.22,7.2,7.2,7.2s7.2-3.22,7.2-7.2C42.05,32.07,38.83,28.85,34.85,28.85z"/>
	<path id="path62" inkscape:connector-curvature="0" fill="#472B29" d="M34.85,43.45c-4.1,0-7.4-3.3-7.4-7.4c0-4.1,3.3-7.4,7.4-7.4
		c4.1,0,7.4,3.3,7.4,7.4C42.25,40.1,38.9,43.45,34.85,43.45z M34.85,29c-3.9,0-7.05,3.15-7.05,7.05c0,3.9,3.15,7.05,7.05,7.05
		c3.9,0,7.05-3.15,7.05-7.05C41.9,32.15,38.7,29,34.85,29z"/>
</g>
<g id="g70">
	<path id="path66" inkscape:connector-curvature="0" fill="#F1BC19" d="M34.85,30.1c-3.29,0-5.95,2.66-5.95,5.95S31.56,42,34.85,42
		c3.29,0,5.95-2.66,5.95-5.95S38.14,30.1,34.85,30.1z"/>
	<path id="path68" inkscape:connector-curvature="0" fill="#472B29" d="M34.85,42.1c-3.35,0-6.1-2.75-6.1-6.1s2.75-6.1,6.1-6.1
		c3.35,0,6.1,2.75,6.1,6.1C40.9,39.4,38.2,42.1,34.85,42.1z M34.85,30.2c-3.2,0-5.85,2.6-5.85,5.85s2.6,5.85,5.85,5.85
		s5.85-2.6,5.85-5.85S38.05,30.2,34.85,30.2z"/>
</g>
<path id="path72" inkscape:connector-curvature="0" opacity="0.79" fill="#FBCD59" enable-background="new    " d="M34.85,30.95
	c2.55,0,4.85,1.6,5.75,4c-0.6-3.15-3.6-5.25-6.8-4.7c-2.4,0.45-4.3,2.3-4.7,4.7C30,32.55,32.3,30.95,34.85,30.95z"/>
<g id="g78">
	<path id="path74" inkscape:connector-curvature="0" fill="#6C6F96" d="M36.55,35.45V34c-0.05-0.8-0.75-1.45-1.55-1.45
		c-0.85,0-1.55,0.6-1.65,1.45v1.45h0.55v-1.4c0.05-0.5,0.5-0.85,1-0.85s0.9,0.35,0.95,0.85v1.45L36.55,35.45z"/>
	<path id="path76" inkscape:connector-curvature="0" fill="#472B29" d="M36.5,35.55h-0.65c-0.05,0-0.1-0.05-0.1-0.1V34
		c-0.05-0.45-0.45-0.75-0.85-0.75l0,0c-0.45,0-0.85,0.35-0.9,0.8v1.4c0,0.05-0.05,0.1-0.1,0.1h-0.55c-0.05,0-0.1-0.05-0.1-0.1V34
		c0.1-0.9,0.8-1.55,1.7-1.55c0,0,0,0,0.05,0c0.85,0,1.6,0.65,1.65,1.55v1.5C36.6,35.5,36.55,35.55,36.5,35.55z M35.95,35.4h0.5V34
		c-0.05-0.75-0.7-1.35-1.45-1.35c0,0,0,0-0.05,0c-0.8,0-1.45,0.6-1.5,1.35v1.35h0.4V34c0.05-0.55,0.55-0.95,1.1-0.95l0,0
		c0.55,0,1,0.4,1.05,0.95L35.95,35.4z"/>
</g>
<path id="path80" inkscape:connector-curvature="0" fill="#472B29" d="M36.5,35.55c-0.05,0-0.05-0.05-0.05-0.05V34
	c-0.05-0.8-0.7-1.4-1.5-1.4c0,0,0,0-0.05,0c-0.8,0-1.45,0.6-1.55,1.4v1.45c0,0.05-0.05,0.05-0.05,0.05l-0.05-0.05V34
	c0.1-0.85,0.8-1.5,1.65-1.5c0,0,0,0,0.05,0c0.85,0,1.55,0.65,1.6,1.5v1.45C36.6,35.5,36.55,35.55,36.5,35.55z"/>
<g id="g86">
	<path id="path82" inkscape:connector-curvature="0" fill="#5A5B77" d="M32.75,35H37c0.3,0,0.5,0.2,0.5,0.5v1.4c0,1.1-0.9,2-2,2.05
		h-1.2c-1.1,0-2.05-0.9-2.05-2l0,0V35.5C32.25,35.2,32.5,35,32.75,35z"/>
	<path id="path84" inkscape:connector-curvature="0" fill="#472B29" d="M34.3,39.05c-1.2,0-2.15-0.95-2.15-2.15v-1.4
		c0-0.35,0.3-0.65,0.65-0.65H37c0.35,0,0.65,0.3,0.65,0.65v1.4c0,1.15-0.95,2.15-2.1,2.15H34.3z M32.75,35.15
		c-0.2,0-0.4,0.15-0.4,0.4v1.4c0,1.05,0.85,1.9,1.9,1.9h1.25c1.05,0,1.9-0.85,1.9-1.9V35.5c0-0.2-0.15-0.4-0.4-0.4h-4.25V35.15z"/>
</g>
<path id="path88" inkscape:connector-curvature="0" fill="#F1BC19" d="M32.35,35.7h5.05v0.85h-5.05V35.7z"/>
<path id="path90" inkscape:connector-curvature="0" fill="#472B29" d="M37.5,36.6h-5.25c-0.05,0-0.05-0.05-0.05-0.05l0.05-0.05h5.25
	c0.05,0,0.05,0.05,0.05,0.05S37.55,36.6,37.5,36.6z M35.85,35.75h-3.6c-0.05,0-0.05-0.05-0.05-0.05l0.05-0.05h3.6
	c0.05,0,0.05,0.05,0.05,0.05S35.9,35.75,35.85,35.75z M36.9,35.75h-0.65c-0.05,0-0.05-0.05-0.05-0.05l0.05-0.05h0.65
	c0.05,0,0.05,0.05,0.05,0.05S36.95,35.75,36.9,35.75z M37.45,35.75h-0.3c-0.05,0-0.05-0.05-0.05-0.05l0.05-0.05h0.3
	c0.05,0,0.05,0.05,0.05,0.05S37.5,35.75,37.45,35.75z"/>
<g id="g96">
	<path id="path92" inkscape:connector-curvature="0" fill="#6C6F96" d="M35.15,38.25L35,37.7c0-0.05-0.05-0.05,0-0.1
		c0.1-0.05,0.15-0.15,0.1-0.25c0-0.15-0.15-0.25-0.3-0.2c-0.15,0-0.25,0.15-0.2,0.3c0,0.1,0.05,0.15,0.1,0.2c0.05,0,0,0.05,0,0.05
		l-0.15,0.55H35.15z"/>
	<path id="path94" inkscape:connector-curvature="0" fill="#472B29" d="M35.15,38.3H34.5c0,0-0.05,0-0.05-0.05s0-0.05,0-0.05
		l0.15-0.55l0,0c-0.05-0.05-0.1-0.15-0.1-0.25c0-0.15,0.1-0.3,0.25-0.35c0.2,0,0.35,0.1,0.35,0.25c0.05,0.1,0,0.25-0.1,0.3
		c0,0,0,0,0,0.05l0.15,0.55v0.05C35.2,38.3,35.2,38.3,35.15,38.3z M34.65,38.15h0.45l-0.15-0.45l0,0c0-0.05,0-0.1,0.05-0.15
		s0.1-0.15,0.1-0.2c0-0.1-0.1-0.2-0.2-0.15c-0.1,0-0.2,0.1-0.15,0.2c0,0.05,0.05,0.1,0.1,0.15h0.05c0,0.05,0,0.05,0,0.1l0,0l0,0
		L34.65,38.15z"/>
</g>
</svg>
