<?xml version="1.0" encoding="utf-8"?>
<!-- Generator: Adobe Illustrator 16.0.0, SVG Export Plug-In . SVG Version: 6.00 Build 0)  -->
<!DOCTYPE svg PUBLIC "-//W3C//DTD SVG 1.1//EN" "http://www.w3.org/Graphics/SVG/1.1/DTD/svg11.dtd">
<svg version="1.1"
	 id="svg46" xmlns:dc="http://purl.org/dc/elements/1.1/" xmlns:cc="http://creativecommons.org/ns#" xmlns:rdf="http://www.w3.org/1999/02/22-rdf-syntax-ns#" xmlns:svg="http://www.w3.org/2000/svg" xmlns:sodipodi="http://sodipodi.sourceforge.net/DTD/sodipodi-0.dtd" xmlns:inkscape="http://www.inkscape.org/namespaces/inkscape" inkscape:version="0.92.4 (5da689c313, 2019-01-14)" sodipodi:docname="money-bag.svg"
	 xmlns="http://www.w3.org/2000/svg" xmlns:xlink="http://www.w3.org/1999/xlink" x="0px" y="0px" width="50px" height="50px"
	 viewBox="0 0 50 50" enable-background="new 0 0 50 50" xml:space="preserve">
<sodipodi:namedview  inkscape:cy="25" inkscape:cx="25" inkscape:zoom="4.72" showgrid="false" guidetolerance="10" gridtolerance="10" objecttolerance="10" bordercolor="#666666" pagecolor="#ffffff" borderopacity="1" id="namedview48" inkscape:current-layer="svg46" inkscape:window-maximized="1" inkscape:window-y="-8" inkscape:window-x="-8" inkscape:window-height="705" inkscape:window-width="1366" inkscape:pageshadow="2" inkscape:pageopacity="0">
	</sodipodi:namedview>
<g id="g1007" transform="scale(4.52)">
	<path id="path6" inkscape:connector-curvature="0" opacity="0.309" fill="#E4E4F9" enable-background="new    " d="M5.53,1.44
		c-2.26,0-4.09,1.83-4.09,4.09s1.83,4.09,4.09,4.09c2.26,0,4.09-1.83,4.09-4.09S7.79,1.44,5.53,1.44z"/>
	<g id="g997">
		<path id="path4" inkscape:connector-curvature="0" fill="#88CDD7" d="M8.52,1.33c-0.06,0-0.11,0.05-0.11,0.11
			c0,0.06,0.05,0.11,0.11,0.11S8.63,1.5,8.63,1.44C8.63,1.38,8.58,1.33,8.52,1.33z"/>
		<path id="path8-0" inkscape:connector-curvature="0" fill="#88CDD7" d="M9.18,1.22c-0.24,0-0.44,0.2-0.44,0.44S8.94,2.1,9.18,2.1
			s0.44-0.2,0.44-0.44S9.42,1.22,9.18,1.22z"/>
		<path id="path10" inkscape:connector-curvature="0" fill="#8889B9" d="M9.62,2.43c-0.12,0-0.22,0.1-0.22,0.22
			c0,0.12,0.1,0.22,0.22,0.22c0.12,0,0.22-0.1,0.22-0.22C9.85,2.53,9.75,2.43,9.62,2.43z"/>
		<path id="path12" inkscape:connector-curvature="0" fill="#88CDD7" d="M8.96,8.19c-0.12,0-0.22,0.1-0.22,0.22s0.1,0.22,0.22,0.22
			c0.12,0,0.22-0.1,0.22-0.22S9.08,8.19,8.96,8.19z M1.66,6.53c-0.24,0-0.44,0.2-0.44,0.44c0,0.24,0.2,0.44,0.44,0.44
			S2.1,7.21,2.1,6.97C2.1,6.73,1.9,6.53,1.66,6.53z"/>
		<path id="path14" inkscape:connector-curvature="0" fill="#8889B9" d="M2.77,9.4c-0.12,0-0.22,0.1-0.22,0.22
			c0,0.12,0.1,0.22,0.22,0.22s0.22-0.1,0.22-0.22C2.99,9.5,2.89,9.4,2.77,9.4z"/>
		<path id="path16" inkscape:connector-curvature="0" fill="#FFFFFF" d="M2.05,5.42c-0.15,0-0.28,0.12-0.28,0.28
			c0,0.15,0.12,0.28,0.28,0.28S2.32,5.85,2.32,5.7C2.32,5.54,2.2,5.42,2.05,5.42z M8.79,3.54c-0.09,0-0.17,0.08-0.17,0.17
			c0,0.09,0.08,0.17,0.17,0.17S8.96,3.8,8.96,3.71C8.96,3.62,8.88,3.54,8.79,3.54z"/>
	</g>
</g>
<path id="path2" inkscape:connector-curvature="0" fill="none" d="M0,50V0h50v50H0z"/>
<path id="path24" inkscape:connector-curvature="0" fill="#00A698" d="M25.17,37.3c-6.32,0-11.32,0-11.32-5.89
	c0-4.8,3.78-10.68,8.25-12.84l0.34-0.16l-2.92-5.02c-0.24-0.83-0.14-1.62,0.28-2.19c0.32-0.44,0.79-0.68,1.32-0.68
	c0.72,0,1.48,0.46,2.15,1.28c0.62,0.77,1.28,1.12,2.09,1.12c0.49,0,1.06-0.13,1.78-0.42c0.66-0.26,1.25-0.39,1.77-0.39
	c0.67,0,1.18,0.23,1.45,0.64c0.26,0.39,0.28,0.9,0.06,1.42l-2.52,4.24l0.34,0.17c4.47,2.16,8.25,8.04,8.25,12.84
	C36.48,37.3,31.49,37.3,25.17,37.3z"/>
<path id="path26" inkscape:connector-curvature="0" fill="#472B29" d="M21.12,10.87c0.61,0,1.28,0.41,1.88,1.15
	c0.69,0.86,1.44,1.25,2.36,1.25c0.54,0,1.15-0.14,1.91-0.44c0.62-0.24,1.17-0.37,1.64-0.37c0.54,0,0.95,0.17,1.16,0.48
	c0.18,0.28,0.2,0.66,0.04,1.05l-2.32,3.91l-0.39,0.66l0.69,0.33c4.37,2.1,8.05,7.84,8.05,12.52c0,5.29-3.96,5.54-10.97,5.54
	c-7,0-10.97-0.26-10.97-5.54c0-4.68,3.69-10.42,8.05-12.52l0.68-0.33l-0.38-0.65l-2.71-4.66c-0.2-0.7-0.11-1.37,0.24-1.84
	C20.33,11.06,20.7,10.87,21.12,10.87 M21.12,10.17c-1.44,0-2.49,1.51-1.92,3.36l2.75,4.73c-4.6,2.22-8.45,8.18-8.45,13.15
	c0,6.24,5.25,6.24,11.67,6.24s11.67,0,11.67-6.24c0-4.97-3.85-10.93-8.45-13.15l2.35-3.95c0.52-1.22-0.1-2.54-1.83-2.54
	c-0.53,0-1.16,0.13-1.9,0.42c-0.64,0.25-1.18,0.4-1.65,0.4c-0.69,0-1.26-0.3-1.81-0.99C22.74,10.58,21.87,10.17,21.12,10.17z"/>
<path id="path28" inkscape:connector-curvature="0" fill="#FFFFFF" d="M26.22,29.94c0-0.34-0.07-0.61-0.27-0.75
	c-0.2-0.2-0.47-0.34-0.95-0.54c-0.41-0.14-0.81-0.34-1.15-0.47c-0.34-0.14-0.61-0.34-0.81-0.54s-0.41-0.47-0.54-0.75
	s-0.2-0.61-0.2-1.02c0-0.68,0.2-1.22,0.61-1.63c0.41-0.41,1.02-0.68,1.69-0.75v-1.29h0.95v1.29c0.68,0.07,1.22,0.41,1.63,0.88
	c0.41,0.47,0.61,1.08,0.61,1.9h-1.69c0-0.47-0.07-0.81-0.27-1.08s-0.47-0.34-0.81-0.34c-0.34,0-0.61,0.07-0.74,0.27
	c-0.2,0.2-0.27,0.41-0.27,0.75c0,0.27,0.07,0.54,0.27,0.74c0.2,0.2,0.47,0.34,0.95,0.54c0.47,0.2,0.88,0.34,1.15,0.54
	c0.34,0.14,0.54,0.34,0.75,0.54c0.2,0.2,0.34,0.47,0.47,0.74c0.14,0.27,0.14,0.61,0.14,0.95c0,0.68-0.2,1.22-0.61,1.63
	s-1.02,0.68-1.76,0.74v1.22H24.4v-1.15c-0.81-0.07-1.42-0.41-1.9-0.88s-0.68-1.15-0.68-1.96h1.69c0,0.47,0.14,0.81,0.34,1.08
	c0.2,0.27,0.54,0.41,0.95,0.41c0.34,0,0.61-0.07,0.81-0.27C26.09,30.55,26.22,30.28,26.22,29.94z"/>
<path id="path30" inkscape:connector-curvature="0" fill="#472B29" d="M19.44,27.91c-0.01,0-0.03,0-0.04,0
	c-0.19-0.02-0.33-0.2-0.3-0.39c0.51-4.05,1.31-6.93,2.6-9.34l0.18-0.34l0.32,0.22c2.91,1.98,5.86,0.08,5.89,0.06
	c0.16-0.11,0.38-0.06,0.48,0.1c0.11,0.16,0.06,0.38-0.1,0.48c-0.03,0.02-3.15,2.03-6.33,0.14c-1.16,2.29-1.87,4.94-2.35,8.77
	C19.77,27.78,19.62,27.91,19.44,27.91z"/>
<path id="path32" inkscape:connector-curvature="0" fill="#472B29" d="M17.65,25.81c-0.03,0-0.07,0-0.1-0.02
	c-0.18-0.06-0.29-0.25-0.23-0.44c0.05-0.17,1.35-4.26,3.98-6.88c0.14-0.14,0.36-0.14,0.5,0c0.14,0.14,0.14,0.36,0,0.5
	c-2.5,2.5-3.79,6.56-3.8,6.6C17.94,25.72,17.8,25.81,17.65,25.81z M27.95,15.21c-0.04,0-0.08-0.01-0.12-0.03
	c-0.12-0.07-0.16-0.22-0.09-0.34l0.82-1.43c0.07-0.12,0.22-0.16,0.34-0.09c0.12,0.07,0.16,0.22,0.09,0.34l-0.82,1.43
	C28.12,15.17,28.04,15.21,27.95,15.21z M30.82,23.27c-0.07,0-0.14-0.03-0.19-0.09c-0.4-0.46-0.8-0.86-1.2-1.19
	c-0.11-0.09-0.12-0.24-0.04-0.35c0.09-0.11,0.25-0.12,0.35-0.04c0.42,0.34,0.85,0.77,1.26,1.25c0.09,0.1,0.08,0.26-0.03,0.35
	C30.94,23.25,30.88,23.27,30.82,23.27z M25.51,19.45c-0.04,0-0.08-0.01-0.12-0.03c-0.12-0.07-0.16-0.22-0.09-0.34l1.79-3.11
	c0.07-0.12,0.22-0.16,0.34-0.09c0.12,0.07,0.16,0.22,0.09,0.34l-1.79,3.11C25.69,19.4,25.6,19.45,25.51,19.45z"/>
<path id="path34" inkscape:connector-curvature="0" fill="#472B29" d="M28.62,21.26c-0.06,0-0.11-0.02-0.16-0.06
	c-1.42-1.17-2.69-1.73-2.71-1.74c-0.13-0.05-0.18-0.2-0.13-0.33c0.05-0.13,0.2-0.19,0.33-0.13c0.05,0.02,1.35,0.59,2.83,1.81
	c0.11,0.09,0.12,0.25,0.03,0.35C28.77,21.23,28.7,21.26,28.62,21.26z M32.56,35.35c-0.12,0-0.23-0.09-0.25-0.21
	c-0.02-0.14,0.07-0.26,0.21-0.29c1.43-0.23,1.88-1.22,2.09-1.94c0.28-0.95,0.16-2.39-0.35-4.18c-0.22-0.77-0.67-1.69-1.34-2.73
	c-0.08-0.12-0.04-0.27,0.07-0.35c0.12-0.07,0.27-0.04,0.35,0.07c0.7,1.08,1.17,2.05,1.41,2.87c0.54,1.9,0.66,3.41,0.35,4.46
	c-0.14,0.49-0.58,1.98-2.49,2.29C32.58,35.35,32.57,35.35,32.56,35.35z M32.44,25.14c-0.08,0-0.17-0.04-0.21-0.12
	c-0.19-0.3-0.37-0.51-0.77-0.95c-0.09-0.1-0.08-0.26,0.02-0.35c0.1-0.09,0.26-0.08,0.35,0.02c0.41,0.46,0.62,0.69,0.82,1.02
	c0.07,0.12,0.04,0.27-0.08,0.34C32.53,25.13,32.49,25.14,32.44,25.14z"/>
<g id="g38">
	<path id="path36" inkscape:connector-curvature="0" fill="#472B29" d="M17.6,16.87c0.95,0,2.29,0.65,3.08,1.21
		c-0.56,0.23-1.42,0.45-2.31,0.45c-0.72,0-1.29-0.16-1.51-0.42c-0.05-0.05-0.18-0.21-0.12-0.61C16.82,17.12,17,16.87,17.6,16.87
		 M17.6,16.17c-0.76,0-1.37,0.32-1.54,1.19c-0.22,1.39,0.96,1.86,2.32,1.86c1.41,0,3.01-0.51,3.45-1.05
		C21.29,17.46,19.13,16.17,17.6,16.17z"/>
</g>
</svg>
