<?xml version="1.0" encoding="UTF-8" standalone="no"?>
<!-- Generator: Adobe Illustrator 16.0.0, SVG Export Plug-In . SVG Version: 6.00 Build 0)  -->

<svg
   xmlns:dc="http://purl.org/dc/elements/1.1/"
   xmlns:cc="http://creativecommons.org/ns#"
   xmlns:rdf="http://www.w3.org/1999/02/22-rdf-syntax-ns#"
   xmlns:svg="http://www.w3.org/2000/svg"
   xmlns="http://www.w3.org/2000/svg"
   xmlns:sodipodi="http://sodipodi.sourceforge.net/DTD/sodipodi-0.dtd"
   xmlns:inkscape="http://www.inkscape.org/namespaces/inkscape"
   version="1.1"
   id="Layer_1"
   x="0px"
   y="0px"
   width="50px"
   height="50px"
   viewBox="0 0 50 50"
   enable-background="new 0 0 50 50"
   xml:space="preserve"
   sodipodi:docname="purchase.svg"
   inkscape:version="0.92.4 (5da689c313, 2019-01-14)"><metadata
   id="metadata75"><rdf:RDF><cc:Work
       rdf:about=""><dc:format>image/svg+xml</dc:format><dc:type
         rdf:resource="http://purl.org/dc/dcmitype/StillImage" /></cc:Work></rdf:RDF></metadata><defs
   id="defs73">
	
	

		
		
		
		
		
		
		
		
		
		
		
		
		
		
		
		
		
		
		
		
		
	</defs><sodipodi:namedview
   pagecolor="#ffffff"
   bordercolor="#666666"
   borderopacity="1"
   objecttolerance="10"
   gridtolerance="10"
   guidetolerance="10"
   inkscape:pageopacity="0"
   inkscape:pageshadow="2"
   inkscape:window-width="1366"
   inkscape:window-height="705"
   id="namedview71"
   showgrid="false"
   inkscape:zoom="4.72"
   inkscape:cx="25"
   inkscape:cy="25"
   inkscape:window-x="-8"
   inkscape:window-y="-8"
   inkscape:window-maximized="1"
   inkscape:current-layer="Layer_1" />
<g
   id="g1007"><path
     style="opacity:0.30899999;fill:#e4e4f9"
     inkscape:connector-curvature="0"
     id="path6-3"
     d="M 25,6.5 C 14.78,6.5 6.5,14.78 6.5,25 6.5,35.22 14.78,43.5 25,43.5 35.22,43.5 43.5,35.22 43.5,25 43.5,14.78 35.22,6.5 25,6.5 Z" /><g
     id="g997"><path
       d="M 38.5,6 C 38.22,6 38,6.22 38,6.5 38,6.78 38.22,7 38.5,7 38.78,7 39,6.78 39,6.5 39,6.22 38.78,6 38.5,6 Z"
       id="path4"
       inkscape:connector-curvature="0"
       style="fill:#88cdd7;fill-opacity:1" /><path
       d="m 41.5,5.5 c -1.1,0 -2,0.9 -2,2 0,1.1 0.9,2 2,2 1.1,0 2,-0.9 2,-2 0,-1.1 -0.9,-2 -2,-2 z"
       id="path8"
       inkscape:connector-curvature="0"
       style="fill:#88cdd7;fill-opacity:1" /><path
       d="m 43.5,11 c -0.55,0 -1,0.45 -1,1 0,0.55 0.45,1 1,1 0.55,0 1,-0.45 1,-1 0,-0.55 -0.45,-1 -1,-1 z"
       id="path10"
       inkscape:connector-curvature="0"
       style="fill:#8889b9" /><path
       d="m 40.5,37 c -0.55,0 -1,0.45 -1,1 0,0.55 0.45,1 1,1 0.55,0 1,-0.45 1,-1 0,-0.55 -0.45,-1 -1,-1 z m -33,-7.5 c -1.1,0 -2,0.9 -2,2 0,1.1 0.9,2 2,2 1.1,0 2,-0.9 2,-2 0,-1.1 -0.9,-2 -2,-2 z"
       id="path12"
       inkscape:connector-curvature="0"
       style="fill:#88cdd7;fill-opacity:1" /><path
       d="m 12.5,42.5 c -0.55,0 -1,0.45 -1,1 0,0.55 0.45,1 1,1 0.55,0 1,-0.45 1,-1 0,-0.55 -0.45,-1 -1,-1 z"
       id="path14"
       inkscape:connector-curvature="0"
       style="fill:#8889b9" /><path
       d="M 9.25,24.5 C 8.56,24.5 8,25.06 8,25.75 8,26.44 8.56,27 9.25,27 9.94,27 10.5,26.44 10.5,25.75 10.5,25.06 9.94,24.5 9.25,24.5 Z M 39.75,16 C 39.34,16 39,16.34 39,16.75 c 0,0.41 0.34,0.75 0.75,0.75 0.41,0 0.75,-0.34 0.75,-0.75 C 40.5,16.34 40.16,16 39.75,16 Z"
       id="path16"
       inkscape:connector-curvature="0"
       style="fill:#ffffff" /></g></g><path
   style="fill:none"
   inkscape:connector-curvature="0"
   id="path2"
   d="M 0,50 V 0 h 50 v 50 z" /><path
   d="M 17.85,36.65 V 14.5 c 0,-0.63 0.52,-1.15 1.15,-1.15 h 15.5 c 0.63,0 1.15,0.52 1.15,1.15 v 18.96 c 0,1.76 -1.43,3.19 -3.19,3.19 z"
   id="path18"
   inkscape:connector-curvature="0"
   style="fill:#fdfcee" /><path
   d="m 34.5,13.7 c 0.44,0 0.8,0.36 0.8,0.8 v 18.96 c 0,1.56 -1.27,2.84 -2.84,2.84 H 18.2 V 14.5 c 0,-0.44 0.36,-0.8 0.8,-0.8 h 15.5 m 0,-0.7 H 19 c -0.83,0 -1.5,0.67 -1.5,1.5 V 37 H 32.46 C 34.41,37 36,35.42 36,33.46 V 14.5 C 36,13.67 35.33,13 34.5,13 Z"
   id="path20"
   inkscape:connector-curvature="0"
   style="fill:#472b29" /><path
   d="m 16.06,36.65 c -1.77,0 -3.21,-1.44 -3.21,-3.21 V 33 c 0,-0.63 0.52,-1.15 1.15,-1.15 h 14.5 c 0.63,0 1.15,0.52 1.15,1.15 v 0.44 c 0,1.65 1.02,2.97 2.4,3.21 z"
   id="path22"
   inkscape:connector-curvature="0"
   style="fill:#fdfcee" /><path
   d="m 28.5,32.2 c 0.44,0 0.8,0.36 0.8,0.8 v 0.44 c 0,1.18 0.48,2.21 1.24,2.86 H 16.06 c -1.58,0 -2.86,-1.28 -2.86,-2.86 V 33 c 0,-0.44 0.36,-0.8 0.8,-0.8 h 14.5 m 0,-0.7 H 14 c -0.83,0 -1.5,0.67 -1.5,1.5 v 0.44 c 0,1.97 1.6,3.56 3.56,3.56 H 32.5 v -0.66 c -1.44,0 -2.5,-1.3 -2.5,-2.9 V 33 c 0,-0.83 -0.67,-1.5 -1.5,-1.5 z M 30.75,17 h -1.5 C 29.11,17 29,16.89 29,16.75 29,16.61 29.11,16.5 29.25,16.5 h 1.5 c 0.14,0 0.25,0.11 0.25,0.25 0,0.14 -0.11,0.25 -0.25,0.25 z m -3,0 h -4.5 C 23.11,17 23,16.89 23,16.75 23,16.61 23.11,16.5 23.25,16.5 h 4.5 c 0.14,0 0.25,0.11 0.25,0.25 0,0.14 -0.11,0.25 -0.25,0.25 z m -6,0 h -2 c -0.14,0 -0.25,-0.11 -0.25,-0.25 0,-0.14 0.11,-0.25 0.25,-0.25 h 2 C 21.89,16.5 22,16.61 22,16.75 22,16.89 21.89,17 21.75,17 Z M 34,20 H 23.25 C 23.11,20 23,19.89 23,19.75 23,19.61 23.11,19.5 23.25,19.5 H 34 c 0.14,0 0.25,0.11 0.25,0.25 0,0.14 -0.11,0.25 -0.25,0.25 z m -12.25,0 h -2 c -0.14,0 -0.25,-0.11 -0.25,-0.25 0,-0.14 0.11,-0.25 0.25,-0.25 h 2 c 0.14,0 0.25,0.11 0.25,0.25 0,0.14 -0.11,0.25 -0.25,0.25 z"
   id="path24"
   inkscape:connector-curvature="0"
   style="fill:#472b29" /><g
   id="g28">
			<path
   d="M 29.5,23 H 23.25 C 23.11,23 23,22.89 23,22.75 23,22.61 23.11,22.5 23.25,22.5 h 6.25 c 0.14,0 0.25,0.11 0.25,0.25 0,0.14 -0.11,0.25 -0.25,0.25 z"
   id="path26"
   inkscape:connector-curvature="0"
   style="fill:#472b29" />
		</g><g
   id="g32">
			<path
   d="m 21.75,23 h -2 c -0.14,0 -0.25,-0.11 -0.25,-0.25 0,-0.14 0.11,-0.25 0.25,-0.25 h 2 c 0.14,0 0.25,0.11 0.25,0.25 0,0.14 -0.11,0.25 -0.25,0.25 z"
   id="path30"
   inkscape:connector-curvature="0"
   style="fill:#472b29" />
		</g><g
   id="g36">
			<path
   d="M 34,26 H 23.25 C 23.11,26 23,25.89 23,25.75 23,25.61 23.11,25.5 23.25,25.5 H 34 c 0.14,0 0.25,0.11 0.25,0.25 0,0.14 -0.11,0.25 -0.25,0.25 z"
   id="path34"
   inkscape:connector-curvature="0"
   style="fill:#472b29" />
		</g><g
   id="g40">
			<path
   d="m 21.75,26 h -2 c -0.14,0 -0.25,-0.11 -0.25,-0.25 0,-0.14 0.11,-0.25 0.25,-0.25 h 2 c 0.14,0 0.25,0.11 0.25,0.25 0,0.14 -0.11,0.25 -0.25,0.25 z"
   id="path38"
   inkscape:connector-curvature="0"
   style="fill:#472b29" />
		</g><g
   id="g44">
			<path
   d="M 34,17 H 32.25 C 32.11,17 32,16.89 32,16.75 32,16.61 32.11,16.5 32.25,16.5 H 34 c 0.14,0 0.25,0.11 0.25,0.25 0,0.14 -0.11,0.25 -0.25,0.25 z"
   id="path42"
   inkscape:connector-curvature="0"
   style="fill:#472b29" />
		</g><g
   id="g48">
			<path
   d="m 30.75,29 h -1.5 C 29.11,29 29,28.89 29,28.75 29,28.61 29.11,28.5 29.25,28.5 h 1.5 c 0.14,0 0.25,0.11 0.25,0.25 0,0.14 -0.11,0.25 -0.25,0.25 z"
   id="path46"
   inkscape:connector-curvature="0"
   style="fill:#472b29" />
		</g><g
   id="g52">
			<path
   d="m 27.75,29 h -4.5 C 23.11,29 23,28.89 23,28.75 23,28.61 23.11,28.5 23.25,28.5 h 4.5 c 0.14,0 0.25,0.11 0.25,0.25 0,0.14 -0.11,0.25 -0.25,0.25 z"
   id="path50"
   inkscape:connector-curvature="0"
   style="fill:#472b29" />
		</g><g
   id="g56">
			<path
   d="m 21.75,29 h -2 c -0.14,0 -0.25,-0.11 -0.25,-0.25 0,-0.14 0.11,-0.25 0.25,-0.25 h 2 c 0.14,0 0.25,0.11 0.25,0.25 0,0.14 -0.11,0.25 -0.25,0.25 z"
   id="path54"
   inkscape:connector-curvature="0"
   style="fill:#472b29" />
		</g><g
   id="g60">
			<path
   d="M 34,29 H 32.25 C 32.11,29 32,28.89 32,28.75 32,28.61 32.11,28.5 32.25,28.5 H 34 c 0.14,0 0.25,0.11 0.25,0.25 0,0.14 -0.11,0.25 -0.25,0.25 z"
   id="path58"
   inkscape:connector-curvature="0"
   style="fill:#472b29" />
		</g><g
   id="g64">
			<path
   d="m 34,23 h -3 c -0.14,0 -0.25,-0.11 -0.25,-0.25 0,-0.14 0.11,-0.25 0.25,-0.25 h 3 c 0.14,0 0.25,0.11 0.25,0.25 0,0.14 -0.11,0.25 -0.25,0.25 z"
   id="path62"
   inkscape:connector-curvature="0"
   style="fill:#472b29" />
		</g>
</svg>