<?xml version="1.0" encoding="utf-8"?>
<!-- Generator: Adobe Illustrator 16.0.0, SVG Export Plug-In . SVG Version: 6.00 Build 0)  -->
<!DOCTYPE svg PUBLIC "-//W3C//DTD SVG 1.1//EN" "http://www.w3.org/Graphics/SVG/1.1/DTD/svg11.dtd">
<svg version="1.1"
	 id="svg80" xmlns:dc="http://purl.org/dc/elements/1.1/" xmlns:cc="http://creativecommons.org/ns#" xmlns:rdf="http://www.w3.org/1999/02/22-rdf-syntax-ns#" xmlns:svg="http://www.w3.org/2000/svg" xmlns:sodipodi="http://sodipodi.sourceforge.net/DTD/sodipodi-0.dtd" xmlns:inkscape="http://www.inkscape.org/namespaces/inkscape" inkscape:version="0.92.4 (5da689c313, 2019-01-14)" sodipodi:docname="refund.svg"
	 xmlns="http://www.w3.org/2000/svg" xmlns:xlink="http://www.w3.org/1999/xlink" x="0px" y="0px" width="50px" height="50px"
	 viewBox="0 0 50 50" enable-background="new 0 0 50 50" xml:space="preserve">
<sodipodi:namedview  inkscape:cy="20.661411" inkscape:cx="17.809305" inkscape:zoom="9.44" showgrid="false" guidetolerance="10" gridtolerance="10" objecttolerance="10" bordercolor="#666666" pagecolor="#ffffff" borderopacity="1" id="namedview82" inkscape:current-layer="svg80" inkscape:window-maximized="1" inkscape:window-y="-8" inkscape:window-x="-8" inkscape:window-height="705" inkscape:window-width="1366" inkscape:pageshadow="2" inkscape:pageopacity="0">
	</sodipodi:namedview>
<g id="g1007" transform="scale(4.52)">
	<path id="path6" inkscape:connector-curvature="0" opacity="0.309" fill="#E4E4F9" enable-background="new    " d="M5.53,1.44
		c-2.26,0-4.09,1.83-4.09,4.09s1.83,4.09,4.09,4.09c2.26,0,4.09-1.83,4.09-4.09S7.79,1.44,5.53,1.44z"/>
	<g id="g997">
		<path id="path4-9" inkscape:connector-curvature="0" fill="#88CDD7" d="M8.52,1.33c-0.06,0-0.11,0.05-0.11,0.11
			c0,0.06,0.05,0.11,0.11,0.11S8.63,1.5,8.63,1.44C8.63,1.38,8.58,1.33,8.52,1.33z"/>
		<path id="path8" inkscape:connector-curvature="0" fill="#88CDD7" d="M9.18,1.22c-0.24,0-0.44,0.2-0.44,0.44S8.94,2.1,9.18,2.1
			s0.44-0.2,0.44-0.44S9.42,1.22,9.18,1.22z"/>
		<path id="path10" inkscape:connector-curvature="0" fill="#8889B9" d="M9.62,2.43c-0.12,0-0.22,0.1-0.22,0.22
			c0,0.12,0.1,0.22,0.22,0.22c0.12,0,0.22-0.1,0.22-0.22C9.85,2.53,9.75,2.43,9.62,2.43z"/>
		<path id="path12" inkscape:connector-curvature="0" fill="#88CDD7" d="M8.96,8.19c-0.12,0-0.22,0.1-0.22,0.22s0.1,0.22,0.22,0.22
			c0.12,0,0.22-0.1,0.22-0.22S9.08,8.19,8.96,8.19z M1.66,6.53c-0.24,0-0.44,0.2-0.44,0.44c0,0.24,0.2,0.44,0.44,0.44
			S2.1,7.21,2.1,6.97C2.1,6.73,1.9,6.53,1.66,6.53z"/>
		<path id="path14" inkscape:connector-curvature="0" fill="#8889B9" d="M2.77,9.4c-0.12,0-0.22,0.1-0.22,0.22
			c0,0.12,0.1,0.22,0.22,0.22s0.22-0.1,0.22-0.22C2.99,9.5,2.89,9.4,2.77,9.4z"/>
		<path id="path16" inkscape:connector-curvature="0" fill="#FFFFFF" d="M2.05,5.42c-0.15,0-0.28,0.12-0.28,0.28
			c0,0.15,0.12,0.28,0.28,0.28S2.32,5.85,2.32,5.7C2.32,5.54,2.2,5.42,2.05,5.42z M8.79,3.54c-0.09,0-0.17,0.08-0.17,0.17
			c0,0.09,0.08,0.17,0.17,0.17S8.96,3.8,8.96,3.71C8.96,3.62,8.88,3.54,8.79,3.54z"/>
	</g>
</g>
<path id="path2" inkscape:connector-curvature="0" fill="none" d="M0,50V0h50v50H0z"/>
<path id="path24" inkscape:connector-curvature="0" fill="#FDDBBC" d="M24.94,35.87l8.46-4.26c0.94-0.43,1.52-1.66,1.16-2.67
	c-0.29-0.87-1.08-1.37-1.95-1.37c-0.29,0-0.51,0.07-0.79,0.14l-6.94,2.82"/>
<path id="path26" inkscape:connector-curvature="0" fill="#472B29" d="M24.94,36.21c-0.13,0-0.25-0.07-0.31-0.19
	c-0.09-0.17-0.02-0.38,0.16-0.47l8.46-4.26c0.82-0.38,1.28-1.43,0.98-2.24c-0.23-0.7-0.87-1.14-1.62-1.14
	c-0.19,0-0.35,0.04-0.56,0.1l-0.15,0.04L25,30.84c-0.18,0.07-0.38-0.01-0.46-0.19c-0.07-0.18,0.01-0.38,0.19-0.46l7.12-2.87
	c0.24-0.06,0.46-0.12,0.74-0.12c1.06,0,1.96,0.63,2.28,1.61c0.41,1.15-0.2,2.58-1.34,3.1l-8.44,4.26
	C25.05,36.2,25,36.21,24.94,36.21z"/>
<path id="path28" inkscape:connector-curvature="0" fill="#FDDBBC" d="M27.11,36.59l8.46-4.26c0.94-0.43,1.52-1.66,1.16-2.67
	c-0.29-0.87-1.08-1.37-1.95-1.37c-0.29,0-0.51,0.07-0.79,0.14l-6.94,2.82"/>
<path id="path30" inkscape:connector-curvature="0" fill="#472B29" d="M27.11,36.94c-0.13,0-0.25-0.07-0.31-0.19
	c-0.09-0.17-0.02-0.38,0.15-0.47l8.46-4.26c0.82-0.38,1.28-1.43,0.98-2.24c-0.23-0.7-0.87-1.14-1.62-1.14
	c-0.19,0-0.35,0.04-0.56,0.1l-0.15,0.04l-6.89,2.8c-0.18,0.07-0.38-0.01-0.46-0.19s0.01-0.38,0.19-0.46l7.12-2.87
	c0.23-0.06,0.46-0.12,0.74-0.12c1.06,0,1.96,0.63,2.28,1.61c0.41,1.15-0.2,2.58-1.34,3.1l-8.44,4.26
	C27.22,36.93,27.16,36.94,27.11,36.94z"/>
<path id="path32" inkscape:connector-curvature="0" fill="#FDDBBC" d="M11.86,26.69l3.9-1.45c0.72-0.29,1.45-0.36,2.17-0.36
	c1.01,0,2.02,0.22,2.89,0.72l6.87,3.61c0.87,0.43,1.16,1.52,0.72,2.39l-0.14,0.29l0.87,0.58l7.08-2.89
	c0.22-0.07,0.43-0.14,0.65-0.14c0.72,0,1.37,0.43,1.59,1.08c0.29,0.79-0.14,1.81-0.94,2.17l-8.46,4.26
	c-0.22,0.14-0.58,0.22-0.87,0.22s-0.58-0.07-0.87-0.22l-10.91-5.06l-4.55,1.81"/>
<path id="path34" inkscape:connector-curvature="0" fill="#472B29" d="M28.2,37.52c-0.34,0-0.69-0.08-1.02-0.25L16.4,32.27
	l-4.41,1.75c-0.18,0.07-0.38-0.02-0.45-0.2c-0.07-0.18,0.02-0.38,0.2-0.45l4.55-1.81c0.09-0.04,0.19-0.03,0.28,0.01l10.91,5.06
	c0.25,0.12,0.49,0.18,0.72,0.18c0.25,0,0.54-0.07,0.67-0.16l8.49-4.29c0.64-0.29,1-1.11,0.77-1.74c-0.17-0.51-0.69-0.85-1.26-0.85
	c-0.16,0-0.34,0.06-0.54,0.13l-7.06,2.88c-0.11,0.04-0.23,0.03-0.33-0.03l-0.87-0.58c-0.15-0.1-0.2-0.29-0.12-0.45l0.14-0.29
	c0.36-0.72,0.11-1.58-0.57-1.92l-6.87-3.62c-0.77-0.45-1.71-0.68-2.73-0.68c-0.83,0-1.46,0.1-2.04,0.34l-3.91,1.45
	c-0.18,0.07-0.38-0.03-0.45-0.21c-0.07-0.18,0.03-0.38,0.21-0.45l3.9-1.45c0.66-0.26,1.37-0.38,2.29-0.38c1.14,0,2.2,0.27,3.07,0.77
	l6.85,3.61c1.01,0.51,1.41,1.79,0.87,2.85l-0.01,0.01l0.46,0.3l6.91-2.82c0.26-0.09,0.51-0.17,0.78-0.17c0.89,0,1.66,0.53,1.92,1.32
	c0.35,0.97-0.16,2.16-1.13,2.6l-8.44,4.26C28.95,37.44,28.51,37.52,28.2,37.52L28.2,37.52z"/>
<g id="g40">
	<path id="path36" inkscape:connector-curvature="0" fill="#FDDBBC" d="M22.23,30.54c-0.4-0.2-1-0.5-1-0.5"/>
	<path id="path38" inkscape:connector-curvature="0" fill="#472B29" d="M22.23,30.79c-0.04,0-0.08-0.01-0.11-0.03
		c-0.39-0.2-1-0.5-1-0.5l0.22-0.45c0,0,0.61,0.3,1,0.5c0.12,0.06,0.17,0.21,0.11,0.34C22.41,30.74,22.32,30.79,22.23,30.79z"/>
</g>
<g id="g46">
	<path id="path42" inkscape:connector-curvature="0" fill="#FDDBBC" d="M28.25,31.75c-0.35,0.63-1.24,1.11-2.5,0.5
		c-0.54-0.26-1.65-0.82-2.57-1.28"/>
	<path id="path44" inkscape:connector-curvature="0" fill="#472B29" d="M26.85,32.78c-0.36,0-0.77-0.09-1.21-0.3
		c-0.54-0.26-1.66-0.82-2.57-1.28c-0.12-0.06-0.17-0.21-0.11-0.33c0.06-0.13,0.21-0.18,0.34-0.11c0.91,0.46,2.03,1.02,2.57,1.28
		c1.13,0.55,1.88,0.13,2.17-0.4c0.07-0.12,0.22-0.16,0.34-0.09c0.12,0.07,0.16,0.22,0.09,0.34C28.17,32.39,27.61,32.78,26.85,32.78z
		"/>
</g>
<g id="g74">
	<path id="path48" inkscape:connector-curvature="0" fill="#88AE45" d="M30.73,13.5H19.69l3.29,10.26c0.22,0.69,0.96,1.07,1.66,0.85
		l7.5-2.41c0.69-0.22,1.08-0.97,0.85-1.66L30.73,13.5z"/>
	<path id="path50" inkscape:connector-curvature="0" fill="#472B29" d="M24.23,24.92c-0.66,0-1.28-0.42-1.49-1.09l-3.29-10.26
		c-0.04-0.13,0.03-0.27,0.16-0.31c0.13-0.04,0.27,0.03,0.31,0.16l3.29,10.26c0.18,0.56,0.78,0.87,1.34,0.69l7.5-2.41
		c0.56-0.18,0.87-0.78,0.69-1.34c-0.04-0.13,0.03-0.27,0.16-0.31c0.13-0.04,0.27,0.03,0.31,0.16c0.26,0.82-0.19,1.71-1.01,1.97
		l-7.5,2.41C24.55,24.9,24.39,24.92,24.23,24.92z"/>
	<path id="path52" inkscape:connector-curvature="0" fill="#C0D078" d="M33.01,13.5H21.15l5.48,10.53c0.34,0.65,1.13,0.9,1.78,0.56
		l6.99-3.64c0.65-0.34,0.9-1.13,0.56-1.78L33.01,13.5z"/>
	<path id="path54" inkscape:connector-curvature="0" fill="#88AE45" d="M22.81,13.5l4.29,8.25c0.06-0.04,0.11-0.08,0.18-0.12
		c0.73-0.38,1.62-0.1,2,0.63c0.03,0.06,0.06,0.13,0.08,0.2l3.8-1.98c-0.04-0.06-0.08-0.11-0.12-0.18c-0.38-0.73-0.1-1.62,0.63-2
		c0.06-0.03,0.13-0.06,0.2-0.08l-2.46-4.72H22.81z"/>
	<circle id="circle56" fill="#C0D078" cx="29.75" cy="18.75" r="1"/>
	<path id="path58" inkscape:connector-curvature="0" fill="#472B29" d="M29.75,19.88c-0.11,0-0.23-0.02-0.34-0.05
		c-0.29-0.09-0.52-0.29-0.66-0.55s-0.17-0.57-0.07-0.86c0.09-0.29,0.29-0.52,0.55-0.66c0.27-0.14,0.57-0.17,0.86-0.07
		c0.29,0.09,0.52,0.29,0.66,0.55s0.17,0.57,0.08,0.86s-0.29,0.52-0.55,0.66l0,0C30.11,19.83,29.93,19.88,29.75,19.88z M29.75,17.88
		c-0.14,0-0.28,0.03-0.4,0.1c-0.21,0.11-0.36,0.29-0.43,0.51c-0.07,0.22-0.05,0.46,0.06,0.67s0.29,0.36,0.51,0.43
		c0.22,0.07,0.46,0.05,0.67-0.06l0,0c0.21-0.11,0.36-0.29,0.43-0.51c0.07-0.22,0.05-0.46-0.06-0.67c-0.11-0.21-0.29-0.36-0.51-0.43
		C29.93,17.89,29.84,17.88,29.75,17.88z"/>
	<path id="path60" inkscape:connector-curvature="0" fill="#472B29" d="M29.31,22.61c-0.02,0-0.03,0-0.05-0.01
		c-0.03-0.01-0.06-0.04-0.07-0.08c-0.03-0.08-0.04-0.13-0.07-0.18c-0.35-0.66-1.17-0.92-1.83-0.58c-0.05,0.03-0.1,0.06-0.14,0.09
		c-0.03,0.02-0.08,0.04-0.11,0.03c-0.04-0.01-0.08-0.03-0.09-0.06l-4.27-8.21c-0.03-0.06-0.01-0.14,0.05-0.17
		c0.06-0.03,0.14-0.01,0.17,0.05l4.21,8.08c0.02-0.02,0.05-0.03,0.07-0.04c0.79-0.41,1.76-0.1,2.17,0.68
		c0.01,0.03,0.03,0.05,0.04,0.08l3.55-1.85c-0.02-0.02-0.03-0.05-0.04-0.08c-0.41-0.79-0.1-1.76,0.68-2.17
		c0.03-0.01,0.05-0.03,0.08-0.04l-0.8-1.54c-0.03-0.06-0.01-0.14,0.05-0.17c0.06-0.03,0.14-0.01,0.17,0.05l0.87,1.67
		c0.02,0.03,0.02,0.07,0,0.1c-0.01,0.03-0.04,0.06-0.08,0.07c-0.07,0.03-0.13,0.04-0.18,0.07c-0.67,0.35-0.92,1.17-0.58,1.83
		c0.03,0.05,0.06,0.1,0.09,0.14c0.02,0.03,0.04,0.08,0.03,0.11c-0.01,0.04-0.02,0.08-0.06,0.09l-3.8,1.98
		C29.35,22.6,29.33,22.61,29.31,22.61L29.31,22.61z"/>
	<path id="path62" inkscape:connector-curvature="0" fill="#472B29" d="M27.8,24.99c-0.16,0-0.32-0.02-0.47-0.07
		c-0.4-0.13-0.73-0.4-0.92-0.77l-5.48-10.53c-0.06-0.12-0.02-0.27,0.11-0.34c0.12-0.06,0.27-0.02,0.34,0.11l5.48,10.53
		c0.13,0.25,0.35,0.44,0.63,0.53s0.56,0.06,0.81-0.07l6.99-3.64c0.25-0.13,0.44-0.35,0.53-0.63c0.09-0.27,0.06-0.56-0.07-0.81
		l-2.95-5.67c-0.06-0.12-0.02-0.27,0.11-0.34c0.12-0.06,0.27-0.02,0.34,0.11l2.95,5.67c0.19,0.37,0.23,0.8,0.1,1.2
		s-0.4,0.73-0.77,0.92l-6.99,3.64C28.3,24.93,28.05,24.99,27.8,24.99z"/>
	<path id="path64" inkscape:connector-curvature="0" fill="#C0D078" d="M25.13,13.5c-0.22,0.64-0.19,1.35,0.15,2
		c0.65,1.25,2.19,1.73,3.43,1.08c1.13-0.59,1.63-1.91,1.22-3.08H25.13z"/>
	<path id="path66" inkscape:connector-curvature="0" fill="#472B29" d="M26.53,16.83c-0.02,0-0.03,0-0.05-0.01
		c-0.58-0.24-1.07-0.68-1.36-1.24c-0.34-0.65-0.4-1.39-0.16-2.09c0.02-0.07,0.09-0.1,0.16-0.08c0.07,0.02,0.1,0.09,0.08,0.16
		c-0.21,0.63-0.16,1.3,0.15,1.9c0.26,0.51,0.7,0.91,1.23,1.12c0.06,0.03,0.09,0.1,0.07,0.16C26.62,16.8,26.57,16.83,26.53,16.83z"/>
	<path id="path68" inkscape:connector-curvature="0" fill="#472B29" d="M27.49,17.02c-0.02,0-0.04,0-0.05,0
		c-0.07,0-0.13-0.06-0.12-0.13c0-0.07,0.06-0.12,0.13-0.12c0.01,0,0.03,0,0.05,0c0.39,0,0.77-0.09,1.12-0.27
		c1.05-0.55,1.56-1.81,1.17-2.93c-0.02-0.07,0.01-0.14,0.08-0.16s0.14,0.01,0.16,0.08c0.42,1.24-0.13,2.63-1.29,3.23
		C28.34,16.91,27.92,17.02,27.49,17.02z"/>
	<g id="g72">
		<path id="path70" inkscape:connector-curvature="0" fill="#472B29" d="M32.27,15.39c-0.04,0-0.09-0.02-0.11-0.07l-0.91-1.75
			c-0.03-0.06-0.01-0.14,0.05-0.17c0.06-0.03,0.14-0.01,0.17,0.05l0.91,1.75c0.03,0.06,0.01,0.14-0.05,0.17
			C32.31,15.38,32.29,15.39,32.27,15.39z"/>
	</g>
</g>
</svg>
