<?xml version="1.0" encoding="utf-8"?>
<!-- Generator: Adobe Illustrator 16.0.0, SVG Export Plug-In . SVG Version: 6.00 Build 0)  -->
<!DOCTYPE svg PUBLIC "-//W3C//DTD SVG 1.1//EN" "http://www.w3.org/Graphics/SVG/1.1/DTD/svg11.dtd">
<svg version="1.1"
	 id="svg112" xmlns:dc="http://purl.org/dc/elements/1.1/" xmlns:cc="http://creativecommons.org/ns#" xmlns:rdf="http://www.w3.org/1999/02/22-rdf-syntax-ns#" xmlns:svg="http://www.w3.org/2000/svg" xmlns:sodipodi="http://sodipodi.sourceforge.net/DTD/sodipodi-0.dtd" xmlns:inkscape="http://www.inkscape.org/namespaces/inkscape" inkscape:version="0.92.4 (5da689c313, 2019-01-14)" sodipodi:docname="safe.svg"
	 xmlns="http://www.w3.org/2000/svg" xmlns:xlink="http://www.w3.org/1999/xlink" x="0px" y="0px" width="50px" height="50px"
	 viewBox="0 0 50 50" enable-background="new 0 0 50 50" xml:space="preserve">
<sodipodi:namedview  inkscape:cy="25" inkscape:cx="25" inkscape:zoom="4.72" showgrid="false" guidetolerance="10" gridtolerance="10" objecttolerance="10" bordercolor="#666666" pagecolor="#ffffff" borderopacity="1" id="namedview114" inkscape:current-layer="svg112" inkscape:window-maximized="1" inkscape:window-y="-8" inkscape:window-x="-8" inkscape:window-height="705" inkscape:window-width="1366" inkscape:pageshadow="2" inkscape:pageopacity="0">
	</sodipodi:namedview>
<g id="g1007" transform="matrix(4.52,0,0,4.52,-0.2825,2.16508)">
	<path id="path6" inkscape:connector-curvature="0" opacity="0.309" fill="#E4E4F9" enable-background="new    " d="M5.58,1.07
		c-2.26,0-4.09,1.83-4.09,4.09s1.83,4.09,4.09,4.09c2.26,0,4.09-1.83,4.09-4.09S7.84,1.07,5.58,1.07z"/>
	<g id="g997">
		<path id="path4" inkscape:connector-curvature="0" fill="#88CDD7" d="M8.57,0.95C8.5,0.95,8.46,1,8.46,1.07S8.5,1.18,8.57,1.18
			s0.11-0.05,0.11-0.11S8.63,0.95,8.57,0.95z"/>
		<path id="path8-7" inkscape:connector-curvature="0" fill="#88CDD7" d="M9.23,0.84c-0.24,0-0.44,0.2-0.44,0.44s0.2,0.44,0.44,0.44
			c0.24,0,0.44-0.2,0.44-0.44S9.47,0.84,9.23,0.84z"/>
		<path id="path10" inkscape:connector-curvature="0" fill="#8889B9" d="M9.67,2.06c-0.12,0-0.22,0.1-0.22,0.22S9.55,2.5,9.67,2.5
			s0.22-0.1,0.22-0.22S9.79,2.06,9.67,2.06z"/>
		<path id="path12" inkscape:connector-curvature="0" fill="#88CDD7" d="M9.01,7.81c-0.12,0-0.22,0.1-0.22,0.22
			c0,0.12,0.1,0.22,0.22,0.22c0.12,0,0.22-0.1,0.22-0.22C9.23,7.91,9.13,7.81,9.01,7.81z M1.71,6.15c-0.24,0-0.44,0.2-0.44,0.44
			c0,0.24,0.2,0.44,0.44,0.44s0.44-0.2,0.44-0.44C2.15,6.35,1.95,6.15,1.71,6.15z"/>
		<path id="path14" inkscape:connector-curvature="0" fill="#8889B9" d="M2.81,9.03c-0.12,0-0.22,0.1-0.22,0.22
			c0,0.12,0.1,0.22,0.22,0.22c0.12,0,0.22-0.1,0.22-0.22C3.04,9.13,2.94,9.03,2.81,9.03z"/>
		<path id="path16" inkscape:connector-curvature="0" fill="#FFFFFF" d="M2.1,5.05c-0.15,0-0.28,0.12-0.28,0.28
			c0,0.15,0.12,0.28,0.28,0.28c0.15,0,0.28-0.12,0.28-0.28C2.37,5.17,2.25,5.05,2.1,5.05z M8.84,3.17c-0.09,0-0.17,0.08-0.17,0.17
			S8.75,3.5,8.84,3.5c0.09,0,0.17-0.08,0.17-0.17S8.93,3.17,8.84,3.17z"/>
	</g>
</g>
<path id="path2" inkscape:connector-curvature="0" fill="none" d="M0,50V0h50v50H0z"/>
<path id="path24" inkscape:connector-curvature="0" fill="#FDFCEF" d="M23.64,32.54c-0.85-0.4-1.83-0.12-2.19,0.63
	c-0.04,0.09-0.08,0.19-0.1,0.29"/>
<path id="path26" inkscape:connector-curvature="0" fill="#472B29" d="M21.35,33.59c-0.01,0-0.02,0-0.03,0
	c-0.07-0.02-0.11-0.08-0.09-0.15c0.02-0.11,0.06-0.21,0.11-0.31c0.39-0.81,1.45-1.12,2.36-0.69c0.06,0.03,0.09,0.1,0.06,0.17
	c-0.03,0.06-0.1,0.09-0.17,0.06c-0.79-0.37-1.7-0.11-2.03,0.57c-0.04,0.08-0.07,0.17-0.09,0.26C21.45,33.55,21.4,33.59,21.35,33.59z
	"/>
<path id="path28" inkscape:connector-curvature="0" fill="#A2A2CC" d="M18.17,35.62h-2.1c-0.29,0-0.52-0.24-0.52-0.52l0,0
	c0-0.29,0.24-0.52,0.52-0.52h2.1c0.29,0,0.52,0.24,0.52,0.52l0,0C18.69,35.38,18.45,35.62,18.17,35.62z"/>
<path id="path30" inkscape:connector-curvature="0" fill="#472B29" d="M18.29,36h-2.08c-0.39,0-0.71-0.36-0.71-0.81
	c0-0.45,0.32-0.81,0.71-0.81h2.08c0.39,0,0.71,0.36,0.71,0.81S18.68,36,18.29,36z M16.21,34.81c-0.18,0-0.33,0.17-0.33,0.38
	s0.15,0.38,0.33,0.38h2.08c0.18,0,0.33-0.17,0.33-0.38s-0.15-0.38-0.33-0.38H16.21z"/>
<path id="path32" inkscape:connector-curvature="0" fill="#7782AC" d="M31.88,34.75h-16.3c-1.38,0-2.5-1.14-2.5-2.54V17.04
	c0-1.4,1.13-2.54,2.5-2.54h16.3c1.38,0,2.5,1.14,2.5,2.54V32.2C34.38,33.6,33.25,34.75,31.88,34.75z"/>
<path id="path34" inkscape:connector-curvature="0" fill="#472B29" d="M32.08,35H15.42c-1.61,0-2.92-1.3-2.92-2.91V16.91
	c0-1.6,1.31-2.91,2.92-2.91h16.67c1.61,0,2.92,1.3,2.92,2.91v15.19C35,33.7,33.69,35,32.08,35z M15.42,14.71
	c-1.21,0-2.2,0.98-2.2,2.19v15.19c0,1.21,0.99,2.19,2.2,2.19h16.67c1.21,0,2.2-0.98,2.2-2.19V16.91c0-1.21-0.99-2.19-2.2-2.19
	L15.42,14.71L15.42,14.71z"/>
<path id="path36" inkscape:connector-curvature="0" fill="#A2A2CC" d="M29,32.82h2.07c0.57,0,1.04-0.46,1.04-1.04v-6.91v-3.45v-3.45
	c0-0.57-0.46-1.04-1.04-1.04H17.94h-2.07v1.04v3.8v1.37v9.68h1.73h1.73h7.1H29L29,32.82z"/>
<path id="path38" inkscape:connector-curvature="0" fill="#472B29" d="M31.17,32.96h-2.11c-0.1,0-0.19-0.08-0.19-0.19
	s0.08-0.19,0.19-0.19h2.11c0.48,0,0.87-0.38,0.87-0.86V17.81c0-0.47-0.39-0.86-0.87-0.86H15.89v4.68c0,0.1-0.08,0.19-0.19,0.19
	s-0.19-0.08-0.19-0.19v-4.87c0-0.1,0.08-0.19,0.19-0.19h15.47c0.69,0,1.24,0.55,1.24,1.23v13.92
	C32.42,32.41,31.86,32.96,31.17,32.96z M28.01,32.96h-0.7c-0.1,0-0.19-0.08-0.19-0.19s0.08-0.19,0.19-0.19h0.7
	c0.1,0,0.19,0.08,0.19,0.19S28.11,32.96,28.01,32.96z M26.6,32.96H15.7c-0.1,0-0.19-0.08-0.19-0.19v-9.74c0-0.1,0.08-0.19,0.19-0.19
	s0.19,0.08,0.19,0.19v9.56H26.6c0.1,0,0.19,0.08,0.19,0.19S26.71,32.96,26.6,32.96z"/>
<path id="path40" inkscape:connector-curvature="0" fill="#4A5397" d="M14.71,18.86h0.99v2.79h-0.99V18.86z"/>
<path id="path42" inkscape:connector-curvature="0" fill="#472B29" d="M15.65,21.78h-0.97c-0.1,0-0.17-0.06-0.17-0.13v-2.79
	c0-0.07,0.08-0.13,0.17-0.13h0.97c0.1,0,0.17,0.06,0.17,0.13v2.79C15.82,21.72,15.75,21.78,15.65,21.78z M14.85,21.53h0.63v-2.54
	h-0.63V21.53z"/>
<g id="g46">
	<path id="path44" inkscape:connector-curvature="0" fill="#4A5397" d="M14.71,27.59h0.99v2.79h-0.99V27.59z"/>
</g>
<g id="g50">
	<path id="path48" inkscape:connector-curvature="0" fill="#472B29" d="M15.65,30.51h-0.97c-0.1,0-0.17-0.06-0.17-0.13v-2.79
		c0-0.07,0.08-0.13,0.17-0.13h0.97c0.1,0,0.17,0.06,0.17,0.13v2.79C15.82,30.45,15.75,30.51,15.65,30.51z M14.85,30.26h0.63v-2.54
		h-0.63V30.26z"/>
</g>
<g id="g54">
	<path id="path52" inkscape:connector-curvature="0" fill="#7782AC" d="M30.01,30.38c-0.39,0-0.7,0.31-0.7,0.7
		c0,0.39,0.31,0.7,0.7,0.7c0,0,0,0,0,0c0.39,0,0.7-0.31,0.7-0.7C30.71,30.69,30.4,30.38,30.01,30.38L30.01,30.38z"/>
</g>
<g id="g58">
	<path id="path56" inkscape:connector-curvature="0" fill="#472B29" d="M30.01,31.96c-0.49,0-0.88-0.4-0.88-0.89
		c0-0.49,0.4-0.89,0.88-0.89s0.89,0.4,0.89,0.89C30.9,31.57,30.5,31.96,30.01,31.96z M30.01,30.57c-0.28,0-0.51,0.23-0.51,0.51
		s0.23,0.51,0.51,0.51s0.51-0.23,0.51-0.51S30.29,30.57,30.01,30.57z"/>
</g>
<g id="g62">
	<path id="path60" inkscape:connector-curvature="0" fill="#7782AC" d="M17.79,17.81c-0.39,0-0.7,0.31-0.7,0.7
		c0,0.39,0.31,0.7,0.7,0.7c0,0,0,0,0,0c0.39,0,0.7-0.31,0.7-0.7C18.49,18.13,18.18,17.81,17.79,17.81
		C17.79,17.81,17.79,17.81,17.79,17.81z"/>
</g>
<g id="g66">
	<path id="path64" inkscape:connector-curvature="0" fill="#472B29" d="M17.79,19.4c-0.49,0-0.89-0.4-0.89-0.89
		c0-0.49,0.4-0.89,0.89-0.89s0.89,0.4,0.89,0.89C18.68,19,18.28,19.4,17.79,19.4z M17.79,18c-0.28,0-0.51,0.23-0.51,0.51
		c0,0.28,0.23,0.51,0.51,0.51c0.28,0,0.51-0.23,0.51-0.51C18.3,18.23,18.07,18,17.79,18z"/>
</g>
<g id="g78">
	<path id="path68" inkscape:connector-curvature="0" fill="#F1BC19" d="M24.25,19.75c-2.76,0-5,2.24-5,5s2.24,5,5,5
		c2.76,0,5-2.24,5-5S27.01,19.75,24.25,19.75z"/>
	<path id="path70" inkscape:connector-curvature="0" fill="#472B29" d="M24.25,30c-2.9,0-5.25-2.36-5.25-5.25
		c0-2.89,2.36-5.25,5.25-5.25s5.25,2.36,5.25,5.25S27.14,30,24.25,30z M24.25,20.01c-2.61,0-4.74,2.13-4.74,4.74
		s2.13,4.74,4.74,4.74c2.61,0,4.74-2.13,4.74-4.74S26.86,20.01,24.25,20.01z"/>
	<path id="path72" inkscape:connector-curvature="0" fill="#472B29" d="M24.25,21.88c-0.09,0-0.17-0.07-0.17-0.17v-1.96
		c0-0.09,0.07-0.17,0.17-0.17s0.17,0.07,0.17,0.17v1.96C24.42,21.81,24.34,21.88,24.25,21.88z M24.25,29.91
		c-0.09,0-0.17-0.07-0.17-0.17v-1.78c0-0.09,0.07-0.17,0.17-0.17s0.17,0.07,0.17,0.17v1.78C24.42,29.84,24.34,29.91,24.25,29.91z
		 M29.25,24.92h-1.96c-0.09,0-0.17-0.07-0.17-0.17s0.07-0.17,0.17-0.17h1.96c0.09,0,0.17,0.07,0.17,0.17S29.34,24.92,29.25,24.92z
		 M21.04,24.92h-1.78c-0.09,0-0.17-0.07-0.17-0.17s0.07-0.17,0.17-0.17h1.78c0.09,0,0.17,0.07,0.17,0.17S21.13,24.92,21.04,24.92z
		 M26.82,22.37c-0.04,0-0.09-0.02-0.12-0.05c-0.06-0.06-0.07-0.17,0-0.24l0.96-0.96c0.06-0.06,0.17-0.07,0.23,0
		c0.07,0.06,0.07,0.17,0,0.23l-0.96,0.97C26.9,22.36,26.86,22.37,26.82,22.37z M20.78,28.45c-0.04,0-0.08-0.02-0.12-0.05
		c-0.06-0.07-0.07-0.17,0-0.24l1.35-1.36c0.06-0.06,0.17-0.07,0.23,0c0.06,0.06,0.07,0.17,0,0.23L20.9,28.4
		C20.86,28.43,20.82,28.45,20.78,28.45L20.78,28.45z M27.78,28.45c-0.04,0-0.08-0.02-0.12-0.05l-1.36-1.37
		c-0.06-0.07-0.06-0.17,0-0.23c0.06-0.07,0.17-0.06,0.23,0l1.36,1.37c0.06,0.07,0.06,0.17,0,0.24
		C27.86,28.43,27.82,28.45,27.78,28.45L27.78,28.45z M22.17,22.81c-0.04,0-0.09-0.02-0.12-0.05l-1.39-1.4
		c-0.06-0.07-0.06-0.17,0-0.23c0.06-0.07,0.17-0.06,0.23,0l1.39,1.4c0.06,0.07,0.06,0.17,0,0.23
		C22.26,22.79,22.21,22.81,22.17,22.81L22.17,22.81z"/>
	<path id="path74" inkscape:connector-curvature="0" fill="#EF9922" d="M27.22,24.12c0.04,0.2,0.07,0.41,0.07,0.63
		c0,1.67-1.36,3.03-3.03,3.03s-3.03-1.36-3.03-3.03s1.36-3.03,3.03-3.03c1.25,0,2.32,0.75,2.79,1.83"/>
	<path id="path76" inkscape:connector-curvature="0" fill="#472B29" d="M24.25,27.94c-1.76,0-3.19-1.43-3.19-3.19
		c0-1.76,1.43-3.19,3.19-3.19c1.27,0,2.42,0.75,2.93,1.92c0.03,0.08,0,0.17-0.08,0.2s-0.17,0-0.2-0.08
		c-0.46-1.06-1.49-1.74-2.64-1.74c-1.59,0-2.88,1.29-2.88,2.88c0,1.59,1.29,2.88,2.88,2.88c1.59,0,2.88-1.29,2.88-2.88
		c0-0.2-0.02-0.4-0.06-0.6c-0.02-0.08,0.04-0.16,0.12-0.18c0.08-0.02,0.16,0.04,0.18,0.12c0.04,0.22,0.07,0.44,0.07,0.66
		C27.44,26.51,26.01,27.94,24.25,27.94z"/>
</g>
<g id="g92">
	<path id="path80" inkscape:connector-curvature="0" fill="#FBCD59" d="M33,30.74c-1.8,0-3.26,1.46-3.26,3.26
		c0,1.8,1.46,3.26,3.26,3.26c0,0,0,0,0,0c1.8,0,3.26-1.46,3.26-3.26C36.26,32.2,34.8,30.74,33,30.74C33,30.74,33,30.74,33,30.74z"/>
	<path id="path82" inkscape:connector-curvature="0" fill="#472B29" d="M33,37.5c-1.93,0-3.5-1.57-3.5-3.5s1.57-3.5,3.5-3.5
		s3.5,1.57,3.5,3.5S34.93,37.5,33,37.5z M33,30.98c-1.67,0-3.02,1.35-3.02,3.02s1.35,3.02,3.02,3.02s3.02-1.35,3.02-3.02
		C36.02,32.33,34.67,30.98,33,30.98z"/>
	<path id="path84" inkscape:connector-curvature="0" fill="#F1BC19" d="M33,31.87c-1.18,0-2.13,0.95-2.13,2.13
		c0,1.18,0.95,2.13,2.13,2.13s2.13-0.95,2.13-2.13S34.18,31.87,33,31.87z"/>
	<path id="path86" inkscape:connector-curvature="0" fill="#472B29" d="M33,36.25c-1.24,0-2.25-1.01-2.25-2.25
		c0-1.24,1.01-2.25,2.25-2.25s2.25,1.01,2.25,2.25C35.25,35.24,34.24,36.25,33,36.25z M33,31.99c-1.11,0-2.01,0.9-2.01,2.01
		s0.9,2.01,2.01,2.01s2.01-0.9,2.01-2.01C35.01,32.89,34.11,31.99,33,31.99z"/>
	<g id="g90">
		<path id="path88" inkscape:connector-curvature="0" fill="#472B29" d="M32.67,34.57c0,0,0.01,0,0.02,0.01l0,0
			c0.04,0.03,0.08,0.05,0.11,0.07c0.03,0.02,0.07,0.03,0.11,0.04V34l-0.04-0.02c-0.05-0.03-0.1-0.05-0.14-0.08
			c-0.04-0.03-0.08-0.06-0.12-0.1s-0.07-0.07-0.09-0.11c-0.02-0.04-0.04-0.08-0.05-0.13c-0.01-0.02-0.01-0.04-0.01-0.07
			c0-0.02,0-0.04,0-0.07c0-0.07,0.01-0.13,0.03-0.18c0.02-0.05,0.05-0.1,0.09-0.13c0.04-0.04,0.09-0.07,0.14-0.09
			c0.05-0.02,0.11-0.04,0.18-0.04v-0.06c0-0.03,0.01-0.05,0.02-0.08s0.04-0.03,0.07-0.03h0.01c0.08,0,0.12,0.04,0.13,0.11l0,0.06
			c0.04,0.01,0.08,0.02,0.13,0.03s0.09,0.04,0.15,0.06l-0.01,0c0.03,0.01,0.04,0.02,0.06,0.03c0.01,0.01,0.02,0.03,0.03,0.06v0.01
			c0,0.01,0,0.02-0.01,0.04c-0.01,0.02-0.01,0.03-0.02,0.05c-0.01,0.01-0.02,0.03-0.04,0.04s-0.03,0.02-0.04,0.02
			c-0.01,0-0.03,0-0.04,0c-0.01,0-0.02-0.01-0.04-0.02v0l-0.02-0.01c-0.04-0.02-0.09-0.04-0.14-0.05v0.6l0.01,0
			c0.12,0.06,0.21,0.13,0.28,0.2c0.07,0.07,0.11,0.15,0.13,0.23c0.01,0.03,0.01,0.06,0.02,0.09c0,0.03,0.01,0.06,0.01,0.09
			c0,0.07-0.01,0.13-0.03,0.18s-0.05,0.1-0.09,0.14s-0.08,0.07-0.14,0.1c-0.05,0.03-0.11,0.04-0.18,0.05v0.16
			c0,0.03-0.01,0.05-0.02,0.08c-0.01,0.02-0.04,0.03-0.07,0.03h-0.01c-0.04,0-0.07-0.01-0.09-0.03c-0.02-0.02-0.03-0.05-0.03-0.09
			v-0.15c-0.08-0.01-0.15-0.03-0.21-0.05c-0.06-0.03-0.12-0.06-0.18-0.1c-0.02-0.01-0.03-0.03-0.03-0.04s-0.01-0.03-0.02-0.05v-0.01
			c0-0.01,0-0.03,0.01-0.04c0.01-0.02,0.02-0.03,0.03-0.05c0.01-0.02,0.03-0.03,0.04-0.04c0.01-0.01,0.03-0.02,0.04-0.02
			c0.02,0,0.03,0,0.04,0.01C32.65,34.55,32.66,34.56,32.67,34.57L32.67,34.57C32.68,34.57,32.68,34.57,32.67,34.57L32.67,34.57z
			 M32.79,33.63c0.03,0.03,0.08,0.06,0.12,0.09v-0.48c-0.06,0.01-0.1,0.03-0.14,0.07c-0.04,0.03-0.06,0.08-0.06,0.14
			c0,0.01,0,0.02,0,0.03c0,0.01,0,0.02,0.01,0.04C32.73,33.56,32.75,33.6,32.79,33.63L32.79,33.63z M33.24,34.21
			c-0.03-0.04-0.06-0.07-0.11-0.09v0.55c0.05-0.02,0.09-0.05,0.13-0.09c0.03-0.04,0.05-0.09,0.05-0.15c0-0.02,0-0.03,0-0.04
			c0-0.01-0.01-0.03-0.01-0.04C33.29,34.29,33.27,34.25,33.24,34.21L33.24,34.21z"/>
	</g>
</g>
<g id="g106">
	<path id="path94" inkscape:connector-curvature="0" fill="#FBCD59" d="M37,27.24c-1.8,0-3.26,1.46-3.26,3.26
		c0,1.8,1.46,3.26,3.26,3.26c0,0,0,0,0,0c1.8,0,3.26-1.46,3.26-3.26C40.26,28.7,38.8,27.24,37,27.24C37,27.24,37,27.24,37,27.24z"/>
	<path id="path96" inkscape:connector-curvature="0" fill="#472B29" d="M37,34c-1.93,0-3.5-1.57-3.5-3.5S35.07,27,37,27
		s3.5,1.57,3.5,3.5S38.93,34,37,34z M37,27.48c-1.67,0-3.02,1.35-3.02,3.02c0,1.67,1.35,3.02,3.02,3.02s3.02-1.35,3.02-3.02
		S38.67,27.48,37,27.48z"/>
	<path id="path98" inkscape:connector-curvature="0" fill="#F1BC19" d="M37,28.37c-1.18,0-2.13,0.95-2.13,2.13s0.95,2.13,2.13,2.13
		s2.13-0.95,2.13-2.13S38.18,28.37,37,28.37z"/>
	<path id="path100" inkscape:connector-curvature="0" fill="#472B29" d="M37,32.75c-1.24,0-2.25-1.01-2.25-2.25
		c0-1.24,1.01-2.25,2.25-2.25s2.25,1.01,2.25,2.25C39.25,31.74,38.24,32.75,37,32.75z M37,28.49c-1.11,0-2.01,0.9-2.01,2.01
		s0.9,2.01,2.01,2.01s2.01-0.9,2.01-2.01C39.01,29.39,38.11,28.49,37,28.49z"/>
	<g id="g104">
		<path id="path102" inkscape:connector-curvature="0" fill="#472B29" d="M36.67,31.07c0,0,0.01,0,0.02,0.01l0,0
			c0.04,0.03,0.08,0.05,0.11,0.07c0.03,0.02,0.07,0.03,0.11,0.04V30.5l-0.04-0.02c-0.05-0.03-0.1-0.05-0.14-0.08
			c-0.04-0.03-0.08-0.06-0.12-0.1s-0.07-0.07-0.09-0.11c-0.02-0.04-0.04-0.08-0.05-0.13c-0.01-0.02-0.01-0.04-0.01-0.07
			c0-0.02,0-0.04,0-0.07c0-0.07,0.01-0.13,0.03-0.18c0.02-0.05,0.05-0.1,0.09-0.13c0.04-0.04,0.09-0.07,0.14-0.09
			c0.05-0.02,0.11-0.04,0.18-0.04v-0.06c0-0.03,0.01-0.05,0.02-0.08s0.04-0.03,0.07-0.03h0.01c0.08,0,0.12,0.04,0.13,0.11l0,0.06
			c0.04,0.01,0.08,0.02,0.13,0.03s0.09,0.04,0.15,0.06l-0.01,0c0.03,0.01,0.04,0.02,0.06,0.03c0.01,0.01,0.02,0.03,0.03,0.06v0.01
			c0,0.01,0,0.02-0.01,0.04c-0.01,0.02-0.01,0.03-0.02,0.05c-0.01,0.01-0.02,0.03-0.04,0.04s-0.03,0.02-0.04,0.02
			c-0.01,0-0.03,0-0.04,0c-0.01,0-0.02-0.01-0.04-0.02v0l-0.02-0.01c-0.04-0.02-0.09-0.04-0.14-0.05v0.6l0.01,0
			c0.12,0.06,0.21,0.13,0.28,0.2c0.07,0.07,0.11,0.15,0.13,0.23c0.01,0.03,0.01,0.06,0.02,0.09c0,0.03,0.01,0.06,0.01,0.09
			c0,0.07-0.01,0.13-0.03,0.18s-0.05,0.1-0.09,0.14s-0.08,0.07-0.14,0.1c-0.05,0.03-0.11,0.04-0.18,0.05v0.16
			c0,0.03-0.01,0.05-0.02,0.08c-0.01,0.02-0.04,0.03-0.07,0.03h-0.01c-0.04,0-0.07-0.01-0.09-0.03c-0.02-0.02-0.03-0.05-0.03-0.09
			v-0.15c-0.08-0.01-0.15-0.03-0.21-0.05c-0.06-0.03-0.12-0.06-0.18-0.1c-0.02-0.01-0.03-0.03-0.03-0.04s-0.01-0.03-0.02-0.05v-0.01
			c0-0.01,0-0.03,0.01-0.04c0.01-0.02,0.02-0.03,0.03-0.05c0.01-0.02,0.03-0.03,0.04-0.04c0.01-0.01,0.03-0.02,0.04-0.02
			c0.02,0,0.03,0,0.04,0.01C36.65,31.05,36.66,31.06,36.67,31.07L36.67,31.07C36.68,31.07,36.68,31.07,36.67,31.07L36.67,31.07z
			 M36.79,30.13c0.03,0.03,0.08,0.06,0.12,0.09v-0.48c-0.06,0.01-0.1,0.03-0.14,0.07c-0.04,0.03-0.06,0.08-0.06,0.14
			c0,0.01,0,0.02,0,0.03c0,0.01,0,0.02,0.01,0.04C36.73,30.06,36.75,30.1,36.79,30.13L36.79,30.13z M37.24,30.71
			c-0.03-0.04-0.06-0.07-0.11-0.09v0.55c0.05-0.02,0.09-0.05,0.13-0.09c0.03-0.04,0.05-0.09,0.05-0.15c0-0.02,0-0.03,0-0.04
			c0-0.01-0.01-0.03-0.01-0.04C37.29,30.79,37.27,30.75,37.24,30.71L37.24,30.71z"/>
	</g>
</g>
</svg>
