<?xml version="1.0" encoding="utf-8"?>
<!-- Generator: Adobe Illustrator 16.0.0, SVG Export Plug-In . SVG Version: 6.00 Build 0)  -->
<!DOCTYPE svg PUBLIC "-//W3C//DTD SVG 1.1//EN" "http://www.w3.org/Graphics/SVG/1.1/DTD/svg11.dtd">
<svg version="1.1"
	 id="svg86" xmlns:dc="http://purl.org/dc/elements/1.1/" xmlns:cc="http://creativecommons.org/ns#" xmlns:rdf="http://www.w3.org/1999/02/22-rdf-syntax-ns#" xmlns:svg="http://www.w3.org/2000/svg" xmlns:sodipodi="http://sodipodi.sourceforge.net/DTD/sodipodi-0.dtd" xmlns:inkscape="http://www.inkscape.org/namespaces/inkscape" inkscape:version="0.92.4 (5da689c313, 2019-01-14)" sodipodi:docname="see-male-account.svg"
	 xmlns="http://www.w3.org/2000/svg" xmlns:xlink="http://www.w3.org/1999/xlink" x="0px" y="0px" width="50px" height="50px"
	 viewBox="0 0 50 50" enable-background="new 0 0 50 50" xml:space="preserve">
<sodipodi:namedview  inkscape:cy="25" inkscape:cx="25" inkscape:zoom="4.72" showgrid="false" guidetolerance="10" gridtolerance="10" objecttolerance="10" bordercolor="#666666" pagecolor="#ffffff" borderopacity="1" id="namedview88" inkscape:current-layer="svg86" inkscape:window-maximized="1" inkscape:window-y="-8" inkscape:window-x="-8" inkscape:window-height="705" inkscape:window-width="1366" inkscape:pageshadow="2" inkscape:pageopacity="0">
	</sodipodi:namedview>
<g id="g1007" transform="matrix(4.52,0,0,4.52,-1.582,2.3021356)">
	<path id="path6" inkscape:connector-curvature="0" opacity="0.309" fill="#E4E4F9" enable-background="new    " d="M5.8,1.04
		c-2.26,0-4.09,1.83-4.09,4.09c0,2.26,1.83,4.09,4.09,4.09c2.26,0,4.09-1.83,4.09-4.09C9.9,2.87,8.06,1.04,5.8,1.04z"/>
	<g id="g997">
		<path id="path4-5" inkscape:connector-curvature="0" fill="#88CDD7" d="M8.79,0.93c-0.06,0-0.11,0.05-0.11,0.11
			c0,0.06,0.05,0.11,0.11,0.11c0.06,0,0.11-0.05,0.11-0.11C8.9,0.98,8.85,0.93,8.79,0.93z"/>
		<path id="path8-9" inkscape:connector-curvature="0" fill="#88CDD7" d="M9.45,0.82c-0.24,0-0.44,0.2-0.44,0.44s0.2,0.44,0.44,0.44
			c0.24,0,0.44-0.2,0.44-0.44S9.7,0.82,9.45,0.82z"/>
		<path id="path10" inkscape:connector-curvature="0" fill="#8889B9" d="M9.9,2.04c-0.12,0-0.22,0.1-0.22,0.22
			c0,0.12,0.1,0.22,0.22,0.22c0.12,0,0.22-0.1,0.22-0.22C10.12,2.14,10.02,2.04,9.9,2.04z"/>
		<path id="path12" inkscape:connector-curvature="0" fill="#88CDD7" d="M9.23,7.79c-0.12,0-0.22,0.1-0.22,0.22
			c0,0.12,0.1,0.22,0.22,0.22c0.12,0,0.22-0.1,0.22-0.22C9.45,7.89,9.35,7.79,9.23,7.79z M1.93,6.13c-0.24,0-0.44,0.2-0.44,0.44
			c0,0.24,0.2,0.44,0.44,0.44c0.24,0,0.44-0.2,0.44-0.44C2.37,6.33,2.18,6.13,1.93,6.13z"/>
		<path id="path14" inkscape:connector-curvature="0" fill="#8889B9" d="M3.04,9.01c-0.12,0-0.22,0.1-0.22,0.22
			c0,0.12,0.1,0.22,0.22,0.22c0.12,0,0.22-0.1,0.22-0.22C3.26,9.11,3.16,9.01,3.04,9.01z"/>
		<path id="path16" inkscape:connector-curvature="0" fill="#FFFFFF" d="M2.32,5.02c-0.15,0-0.28,0.12-0.28,0.28
			c0,0.15,0.12,0.28,0.28,0.28c0.15,0,0.28-0.12,0.28-0.28C2.6,5.15,2.47,5.02,2.32,5.02z M9.07,3.14c-0.09,0-0.17,0.08-0.17,0.17
			c0,0.09,0.08,0.17,0.17,0.17S9.23,3.4,9.23,3.31C9.23,3.22,9.16,3.14,9.07,3.14z"/>
	</g>
</g>
<path id="path2" inkscape:connector-curvature="0" fill="none" d="M0,50V0h50v50H0z"/>
<path id="path4" inkscape:connector-curvature="0" fill="#FFFFFF" d="M9.9,27.75c-0.25,0-0.45,0.2-0.45,0.45s0.2,0.45,0.45,0.45
	s0.45-0.2,0.45-0.45S10.15,27.75,9.9,27.75z M39.4,15.45c-0.19,0-0.35,0.16-0.35,0.35s0.16,0.35,0.35,0.35s0.35-0.16,0.35-0.35
	S39.59,15.45,39.4,15.45z"/>
<path id="path20" inkscape:connector-curvature="0" fill="#CE9065" d="M33.75,35.45c-0.2-1.1-0.65-1.7-1.65-2
	c-0.05,0-0.1-0.05-0.15-0.05l-0.3-0.1c-0.6-0.3-4.35-1.65-4.35-1.65c-0.3-0.1-0.5-0.3-0.6-0.55c-0.1-0.45-0.15-0.95-0.1-1.45
	c-0.85,0.3-1.65,0.5-2.55,0.7c-0.95,0.1-3-1.15-3-1.15s-0.05,1.5-0.1,1.85c-0.1,0.3-0.35,0.5-0.65,0.55l-3.55,1.3
	c-0.4,0.1-0.75,0.25-1.1,0.45c-0.75,0.5-1.35,1.2-1.6,2.1c0,0-0.25,1.65-0.25,1.7c0,0.25-0.05,0.5-0.05,0.75
	c3.9,2.65,7,3.35,12.35,3.15c2.45-0.1,6.05-1.3,7.95-2.25C33.9,36.7,33.75,35.45,33.75,35.45z"/>
<path id="path22" inkscape:connector-curvature="0" fill="#FBCD59" d="M33.75,35.5c-0.2-1.1-0.65-1.7-1.65-2l-0.15-0.05l-0.3-0.1
	c-0.35-0.15-2.45-0.85-3.5-1.25c-1.6,0.8-2.45,1.4-4.2,1.4s-2.8-0.7-4.45-1.45l-0.35,0.1l0,0L19,32.2L16.75,33
	c-0.4,0.1-0.75,0.25-1.1,0.45c-0.75,0.5-1.35,1.25-1.6,2.1c0,0-0.25,1.65-0.25,1.7c0,0.25-0.05,2.7-0.05,3
	c3.9,2.65,7,3.35,12.35,3.15c2.4-0.2,6-1.4,7.9-2.35C33.9,38.95,33.75,35.5,33.75,35.5z"/>
<path id="path24" inkscape:connector-curvature="0" fill="#F5E690" d="M21.8,37.65h0.7v0.7h-0.7V37.65z M22.55,38.4h0.7v0.7h-0.7
	V38.4z M23.25,39.1h0.7v0.7h-0.7V39.1z M23.95,39.8h0.7v0.7h-0.7V39.8z M24.7,40.55h0.7v0.7h-0.7V40.55z M25.4,41.25h0.7v0.7h-0.7
	V41.25z M26.1,41.95h0.7v0.7h-0.7V41.95z M26.1,37.65h0.7v0.7h-0.7V37.65z M25.4,38.4h0.7v0.7h-0.7V38.4z M24.7,39.1h0.7v0.7h-0.7
	V39.1z"/>
<path id="path26" inkscape:connector-curvature="0" fill="#F5E690" d="M23.95,39.8h0.7v0.7h-0.7V39.8z M23.25,40.55h0.7v0.7h-0.7
	V40.55z M22.55,41.25h0.7v0.7h-0.7V41.25z M21.8,41.95h0.7v0.7h-0.7V41.95z"/>
<path id="path28" inkscape:connector-curvature="0" fill="#E0A825" d="M17.15,42.3c-0.1,0-0.15-0.05-0.15-0.15v-2
	c0-0.1,0.05-0.15,0.15-0.15s0.15,0.05,0.15,0.15v2C17.3,42.25,17.2,42.3,17.15,42.3z M30.3,42.65c-0.1,0-0.15-0.05-0.15-0.15v-2.3
	c0-0.1,0.05-0.15,0.15-0.15c0.1,0,0.15,0.05,0.15,0.15v2.3C30.45,42.6,30.4,42.65,30.3,42.65z"/>
<path id="path30" inkscape:connector-curvature="0" fill="#DB9E71" d="M29.9,22.2h-0.2c-0.5,0-0.6,0.15-0.6-0.15
	c0.05-0.55-0.05-2.7-0.05-2.8c0-2.25-2.35-4.05-5.25-4.15l0,0h-0.1l0,0c-2.9,0.15-5.2,1.95-5.2,4.15c0,0.1-0.1,2.25-0.05,2.8
	c0,0.3-0.1,0.1-0.6,0.15h-0.2c-0.5,0-0.9,0.35-1.05,0.8c0.05,0.05,0.3,1.85,0.7,2.6c0.2,0.4,0.55,0.45,0.9,0.7
	c0.15,0.1,0.25,0.3,0.3,0.5c0.25,0.8,0.7,1.5,1.35,2.05c0.3,0.3,2.25,2.35,3.95,2.25c1.7-0.1,3.65-2,3.95-2.25
	c0.65-0.55,1.1-1.25,1.35-2.05c0.05-0.2,0.15-0.4,0.3-0.5c0.35-0.25,0.7-0.3,0.9-0.7c0.4-0.7,0.65-2.55,0.7-2.6
	C30.8,22.55,30.35,22.2,29.9,22.2z"/>
<path id="path32" inkscape:connector-curvature="0" fill="#512C2B" d="M23.8,25.7c0.35,0,0.65-0.15,0.9-0.4c0,0,0-0.05,0-0.1l0,0
	l0,0c0,0-0.05,0-0.1,0l0,0c-0.45,0.4-1.15,0.4-1.6,0h-0.05H22.9c0,0.05,0,0.05,0,0.1C23.15,25.55,23.5,25.7,23.8,25.7z M22.7,21.1
	l0.2-0.4c-0.9-0.2-1.9-0.2-2.8,0.1l0.25,0.4C21.15,20.95,21.95,20.9,22.7,21.1z M27.3,21.1l0.2-0.4c-0.95-0.2-1.9-0.2-2.85,0.1
	l0.25,0.4C25.7,20.95,26.55,20.9,27.3,21.1z M21.4,21.7c-0.25,0-0.45,0.15-0.5,0.35c0.05,0,0.05,0,0.1,0c0.2,0,0.35,0.15,0.35,0.35
	c0,0.2-0.15,0.35-0.35,0.35c-0.05,0-0.1,0-0.15-0.05c0.05,0.3,0.3,0.55,0.6,0.6c0.45-0.1,0.7-0.55,0.6-1
	C21.9,22,21.7,21.8,21.4,21.7z M26.2,21.7c-0.2,0-0.4,0.1-0.5,0.25c0.05,0,0.1,0,0.1,0c0.2,0,0.35,0.15,0.35,0.35
	c0,0.2-0.15,0.35-0.35,0.35c-0.1,0-0.2-0.05-0.25-0.15c-0.05,0.4,0.25,0.75,0.65,0.8c0.45-0.1,0.7-0.55,0.6-1
	C26.7,22,26.45,21.8,26.2,21.7z M26.45,26.65c0,0,0-0.05,0-0.1l0,0l0,0c0,0-0.05,0-0.1,0l0,0c-0.75,0.5-1.65,0.75-2.55,0.7
	c-0.9,0.05-1.8-0.2-2.55-0.7c0,0,0,0-0.05,0h-0.05c0,0,0,0.05,0,0.1l0,0C22.75,27.75,24.85,27.75,26.45,26.65z"/>
<path id="path34" inkscape:connector-curvature="0" fill="#472B29" d="M24.35,43.65c-4.45,0-7.35-0.9-10.8-3.2
	c-0.1-0.05-0.1-0.15-0.1-0.25c0-0.05,0-0.25,0-0.55c0-1.1,0.05-3.35,0.3-4.2c0.2-0.95,0.8-1.8,1.7-2.25
	c0.35-0.2,0.75-0.35,1.15-0.45l3.55-1.3c0.25-0.05,0.4-0.2,0.5-0.4c0-0.15,0.05-0.6,0.05-1c-0.35-0.25-0.75-0.5-1.05-0.8
	c-0.65-0.6-1.15-1.35-1.4-2.2V27c0-0.15-0.05-0.25-0.2-0.35c-0.1-0.05-0.2-0.1-0.3-0.15c-0.25-0.15-0.5-0.3-0.7-0.6
	c-0.4-0.85-0.65-1.75-0.7-2.7c0-0.05,0-0.05,0-0.1c0.15-0.55,0.7-0.95,1.3-1h0.2c0.15,0,0.25,0,0.35,0c0-0.6,0-1.9,0.05-2.45
	c0-0.15,0-0.25,0-0.25c0-2.4,2.4-4.35,5.45-4.45h0.1c3.1,0.1,5.5,2.05,5.5,4.45c0,0,0,0.1,0,0.25c0,0.6,0.05,1.9,0.05,2.45
	c0.1,0,0.2,0,0.35,0h0.15c0.6,0,1.1,0.4,1.3,1c0,0.05,0,0.05,0,0.1c-0.1,0.95-0.3,1.85-0.7,2.7c-0.2,0.35-0.45,0.5-0.7,0.65
	c-0.1,0.05-0.2,0.1-0.3,0.2c-0.1,0.1-0.2,0.2-0.2,0.35c-0.25,0.9-0.75,1.65-1.4,2.2c-0.35,0.3-0.75,0.6-1.1,0.9
	c0,0.3,0.05,0.65,0.15,0.95c0.05,0.15,0.25,0.3,0.45,0.35c0.15,0.05,3.75,1.4,4.35,1.65l0.3,0.1c0.05,0,0.1,0.05,0.15,0.05
	c1.05,0.3,1.6,0.95,1.85,2.2c0,0,0,0,0,0.05c0,0,0.2,3.45,0.25,5.6c0,0.1-0.05,0.2-0.15,0.25c-2,1-5.65,2.2-8.05,2.3
	C25.45,43.65,24.9,43.65,24.35,43.65z M13.95,40.1c3.7,2.5,6.75,3.25,12.1,3c2.25-0.1,5.7-1.2,7.7-2.15c-0.1-2-0.25-5.1-0.25-5.35
	c-0.2-1.05-0.6-1.55-1.5-1.8c-0.05,0-0.15-0.05-0.2-0.05l-0.3-0.15c-0.6-0.25-4.3-1.6-4.35-1.65c-0.35-0.1-0.6-0.35-0.75-0.7
	c-0.15-0.45-0.2-0.85-0.15-1.25c0-0.1,0.05-0.15,0.1-0.2c0.4-0.3,0.8-0.6,1.15-0.9c0.6-0.5,1.05-1.2,1.25-1.95
	c0.05-0.25,0.15-0.5,0.4-0.65c0.15-0.1,0.25-0.15,0.35-0.25c0.2-0.1,0.35-0.2,0.5-0.4c0.35-0.75,0.6-1.6,0.65-2.45
	c-0.1-0.35-0.45-0.55-0.8-0.6h-0.2c-0.15,0-0.3,0-0.35,0c-0.1,0-0.25,0.05-0.35-0.05c-0.1-0.1-0.1-0.25-0.1-0.35
	c0.05-0.4,0-1.95-0.05-2.5c0-0.15,0-0.25,0-0.3c0-2.1-2.2-3.85-5-3.95h-0.1c-2.8,0.1-5,1.8-5,3.95c0,0,0,0.1,0,0.25
	c0,0.6-0.05,2.1-0.05,2.55c0,0.1,0,0.25-0.1,0.35c-0.1,0.1-0.25,0.1-0.35,0.05c-0.1,0-0.2-0.05-0.35,0h-0.2
	c-0.35,0-0.65,0.25-0.8,0.6c0.1,0.85,0.3,1.7,0.65,2.5c0.1,0.2,0.25,0.3,0.45,0.4c0.1,0.05,0.25,0.15,0.35,0.2
	c0.2,0.2,0.35,0.45,0.35,0.7c0.25,0.75,0.65,1.4,1.25,1.95c0.35,0.3,0.75,0.6,1.15,0.85c0.05,0.05,0.1,0.1,0.1,0.2
	c0,0.5-0.05,1.05-0.1,1.25c-0.15,0.4-0.45,0.7-0.85,0.75l-3.55,1.25c-0.4,0.1-0.75,0.25-1.05,0.45c-0.8,0.4-1.3,1.1-1.5,1.95
	c-0.25,0.85-0.25,3.15-0.3,4.1C13.95,39.9,13.95,40,13.95,40.1z"/>
<path id="path36" inkscape:connector-curvature="0" fill="#895D3D" d="M29.9,24.65l-0.3-0.05l0.1-0.9l-0.5,0.2l-0.1-0.3l0.75-0.3
	c0.05,0,0.1,0,0.15,0c0.05,0.05,0.05,0.1,0.05,0.15L29.9,24.65z M17.8,24.45l-0.15-1.15c0-0.05,0-0.1,0.05-0.15
	c0.05-0.05,0.1-0.05,0.15,0l0.75,0.35l-0.1,0.25l-0.5-0.2l0.1,0.9H17.8z"/>
<path id="path38" inkscape:connector-curvature="0" fill="#472B29" d="M18.5,26.7L18.5,26.7c-0.05,0-0.1-0.05-0.1-0.1l0.1-4.3
	c0-0.05,0.05-0.1,0.1-0.1l0,0c0.05,0,0.1,0.05,0.1,0.1l-0.1,4.3C18.6,26.65,18.55,26.7,18.5,26.7z M29.15,26.7
	c-0.05,0-0.1-0.05-0.1-0.1L29,22.25c0-0.05,0.05-0.1,0.1-0.1l0,0c0.05,0,0.1,0.05,0.1,0.1l0.1,4.3
	C29.25,26.65,29.25,26.7,29.15,26.7z M24.9,29.65c-0.55-0.15-0.95-0.55-1.15-1.1c-0.15,0.55-0.6,0.95-1.15,1.1
	c-0.1,0-0.15,0-0.25,0.05c0.05,0.4,0.1,0.8,0.15,1.2l0.35,0.15c0.3,0.05,0.6,0.1,0.9,0.1s0.6,0,0.9-0.1c0.1-0.05,0.2-0.1,0.35-0.15
	c0.1-0.4,0.15-0.8,0.15-1.2C25.1,29.7,25,29.7,24.9,29.65z"/>
<path id="path40" inkscape:connector-curvature="0" fill="#472B29" d="M23.9,31.4c-1.05,0-2.75-1.3-2.85-1.35
	c-0.05-0.05-0.05-0.1,0-0.2c0.05-0.05,0.1-0.05,0.2,0c0,0,1.85,1.4,2.75,1.3c0.95-0.1,2.4-1.2,2.4-1.2c0.05-0.05,0.15-0.05,0.2,0
	c0.05,0.05,0.05,0.15,0,0.2c-0.05,0.05-1.5,1.15-2.5,1.25C23.95,31.4,23.95,31.4,23.9,31.4z"/>
<path id="path42" inkscape:connector-curvature="0" fill="#E0A825" d="M27.3,33.2c-1.05,0.6-2.25,0.9-3.45,0.85
	c-1.2,0.05-2.45-0.25-3.5-0.85c0,0-0.8-0.4-0.8-0.9l0,0c-0.05-0.45,0.35-0.85,0.8-0.9c0,0,2.2,0.75,3.45,0.75s3.5-0.75,3.5-0.75
	c0.45,0.05,0.85,0.45,0.8,0.9l0,0C28.1,32.8,27.3,33.2,27.3,33.2z"/>
<path id="path44" inkscape:connector-curvature="0" fill="#472B29" d="M24.1,34.25c-0.1,0-0.15,0-0.25,0
	c-1.25,0.05-2.5-0.25-3.6-0.9c-0.1-0.05-0.9-0.45-0.9-1.05c-0.05-0.55,0.4-1.05,0.95-1.1h0.05h0.05c0,0,2.2,0.75,3.4,0.75
	c1.2,0,3.4-0.75,3.45-0.75h0.05h0.05c0.55,0.05,1,0.55,0.95,1.1c0,0.55-0.8,1-0.9,1.05C26.4,33.95,25.25,34.25,24.1,34.25z
	 M23.85,33.9c1.2,0.05,2.35-0.25,3.35-0.85l0,0c0.2-0.1,0.7-0.45,0.7-0.75c0-0.35-0.25-0.7-0.6-0.75c-0.3,0.1-2.35,0.75-3.5,0.75
	c-1.2,0-3.15-0.65-3.5-0.75c-0.35,0.05-0.6,0.35-0.6,0.7s0.5,0.65,0.7,0.75C21.45,33.65,22.65,33.9,23.85,33.9z M29.55,17.8
	c0-0.55-0.4-1-0.95-1.1c-0.05-0.35-0.3-0.65-0.6-0.85c0-0.05,0-0.1,0-0.1c0-0.7-0.6-1.3-1.3-1.3c-0.1,0-0.25,0-0.35,0.05
	c-0.25-0.35-0.7-0.55-1.15-0.55c-0.25,0-0.5,0.05-0.7,0.2C24.25,14,24,13.9,23.7,13.9c-0.3,0-0.6,0.1-0.85,0.3
	c-0.2-0.15-0.45-0.2-0.65-0.2c-0.45,0-0.85,0.25-1.05,0.65c-0.15-0.05-0.3-0.1-0.45-0.1c-0.5,0-0.9,0.4-0.95,0.9L19.7,15.5
	c-0.5,0.1-0.85,0.45-0.95,0.95h-0.1c-0.6,0-1.05,0.5-1.05,1.1l0,0c0,0.25,0.1,0.55,0.3,0.75c-0.15,1.85-0.05,3.75,0.3,5.55
	c0,0.1,0.1,0.2,0.2,0.15s0.2-0.1,0.15-0.2c0.05-1.5,0.35-4.3,1.8-4.15c1.05,0.15,2.15,0.25,3.2,0.25c1.1,0,2.15-0.15,3.2-0.3
	c1.45-0.25,1.85,2.6,1.9,4.05c0,0.1,0.05,0.2,0.15,0.2c0.1,0,0.2-0.05,0.2-0.15c0.3-1.75,0.35-3.5,0.2-5.25
	C29.45,18.3,29.55,18.05,29.55,17.8z"/>
<path id="path46" inkscape:connector-curvature="0" fill="#78A0CF" d="M28.65,22.05h-0.1h-0.1H27.9c-0.35,0-0.65,0-1,0
	c-0.5,0-1,0.05-1.45,0.1H25.3c-0.4,0.05-0.75,0.15-1.1,0.3c-0.25,0.1-0.55,0.1-0.8,0l-0.1-0.05c-0.1-0.05-0.2-0.1-0.3-0.1
	l-0.25-0.05c-0.4-0.1-0.85-0.15-1.25-0.2C21.2,22,20.9,22,20.6,22h-0.35h-0.4l-0.9,0.05c-0.25,0-0.55,0.05-0.65,0.15
	c-0.05,0.05-0.05,0.05-0.05,0.1c0,0.15,0.05,0.25,0.05,0.4c0.05,0.15,0.05,0.25,0.05,0.4c0,0.1,0.15,0.2,0.4,0.3l0.15,0.1
	c0.05,0.05,0.1,0.1,0.1,0.15l0,0c0.05,0.05,0.05,0.1,0.1,0.15c0.05,0.1,0.1,0.2,0.15,0.25c0.05,0.1,0.15,0.15,0.2,0.2
	c0.1,0.05,0.2,0.1,0.3,0.1c0.8,0.15,1.6,0.2,2.4,0.15c0.45,0,0.8-0.3,0.9-0.7c0.05-0.1,0.1-0.25,0.15-0.35
	c0.05-0.1,0.05-0.15,0.1-0.2c0.05-0.1,0.1-0.15,0.25-0.15h0.3c0.2,0,0.25,0,0.3,0.25l0.05,0.1c0.1,0.2,0.15,0.4,0.25,0.6
	c0.1,0.2,0.3,0.35,0.5,0.4c0.1,0.05,0.2,0.05,0.3,0.05c0.2,0,0.4,0,0.55,0c0.55,0,1.05-0.05,1.6-0.15c0.4,0,0.75-0.25,0.9-0.65
	c0.05-0.1,0.15-0.25,0.25-0.35c0.05-0.05,0.15-0.05,0.2-0.1c0.2-0.1,0.3-0.15,0.35-0.2h0.05c0.05,0,0.05-0.05,0.05-0.05
	c0-0.1,0-0.15,0-0.25c0-0.2,0.05-0.4,0.05-0.55C29.25,22.05,29,22.1,28.65,22.05z M25.75,22.4c0.2,0,0.4-0.05,0.6-0.05h0.25H27
	c0.1,0,0.15,0,0.25,0c0.25,0,0.45,0.05,0.7,0.05s0.3,0.15,0.3,0.4c0,0.35-0.1,0.7-0.25,1c-0.05,0.1-0.1,0.15-0.2,0.2
	c-0.3,0.15-0.65,0.25-0.95,0.25c-0.4,0-0.85,0-1.25,0.05h-0.2c-0.3,0-0.55-0.15-0.65-0.4c-0.2-0.3-0.25-0.65-0.25-1
	c0-0.1,0.1-0.2,0.2-0.25c0.3-0.1,0.6-0.2,0.9-0.2L25.75,22.4z M23,23c-0.05,0.4-0.15,0.75-0.4,1.05c-0.1,0.15-0.3,0.25-0.45,0.25
	c-0.25,0-0.5,0.05-0.7,0.05l0,0c-0.5,0-0.95-0.05-1.4-0.15c-0.15-0.05-0.3-0.1-0.4-0.15c-0.05-0.05-0.15-0.1-0.15-0.2
	c-0.15-0.3-0.2-0.65-0.2-1c0-0.25,0.05-0.35,0.3-0.4c0.25-0.05,0.55-0.05,0.8-0.05l0.35-0.05c0.65,0,1.35,0.1,1.95,0.25l0.15,0.05
	C23,22.7,23,22.75,23,23z"/>
<g id="g52">
	<path id="path48" inkscape:connector-curvature="0" fill="#FDFCEE" d="M34.8,29.15c-3.98,0-7.2,3.22-7.2,7.2s3.22,7.2,7.2,7.2
		c3.98,0,7.2-3.22,7.2-7.2S38.78,29.15,34.8,29.15z"/>
	<path id="path50" inkscape:connector-curvature="0" fill="#472B29" d="M34.8,43.75c-4.1,0-7.4-3.3-7.4-7.4c0-4.1,3.3-7.4,7.4-7.4
		c4.1,0,7.4,3.3,7.4,7.4C42.2,40.4,38.9,43.75,34.8,43.75z M34.8,29.3c-3.9,0-7.05,3.15-7.05,7.05c0,3.9,3.15,7.05,7.05,7.05
		c3.9,0,7.05-3.15,7.05-7.05C41.85,32.45,38.7,29.3,34.8,29.3z"/>
</g>
<g id="g58">
	<path id="path54" inkscape:connector-curvature="0" fill="#78A0CF" d="M34.8,30.4c-3.29,0-5.95,2.66-5.95,5.95
		c0,3.29,2.66,5.95,5.95,5.95s5.95-2.66,5.95-5.95C40.75,33.06,38.09,30.4,34.8,30.4z"/>
	<path id="path56" inkscape:connector-curvature="0" fill="#472B29" d="M34.8,42.4c-3.35,0-6.1-2.75-6.1-6.1
		c0-3.35,2.75-6.1,6.1-6.1c3.35,0,6.1,2.75,6.1,6.1C40.9,39.7,38.15,42.4,34.8,42.4z M34.8,30.5c-3.2,0-5.85,2.6-5.85,5.85
		s2.6,5.85,5.85,5.85s5.85-2.6,5.85-5.85S38.05,30.5,34.8,30.5z"/>
</g>
<path id="path60" inkscape:connector-curvature="0" opacity="0.79" fill="#ABCDEF" enable-background="new    " d="M34.8,31.25
	c2.55,0,4.85,1.6,5.75,4c-0.6-3.2-3.7-5.25-6.85-4.65c-2.35,0.45-4.2,2.3-4.65,4.65C29.95,32.85,32.25,31.25,34.8,31.25z"/>
<g id="g66">
	<path id="path62" inkscape:connector-curvature="0" fill="#FDFCEF" d="M38.4,36.35c0,0-1.6,2.15-3.55,2.15
		c-1.95,0-3.55-2.15-3.55-2.15s1.6-2.15,3.55-2.15C36.8,34.2,38.4,36.35,38.4,36.35z"/>
	<path id="path64" inkscape:connector-curvature="0" fill="#472B29" d="M34.8,38.65c-2,0-3.6-2.1-3.65-2.2
		c-0.05-0.05-0.05-0.1,0-0.15c0.05-0.1,1.65-2.2,3.65-2.2s3.6,2.1,3.65,2.15s0.05,0.1,0,0.15C38.4,36.5,36.8,38.65,34.8,38.65z
		 M31.4,36.35c0.3,0.35,1.7,2,3.4,2s3.1-1.65,3.4-2.05c-0.3-0.35-1.75-2-3.4-2C33.15,34.35,31.7,36,31.4,36.35z"/>
</g>
<path id="path68" inkscape:connector-curvature="0" fill="#A3CAEF" d="M34.8,34.6c-0.97,0-1.75,0.78-1.75,1.75s0.78,1.75,1.75,1.75
	c0.97,0,1.75-0.78,1.75-1.75S35.77,34.6,34.8,34.6z"/>
<g id="g74">
	<path id="path70" inkscape:connector-curvature="0" fill="#78A0CF" d="M34.8,35.85c-0.28,0-0.5,0.22-0.5,0.5
		c0,0.28,0.22,0.5,0.5,0.5s0.5-0.22,0.5-0.5C35.3,36.07,35.08,35.85,34.8,35.85z"/>
	<path id="path72" inkscape:connector-curvature="0" fill="#472B29" d="M34.8,36.9c-0.3,0-0.6-0.25-0.6-0.6c0-0.35,0.25-0.6,0.6-0.6
		c0.35,0,0.6,0.25,0.6,0.6C35.4,36.65,35.1,36.9,34.8,36.9z M34.8,35.85c-0.25,0-0.45,0.2-0.45,0.45s0.2,0.45,0.45,0.45
		s0.45-0.2,0.45-0.45S35.05,35.85,34.8,35.85z"/>
</g>
<path id="path76" inkscape:connector-curvature="0" fill="#472B29" d="M36.25,37.35C36.2,37.35,36.2,37.35,36.25,37.35
	c-0.05-0.05-0.05-0.05-0.05-0.1c0.05-0.05,0.1-0.15,0.15-0.2l0.05-0.15c0-0.05,0.05-0.05,0.1-0.05s0.05,0.05,0.05,0.1L36.5,37.1
	c-0.05,0.1-0.1,0.15-0.15,0.25C36.25,37.35,36.25,37.35,36.25,37.35z"/>
<path id="path78" inkscape:connector-curvature="0" fill="#472B29" d="M34.85,38.1c-0.1,0-0.25,0-0.35-0.05
	c-0.45-0.1-0.85-0.35-1.15-0.75c-0.25-0.4-0.35-0.85-0.25-1.35c0.1-0.45,0.35-0.85,0.75-1.15c0.8-0.55,1.95-0.35,2.5,0.5
	c0.2,0.3,0.3,0.65,0.3,1c0,0.05-0.05,0.05-0.05,0.05l0,0c-0.05,0-0.05-0.05-0.05-0.05c0-0.35-0.1-0.65-0.3-0.95
	c-0.25-0.35-0.6-0.6-1.05-0.7c-0.45-0.1-0.9,0-1.25,0.25c-0.35,0.25-0.6,0.6-0.7,1.05s0,0.9,0.25,1.25c0.25,0.35,0.6,0.6,1.05,0.7
	c0.45,0.1,0.9,0,1.25-0.25c0.05-0.05,0.15-0.1,0.2-0.15c0,0,0.05,0,0.1,0c0,0.05,0,0.05,0,0.1c-0.05,0.05-0.15,0.1-0.2,0.15
	C35.55,38,35.2,38.1,34.85,38.1z"/>
<path id="path80" inkscape:connector-curvature="0" fill="#472B29" d="M36.5,36.8L36.5,36.8c-0.05,0-0.05-0.05-0.05-0.1l0,0
	c0-0.05,0.05-0.05,0.1-0.05s0.05,0.05,0.05,0.1l0,0C36.55,36.8,36.5,36.8,36.5,36.8z"/>
</svg>
