<?xml version="1.0" encoding="utf-8"?>
<!-- Generator: Adobe Illustrator 16.0.0, SVG Export Plug-In . SVG Version: 6.00 Build 0)  -->
<!DOCTYPE svg PUBLIC "-//W3C//DTD SVG 1.1//EN" "http://www.w3.org/Graphics/SVG/1.1/DTD/svg11.dtd">
<svg version="1.1"
	 id="svg72" xmlns:dc="http://purl.org/dc/elements/1.1/" xmlns:cc="http://creativecommons.org/ns#" xmlns:rdf="http://www.w3.org/1999/02/22-rdf-syntax-ns#" xmlns:svg="http://www.w3.org/2000/svg" xmlns:sodipodi="http://sodipodi.sourceforge.net/DTD/sodipodi-0.dtd" xmlns:inkscape="http://www.inkscape.org/namespaces/inkscape" inkscape:version="0.92.4 (5da689c313, 2019-01-14)" sodipodi:docname="verified-account.svg"
	 xmlns="http://www.w3.org/2000/svg" xmlns:xlink="http://www.w3.org/1999/xlink" x="0px" y="0px" width="50px" height="50px"
	 viewBox="0 0 50 50" enable-background="new 0 0 50 50" xml:space="preserve">
<sodipodi:namedview  inkscape:cy="21.822034" inkscape:cx="25" inkscape:zoom="4.72" showgrid="false" guidetolerance="10" gridtolerance="10" objecttolerance="10" bordercolor="#666666" pagecolor="#ffffff" borderopacity="1" id="namedview74" inkscape:current-layer="svg72" inkscape:window-maximized="1" inkscape:window-y="-8" inkscape:window-x="-8" inkscape:window-height="705" inkscape:window-width="1366" inkscape:pageshadow="2" inkscape:pageopacity="0">
	</sodipodi:namedview>
<g id="g1007" transform="matrix(4.52,0,0,4.52,-1.582,3.4857627)">
	<path id="path6" inkscape:connector-curvature="0" opacity="0.309" fill="#E4E4F9" enable-background="new    " d="M5.8,0.84
		c-2.26,0-4.09,1.83-4.09,4.09c0,2.26,1.83,4.09,4.09,4.09c2.26,0,4.09-1.83,4.09-4.09C9.9,2.67,8.06,0.84,5.8,0.84z"/>
	<g id="g997">
		<path id="path4-3" inkscape:connector-curvature="0" fill="#88CDD7" d="M8.79,0.73c-0.06,0-0.11,0.05-0.11,0.11
			c0,0.06,0.05,0.11,0.11,0.11c0.06,0,0.11-0.05,0.11-0.11C8.9,0.78,8.85,0.73,8.79,0.73z"/>
		<path id="path8-7" inkscape:connector-curvature="0" fill="#88CDD7" d="M9.45,0.62c-0.24,0-0.44,0.2-0.44,0.44
			c0,0.24,0.2,0.44,0.44,0.44C9.7,1.5,9.9,1.3,9.9,1.06C9.9,0.82,9.7,0.62,9.45,0.62z"/>
		<path id="path10" inkscape:connector-curvature="0" fill="#8889B9" d="M9.9,1.83c-0.12,0-0.22,0.1-0.22,0.22
			c0,0.12,0.1,0.22,0.22,0.22c0.12,0,0.22-0.1,0.22-0.22C10.12,1.93,10.02,1.83,9.9,1.83z"/>
		<path id="path12" inkscape:connector-curvature="0" fill="#88CDD7" d="M9.23,7.59c-0.12,0-0.22,0.1-0.22,0.22
			c0,0.12,0.1,0.22,0.22,0.22c0.12,0,0.22-0.1,0.22-0.22C9.45,7.68,9.35,7.59,9.23,7.59z M1.93,5.93c-0.24,0-0.44,0.2-0.44,0.44
			s0.2,0.44,0.44,0.44c0.24,0,0.44-0.2,0.44-0.44S2.18,5.93,1.93,5.93z"/>
		<path id="path14" inkscape:connector-curvature="0" fill="#8889B9" d="M3.04,8.8c-0.12,0-0.22,0.1-0.22,0.22
			c0,0.12,0.1,0.22,0.22,0.22c0.12,0,0.22-0.1,0.22-0.22C3.26,8.9,3.16,8.8,3.04,8.8z"/>
		<path id="path16" inkscape:connector-curvature="0" fill="#FFFFFF" d="M2.32,4.82c-0.15,0-0.28,0.12-0.28,0.28
			c0,0.15,0.12,0.28,0.28,0.28c0.15,0,0.28-0.12,0.28-0.28C2.6,4.94,2.47,4.82,2.32,4.82z M9.07,2.94c-0.09,0-0.17,0.08-0.17,0.17
			c0,0.09,0.08,0.17,0.17,0.17S9.23,3.2,9.23,3.11C9.23,3.01,9.16,2.94,9.07,2.94z"/>
	</g>
</g>
<path id="path2" inkscape:connector-curvature="0" fill="none" d="M0,50V0h50v50H0z"/>
<path id="path4" inkscape:connector-curvature="0" fill="#FFFFFF" d="M9.9,27.85c-0.25,0-0.45,0.2-0.45,0.45s0.2,0.45,0.45,0.45
	s0.45-0.2,0.45-0.45S10.15,27.85,9.9,27.85z M39.4,15.5c-0.19,0-0.35,0.16-0.35,0.35s0.16,0.35,0.35,0.35s0.35-0.16,0.35-0.35
	S39.59,15.5,39.4,15.5z"/>
<path id="path20" inkscape:connector-curvature="0" fill="#E5AC80" d="M33.8,35.55c-0.2-1.1-0.65-1.7-1.65-2l-0.2-0.05l-0.3-0.1
	c-0.65-0.25-4.35-1.65-4.35-1.65c-0.3-0.05-0.5-0.25-0.6-0.55c-0.1-0.5-0.15-0.95-0.1-1.45c-0.8,0.3-1.65,0.5-2.5,0.7
	c-0.95,0.1-3-1.15-3-1.15s-0.05,1.5-0.1,1.85c-0.1,0.3-0.35,0.5-0.65,0.55l-3.6,1.3c-0.4,0.1-0.75,0.25-1.1,0.45
	c-0.75,0.5-1.3,1.2-1.6,2.1c0,0-0.25,1.65-0.25,1.7c0,0.25-0.05,0.5-0.05,0.75c3.9,2.65,7,3.35,12.35,3.15
	c2.45-0.1,6.05-1.3,7.95-2.25C33.95,36.8,33.8,35.55,33.8,35.55z"/>
<path id="path22" inkscape:connector-curvature="0" fill="#8889B9" d="M32,33.45l-0.15-0.05l-0.3-0.1c-0.4-0.15-1.95-0.75-3.1-1.15
	H28.4c-1.25,0.65-3.05,1.6-4.7,1.6c-1.65,0-3.3-0.9-4.7-1.65l-0.15,0.05l-2.2,0.8c-0.4,0.1-0.75,0.25-1.1,0.45
	c-0.75,0.5-1.3,1.25-1.6,2.1c0,0-0.25,1.65-0.25,1.7c0,0.25-0.05,2.7-0.05,3c3.9,2.65,7,3.35,12.35,3.15
	c2.45-0.1,6.05-1.3,7.95-2.25c-0.1-2.15-0.25-5.6-0.25-5.6C33.5,34.4,33.05,33.8,32,33.45z"/>
<path id="path24" inkscape:connector-curvature="0" fill="#A1A1CA" d="M27.75,31.95c-0.05,0-0.05,0-0.1-0.05
	c-2.15,2.25-5.75,2.35-8,0.2c-0.05-0.05-0.05-0.05-0.1-0.1c-0.25,0.15-0.5,0.25-0.75,0.3c2.05,2.2,6.35,3.8,9.5-0.2
	C28.15,32.05,27.95,31.95,27.75,31.95z"/>
<path id="path26" inkscape:connector-curvature="0" fill="#6A6C99" d="M17.2,42.4c-0.1,0-0.15-0.05-0.15-0.15v-2
	c0-0.1,0.05-0.15,0.15-0.15c0.1,0,0.15,0.05,0.15,0.15v2C17.3,42.35,17.25,42.4,17.2,42.4z M30.35,42.75c-0.1,0-0.15-0.05-0.15-0.15
	v-2.3c0-0.1,0.05-0.15,0.15-0.15c0.1,0,0.15,0.05,0.15,0.15v2.3C30.5,42.7,30.4,42.75,30.35,42.75z"/>
<path id="path28" inkscape:connector-curvature="0" fill="#EDBC94" d="M29.95,22.4h-0.2c-0.5,0-0.6,0.15-0.6-0.15
	c0.05-0.5-0.05-2.65-0.05-2.75c0-2.2-2.35-4-5.25-4.1h-0.1c-2.9,0.1-5.2,1.9-5.2,4.1c0,0.1-0.1,2.25-0.05,2.75
	c0,0.3-0.1,0.1-0.6,0.15h-0.2c-0.5,0-0.9,0.3-1.05,0.8c0.05,0.05,0.3,1.85,0.7,2.55c0.2,0.4,0.55,0.45,0.9,0.7
	c0.15,0.1,0.25,0.3,0.3,0.5c0.25,0.8,0.7,1.45,1.35,2c0.3,0.3,2.25,2.35,3.95,2.25c1.7-0.1,3.65-1.95,3.95-2.25
	c0.6-0.55,1.1-1.2,1.35-2c0.05-0.2,0.15-0.4,0.3-0.5c0.35-0.25,0.7-0.3,0.9-0.7c0.4-0.7,0.65-2.5,0.7-2.55
	C30.85,22.7,30.4,22.4,29.95,22.4z"/>
<path id="path30" inkscape:connector-curvature="0" fill="#512C2B" d="M23.85,26.3c0.35,0,0.65-0.15,0.9-0.4c0,0,0-0.05,0-0.1l0,0
	l0,0c0,0-0.05,0-0.1,0l0,0c-0.2,0.2-0.5,0.35-0.8,0.3c-0.3,0-0.6-0.1-0.8-0.3H23c0,0,0,0-0.05,0c0,0,0,0.05,0,0.1l0,0
	C23.2,26.15,23.5,26.3,23.85,26.3z M22.75,21.2l0.2-0.4c-0.95-0.2-1.9-0.2-2.85,0.1l0.25,0.4C21.2,21.05,22,21,22.75,21.2z
	 M27.35,21.2l0.2-0.4c-0.95-0.2-1.9-0.2-2.85,0.1l0.25,0.4C25.75,21.05,26.6,21,27.35,21.2z M21.45,21.8c-0.2,0-0.4,0.15-0.5,0.35
	c0.05,0,0.05,0,0.1,0c0.2,0,0.35,0.15,0.35,0.35s-0.15,0.35-0.35,0.35c-0.05,0-0.1,0-0.15-0.05c0.05,0.3,0.3,0.55,0.6,0.6
	c0.45-0.1,0.7-0.55,0.6-1C22,22.1,21.75,21.9,21.45,21.8z M26.25,21.8c-0.2,0-0.35,0.1-0.45,0.25c0.05,0,0.1,0,0.1,0
	c0.2,0,0.35,0.15,0.35,0.35c0,0.2-0.15,0.35-0.35,0.35c-0.1,0-0.2-0.05-0.25-0.15c0.1,0.35,0.45,0.55,0.8,0.45
	c0.35-0.1,0.55-0.45,0.45-0.8C26.8,22,26.55,21.8,26.25,21.8z"/>
<path id="path32" inkscape:connector-curvature="0" fill="#472B29" d="M24.4,43.7c-4.45,0-7.3-0.9-10.75-3.2
	c-0.05-0.05-0.1-0.1-0.1-0.2c0-0.05,0-0.2,0-0.45c0-1.1,0.05-3.4,0.3-4.3c0.2-0.95,0.8-1.75,1.7-2.2c0.35-0.2,0.75-0.35,1.15-0.45
	l3.55-1.3c0.25-0.05,0.45-0.2,0.5-0.45c0-0.15,0.05-0.6,0.05-1.05c-0.35-0.25-0.75-0.55-1.05-0.8c-0.65-0.6-1.15-1.35-1.4-2.15
	c0-0.2-0.1-0.35-0.2-0.45c-0.1-0.1-0.2-0.15-0.3-0.2c-0.25-0.15-0.45-0.25-0.65-0.6c-0.4-0.85-0.65-1.75-0.7-2.7v-0.05
	c0.15-0.55,0.65-0.95,1.25-0.95h0.2c0.15,0,0.3,0,0.4,0.05c-0.05-0.5,0-1.9,0.05-2.5c0-0.15,0-0.25,0-0.25c0-2.35,2.4-4.3,5.45-4.4
	h0.1c3.05,0.1,5.45,2.05,5.45,4.4c0,0,0,0.1,0,0.25c0,0.6,0.05,2.05,0.05,2.5c0.1,0,0.2-0.05,0.4-0.05h0.2c0.6,0,1.1,0.4,1.25,0.95
	v0.05c-0.1,0.95-0.35,1.85-0.75,2.7c-0.2,0.35-0.4,0.45-0.65,0.6c-0.1,0.05-0.2,0.1-0.3,0.2c-0.1,0.1-0.2,0.25-0.2,0.4
	c-0.25,0.9-0.75,1.65-1.4,2.2c-0.35,0.3-0.75,0.6-1.15,0.9c0,0.35,0.05,0.65,0.15,1c0.1,0.2,0.25,0.35,0.5,0.4
	c0.15,0.05,3.75,1.4,4.35,1.65l0.45,0.2c1,0.3,1.55,0.95,1.8,2.15c0,0,0,0,0,0.05c0,0,0.15,3.45,0.25,5.6c0,0.1-0.05,0.15-0.1,0.2
	c-2,1-5.65,2.2-8.05,2.3C25.5,43.7,24.95,43.7,24.4,43.7z M13.95,40.25c3.7,2.5,6.8,3.25,12.15,3.05c2.25-0.1,5.75-1.2,7.75-2.2
	c-0.1-2.05-0.25-5.2-0.25-5.45c-0.2-1.05-0.65-1.55-1.55-1.85l-0.5-0.2c-0.6-0.25-4.3-1.6-4.35-1.65c-0.3-0.1-0.6-0.35-0.75-0.65
	c-0.15-0.4-0.15-0.85-0.15-1.25c0-0.05,0.05-0.1,0.1-0.15c0.4-0.3,0.8-0.6,1.2-0.9c0.6-0.55,1.05-1.2,1.3-2
	c0-0.2,0.15-0.45,0.35-0.6c0.15-0.1,0.25-0.15,0.35-0.25c0.2-0.1,0.35-0.2,0.5-0.45c0.35-0.8,0.6-1.65,0.7-2.5
	c-0.1-0.35-0.45-0.6-0.85-0.6h-0.2c-0.15,0-0.25,0-0.35,0.05c-0.15,0-0.25,0.05-0.35-0.05c-0.1-0.1-0.1-0.25-0.1-0.35
	c0.05-0.4,0-1.95-0.05-2.55c0-0.15,0-0.25,0-0.25c0-2.15-2.2-3.9-5.05-4h-0.1c-2.8,0.1-5.05,1.85-5.05,4c0,0,0,0.1,0,0.25
	c0,0.6-0.05,2.1-0.05,2.55c0,0.15,0,0.25-0.1,0.3c-0.1,0.1-0.2,0.05-0.35,0.05c-0.1,0-0.2-0.05-0.35-0.05h-0.2
	c-0.4,0-0.7,0.25-0.85,0.6c0.1,0.85,0.3,1.7,0.65,2.5c0.1,0.2,0.3,0.3,0.5,0.4c0.1,0.05,0.25,0.15,0.35,0.25
	c0.2,0.15,0.35,0.4,0.35,0.65c0.25,0.75,0.65,1.4,1.25,1.95c0.35,0.3,0.75,0.6,1.1,0.85c0.05,0.05,0.1,0.1,0.1,0.15
	c0,0.5-0.05,1.05-0.1,1.25c-0.15,0.4-0.45,0.65-0.8,0.75l-3.55,1.3c-0.4,0.1-0.75,0.25-1.05,0.45c-0.8,0.4-1.3,1.1-1.5,1.95
	c-0.25,0.85-0.25,3.2-0.3,4.2C13.95,40.05,13.95,40.15,13.95,40.25z"/>
<path id="path34" inkscape:connector-curvature="0" fill="#D3A47D" d="M29.95,24.75l-0.3-0.05l0.1-0.9l-0.5,0.2l-0.1-0.3l0.75-0.3
	c0.05,0,0.1,0,0.15,0c0.05,0.05,0.05,0.1,0.05,0.15L29.95,24.75z M17.85,24.55L17.7,23.4c0-0.05,0-0.1,0.05-0.15s0.1-0.05,0.15,0
	l0.75,0.3l-0.1,0.3l-0.5-0.2l0.1,0.9H17.85z"/>
<path id="path36" inkscape:connector-curvature="0" fill="#472B29" d="M18.5,26.8L18.5,26.8c-0.05,0-0.1-0.05-0.1-0.1l0.1-4.35
	c0-0.05,0.05-0.1,0.1-0.1l0,0c0.05,0,0.1,0.05,0.1,0.1l-0.1,4.35C18.6,26.75,18.55,26.8,18.5,26.8z M29.2,26.8
	c-0.05,0-0.1-0.05-0.1-0.1L29,22.35c0-0.05,0.05-0.1,0.1-0.1l0,0c0.05,0,0.1,0.05,0.1,0.1l0.1,4.35C29.3,26.75,29.25,26.8,29.2,26.8
	z M27.1,29.5c-0.9,0.6-2.6,0.95-2.9,0.4c-0.25-0.4-0.6-0.4-0.8,0c-0.35,0.6-2.15,0-3.1-0.7c-0.25,0,0,0.1-0.2,0.25
	c1.2,1.05,3.6,2.45,3.7,2.4l0,0c1.2-0.6,2.35-1.35,3.45-2.2C27,29.5,27.4,29.5,27.1,29.5z"/>
<path id="path38" inkscape:connector-curvature="0" fill="#EE3E54" d="M23.15,21.85c-1-0.85-4.75-0.25-4.75-0.25
	c0.05,0.2,0.15,0.4,0.2,0.6c0.25,0,0.3,0.45,0.3,0.65c0.15,0.8,0.9,1.35,2.45,1.35c1.55,0,1.9-0.85,2-1.35
	C23.4,22.45,23.35,22.1,23.15,21.85z M23,22.8c-0.1,0.7-0.7,1.1-1.65,1.15h-0.3c-1.55,0-1.8-0.95-1.85-1.6
	c0-0.35,0.35-0.65,0.85-0.7c0.3,0,0.6,0,1,0c1.15,0,1.65,0.2,1.8,0.35C22.95,22.25,23.05,22.55,23,22.8z M24.25,22.75
	c0.05,0.5,0.45,1.3,2,1.35c1.55,0.05,2.3-0.55,2.45-1.35c0-0.15,0.05-0.6,0.3-0.65c0.05-0.2,0.1-0.4,0.2-0.6c0,0-3.75-0.6-4.75,0.25
	C24.3,22.1,24.2,22.45,24.25,22.75z M24.85,22.05c0.15-0.15,0.65-0.35,1.8-0.35c0.35,0,0.7,0,1,0c0.5,0.05,0.85,0.35,0.85,0.7
	C28.45,23,28.2,24,26.65,24h-0.3c-1-0.05-1.6-0.45-1.65-1.15C24.6,22.5,24.7,22.25,24.85,22.05z"/>
<path id="path40" inkscape:connector-curvature="0" fill="#EE3E54" d="M24.5,22.5c-0.2-0.1-0.45-0.15-0.7-0.15
	c-0.2,0-0.45,0.05-0.65,0.15l-0.2-0.4h1.75L24.5,22.5z"/>
<path id="path42" inkscape:connector-curvature="0" fill="#6D1B18" d="M22.1,27.5c0,0.1-0.05,0.15-0.05,0.25
	c0,0.7,0.75,1.25,1.7,1.25s1.7-0.55,1.7-1.25c0-0.1,0-0.15,0-0.25H22.1z"/>
<path id="path44" inkscape:connector-curvature="0" fill="#EE3E54" d="M24.7,28.8c-0.55-0.4-1.3-0.4-1.8,0
	C23.5,29.05,24.15,29.05,24.7,28.8z"/>
<path id="path46" inkscape:connector-curvature="0" fill="#FDFCEF" d="M22.6,27.5L22.6,27.5v0.2c0,0.2,0.25,0.35,0.55,0.35h1.3
	c0.3,0,0.55-0.15,0.55-0.35v-0.2H22.6z"/>
<path id="path48" inkscape:connector-curvature="0" fill="#472B29" d="M23.8,29.1c-1,0-1.8-0.6-1.8-1.35c0-0.1,0-0.2,0.05-0.25
	c0-0.05,0.05-0.05,0.1-0.05h3.35c0.05,0,0.1,0.05,0.1,0.1c0,0.1,0.05,0.15,0.05,0.25C25.65,28.5,24.8,29.1,23.8,29.1z M22.2,27.6
	c0,0.05,0,0.1,0,0.15c0,0.65,0.7,1.15,1.6,1.15c0.9,0,1.6-0.5,1.6-1.15c0-0.05,0-0.1,0-0.15H22.2z M30,14.95
	c-0.05-0.25-0.35-0.25-0.65-0.2c-0.95,0.05-1.15-0.25-3.1-1.25c-1.65-0.9-3.6-0.8-5.15,0.25c-6,1.25-2.5,8.55-2.5,8.55
	s0-3.85,1.85-5.05c3.1,1.9,6.05,2.15,7.85,1C29,19.7,29,22.3,29,22.3c0.85-1.55,1.05-3.4,0.55-5.15C29.3,16.5,30.1,15.8,30,14.95z"
	/>
<g id="g54">
	<path id="path50" inkscape:connector-curvature="0" fill="#FDFCEE" d="M34.8,29.2c-3.98,0-7.2,3.22-7.2,7.2s3.22,7.2,7.2,7.2
		c3.98,0,7.2-3.22,7.2-7.2S38.78,29.2,34.8,29.2z"/>
	<path id="path52" inkscape:connector-curvature="0" fill="#472B29" d="M34.8,43.8c-4.1,0-7.4-3.3-7.4-7.4c0-4.1,3.3-7.4,7.4-7.4
		c4.1,0,7.4,3.3,7.4,7.4C42.2,40.45,38.9,43.8,34.8,43.8z M34.8,29.35c-3.9,0-7.05,3.15-7.05,7.05c0,3.9,3.15,7.05,7.05,7.05
		c3.9,0,7.05-3.15,7.05-7.05C41.85,32.5,38.65,29.35,34.8,29.35z"/>
</g>
<g id="g60">
	<path id="path56" inkscape:connector-curvature="0" fill="#93BC39" d="M34.8,30.45c-3.29,0-5.95,2.66-5.95,5.95
		c0,3.29,2.66,5.95,5.95,5.95s5.95-2.66,5.95-5.95C40.75,33.11,38.09,30.45,34.8,30.45z"/>
	<path id="path58" inkscape:connector-curvature="0" fill="#472B29" d="M34.8,42.5c-3.35,0-6.1-2.75-6.1-6.1
		c0-3.35,2.75-6.1,6.1-6.1c3.35,0,6.1,2.75,6.1,6.1C40.9,39.75,38.15,42.5,34.8,42.5z M34.8,30.55c-3.2,0-5.85,2.6-5.85,5.85
		s2.6,5.85,5.85,5.85s5.85-2.6,5.85-5.85S38,30.55,34.8,30.55z"/>
</g>
<path id="path62" inkscape:connector-curvature="0" opacity="0.79" fill="#C0D078" enable-background="new    " d="M34.8,31.3
	c2.55,0,4.85,1.6,5.75,4c-0.6-3.2-3.7-5.25-6.85-4.65c-2.35,0.45-4.2,2.3-4.65,4.65C29.95,32.9,32.2,31.3,34.8,31.3z"/>
<path id="path64" inkscape:connector-curvature="0" fill="#FDFCEE" d="M33.95,39.3c-0.15,0-0.25-0.05-0.35-0.15l-1.9-1.95
	c-0.2-0.2-0.2-0.5,0-0.7c0.1-0.1,0.2-0.15,0.35-0.15c0.15,0,0.25,0.05,0.35,0.15l1.5,1.6l3.2-3.55c0.1-0.1,0.25-0.15,0.35-0.15
	c0.3,0,0.5,0.2,0.5,0.5c0,0.15-0.05,0.25-0.15,0.35l-3.55,3.95C34.2,39.25,34.05,39.35,33.95,39.3z"/>
<path id="path66" inkscape:connector-curvature="0" fill="#472B29" d="M37.5,34.55c0.15,0,0.3,0.15,0.3,0.35c0,0.05,0,0.1-0.05,0.15
	L34.2,39c-0.05,0.05-0.15,0.1-0.2,0.1l0,0c-0.1,0-0.15-0.05-0.2-0.1l-1.9-1.95c-0.1-0.1-0.1-0.3,0-0.45c0.1-0.1,0.3-0.1,0.45,0l0,0
	L34,38.3l3.35-3.7C37.35,34.6,37.45,34.55,37.5,34.55 M37.5,34.15L37.5,34.15c-0.2,0-0.35,0.1-0.5,0.2l-3.1,3.4l-1.4-1.45
	c-0.25-0.25-0.7-0.25-1,0c-0.25,0.25-0.25,0.65,0,0.95l1.9,1.95c0.25,0.3,0.7,0.3,1,0l0,0l3.55-3.95c0.25-0.25,0.25-0.7,0-0.95
	c0,0,0,0-0.05-0.05C37.8,34.2,37.65,34.15,37.5,34.15z"/>
</svg>
