<?xml version="1.0" encoding="UTF-8" standalone="no"?>
<!-- Generator: Adobe Illustrator 16.0.0, SVG Export Plug-In . SVG Version: 6.00 Build 0)  -->

<svg
   xmlns:dc="http://purl.org/dc/elements/1.1/"
   xmlns:cc="http://creativecommons.org/ns#"
   xmlns:rdf="http://www.w3.org/1999/02/22-rdf-syntax-ns#"
   xmlns:svg="http://www.w3.org/2000/svg"
   xmlns="http://www.w3.org/2000/svg"
   xmlns:sodipodi="http://sodipodi.sourceforge.net/DTD/sodipodi-0.dtd"
   xmlns:inkscape="http://www.inkscape.org/namespaces/inkscape"
   version="1.1"
   id="svg140"
   x="0px"
   y="0px"
   width="50px"
   height="50px"
   viewBox="0 0 50 50"
   enable-background="new 0 0 50 50"
   xml:space="preserve"
   sodipodi:docname="wallet.svg"
   inkscape:version="0.92.4 (5da689c313, 2019-01-14)"><metadata
   id="metadata76"><rdf:RDF><cc:Work
       rdf:about=""><dc:format>image/svg+xml</dc:format><dc:type
         rdf:resource="http://purl.org/dc/dcmitype/StillImage" /></cc:Work></rdf:RDF></metadata><defs
   id="defs74">
	
	

		
		
		
		
		
		
		
		
		
	
			
			
			
			
			
			
			
			
		
			
			
			
			
			
			
			
			
			
			
			
		</defs><sodipodi:namedview
   pagecolor="#ffffff"
   bordercolor="#666666"
   borderopacity="1"
   objecttolerance="10"
   gridtolerance="10"
   guidetolerance="10"
   inkscape:pageopacity="0"
   inkscape:pageshadow="2"
   inkscape:window-width="1366"
   inkscape:window-height="705"
   id="namedview72"
   showgrid="false"
   inkscape:zoom="9.44"
   inkscape:cx="9.3816183"
   inkscape:cy="22.818114"
   inkscape:window-x="-8"
   inkscape:window-y="-8"
   inkscape:window-maximized="1"
   inkscape:current-layer="svg140" />
<g
   transform="translate(1.588983,0.6355935)"
   id="g1007"><path
     style="opacity:0.30899999;fill:#e4e4f9"
     inkscape:connector-curvature="0"
     id="path6-1"
     d="M 25,6.5 C 14.78,6.5 6.5,14.78 6.5,25 6.5,35.22 14.78,43.5 25,43.5 35.22,43.5 43.5,35.22 43.5,25 43.5,14.78 35.22,6.5 25,6.5 Z" /><g
     id="g997"><path
       d="M 38.5,6 C 38.22,6 38,6.22 38,6.5 38,6.78 38.22,7 38.5,7 38.78,7 39,6.78 39,6.5 39,6.22 38.78,6 38.5,6 Z"
       id="path4"
       inkscape:connector-curvature="0"
       style="fill:#88cdd7;fill-opacity:1" /><path
       d="m 41.5,5.5 c -1.1,0 -2,0.9 -2,2 0,1.1 0.9,2 2,2 1.1,0 2,-0.9 2,-2 0,-1.1 -0.9,-2 -2,-2 z"
       id="path8"
       inkscape:connector-curvature="0"
       style="fill:#88cdd7;fill-opacity:1" /><path
       d="m 43.5,11 c -0.55,0 -1,0.45 -1,1 0,0.55 0.45,1 1,1 0.55,0 1,-0.45 1,-1 0,-0.55 -0.45,-1 -1,-1 z"
       id="path10"
       inkscape:connector-curvature="0"
       style="fill:#8889b9" /><path
       d="m 40.5,37 c -0.55,0 -1,0.45 -1,1 0,0.55 0.45,1 1,1 0.55,0 1,-0.45 1,-1 0,-0.55 -0.45,-1 -1,-1 z m -33,-7.5 c -1.1,0 -2,0.9 -2,2 0,1.1 0.9,2 2,2 1.1,0 2,-0.9 2,-2 0,-1.1 -0.9,-2 -2,-2 z"
       id="path12"
       inkscape:connector-curvature="0"
       style="fill:#88cdd7;fill-opacity:1" /><path
       d="m 12.5,42.5 c -0.55,0 -1,0.45 -1,1 0,0.55 0.45,1 1,1 0.55,0 1,-0.45 1,-1 0,-0.55 -0.45,-1 -1,-1 z"
       id="path14"
       inkscape:connector-curvature="0"
       style="fill:#8889b9" /><path
       d="M 9.25,24.5 C 8.56,24.5 8,25.06 8,25.75 8,26.44 8.56,27 9.25,27 9.94,27 10.5,26.44 10.5,25.75 10.5,25.06 9.94,24.5 9.25,24.5 Z M 39.75,16 C 39.34,16 39,16.34 39,16.75 c 0,0.41 0.34,0.75 0.75,0.75 0.41,0 0.75,-0.34 0.75,-0.75 C 40.5,16.34 40.16,16 39.75,16 Z"
       id="path16"
       inkscape:connector-curvature="0"
       style="fill:#ffffff" /></g></g><path
   style="fill:none"
   inkscape:connector-curvature="0"
   d="M 0,50 V 0 h 50 v 50 z"
   id="path2" /><path
   style="fill:#ffffff;fill-opacity:1"
   inkscape:connector-curvature="0"
   d="M 29.42,34.13 H 15.61 c -0.96,0 -1.74,-0.79 -1.74,-1.75 V 16.09 c 0,-0.99 0.81,-1.81 1.8,-1.81 h 13.75 c 2.31,0 4.2,1.9 4.2,4.22 v 11.4 c 0.01,2.33 -1.89,4.23 -4.2,4.23 z"
   id="path18" /><path
   style="fill:#472b29"
   inkscape:connector-curvature="0"
   d="M 29.42,34.5 H 15.61 c -1.16,0 -2.11,-0.95 -2.11,-2.12 v -16.3 c 0,-1.2 0.97,-2.18 2.17,-2.18 h 13.75 c 2.52,0 4.57,2.06 4.57,4.59 v 11.4 c 0,2.55 -2.05,4.61 -4.57,4.61 z M 15.67,14.65 c -0.79,0 -1.43,0.65 -1.43,1.44 v 16.29 c 0,0.76 0.62,1.38 1.37,1.38 h 13.81 c 2.12,0 3.84,-1.73 3.84,-3.85 V 18.5 c 0,-2.13 -1.72,-3.85 -3.84,-3.85 z"
   id="path20" /><path
   style="fill:#472b29"
   inkscape:connector-curvature="0"
   d="m 15.38,24.71 c -0.09,0 -0.17,-0.08 -0.17,-0.17 V 17.3 c 0,-0.93 0.75,-1.68 1.67,-1.68 h 12.23 c 0.09,0 0.17,0.08 0.17,0.17 0,0.09 -0.08,0.17 -0.17,0.17 H 16.88 c -0.73,0 -1.33,0.6 -1.33,1.34 v 7.24 c 0,0.1 -0.08,0.17 -0.17,0.17 z m 0,3.37 c -0.09,0 -0.17,-0.08 -0.17,-0.17 v -1.35 c 0,-0.1 0.08,-0.17 0.17,-0.17 0.09,0 0.17,0.08 0.17,0.17 v 1.35 c 0,0.09 -0.08,0.17 -0.17,0.17 z m 13.54,4.71 H 16.95 c -0.96,0 -1.75,-0.8 -1.75,-1.78 v -2.42 c 0,-0.09 0.08,-0.17 0.17,-0.17 0.09,0 0.17,0.08 0.17,0.17 V 31 c 0,0.79 0.63,1.44 1.4,1.44 h 11.97 c 1.67,0 3.03,-1.4 3.03,-3.11 V 23.2 c 0,-0.09 0.08,-0.17 0.17,-0.17 0.09,0 0.17,0.08 0.17,0.17 v 6.14 c 0.01,1.9 -1.5,3.45 -3.36,3.45 z m 3.2,-11.44 c -0.09,0 -0.17,-0.08 -0.17,-0.17 v -1.35 c 0,-0.1 0.08,-0.17 0.17,-0.17 0.09,0 0.17,0.08 0.17,0.17 v 1.35 c 0,0.09 -0.08,0.17 -0.17,0.17 z m 0,-2.02 c -0.09,0 -0.17,-0.08 -0.17,-0.17 v -0.67 c 0,-0.09 0.08,-0.17 0.17,-0.17 0.09,0 0.17,0.08 0.17,0.17 v 0.67 c 0,0.09 -0.08,0.17 -0.17,0.17 z"
   id="path22" /><path
   style="fill:#ffffff;fill-opacity:1"
   inkscape:connector-curvature="0"
   d="m 35.13,26.56 h -7.12 c -1.24,0 -2.25,-1.02 -2.25,-2.26 v -0.18 c 0,-1.25 1.02,-2.26 2.25,-2.26 h 7.27 c 0.29,0 0.52,0.23 0.52,0.52 v 3.51 c 0,0.37 -0.3,0.67 -0.67,0.67 z"
   id="path24" /><path
   style="fill:#472b29"
   inkscape:connector-curvature="0"
   d="m 35.13,26.76 h -7.12 c -1.35,0 -2.45,-1.1 -2.45,-2.46 v -0.18 c 0,-1.36 1.1,-2.46 2.45,-2.46 h 7.27 c 0.4,0 0.72,0.32 0.72,0.72 v 3.51 c 0,0.48 -0.39,0.87 -0.87,0.87 z m -7.12,-4.71 c -1.13,0 -2.06,0.93 -2.06,2.07 v 0.18 c 0,1.14 0.92,2.06 2.06,2.06 h 7.12 c 0.26,0 0.47,-0.21 0.47,-0.47 v -3.51 c 0,-0.18 -0.14,-0.33 -0.32,-0.33 z"
   id="path26" /><g
   id="g32">
				<path
   style="fill:#fdfcee"
   inkscape:connector-curvature="0"
   d="m 28.77,23.53 c -0.37,0 -0.67,0.3 -0.67,0.67 0,0.37 0.3,0.67 0.67,0.67 0.37,0 0.67,-0.3 0.67,-0.67 0,-0.37 -0.3,-0.67 -0.67,-0.67 z"
   id="path28" />
				<path
   style="fill:#472b29"
   inkscape:connector-curvature="0"
   d="m 28.77,25.05 c -0.46,0 -0.84,-0.38 -0.84,-0.84 0,-0.46 0.38,-0.85 0.84,-0.85 0.46,0 0.84,0.38 0.84,0.85 0,0.47 -0.38,0.84 -0.84,0.84 z m 0,-1.35 c -0.27,0 -0.5,0.23 -0.5,0.5 0,0.27 0.22,0.5 0.5,0.5 0.28,0 0.5,-0.23 0.5,-0.5 0,-0.27 -0.23,-0.5 -0.5,-0.5 z"
   id="path30" />
			</g><g
   style="opacity:0.38000034"
   id="g48">
				<path
   style="fill:none"
   inkscape:connector-curvature="0"
   d="m 18.15,18.59 2.2,2.21"
   id="path34" />
				<path
   style="fill:#472b29"
   inkscape:connector-curvature="0"
   d="m 20.35,20.97 c -0.04,0 -0.09,-0.02 -0.12,-0.05 l -2.2,-2.21 c -0.07,-0.07 -0.07,-0.18 0,-0.24 0.07,-0.07 0.17,-0.07 0.24,0 l 2.2,2.21 c 0.07,0.07 0.07,0.18 0,0.24 -0.03,0.04 -0.08,0.05 -0.12,0.05 z"
   id="path36" />
				<path
   style="fill:none"
   inkscape:connector-curvature="0"
   d="m 19.25,19.7 -1.1,1.11"
   id="path38" />
				<path
   style="fill:#472b29"
   inkscape:connector-curvature="0"
   d="m 18.15,20.97 c -0.04,0 -0.09,-0.02 -0.12,-0.05 -0.07,-0.07 -0.07,-0.18 0,-0.24 l 1.1,-1.1 c 0.07,-0.07 0.17,-0.07 0.24,0 0.07,0.07 0.07,0.18 0,0.24 l -1.1,1.1 c -0.04,0.04 -0.08,0.05 -0.12,0.05 z"
   id="path40" />
				<g
   id="g46">
					<path
   style="fill:none"
   inkscape:connector-curvature="0"
   d="M 20.35,18.59 19.84,19.1"
   id="path42" />
					<path
   style="fill:#472b29"
   inkscape:connector-curvature="0"
   d="m 19.84,19.28 c -0.04,0 -0.09,-0.02 -0.12,-0.05 -0.07,-0.07 -0.07,-0.18 0,-0.24 l 0.51,-0.51 c 0.07,-0.07 0.17,-0.07 0.24,0 0.07,0.07 0.07,0.18 0,0.24 l -0.51,0.51 c -0.04,0.03 -0.08,0.05 -0.12,0.05 z"
   id="path44" />
				</g>
			</g><g
   style="opacity:0.38000034"
   id="g64">
				<path
   style="fill:none"
   inkscape:connector-curvature="0"
   d="m 17.83,27.19 2.2,2.21"
   id="path50" />
				<path
   style="fill:#472b29"
   inkscape:connector-curvature="0"
   d="m 20.03,29.57 c -0.04,0 -0.09,-0.02 -0.12,-0.05 l -2.2,-2.21 c -0.07,-0.07 -0.07,-0.18 0,-0.24 0.07,-0.06 0.17,-0.07 0.24,0 l 2.2,2.21 c 0.07,0.07 0.07,0.18 0,0.24 -0.03,0.03 -0.07,0.05 -0.12,0.05 z"
   id="path52" />
				<path
   style="fill:none"
   inkscape:connector-curvature="0"
   d="m 18.93,28.29 -1.1,1.11"
   id="path54" />
				<path
   style="fill:#472b29"
   inkscape:connector-curvature="0"
   d="m 17.83,29.57 c -0.04,0 -0.09,-0.02 -0.12,-0.05 -0.07,-0.07 -0.07,-0.17 0,-0.24 l 1.1,-1.11 c 0.07,-0.07 0.17,-0.07 0.24,0 0.07,0.07 0.07,0.18 0,0.24 l -1.1,1.11 c -0.03,0.03 -0.07,0.05 -0.12,0.05 z"
   id="path56" />
				<g
   id="g62">
					<path
   style="fill:none"
   inkscape:connector-curvature="0"
   d="m 20.03,27.19 -0.51,0.52"
   id="path58" />
					<path
   style="fill:#472b29"
   inkscape:connector-curvature="0"
   d="m 19.52,27.87 c -0.04,0 -0.09,-0.02 -0.12,-0.05 -0.07,-0.07 -0.07,-0.17 0,-0.24 l 0.51,-0.51 c 0.07,-0.07 0.17,-0.07 0.24,0 0.07,0.07 0.07,0.17 0,0.24 l -0.51,0.51 c -0.03,0.04 -0.08,0.05 -0.12,0.05 z"
   id="path60" />
				</g>
			</g><g
   style="opacity:0.38000034"
   id="g80">
				<path
   style="fill:none"
   inkscape:connector-curvature="0"
   d="m 23.84,18.59 2.2,2.21"
   id="path66" />
				<path
   style="fill:#472b29"
   inkscape:connector-curvature="0"
   d="m 26.04,20.97 c -0.04,0 -0.09,-0.02 -0.12,-0.05 l -2.2,-2.21 c -0.07,-0.07 -0.07,-0.18 0,-0.24 0.07,-0.07 0.17,-0.07 0.24,0 l 2.2,2.21 c 0.07,0.07 0.07,0.18 0,0.24 -0.03,0.04 -0.08,0.05 -0.12,0.05 z"
   id="path68" />
				<path
   style="fill:none"
   inkscape:connector-curvature="0"
   d="m 24.94,19.7 -1.1,1.11"
   id="path70" />
				<path
   style="fill:#472b29"
   inkscape:connector-curvature="0"
   d="m 23.84,20.97 c -0.04,0 -0.09,-0.02 -0.12,-0.05 -0.07,-0.07 -0.07,-0.18 0,-0.24 l 1.1,-1.1 c 0.07,-0.07 0.17,-0.07 0.24,0 0.07,0.07 0.07,0.18 0,0.24 l -1.1,1.1 c -0.03,0.04 -0.08,0.05 -0.12,0.05 z"
   id="path72" />
				<g
   id="g78">
					<path
   style="fill:none"
   inkscape:connector-curvature="0"
   d="M 26.04,18.59 25.53,19.1"
   id="path74" />
					<path
   style="fill:#472b29"
   inkscape:connector-curvature="0"
   d="m 25.53,19.28 c -0.04,0 -0.09,-0.02 -0.12,-0.05 -0.07,-0.07 -0.07,-0.18 0,-0.24 l 0.51,-0.51 c 0.07,-0.07 0.17,-0.07 0.24,0 0.07,0.07 0.07,0.18 0,0.24 l -0.51,0.51 c -0.04,0.03 -0.08,0.05 -0.12,0.05 z"
   id="path76" />
				</g>
			</g><g
   style="opacity:0.38000034"
   id="g96">
				<path
   style="fill:none"
   inkscape:connector-curvature="0"
   d="m 23.52,27.19 2.2,2.21"
   id="path82" />
				<path
   style="fill:#472b29"
   inkscape:connector-curvature="0"
   d="m 25.72,29.57 c -0.04,0 -0.09,-0.02 -0.12,-0.05 l -2.2,-2.21 c -0.07,-0.07 -0.07,-0.18 0,-0.24 0.07,-0.06 0.17,-0.07 0.24,0 l 2.2,2.21 c 0.07,0.07 0.07,0.18 0,0.24 -0.03,0.03 -0.07,0.05 -0.12,0.05 z"
   id="path84" />
				<path
   style="fill:none"
   inkscape:connector-curvature="0"
   d="m 24.62,28.29 -1.1,1.11"
   id="path86" />
				<path
   style="fill:#472b29"
   inkscape:connector-curvature="0"
   d="m 23.52,29.57 c -0.04,0 -0.09,-0.02 -0.12,-0.05 -0.07,-0.07 -0.07,-0.17 0,-0.24 l 1.1,-1.11 c 0.07,-0.07 0.17,-0.07 0.24,0 0.07,0.07 0.07,0.18 0,0.24 l -1.1,1.11 c -0.03,0.03 -0.07,0.05 -0.12,0.05 z"
   id="path88" />
				<g
   id="g94">
					<path
   style="fill:none"
   inkscape:connector-curvature="0"
   d="m 25.72,27.19 -0.51,0.52"
   id="path90" />
					<path
   style="fill:#472b29"
   inkscape:connector-curvature="0"
   d="m 25.21,27.87 c -0.04,0 -0.09,-0.02 -0.12,-0.05 -0.07,-0.07 -0.07,-0.17 0,-0.24 l 0.51,-0.51 c 0.07,-0.07 0.17,-0.07 0.24,0 0.07,0.07 0.07,0.17 0,0.24 l -0.51,0.51 c -0.03,0.04 -0.08,0.05 -0.12,0.05 z"
   id="path92" />
				</g>
			</g><g
   id="g102">
				<path
   style="fill:#9daa39"
   inkscape:connector-curvature="0"
   d="m 27.68,12.28 -0.24,-1.06 -12.49,2.89 14.39,-1.99 0.65,1.99 -14.95,0.18"
   id="path98" />
				<path
   style="fill:#472b29"
   inkscape:connector-curvature="0"
   d="m 15.04,14.46 c -0.09,0 -0.17,-0.08 -0.17,-0.17 0,-0.01 0,-0.02 0,-0.03 -0.04,-0.02 -0.08,-0.07 -0.09,-0.12 -0.02,-0.09 0.04,-0.18 0.13,-0.2 L 27.4,11.05 c 0.04,-0.01 0.09,0 0.13,0.02 0.04,0.02 0.07,0.06 0.08,0.11 l 0.22,0.98 1.49,-0.21 c 0.08,-0.01 0.16,0.04 0.19,0.12 l 0.65,1.99 c 0.02,0.05 0.01,0.11 -0.02,0.15 -0.03,0.04 -0.08,0.07 -0.14,0.07 l -14.96,0.18 c 0,0 0,0 0,0 z M 29.22,12.31 16.27,14.1 29.75,13.94 Z m -1.91,-0.89 -8.62,2 8.79,-1.22 z"
   id="path100" />
			</g><path
   style="fill:#fbcd59"
   inkscape:connector-curvature="0"
   d="m 28.3,31.21 c -1.95,0 -3.54,1.57 -3.54,3.52 0,1.94 1.58,3.51 3.54,3.51 1.95,0 3.54,-1.57 3.54,-3.51 0,-1.94 -1.59,-3.52 -3.54,-3.52 z"
   id="path106" /><path
   style="fill:#472b29"
   inkscape:connector-curvature="0"
   d="m 28.3,38.5 c -2.09,0 -3.8,-1.69 -3.8,-3.77 0,-2.08 1.7,-3.77 3.8,-3.77 2.09,0 3.8,1.69 3.8,3.77 0,2.08 -1.71,3.77 -3.8,3.77 z m 0,-7.03 c -1.81,0 -3.28,1.46 -3.28,3.26 0,1.79 1.47,3.26 3.28,3.26 1.81,0 3.28,-1.46 3.28,-3.26 0,-1.8 -1.47,-3.26 -3.28,-3.26 z"
   id="path108" /><path
   style="fill:#f1bc19"
   inkscape:connector-curvature="0"
   d="m 28.3,32.43 c -1.28,0 -2.31,1.03 -2.31,2.3 0,1.27 1.04,2.3 2.31,2.3 1.27,0 2.31,-1.03 2.31,-2.3 0,-1.27 -1.03,-2.3 -2.31,-2.3 z"
   id="path110" /><path
   style="fill:#472b29"
   inkscape:connector-curvature="0"
   d="m 28.3,37.15 c -1.35,0 -2.44,-1.09 -2.44,-2.43 0,-1.34 1.1,-2.43 2.44,-2.43 1.34,0 2.44,1.09 2.44,2.43 0,1.34 -1.1,2.43 -2.44,2.43 z m 0,-4.59 c -1.2,0 -2.18,0.97 -2.18,2.17 0,1.2 0.98,2.17 2.18,2.17 1.2,0 2.18,-0.97 2.18,-2.17 0,-1.2 -0.98,-2.17 -2.18,-2.17 z"
   id="path112" /><g
   id="g118">
				<path
   style="fill:#fbcd59"
   inkscape:connector-curvature="0"
   d="m 34.2,28.26 c -1.95,0 -3.54,1.57 -3.54,3.51 0,1.94 1.58,3.52 3.54,3.52 1.96,0 3.54,-1.57 3.54,-3.52 0,-1.94 -1.58,-3.51 -3.54,-3.51 z"
   id="path114" />
				<path
   style="fill:#472b29"
   inkscape:connector-curvature="0"
   d="m 34.2,35.55 c -2.09,0 -3.8,-1.69 -3.8,-3.77 0,-2.08 1.7,-3.77 3.8,-3.77 2.1,0 3.8,1.69 3.8,3.77 0,2.08 -1.7,3.77 -3.8,3.77 z m 0,-7.03 c -1.81,0 -3.28,1.46 -3.28,3.26 0,1.8 1.47,3.26 3.28,3.26 1.81,0 3.28,-1.46 3.28,-3.26 0,-1.8 -1.47,-3.26 -3.28,-3.26 z"
   id="path116" />
			</g><g
   id="g124">
				<path
   style="fill:#f1bc19"
   inkscape:connector-curvature="0"
   d="m 34.2,29.48 c -1.28,0 -2.31,1.03 -2.31,2.3 0,1.27 1.04,2.3 2.31,2.3 1.28,0 2.31,-1.03 2.31,-2.3 0,-1.27 -1.03,-2.3 -2.31,-2.3 z"
   id="path120" />
				<path
   style="fill:#472b29"
   inkscape:connector-curvature="0"
   d="m 34.2,34.2 c -1.35,0 -2.44,-1.09 -2.44,-2.43 0,-1.34 1.1,-2.43 2.44,-2.43 1.35,0 2.44,1.09 2.44,2.43 0,1.34 -1.09,2.43 -2.44,2.43 z m 0,-4.59 c -1.2,0 -2.18,0.97 -2.18,2.17 0,1.2 0.98,2.17 2.18,2.17 1.2,0 2.18,-0.97 2.18,-2.17 0,-1.2 -0.97,-2.17 -2.18,-2.17 z"
   id="path122" />
			</g>
</svg>