<?xml version="1.0" encoding="UTF-8" standalone="no"?>
<!-- Generator: Adobe Illustrator 16.0.0, SVG Export Plug-In . SVG Version: 6.00 Build 0)  -->

<svg
   xmlns:dc="http://purl.org/dc/elements/1.1/"
   xmlns:cc="http://creativecommons.org/ns#"
   xmlns:rdf="http://www.w3.org/1999/02/22-rdf-syntax-ns#"
   xmlns:svg="http://www.w3.org/2000/svg"
   xmlns="http://www.w3.org/2000/svg"
   xmlns:sodipodi="http://sodipodi.sourceforge.net/DTD/sodipodi-0.dtd"
   xmlns:inkscape="http://www.inkscape.org/namespaces/inkscape"
   version="1.1"
   id="Layer_1"
   x="0px"
   y="0px"
   width="100px"
   height="100px"
   viewBox="0 0 100 100"
   enable-background="new 0 0 100 100"
   xml:space="preserve"
   sodipodi:docname="no-data.svg"
   inkscape:version="0.92.4 (5da689c313, 2019-01-14)"><metadata
   id="metadata85"><rdf:RDF><cc:Work
       rdf:about=""><dc:format>image/svg+xml</dc:format><dc:type
         rdf:resource="http://purl.org/dc/dcmitype/StillImage" /></cc:Work></rdf:RDF></metadata><defs
   id="defs83">
	
	

		
		
		
		
		
		
		
		
		
		
		
		
	</defs><sodipodi:namedview
   pagecolor="#ffffff"
   bordercolor="#666666"
   borderopacity="1"
   objecttolerance="10"
   gridtolerance="10"
   guidetolerance="10"
   inkscape:pageopacity="0"
   inkscape:pageshadow="2"
   inkscape:window-width="1366"
   inkscape:window-height="705"
   id="namedview81"
   showgrid="false"
   inkscape:zoom="2.36"
   inkscape:cx="50"
   inkscape:cy="50"
   inkscape:window-x="-8"
   inkscape:window-y="-8"
   inkscape:window-maximized="1"
   inkscape:current-layer="Layer_1" />
<path
   style="fill:none"
   inkscape:connector-curvature="0"
   id="path2"
   d="M 0,100 V 0 h 100 v 100 z" /><path
   d="M 86.7,55.88 C 87,55.26 87.27,54.62 87.5,53.94 90.13,46.17 86.15,36.86 77.77,34.61 76.86,23.23 68.86,15.42 59.83,14.08 49.49,12.56 40.02,19.12 36.86,29.57 c -3.8,-1.35 -7.5,-1.18 -10.99,0.86 -1.58,0.73 -3.03,1.81 -4.33,3.23 -1.91,2.09 -3.15,4.72 -3.65,7.5 -0.75,0.12 -1.48,0.24 -2.18,0.48 -4.04,1.45 -6.59,4.43 -7.29,8.92 -0.44,2.8 0.44,5.59 0.93,6.71 1.94,4.46 6.42,6.98 10.98,6.31 0.23,-0.03 0.56,0.07 0.75,0.23 0.24,7.12 3.7,13.42 8.88,17.01 8.32,5.77 19.03,3.99 25.78,-3.92 2.89,2.96 6.34,4.4 10.38,3.88 4.02,-0.52 7.15,-2.74 9.43,-6.35 1.05,0.28 2.05,0.69 3.08,0.8 4.04,0.44 7.3,-1.18 9.73,-4.8 0.08,-0.12 0.2,-0.22 0.31,-0.33 0.35,-0.8 0.7,-1.6 1.04,-2.39 0.16,-1.21 0.43,-2.42 0.44,-3.63 0.06,-3.24 -1.27,-6.21 -3.45,-8.2 z"
   id="path4"
   inkscape:connector-curvature="0"
   style="fill:#c8ede6;opacity:0.3" /><path
   d="m 78.53,68.06 c 0,0 11.69,0 11.76,0 2.7,0 4.89,-2.19 4.89,-4.89 0,-2.36 -1.67,-4.32 -3.88,-4.78 0.03,-0.21 0.04,-0.42 0.04,-0.63 0,-2.8 -2.27,-5.06 -5.06,-5.06 -1.65,0 -3.11,0.79 -4.04,2.02 C 82,51.6 79.22,49.2 75.97,49.6 c -2.38,0.29 -4.35,2.13 -4.78,4.49 -0.14,0.76 -0.13,1.49 0.01,2.18 -0.64,-0.69 -1.55,-1.12 -2.56,-1.12 -1.85,0 -3.36,1.44 -3.48,3.26 -0.84,-0.19 -1.75,-0.17 -2.72,0.19 -1.84,0.69 -3.15,2.42 -3.23,4.39 -0.11,2.79 2.12,5.08 4.89,5.08 0.21,0 0.95,0 1.12,0 h 10.15"
   id="path6"
   inkscape:connector-curvature="0"
   style="fill:#fdfcef" /><path
   d="M 90.29,68.56 H 78.53 c -0.28,0 -0.5,-0.22 -0.5,-0.5 0,-0.28 0.22,-0.5 0.5,-0.5 h 11.76 c 2.42,0 4.39,-1.97 4.39,-4.39 0,-2.07 -1.47,-3.87 -3.49,-4.29 -0.26,-0.05 -0.43,-0.29 -0.39,-0.55 0.02,-0.19 0.04,-0.38 0.04,-0.57 0,-2.52 -2.05,-4.56 -4.56,-4.56 -1.44,0 -2.77,0.66 -3.64,1.82 -0.13,0.17 -0.34,0.24 -0.54,0.18 -0.2,-0.06 -0.34,-0.23 -0.36,-0.44 -0.1,-1.38 -0.78,-2.67 -1.85,-3.55 -1.08,-0.89 -2.45,-1.28 -3.86,-1.11 -2.17,0.26 -3.96,1.94 -4.35,4.08 -0.12,0.67 -0.12,1.33 0.01,1.99 0.04,0.22 -0.06,0.44 -0.26,0.54 -0.2,0.1 -0.44,0.06 -0.59,-0.1 -0.58,-0.62 -1.35,-0.96 -2.19,-0.96 -1.57,0 -2.88,1.23 -2.98,2.79 -0.01,0.15 -0.08,0.28 -0.2,0.37 -0.12,0.09 -0.27,0.12 -0.41,0.09 -0.84,-0.19 -1.64,-0.13 -2.43,0.17 -1.67,0.63 -2.83,2.21 -2.9,3.94 -0.05,1.21 0.39,2.35 1.22,3.22 0.84,0.87 1.96,1.35 3.16,1.35 h 11.27 c 0.28,0 0.5,0.22 0.5,0.5 0,0.28 -0.22,0.5 -0.5,0.5 H 64.1 c -1.48,0 -2.86,-0.59 -3.88,-1.65 -1.02,-1.07 -1.56,-2.47 -1.5,-3.95 0.08,-2.13 1.51,-4.07 3.55,-4.83 0.8,-0.3 1.63,-0.4 2.47,-0.3 0.38,-1.82 2,-3.18 3.9,-3.18 0.68,0 1.35,0.18 1.94,0.51 0,-0.38 0.04,-0.77 0.11,-1.16 0.48,-2.56 2.62,-4.57 5.21,-4.89 1.68,-0.21 3.32,0.27 4.62,1.33 1,0.82 1.71,1.95 2.04,3.19 1.01,-0.92 2.32,-1.42 3.71,-1.42 3.07,0 5.56,2.5 5.56,5.56 0,0.08 0,0.17 -0.01,0.25 2.25,0.67 3.85,2.78 3.85,5.16 0.01,2.94 -2.41,5.36 -5.38,5.36 z"
   id="path8"
   inkscape:connector-curvature="0"
   style="fill:#472b29" /><path
   d="m 75.7,57.29 c -1.81,-0.12 -3.37,1.13 -3.48,2.79 -0.01,0.21 0,0.41 0.03,0.61 -0.35,-0.39 -0.87,-0.66 -1.46,-0.7 -1.08,-0.07 -2.02,0.64 -2.16,1.62 -0.2,-0.05 -0.4,-0.09 -0.62,-0.1 -1.58,-0.1 -2.94,0.99 -3.04,2.44"
   id="path10"
   inkscape:connector-curvature="0"
   style="fill:#fdfcef" /><path
   d="m 64.97,64.2 c -0.01,0 -0.01,0 -0.02,0 -0.14,-0.01 -0.24,-0.13 -0.23,-0.27 0.11,-1.59 1.58,-2.78 3.31,-2.67 0.14,0.01 0.27,0.03 0.41,0.05 0.27,-0.97 1.26,-1.64 2.37,-1.57 0.43,0.03 0.82,0.16 1.16,0.38 0,-0.02 0,-0.04 0,-0.05 0.12,-1.79 1.8,-3.14 3.74,-3.02 0.14,0.01 0.24,0.13 0.23,0.27 -0.01,0.14 -0.12,0.24 -0.27,0.23 -1.66,-0.11 -3.11,1.04 -3.21,2.56 -0.01,0.18 0,0.37 0.02,0.55 0.02,0.11 -0.04,0.22 -0.14,0.26 -0.1,0.05 -0.22,0.02 -0.29,-0.06 -0.32,-0.36 -0.79,-0.58 -1.29,-0.62 -0.94,-0.06 -1.77,0.56 -1.89,1.4 -0.01,0.07 -0.05,0.13 -0.11,0.17 -0.06,0.04 -0.13,0.05 -0.2,0.03 -0.19,-0.05 -0.38,-0.08 -0.57,-0.1 -1.44,-0.1 -2.69,0.89 -2.78,2.21 0,0.14 -0.11,0.25 -0.24,0.25 z"
   id="path12"
   inkscape:connector-curvature="0"
   style="fill:#472b29" /><path
   d="m 92.27,58.96 c -1.7,-0.8 -3.66,-0.23 -4.39,1.27 -0.09,0.19 -0.16,0.38 -0.2,0.57"
   id="path14"
   inkscape:connector-curvature="0"
   style="fill:#fdfcef" /><path
   d="m 87.68,61.05 c -0.02,0 -0.04,0 -0.06,-0.01 -0.13,-0.03 -0.22,-0.17 -0.19,-0.3 0.05,-0.22 0.12,-0.43 0.22,-0.63 0.78,-1.62 2.9,-2.24 4.72,-1.38 0.13,0.06 0.18,0.21 0.12,0.33 -0.06,0.12 -0.21,0.18 -0.33,0.12 -1.57,-0.74 -3.39,-0.23 -4.06,1.15 -0.08,0.17 -0.14,0.34 -0.18,0.52 -0.02,0.12 -0.13,0.2 -0.24,0.2 z"
   id="path16"
   inkscape:connector-curvature="0"
   style="fill:#472b29" /><path
   d="M 23.58,63.79 H 13.55 c -0.28,0 -0.5,-0.22 -0.5,-0.5 0,-0.28 0.22,-0.5 0.5,-0.5 h 10.03 c 0.28,0 0.5,0.22 0.5,0.5 0,0.28 -0.23,0.5 -0.5,0.5 z m 2.88,0 h -1.45 c -0.28,0 -0.5,-0.22 -0.5,-0.5 0,-0.28 0.22,-0.5 0.5,-0.5 h 1.45 c 0.28,0 0.5,0.22 0.5,0.5 0,0.28 -0.22,0.5 -0.5,0.5 z m 4.05,0 h -2.54 c -0.28,0 -0.5,-0.22 -0.5,-0.5 0,-0.28 0.22,-0.5 0.5,-0.5 h 2.54 c 0.28,0 0.5,0.22 0.5,0.5 0,0.28 -0.22,0.5 -0.5,0.5 z m 0,1.87 H 20.9 c -0.28,0 -0.5,-0.22 -0.5,-0.5 0,-0.28 0.22,-0.5 0.5,-0.5 h 9.62 c 0.28,0 0.5,0.22 0.5,0.5 0,0.28 -0.23,0.5 -0.51,0.5 z m -11.34,0 h -0.58 c -0.28,0 -0.5,-0.22 -0.5,-0.5 0,-0.28 0.22,-0.5 0.5,-0.5 h 0.58 c 0.28,0 0.5,0.22 0.5,0.5 0,0.28 -0.23,0.5 -0.5,0.5 z m -2.38,0 h -1.46 c -0.28,0 -0.5,-0.22 -0.5,-0.5 0,-0.28 0.22,-0.5 0.5,-0.5 h 1.46 c 0.28,0 0.5,0.22 0.5,0.5 0,0.28 -0.22,0.5 -0.5,0.5 z m 9.13,-3.74 H 20.9 c -0.28,0 -0.5,-0.22 -0.5,-0.5 0,-0.28 0.22,-0.5 0.5,-0.5 h 5.03 c 0.28,0 0.5,0.22 0.5,0.5 0,0.28 -0.23,0.5 -0.51,0.5 z m 0,-1.86 h -1.26 c -0.28,0 -0.5,-0.22 -0.5,-0.5 0,-0.28 0.22,-0.5 0.5,-0.5 h 1.26 c 0.28,0 0.5,0.22 0.5,0.5 0,0.28 -0.22,0.5 -0.5,0.5 z m -3.26,7.46 H 20.9 c -0.28,0 -0.5,-0.22 -0.5,-0.5 0,-0.28 0.22,-0.5 0.5,-0.5 h 1.76 c 0.28,0 0.5,0.22 0.5,0.5 0,0.27 -0.23,0.5 -0.5,0.5 z"
   id="path18"
   inkscape:connector-curvature="0"
   style="fill:#ffffff" /><g
   id="g30">
			<path
   d="m 38.54,53.18 c 1.88,0 3.52,0 3.54,0 2.11,0 3.82,-1.67 3.82,-3.74 0,-1.8 -1.3,-3.31 -3.04,-3.66 0.02,-0.16 0.03,-0.32 0.03,-0.48 0,-2.14 -1.77,-3.87 -3.96,-3.87 -1.29,0 -2.43,0.61 -3.15,1.54 -0.19,-2.38 -2.36,-4.22 -4.9,-3.91 -1.86,0.22 -3.4,1.63 -3.74,3.43 -0.11,0.58 -0.1,1.14 0.01,1.66 -0.5,-0.52 -1.21,-0.86 -2,-0.86 -1.45,0 -2.63,1.1 -2.72,2.49 -0.66,-0.14 -1.37,-0.13 -2.12,0.14 -1.44,0.53 -2.46,1.85 -2.52,3.36 -0.08,2.13 1.66,3.89 3.82,3.89 0.16,0 0.74,0 0.87,0 h 7.93 m 1.65,0.01 h 0.36"
   id="path20"
   inkscape:connector-curvature="0"
   style="fill:#fdfcef" />
			<path
   d="m 42.08,53.68 h -3.54 c -0.28,0 -0.5,-0.22 -0.5,-0.5 0,-0.28 0.22,-0.5 0.5,-0.5 h 3.54 c 1.83,0 3.32,-1.45 3.32,-3.24 0,-1.52 -1.11,-2.86 -2.63,-3.17 -0.26,-0.05 -0.43,-0.29 -0.4,-0.55 0.02,-0.14 0.03,-0.28 0.03,-0.42 0,-1.86 -1.55,-3.37 -3.46,-3.37 -1.09,0 -2.1,0.49 -2.76,1.35 -0.13,0.16 -0.34,0.23 -0.54,0.17 -0.2,-0.06 -0.34,-0.23 -0.35,-0.44 -0.08,-1.02 -0.56,-1.94 -1.37,-2.6 -0.83,-0.68 -1.88,-0.98 -2.97,-0.85 -1.65,0.2 -3.01,1.44 -3.31,3.03 -0.09,0.49 -0.09,0.99 0.01,1.47 0.04,0.22 -0.06,0.44 -0.26,0.54 -0.2,0.1 -0.44,0.06 -0.6,-0.1 -0.43,-0.45 -1.01,-0.7 -1.64,-0.7 -1.17,0 -2.15,0.89 -2.22,2.03 -0.01,0.14 -0.08,0.28 -0.2,0.37 -0.12,0.09 -0.26,0.12 -0.41,0.09 -0.64,-0.14 -1.24,-0.1 -1.85,0.12 -1.26,0.46 -2.14,1.63 -2.19,2.91 -0.04,0.88 0.28,1.71 0.9,2.35 0.63,0.66 1.5,1.02 2.42,1.02 h 8.81 c 0.28,0 0.5,0.22 0.5,0.5 0,0.28 -0.22,0.5 -0.5,0.5 H 21.6 c -1.19,0 -2.33,-0.48 -3.15,-1.33 -0.8,-0.83 -1.22,-1.93 -1.17,-3.08 0.07,-1.67 1.21,-3.2 2.85,-3.81 0.61,-0.22 1.24,-0.3 1.88,-0.25 0.34,-1.4 1.63,-2.42 3.14,-2.42 0.49,0 0.98,0.11 1.41,0.32 0.01,-0.24 0.04,-0.48 0.08,-0.73 0.38,-2.01 2.1,-3.59 4.17,-3.83 1.36,-0.16 2.68,0.22 3.73,1.07 0.75,0.61 1.28,1.41 1.55,2.3 0.79,-0.65 1.79,-1.01 2.84,-1.01 2.46,0 4.46,1.96 4.46,4.37 0,0.03 0,0.07 0,0.1 1.76,0.56 3,2.19 3,4.04 0.01,2.35 -1.93,4.25 -4.31,4.25 z m -9.66,0 h -0.36 c -0.28,0 -0.5,-0.22 -0.5,-0.5 0,-0.28 0.22,-0.5 0.5,-0.5 h 0.36 c 0.28,0 0.5,0.22 0.5,0.5 0,0.28 -0.22,0.5 -0.5,0.5 z"
   id="path22"
   inkscape:connector-curvature="0"
   style="fill:#472b29" />
			<path
   d="m 40.37,47.88 c -0.02,0 -0.04,0 -0.06,-0.01 -0.13,-0.03 -0.22,-0.17 -0.19,-0.3 0.04,-0.17 0.1,-0.33 0.17,-0.48 0.6,-1.22 2.27,-1.67 3.72,-1.01 0.13,0.06 0.18,0.21 0.12,0.33 -0.06,0.13 -0.21,0.18 -0.33,0.12 -1.2,-0.56 -2.58,-0.21 -3.06,0.77 -0.06,0.12 -0.1,0.24 -0.13,0.37 -0.02,0.13 -0.13,0.21 -0.24,0.21 z"
   id="path24"
   inkscape:connector-curvature="0"
   style="fill:#472b29" />
			<g
   id="g28">
				<path
   d="M 35.21,53.68 H 34.1 c -0.28,0 -0.5,-0.22 -0.5,-0.5 0,-0.28 0.22,-0.5 0.5,-0.5 h 1.11 c 0.28,0 0.5,0.22 0.5,0.5 0,0.28 -0.22,0.5 -0.5,0.5 z"
   id="path26"
   inkscape:connector-curvature="0"
   style="fill:#472b29" />
			</g>
		</g><g
   id="g36">
			<path
   d="M 69.55,21.64 H 59.52 c -0.28,0 -0.5,-0.22 -0.5,-0.5 0,-0.28 0.22,-0.5 0.5,-0.5 h 10.03 c 0.28,0 0.5,0.22 0.5,0.5 0,0.28 -0.23,0.5 -0.5,0.5 z m 2.88,0 h -1.45 c -0.28,0 -0.5,-0.22 -0.5,-0.5 0,-0.28 0.22,-0.5 0.5,-0.5 h 1.45 c 0.28,0 0.5,0.22 0.5,0.5 0,0.28 -0.23,0.5 -0.5,0.5 z m 4.05,0 h -2.55 c -0.28,0 -0.5,-0.22 -0.5,-0.5 0,-0.28 0.22,-0.5 0.5,-0.5 h 2.55 c 0.28,0 0.5,0.22 0.5,0.5 0,0.28 -0.22,0.5 -0.5,0.5 z m -2.02,-3.73 h -9.62 c -0.28,0 -0.5,-0.22 -0.5,-0.5 0,-0.28 0.22,-0.5 0.5,-0.5 h 9.62 c 0.28,0 0.5,0.22 0.5,0.5 0,0.28 -0.23,0.5 -0.5,0.5 z m -11.35,0 h -0.58 c -0.28,0 -0.5,-0.22 -0.5,-0.5 0,-0.28 0.22,-0.5 0.5,-0.5 h 0.58 c 0.28,0 0.5,0.22 0.5,0.5 0,0.28 -0.23,0.5 -0.5,0.5 z m -2.38,0 h -1.46 c -0.28,0 -0.5,-0.22 -0.5,-0.5 0,-0.28 0.22,-0.5 0.5,-0.5 h 1.46 c 0.28,0 0.5,0.22 0.5,0.5 0,0.28 -0.22,0.5 -0.5,0.5 z m 11.16,1.87 h -5.03 c -0.28,0 -0.5,-0.22 -0.5,-0.5 0,-0.28 0.22,-0.5 0.5,-0.5 h 5.03 c 0.28,0 0.5,0.22 0.5,0.5 0,0.27 -0.22,0.5 -0.5,0.5 z"
   id="path32"
   inkscape:connector-curvature="0"
   style="fill:#ffffff" />
			<path
   d="m 71.89,17.91 h -1.26 c -0.28,0 -0.5,-0.22 -0.5,-0.5 0,-0.28 0.22,-0.5 0.5,-0.5 h 1.26 c 0.28,0 0.5,0.22 0.5,0.5 0,0.28 -0.22,0.5 -0.5,0.5 z m -6.48,1.87 h -1.76 c -0.28,0 -0.5,-0.22 -0.5,-0.5 0,-0.28 0.22,-0.5 0.5,-0.5 h 1.76 c 0.28,0 0.5,0.22 0.5,0.5 0,0.27 -0.22,0.5 -0.5,0.5 z"
   id="path34"
   inkscape:connector-curvature="0"
   style="fill:#ffffff" />
		</g><g
   id="g56">
			<path
   d="m 39.74,27.27 h -0.79 c -3.01,0 -5.47,2.41 -5.47,5.35 v 37.7 c 0,2.94 2.46,5.35 5.47,5.35 h 27.29 c 3.01,0 5.47,-2.41 5.47,-5.35 V 39.67 C 66.77,34.85 63.95,32.09 59.02,27.27 H 47.26"
   id="path38"
   inkscape:connector-curvature="0"
   style="fill:#edf7f5" />
			<path
   d="M 66.23,76.37 H 38.94 c -3.4,0 -6.17,-2.71 -6.17,-6.05 v -37.7 c 0,-3.34 2.77,-6.05 6.17,-6.05 h 0.79 c 0.39,0 0.7,0.31 0.7,0.7 0,0.39 -0.31,0.7 -0.7,0.7 h -0.79 c -2.63,0 -4.77,2.08 -4.77,4.65 v 37.7 c 0,2.56 2.14,4.65 4.77,4.65 h 27.29 c 2.63,0 4.77,-2.09 4.77,-4.65 V 39.97 l -12.28,-12 H 47.26 c -0.39,0 -0.7,-0.31 -0.7,-0.7 0,-0.39 0.31,-0.7 0.7,-0.7 h 11.75 c 0.18,0 0.36,0.07 0.49,0.2 l 12.69,12.4 c 0.13,0.13 0.21,0.31 0.21,0.5 v 30.65 c 0,3.33 -2.77,6.05 -6.17,6.05 z"
   id="path40"
   inkscape:connector-curvature="0"
   style="fill:#472b29" />
			<path
   d="m 58.86,27.57 v 6.73 c 0,3.04 2.4,5.52 5.32,5.52 h 7.08"
   id="path42"
   inkscape:connector-curvature="0"
   style="fill:#85cfcc" />
			<path
   d="m 71.26,40.2 h -7.08 c -3.14,0 -5.7,-2.65 -5.7,-5.9 v -6.73 c 0,-0.21 0.17,-0.38 0.38,-0.38 0.21,0 0.38,0.17 0.38,0.38 v 6.73 c 0,2.84 2.22,5.15 4.95,5.15 h 7.08 c 0.21,0 0.38,0.17 0.38,0.38 0,0.21 -0.18,0.37 -0.39,0.37 z m -3,11.03 c -0.21,0 -0.38,-0.17 -0.38,-0.38 v -1.84 c 0,-0.21 0.17,-0.38 0.38,-0.38 0.21,0 0.38,0.17 0.38,0.38 v 1.84 c -0.01,0.21 -0.18,0.38 -0.38,0.38 z m 0,4.9 c -0.21,0 -0.38,-0.17 -0.38,-0.38 v -3.68 c 0,-0.21 0.17,-0.38 0.38,-0.38 0.21,0 0.38,0.17 0.38,0.38 v 3.68 c -0.01,0.21 -0.18,0.38 -0.38,0.38 z M 63.77,72.67 H 41.4 c -2.68,0 -4.86,-2.14 -4.86,-4.78 V 35.63 c 0,-1.59 0.8,-3.07 2.15,-3.96 0.17,-0.11 0.41,-0.07 0.52,0.1 0.11,0.17 0.07,0.4 -0.1,0.52 -1.14,0.75 -1.81,2 -1.81,3.34 V 67.9 c 0,2.22 1.85,4.03 4.11,4.03 h 22.37 c 2.27,0 4.11,-1.81 4.11,-4.03 V 56.98 c 0,-0.21 0.17,-0.38 0.38,-0.38 0.21,0 0.38,0.17 0.38,0.38 v 10.91 c -0.02,2.64 -2.2,4.78 -4.88,4.78 z"
   id="path44"
   inkscape:connector-curvature="0"
   style="fill:#472b29" />
			<path
   d="m 46.39,28.49 -0.06,7.08 c 0,1.35 -1.21,2.41 -2.43,2.41 -1.22,0 -2.53,-1.08 -2.53,-2.43 l 0.02,-7.49 c 0,-0.8 0.9,-1.52 1.65,-1.52 0.75,0 1.47,0.7 1.47,1.5 v 6.42 c 0,0 -0.3,0.61 -0.62,0.61 -0.32,0 -0.72,-0.22 -0.64,-0.56 V 28.48 H 42.62 L 42.6,34.4 c 0,0.84 0.46,1.22 1.3,1.22 0.84,0 1.23,-0.44 1.23,-1.28 V 28.1 c 0,-1.39 -0.85,-2.14 -2.15,-2.14 -1.3,0 -2.23,0.77 -2.23,2.16 l 0.02,7.42 c 0,1.86 1.33,3.01 3.11,3.01 1.78,0 3.13,-1.05 3.13,-2.91 V 28.5 Z m 8.08,23.35 H 40.05 c -0.21,0 -0.38,-0.17 -0.38,-0.38 0,-0.21 0.17,-0.38 0.38,-0.38 h 14.42 c 0.21,0 0.38,0.17 0.38,0.38 0,0.21 -0.18,0.38 -0.38,0.38 z m -5.64,4.29 h -8.78 c -0.21,0 -0.38,-0.17 -0.38,-0.38 0,-0.21 0.17,-0.38 0.38,-0.38 h 8.78 c 0.21,0 0.38,0.17 0.38,0.38 0,0.21 -0.18,0.38 -0.38,0.38 z m 16.29,0 H 50.08 c -0.21,0 -0.38,-0.17 -0.38,-0.38 0,-0.21 0.17,-0.38 0.38,-0.38 h 15.04 c 0.21,0 0.38,0.17 0.38,0.38 0,0.21 -0.17,0.38 -0.38,0.38 z"
   id="path46"
   inkscape:connector-curvature="0"
   style="fill:#472b29" />
			<g
   id="g50">
				<path
   d="m 59.48,60.42 h -6.89 c -0.21,0 -0.38,-0.17 -0.38,-0.38 0,-0.21 0.17,-0.38 0.38,-0.38 h 6.89 c 0.21,0 0.38,0.17 0.38,0.38 0,0.21 -0.17,0.38 -0.38,0.38 z m 6.27,0 h -5.02 c -0.21,0 -0.38,-0.17 -0.38,-0.38 0,-0.21 0.17,-0.38 0.38,-0.38 h 5.02 c 0.21,0 0.38,0.17 0.38,0.38 0,0.21 -0.17,0.38 -0.38,0.38 z m -14.42,0 H 40.05 c -0.21,0 -0.38,-0.17 -0.38,-0.38 0,-0.21 0.17,-0.38 0.38,-0.38 h 11.28 c 0.21,0 0.38,0.17 0.38,0.38 0,0.21 -0.17,0.38 -0.38,0.38 z"
   id="path48"
   inkscape:connector-curvature="0"
   style="fill:#472b29" />
			</g>
			<g
   id="g54">
				<path
   d="m 65.12,64.71 h -8.15 c -0.21,0 -0.38,-0.17 -0.38,-0.38 0,-0.21 0.17,-0.38 0.38,-0.38 h 8.15 c 0.21,0 0.38,0.17 0.38,0.38 0,0.21 -0.17,0.38 -0.38,0.38 z m -10.03,0 H 40.05 c -0.21,0 -0.38,-0.17 -0.38,-0.38 0,-0.21 0.17,-0.38 0.38,-0.38 h 15.04 c 0.21,0 0.38,0.17 0.38,0.38 0,0.21 -0.17,0.38 -0.38,0.38 z"
   id="path52"
   inkscape:connector-curvature="0"
   style="fill:#472b29" />
			</g>
		</g><g
   id="g74">
			<path
   d="m 50.1,78.33 c -0.13,0 -0.26,-0.05 -0.35,-0.15 -0.19,-0.2 -0.19,-0.51 0,-0.71 l 2.79,-2.79 c 0.19,-0.19 0.51,-0.19 0.71,0 0.19,0.2 0.19,0.51 0,0.71 l -2.79,2.79 c -0.1,0.1 -0.23,0.15 -0.36,0.15 z"
   id="path58"
   inkscape:connector-curvature="0"
   style="fill:#472b29" />
			<path
   d="M 38.23,89.83 38.1,89.7 c -1.06,-1.06 -1.06,-2.79 0,-3.85 l 8.09,-8.09 c 1.06,-1.06 2.79,-1.06 3.85,0 l 0.13,0.13 c 1.06,1.06 1.06,2.79 0,3.85 l -8.09,8.09 c -1.06,1.06 -2.79,1.06 -3.85,0 z"
   id="path60"
   inkscape:connector-curvature="0"
   style="fill:#88ae45" />
			<path
   d="m 40.16,91.12 c -0.86,0 -1.67,-0.33 -2.28,-0.94 v 0 l -0.13,-0.13 c -0.61,-0.61 -0.94,-1.42 -0.94,-2.28 0,-0.86 0.33,-1.67 0.94,-2.28 l 8.09,-8.09 c 1.26,-1.26 3.3,-1.26 4.56,0 l 0.13,0.13 c 0.61,0.61 0.94,1.42 0.94,2.28 0,0.86 -0.33,1.67 -0.94,2.28 l -8.09,8.09 c -0.61,0.61 -1.42,0.94 -2.28,0.94 z m -1.57,-1.64 c 0.87,0.86 2.27,0.87 3.14,0 l 8.09,-8.09 c 0.87,-0.87 0.87,-2.28 0,-3.14 l -0.13,-0.13 c -0.87,-0.87 -2.27,-0.87 -3.14,0 l -8.09,8.09 c -0.87,0.87 -0.87,2.28 0,3.14 z"
   id="path62"
   inkscape:connector-curvature="0"
   style="fill:#472b29" />
			<path
   d="m 49.81,78.11 c -0.92,-0.92 -2.37,-0.98 -3.22,-0.13 l -0.15,0.15 0.34,0.34 3.02,3.02 0.15,-0.15 c 0.84,-0.85 0.78,-2.3 -0.14,-3.23 z"
   id="path64"
   inkscape:connector-curvature="0"
   style="fill:#d1dc82" />
			<path
   d="m 49.79,82.27 c -0.1,0 -0.19,-0.04 -0.27,-0.11 l -3.58,-3.58 c -0.15,-0.15 -0.15,-0.38 0,-0.53 0.15,-0.15 0.38,-0.15 0.53,0 l 3.58,3.58 c 0.15,0.15 0.15,0.38 0,0.53 -0.06,0.07 -0.16,0.11 -0.26,0.11 z"
   id="path66"
   inkscape:connector-curvature="0"
   style="fill:#472b29" />
			<path
   enable-background="new    "
   d="m 54.7,59.3 c -3.85,3.85 -3.85,10.08 0,13.93 3.85,3.85 10.08,3.85 13.93,0 3.85,-3.85 3.85,-10.08 0,-13.93 -3.85,-3.85 -10.08,-3.84 -13.93,0 z"
   id="path68"
   inkscape:connector-curvature="0"
   style="opacity:0.73999999;fill:#77cbd2" />
			<path
   d="m 70.39,57.54 c -4.83,-4.83 -12.67,-4.83 -17.51,0 -4.83,4.83 -4.83,12.67 0,17.51 4.83,4.83 12.67,4.83 17.51,0 4.84,-4.83 4.84,-12.68 0,-17.51 z M 68.6,73.25 c -3.84,3.85 -10.08,3.85 -13.92,0 -3.85,-3.84 -3.85,-10.08 0,-13.92 3.84,-3.84 10.08,-3.84 13.92,0 3.85,3.84 3.85,10.08 0,13.92 z"
   id="path70"
   inkscape:connector-curvature="0"
   style="fill:#fdfcef" />
			<path
   d="m 61.64,79.16 c -3.3,0 -6.6,-1.25 -9.11,-3.77 -2.43,-2.43 -3.77,-5.67 -3.77,-9.11 0,-3.44 1.34,-6.67 3.77,-9.11 5.02,-5.02 13.19,-5.02 18.21,0 v 0 c 5.02,5.02 5.02,13.19 0,18.21 -2.5,2.53 -5.8,3.78 -9.1,3.78 z m 0,-24.74 c -3.04,0 -6.08,1.16 -8.4,3.47 -2.24,2.24 -3.48,5.23 -3.48,8.4 0,3.17 1.24,6.16 3.48,8.4 4.63,4.63 12.17,4.63 16.8,0 4.63,-4.63 4.63,-12.17 0,-16.8 v 0 c -2.32,-2.31 -5.36,-3.47 -8.4,-3.47 z m 0,22.21 c -2.65,0 -5.3,-1.01 -7.32,-3.03 -4.03,-4.03 -4.03,-10.6 0,-14.63 4.03,-4.04 10.6,-4.04 14.63,0 4.03,4.03 4.03,10.6 0,14.63 -2.01,2.02 -4.66,3.03 -7.31,3.03 z m 0,-19.68 c -2.39,0 -4.79,0.91 -6.61,2.73 -3.64,3.65 -3.64,9.57 0,13.22 3.64,3.64 9.57,3.64 13.22,0 3.64,-3.64 3.64,-9.57 0,-13.22 -1.82,-1.82 -4.22,-2.73 -6.61,-2.73 z m -22.1,33.72 c -0.05,0 -0.1,-0.03 -0.12,-0.09 L 38.04,86.3 c -0.02,-0.07 0.02,-0.14 0.08,-0.16 0.06,-0.02 0.14,0.02 0.16,0.08 l 1.38,4.28 c 0.02,0.07 -0.01,0.14 -0.08,0.16 -0.02,0.01 -0.03,0.01 -0.04,0.01 z m 0.87,-0.29 c -0.05,0 -0.1,-0.04 -0.12,-0.09 l -1.56,-5.24 c -0.02,-0.07 0.02,-0.14 0.08,-0.16 0.07,-0.02 0.14,0.02 0.15,0.08 l 1.56,5.24 c 0.02,0.07 -0.02,0.14 -0.08,0.16 -0.01,0 -0.02,0.01 -0.03,0.01 z m 0.52,-1.85 c -0.05,0 -0.1,-0.04 -0.12,-0.09 L 39.5,84.05 c -0.02,-0.07 0.02,-0.14 0.08,-0.15 0.07,-0.02 0.14,0.02 0.16,0.08 l 1.31,4.39 c 0.02,0.07 -0.02,0.14 -0.08,0.15 -0.01,0.01 -0.03,0.01 -0.04,0.01 z m 0.53,-1.92 c -0.05,0 -0.1,-0.03 -0.12,-0.09 l -0.92,-3.09 c -0.02,-0.07 0.02,-0.14 0.08,-0.16 0.07,-0.02 0.14,0.02 0.16,0.08 l 0.92,3.09 c 0.02,0.07 -0.02,0.14 -0.08,0.16 -0.01,0.01 -0.02,0.01 -0.04,0.01 z"
   id="path72"
   inkscape:connector-curvature="0"
   style="fill:#472b29" />
		</g>
</svg>